M48
; DRILL file {KiCad (5.1.10)-1} date 07/06/21 11:56:51
; FORMAT={-:-/ absolute / inch / decimal}
; #@! TF.CreationDate,2021-07-06T11:56:51+05:30
; #@! TF.GenerationSoftware,Kicad,Pcbnew,(5.1.10)-1
FMAT,2
INCH
T1C0.0157
T2C0.0374
T3C0.0394
T4C0.0472
%
G90
G05
T1
X0.375Y0.75
X0.425Y0.75
X0.475Y0.75
X0.575Y1.9
X0.625Y1.9
X0.675Y1.9
X0.825Y0.9
X0.825Y0.0
X0.875Y0.9
X0.875Y0.0
X0.925Y0.975
X0.925Y0.925
X0.925Y0.0
X1.0Y0.6
X1.375Y0.9
X1.425Y0.9
X1.475Y0.975
X1.475Y0.925
X1.75Y0.725
X1.75Y0.675
X1.75Y0.625
X1.75Y0.575
X1.75Y0.525
X2.06Y0.89
X2.095Y1.905
X2.095Y1.18
X2.11Y0.89
X2.145Y1.905
X2.145Y1.18
X2.1775Y0.7975
X2.195Y1.905
X2.195Y1.18
X2.425Y1.0
X2.425Y0.95
X2.425Y0.9
T2
X0.5Y1.5169
X0.5Y1.4184
X0.5Y1.32
X0.5Y1.2216
X0.5Y1.1231
X0.9547Y1.4
X1.0531Y1.4
X1.1516Y1.4
X1.25Y1.4
X1.5047Y1.4
X1.6031Y1.4
X1.7016Y1.4
X1.8Y1.4
T3
X0.128Y1.9197
X0.128Y1.8197
X0.128Y1.7197
X0.128Y1.6197
X0.128Y1.5197
X0.128Y1.4197
X0.128Y1.3197
X0.128Y1.2197
X0.128Y1.1197
X0.128Y1.0197
X0.128Y0.9197
X0.128Y0.8197
X0.128Y0.7197
X0.128Y0.6197
X0.128Y0.5197
X0.128Y0.4197
X0.128Y0.3197
X0.128Y0.2197
X0.128Y0.1197
X0.228Y1.9197
X0.228Y1.8197
X0.228Y1.7197
X0.228Y1.6197
X0.228Y1.5197
X0.228Y1.4197
X0.228Y1.3197
X0.228Y1.2197
X0.228Y1.1197
X0.228Y1.0197
X0.228Y0.9197
X0.228Y0.8197
X0.228Y0.7197
X0.228Y0.6197
X0.228Y0.5197
X0.228Y0.4197
X0.228Y0.3197
X0.228Y0.2197
X0.228Y0.1197
X0.6472Y0.65
X0.6472Y0.55
X0.6472Y0.45
X0.6472Y0.35
X0.6472Y0.25
X0.6472Y0.15
X1.4528Y0.65
X1.4528Y0.55
X1.4528Y0.45
X1.4528Y0.35
X1.4528Y0.25
X1.4528Y0.15
X2.2Y1.71
X2.3Y1.71
X2.3Y0.4084
X2.3Y0.31
X2.528Y1.9197
X2.528Y1.8197
X2.528Y1.7197
X2.528Y1.6197
X2.528Y1.5197
X2.528Y1.4197
X2.528Y1.3197
X2.528Y1.2197
X2.528Y1.1197
X2.528Y1.0197
X2.528Y0.9197
X2.528Y0.8197
X2.528Y0.7197
X2.528Y0.6197
X2.528Y0.5197
X2.528Y0.4197
X2.528Y0.3197
X2.528Y0.2197
X2.528Y0.1197
X2.628Y1.9197
X2.628Y1.8197
X2.628Y1.7197
X2.628Y1.6197
X2.628Y1.5197
X2.628Y1.4197
X2.628Y1.3197
X2.628Y1.2197
X2.628Y1.1197
X2.628Y1.0197
X2.628Y0.9197
X2.628Y0.8197
X2.628Y0.7197
X2.628Y0.6197
X2.628Y0.5197
X2.628Y0.4197
X2.628Y0.3197
X2.628Y0.2197
X2.628Y0.1197
T4
X0.4213Y1.5798
X2.2213Y0.4714
T0
M30
