G04 #@! TF.GenerationSoftware,KiCad,Pcbnew,(5.1.10)-1*
G04 #@! TF.CreationDate,2021-07-06T11:56:46+05:30*
G04 #@! TF.ProjectId,STM_Morpho,53544d5f-4d6f-4727-9068-6f2e6b696361,rev?*
G04 #@! TF.SameCoordinates,PX7bfa480PY7270e00*
G04 #@! TF.FileFunction,Copper,L1,Top*
G04 #@! TF.FilePolarity,Positive*
%FSLAX46Y46*%
G04 Gerber Fmt 4.6, Leading zero omitted, Abs format (unit mm)*
G04 Created by KiCad (PCBNEW (5.1.10)-1) date 2021-07-06 11:56:46*
%MOMM*%
%LPD*%
G01*
G04 APERTURE LIST*
G04 #@! TA.AperFunction,ComponentPad*
%ADD10O,1.700000X1.950000*%
G04 #@! TD*
G04 #@! TA.AperFunction,ComponentPad*
%ADD11O,1.700000X1.700000*%
G04 #@! TD*
G04 #@! TA.AperFunction,ComponentPad*
%ADD12R,1.700000X1.700000*%
G04 #@! TD*
G04 #@! TA.AperFunction,ComponentPad*
%ADD13O,2.000000X1.500000*%
G04 #@! TD*
G04 #@! TA.AperFunction,ComponentPad*
%ADD14O,1.950000X1.700000*%
G04 #@! TD*
G04 #@! TA.AperFunction,SMDPad,CuDef*
%ADD15R,5.800000X6.400000*%
G04 #@! TD*
G04 #@! TA.AperFunction,SMDPad,CuDef*
%ADD16R,1.200000X2.200000*%
G04 #@! TD*
G04 #@! TA.AperFunction,ComponentPad*
%ADD17O,2.000000X1.700000*%
G04 #@! TD*
G04 #@! TA.AperFunction,SMDPad,CuDef*
%ADD18R,1.525000X0.650000*%
G04 #@! TD*
G04 #@! TA.AperFunction,ViaPad*
%ADD19C,0.600000*%
G04 #@! TD*
G04 #@! TA.AperFunction,Conductor*
%ADD20C,0.250000*%
G04 #@! TD*
G04 #@! TA.AperFunction,Conductor*
%ADD21C,0.254000*%
G04 #@! TD*
G04 #@! TA.AperFunction,Conductor*
%ADD22C,0.100000*%
G04 #@! TD*
G04 APERTURE END LIST*
D10*
G04 #@! TO.P,RS485A2,4*
G04 #@! TO.N,GND*
X24250000Y35560000D03*
G04 #@! TO.P,RS485A2,3*
G04 #@! TO.N,Net-(IC2-Pad6)*
X26750000Y35560000D03*
G04 #@! TO.P,RS485A2,2*
G04 #@! TO.N,Net-(IC2-Pad7)*
X29250000Y35560000D03*
G04 #@! TO.P,RS485A2,1*
G04 #@! TO.N,N/C*
G04 #@! TA.AperFunction,ComponentPad*
G36*
G01*
X32600000Y36285000D02*
X32600000Y34835000D01*
G75*
G02*
X32350000Y34585000I-250000J0D01*
G01*
X31150000Y34585000D01*
G75*
G02*
X30900000Y34835000I0J250000D01*
G01*
X30900000Y36285000D01*
G75*
G02*
X31150000Y36535000I250000J0D01*
G01*
X32350000Y36535000D01*
G75*
G02*
X32600000Y36285000I0J-250000D01*
G01*
G37*
G04 #@! TD.AperFunction*
G04 #@! TD*
G04 #@! TO.P,R5,2*
G04 #@! TO.N,GND*
G04 #@! TA.AperFunction,SMDPad,CuDef*
G36*
G01*
X59344000Y819999D02*
X59344000Y1720001D01*
G75*
G02*
X59593999Y1970000I249999J0D01*
G01*
X60294001Y1970000D01*
G75*
G02*
X60544000Y1720001I0J-249999D01*
G01*
X60544000Y819999D01*
G75*
G02*
X60294001Y570000I-249999J0D01*
G01*
X59593999Y570000D01*
G75*
G02*
X59344000Y819999I0J249999D01*
G01*
G37*
G04 #@! TD.AperFunction*
G04 #@! TO.P,R5,1*
G04 #@! TO.N,Net-(D5-Pad1)*
G04 #@! TA.AperFunction,SMDPad,CuDef*
G36*
G01*
X57344000Y819999D02*
X57344000Y1720001D01*
G75*
G02*
X57593999Y1970000I249999J0D01*
G01*
X58294001Y1970000D01*
G75*
G02*
X58544000Y1720001I0J-249999D01*
G01*
X58544000Y819999D01*
G75*
G02*
X58294001Y570000I-249999J0D01*
G01*
X57593999Y570000D01*
G75*
G02*
X57344000Y819999I0J249999D01*
G01*
G37*
G04 #@! TD.AperFunction*
G04 #@! TD*
G04 #@! TO.P,R4,2*
G04 #@! TO.N,GND*
G04 #@! TA.AperFunction,SMDPad,CuDef*
G36*
G01*
X55429999Y24508000D02*
X56330001Y24508000D01*
G75*
G02*
X56580000Y24258001I0J-249999D01*
G01*
X56580000Y23557999D01*
G75*
G02*
X56330001Y23308000I-249999J0D01*
G01*
X55429999Y23308000D01*
G75*
G02*
X55180000Y23557999I0J249999D01*
G01*
X55180000Y24258001D01*
G75*
G02*
X55429999Y24508000I249999J0D01*
G01*
G37*
G04 #@! TD.AperFunction*
G04 #@! TO.P,R4,1*
G04 #@! TO.N,Net-(D4-Pad1)*
G04 #@! TA.AperFunction,SMDPad,CuDef*
G36*
G01*
X55429999Y26508000D02*
X56330001Y26508000D01*
G75*
G02*
X56580000Y26258001I0J-249999D01*
G01*
X56580000Y25557999D01*
G75*
G02*
X56330001Y25308000I-249999J0D01*
G01*
X55429999Y25308000D01*
G75*
G02*
X55180000Y25557999I0J249999D01*
G01*
X55180000Y26258001D01*
G75*
G02*
X55429999Y26508000I249999J0D01*
G01*
G37*
G04 #@! TD.AperFunction*
G04 #@! TD*
G04 #@! TO.P,R3,2*
G04 #@! TO.N,GND*
G04 #@! TA.AperFunction,SMDPad,CuDef*
G36*
G01*
X50857999Y24508000D02*
X51758001Y24508000D01*
G75*
G02*
X52008000Y24258001I0J-249999D01*
G01*
X52008000Y23557999D01*
G75*
G02*
X51758001Y23308000I-249999J0D01*
G01*
X50857999Y23308000D01*
G75*
G02*
X50608000Y23557999I0J249999D01*
G01*
X50608000Y24258001D01*
G75*
G02*
X50857999Y24508000I249999J0D01*
G01*
G37*
G04 #@! TD.AperFunction*
G04 #@! TO.P,R3,1*
G04 #@! TO.N,Net-(D3-Pad1)*
G04 #@! TA.AperFunction,SMDPad,CuDef*
G36*
G01*
X50857999Y26508000D02*
X51758001Y26508000D01*
G75*
G02*
X52008000Y26258001I0J-249999D01*
G01*
X52008000Y25557999D01*
G75*
G02*
X51758001Y25308000I-249999J0D01*
G01*
X50857999Y25308000D01*
G75*
G02*
X50608000Y25557999I0J249999D01*
G01*
X50608000Y26258001D01*
G75*
G02*
X50857999Y26508000I249999J0D01*
G01*
G37*
G04 #@! TD.AperFunction*
G04 #@! TD*
G04 #@! TO.P,R2,2*
G04 #@! TO.N,Net-(IC2-Pad6)*
G04 #@! TA.AperFunction,SMDPad,CuDef*
G36*
G01*
X26905000Y30930001D02*
X26905000Y30029999D01*
G75*
G02*
X26655001Y29780000I-249999J0D01*
G01*
X25954999Y29780000D01*
G75*
G02*
X25705000Y30029999I0J249999D01*
G01*
X25705000Y30930001D01*
G75*
G02*
X25954999Y31180000I249999J0D01*
G01*
X26655001Y31180000D01*
G75*
G02*
X26905000Y30930001I0J-249999D01*
G01*
G37*
G04 #@! TD.AperFunction*
G04 #@! TO.P,R2,1*
G04 #@! TO.N,Net-(IC2-Pad7)*
G04 #@! TA.AperFunction,SMDPad,CuDef*
G36*
G01*
X28905000Y30930001D02*
X28905000Y30029999D01*
G75*
G02*
X28655001Y29780000I-249999J0D01*
G01*
X27954999Y29780000D01*
G75*
G02*
X27705000Y30029999I0J249999D01*
G01*
X27705000Y30930001D01*
G75*
G02*
X27954999Y31180000I249999J0D01*
G01*
X28655001Y31180000D01*
G75*
G02*
X28905000Y30930001I0J-249999D01*
G01*
G37*
G04 #@! TD.AperFunction*
G04 #@! TD*
G04 #@! TO.P,D5,2*
G04 #@! TO.N,V_IN*
G04 #@! TA.AperFunction,SMDPad,CuDef*
G36*
G01*
X59369000Y3105999D02*
X59369000Y4006001D01*
G75*
G02*
X59618999Y4256000I249999J0D01*
G01*
X60269001Y4256000D01*
G75*
G02*
X60519000Y4006001I0J-249999D01*
G01*
X60519000Y3105999D01*
G75*
G02*
X60269001Y2856000I-249999J0D01*
G01*
X59618999Y2856000D01*
G75*
G02*
X59369000Y3105999I0J249999D01*
G01*
G37*
G04 #@! TD.AperFunction*
G04 #@! TO.P,D5,1*
G04 #@! TO.N,Net-(D5-Pad1)*
G04 #@! TA.AperFunction,SMDPad,CuDef*
G36*
G01*
X57319000Y3105999D02*
X57319000Y4006001D01*
G75*
G02*
X57568999Y4256000I249999J0D01*
G01*
X58219001Y4256000D01*
G75*
G02*
X58469000Y4006001I0J-249999D01*
G01*
X58469000Y3105999D01*
G75*
G02*
X58219001Y2856000I-249999J0D01*
G01*
X57568999Y2856000D01*
G75*
G02*
X57319000Y3105999I0J249999D01*
G01*
G37*
G04 #@! TD.AperFunction*
G04 #@! TD*
G04 #@! TO.P,D4,2*
G04 #@! TO.N,UART3_DE*
G04 #@! TA.AperFunction,SMDPad,CuDef*
G36*
G01*
X53143999Y24433000D02*
X54044001Y24433000D01*
G75*
G02*
X54294000Y24183001I0J-249999D01*
G01*
X54294000Y23532999D01*
G75*
G02*
X54044001Y23283000I-249999J0D01*
G01*
X53143999Y23283000D01*
G75*
G02*
X52894000Y23532999I0J249999D01*
G01*
X52894000Y24183001D01*
G75*
G02*
X53143999Y24433000I249999J0D01*
G01*
G37*
G04 #@! TD.AperFunction*
G04 #@! TO.P,D4,1*
G04 #@! TO.N,Net-(D4-Pad1)*
G04 #@! TA.AperFunction,SMDPad,CuDef*
G36*
G01*
X53143999Y26483000D02*
X54044001Y26483000D01*
G75*
G02*
X54294000Y26233001I0J-249999D01*
G01*
X54294000Y25582999D01*
G75*
G02*
X54044001Y25333000I-249999J0D01*
G01*
X53143999Y25333000D01*
G75*
G02*
X52894000Y25582999I0J249999D01*
G01*
X52894000Y26233001D01*
G75*
G02*
X53143999Y26483000I249999J0D01*
G01*
G37*
G04 #@! TD.AperFunction*
G04 #@! TD*
G04 #@! TO.P,D3,2*
G04 #@! TO.N,UART1_DE*
G04 #@! TA.AperFunction,SMDPad,CuDef*
G36*
G01*
X48571999Y24433000D02*
X49472001Y24433000D01*
G75*
G02*
X49722000Y24183001I0J-249999D01*
G01*
X49722000Y23532999D01*
G75*
G02*
X49472001Y23283000I-249999J0D01*
G01*
X48571999Y23283000D01*
G75*
G02*
X48322000Y23532999I0J249999D01*
G01*
X48322000Y24183001D01*
G75*
G02*
X48571999Y24433000I249999J0D01*
G01*
G37*
G04 #@! TD.AperFunction*
G04 #@! TO.P,D3,1*
G04 #@! TO.N,Net-(D3-Pad1)*
G04 #@! TA.AperFunction,SMDPad,CuDef*
G36*
G01*
X48571999Y26483000D02*
X49472001Y26483000D01*
G75*
G02*
X49722000Y26233001I0J-249999D01*
G01*
X49722000Y25582999D01*
G75*
G02*
X49472001Y25333000I-249999J0D01*
G01*
X48571999Y25333000D01*
G75*
G02*
X48322000Y25582999I0J249999D01*
G01*
X48322000Y26233001D01*
G75*
G02*
X48571999Y26483000I249999J0D01*
G01*
G37*
G04 #@! TD.AperFunction*
G04 #@! TD*
G04 #@! TO.P,C2,2*
G04 #@! TO.N,GND*
G04 #@! TA.AperFunction,SMDPad,CuDef*
G36*
G01*
X21811000Y26104000D02*
X20861000Y26104000D01*
G75*
G02*
X20611000Y26354000I0J250000D01*
G01*
X20611000Y27029000D01*
G75*
G02*
X20861000Y27279000I250000J0D01*
G01*
X21811000Y27279000D01*
G75*
G02*
X22061000Y27029000I0J-250000D01*
G01*
X22061000Y26354000D01*
G75*
G02*
X21811000Y26104000I-250000J0D01*
G01*
G37*
G04 #@! TD.AperFunction*
G04 #@! TO.P,C2,1*
G04 #@! TO.N,+3V3*
G04 #@! TA.AperFunction,SMDPad,CuDef*
G36*
G01*
X21811000Y24029000D02*
X20861000Y24029000D01*
G75*
G02*
X20611000Y24279000I0J250000D01*
G01*
X20611000Y24954000D01*
G75*
G02*
X20861000Y25204000I250000J0D01*
G01*
X21811000Y25204000D01*
G75*
G02*
X22061000Y24954000I0J-250000D01*
G01*
X22061000Y24279000D01*
G75*
G02*
X21811000Y24029000I-250000J0D01*
G01*
G37*
G04 #@! TD.AperFunction*
G04 #@! TD*
D11*
G04 #@! TO.P,J3,2*
G04 #@! TO.N,V_IN*
X58420000Y43434000D03*
D12*
G04 #@! TO.P,J3,1*
G04 #@! TO.N,E5V*
X55880000Y43434000D03*
G04 #@! TD*
D13*
G04 #@! TO.P,J1,6*
G04 #@! TO.N,INT*
X36900000Y16510000D03*
G04 #@! TO.P,J1,7*
G04 #@! TO.N,SPI_MISO*
X16440000Y16510000D03*
G04 #@! TO.P,J1,5*
G04 #@! TO.N,SPI_CS*
X36900000Y13970000D03*
G04 #@! TO.P,J1,8*
G04 #@! TO.N,RST*
X16440000Y13970000D03*
G04 #@! TO.P,J1,4*
G04 #@! TO.N,SPI_SCLK*
X36900000Y11430000D03*
G04 #@! TO.P,J1,9*
G04 #@! TO.N,N/C*
X16440000Y11430000D03*
G04 #@! TO.P,J1,3*
G04 #@! TO.N,SPI_MOSI*
X36900000Y8890000D03*
G04 #@! TO.P,J1,10*
G04 #@! TO.N,+3V3*
X16440000Y8890000D03*
G04 #@! TO.P,J1,2*
G04 #@! TO.N,GND*
X36900000Y6350000D03*
G04 #@! TO.P,J1,11*
G04 #@! TO.N,+3V3*
X16440000Y6350000D03*
G04 #@! TO.P,J1,1*
G04 #@! TO.N,GND*
X36900000Y3810000D03*
G04 #@! TO.P,J1,12*
X16440000Y3810000D03*
G04 #@! TD*
D14*
G04 #@! TO.P,SPI1,5*
G04 #@! TO.N,GND*
X12700000Y28528000D03*
G04 #@! TO.P,SPI1,4*
G04 #@! TO.N,SPI_CS*
X12700000Y31028000D03*
G04 #@! TO.P,SPI1,3*
G04 #@! TO.N,SPI_SCLK*
X12700000Y33528000D03*
G04 #@! TO.P,SPI1,2*
G04 #@! TO.N,SPI_MISO*
X12700000Y36028000D03*
G04 #@! TO.P,SPI1,1*
G04 #@! TO.N,SPI_MOSI*
G04 #@! TA.AperFunction,ComponentPad*
G36*
G01*
X11975000Y39378000D02*
X13425000Y39378000D01*
G75*
G02*
X13675000Y39128000I0J-250000D01*
G01*
X13675000Y37928000D01*
G75*
G02*
X13425000Y37678000I-250000J0D01*
G01*
X11975000Y37678000D01*
G75*
G02*
X11725000Y37928000I0J250000D01*
G01*
X11725000Y39128000D01*
G75*
G02*
X11975000Y39378000I250000J0D01*
G01*
G37*
G04 #@! TD.AperFunction*
G04 #@! TD*
D15*
G04 #@! TO.P,U1,2*
G04 #@! TO.N,GND*
X49530000Y8060000D03*
D16*
G04 #@! TO.P,U1,3*
G04 #@! TO.N,+3V3*
X47250000Y14360000D03*
G04 #@! TO.P,U1,2*
G04 #@! TO.N,GND*
X49530000Y14360000D03*
G04 #@! TO.P,U1,1*
G04 #@! TO.N,V_IN*
X51810000Y14360000D03*
G04 #@! TD*
D17*
G04 #@! TO.P,J2,2*
G04 #@! TO.N,GND*
X58420000Y7874000D03*
G04 #@! TO.P,J2,1*
G04 #@! TO.N,V_IN*
G04 #@! TA.AperFunction,ComponentPad*
G36*
G01*
X57670000Y11224000D02*
X59170000Y11224000D01*
G75*
G02*
X59420000Y10974000I0J-250000D01*
G01*
X59420000Y9774000D01*
G75*
G02*
X59170000Y9524000I-250000J0D01*
G01*
X57670000Y9524000D01*
G75*
G02*
X57420000Y9774000I0J250000D01*
G01*
X57420000Y10974000D01*
G75*
G02*
X57670000Y11224000I250000J0D01*
G01*
G37*
G04 #@! TD.AperFunction*
G04 #@! TD*
G04 #@! TO.P,C4,2*
G04 #@! TO.N,GND*
G04 #@! TA.AperFunction,SMDPad,CuDef*
G36*
G01*
X47440000Y17940000D02*
X47440000Y18890000D01*
G75*
G02*
X47690000Y19140000I250000J0D01*
G01*
X48365000Y19140000D01*
G75*
G02*
X48615000Y18890000I0J-250000D01*
G01*
X48615000Y17940000D01*
G75*
G02*
X48365000Y17690000I-250000J0D01*
G01*
X47690000Y17690000D01*
G75*
G02*
X47440000Y17940000I0J250000D01*
G01*
G37*
G04 #@! TD.AperFunction*
G04 #@! TO.P,C4,1*
G04 #@! TO.N,+3V3*
G04 #@! TA.AperFunction,SMDPad,CuDef*
G36*
G01*
X45365000Y17940000D02*
X45365000Y18890000D01*
G75*
G02*
X45615000Y19140000I250000J0D01*
G01*
X46290000Y19140000D01*
G75*
G02*
X46540000Y18890000I0J-250000D01*
G01*
X46540000Y17940000D01*
G75*
G02*
X46290000Y17690000I-250000J0D01*
G01*
X45615000Y17690000D01*
G75*
G02*
X45365000Y17940000I0J250000D01*
G01*
G37*
G04 #@! TD.AperFunction*
G04 #@! TD*
G04 #@! TO.P,C3,2*
G04 #@! TO.N,V_IN*
G04 #@! TA.AperFunction,SMDPad,CuDef*
G36*
G01*
X52520000Y17940000D02*
X52520000Y18890000D01*
G75*
G02*
X52770000Y19140000I250000J0D01*
G01*
X53445000Y19140000D01*
G75*
G02*
X53695000Y18890000I0J-250000D01*
G01*
X53695000Y17940000D01*
G75*
G02*
X53445000Y17690000I-250000J0D01*
G01*
X52770000Y17690000D01*
G75*
G02*
X52520000Y17940000I0J250000D01*
G01*
G37*
G04 #@! TD.AperFunction*
G04 #@! TO.P,C3,1*
G04 #@! TO.N,GND*
G04 #@! TA.AperFunction,SMDPad,CuDef*
G36*
G01*
X50445000Y17940000D02*
X50445000Y18890000D01*
G75*
G02*
X50695000Y19140000I250000J0D01*
G01*
X51370000Y19140000D01*
G75*
G02*
X51620000Y18890000I0J-250000D01*
G01*
X51620000Y17940000D01*
G75*
G02*
X51370000Y17690000I-250000J0D01*
G01*
X50695000Y17690000D01*
G75*
G02*
X50445000Y17940000I0J250000D01*
G01*
G37*
G04 #@! TD.AperFunction*
G04 #@! TD*
G04 #@! TO.P,R1,2*
G04 #@! TO.N,Net-(IC1-Pad6)*
G04 #@! TA.AperFunction,SMDPad,CuDef*
G36*
G01*
X41240000Y30930001D02*
X41240000Y30029999D01*
G75*
G02*
X40990001Y29780000I-249999J0D01*
G01*
X40289999Y29780000D01*
G75*
G02*
X40040000Y30029999I0J249999D01*
G01*
X40040000Y30930001D01*
G75*
G02*
X40289999Y31180000I249999J0D01*
G01*
X40990001Y31180000D01*
G75*
G02*
X41240000Y30930001I0J-249999D01*
G01*
G37*
G04 #@! TD.AperFunction*
G04 #@! TO.P,R1,1*
G04 #@! TO.N,Net-(IC1-Pad7)*
G04 #@! TA.AperFunction,SMDPad,CuDef*
G36*
G01*
X43240000Y30930001D02*
X43240000Y30029999D01*
G75*
G02*
X42990001Y29780000I-249999J0D01*
G01*
X42289999Y29780000D01*
G75*
G02*
X42040000Y30029999I0J249999D01*
G01*
X42040000Y30930001D01*
G75*
G02*
X42289999Y31180000I249999J0D01*
G01*
X42990001Y31180000D01*
G75*
G02*
X43240000Y30930001I0J-249999D01*
G01*
G37*
G04 #@! TD.AperFunction*
G04 #@! TD*
G04 #@! TO.P,C1,2*
G04 #@! TO.N,GND*
G04 #@! TA.AperFunction,SMDPad,CuDef*
G36*
G01*
X36035000Y26082500D02*
X35085000Y26082500D01*
G75*
G02*
X34835000Y26332500I0J250000D01*
G01*
X34835000Y27007500D01*
G75*
G02*
X35085000Y27257500I250000J0D01*
G01*
X36035000Y27257500D01*
G75*
G02*
X36285000Y27007500I0J-250000D01*
G01*
X36285000Y26332500D01*
G75*
G02*
X36035000Y26082500I-250000J0D01*
G01*
G37*
G04 #@! TD.AperFunction*
G04 #@! TO.P,C1,1*
G04 #@! TO.N,+3V3*
G04 #@! TA.AperFunction,SMDPad,CuDef*
G36*
G01*
X36035000Y24007500D02*
X35085000Y24007500D01*
G75*
G02*
X34835000Y24257500I0J250000D01*
G01*
X34835000Y24932500D01*
G75*
G02*
X35085000Y25182500I250000J0D01*
G01*
X36035000Y25182500D01*
G75*
G02*
X36285000Y24932500I0J-250000D01*
G01*
X36285000Y24257500D01*
G75*
G02*
X36035000Y24007500I-250000J0D01*
G01*
G37*
G04 #@! TD.AperFunction*
G04 #@! TD*
D11*
G04 #@! TO.P,CN10,38*
G04 #@! TO.N,/NC*
X66750000Y3040000D03*
G04 #@! TO.P,CN10,37*
G04 #@! TO.N,N/C*
X64210000Y3040000D03*
G04 #@! TO.P,CN10,36*
G04 #@! TO.N,/NC*
X66750000Y5580000D03*
G04 #@! TO.P,CN10,35*
G04 #@! TO.N,N/C*
X64210000Y5580000D03*
G04 #@! TO.P,CN10,34*
X66750000Y8120000D03*
G04 #@! TO.P,CN10,33*
X64210000Y8120000D03*
G04 #@! TO.P,CN10,32*
X66750000Y10660000D03*
G04 #@! TO.P,CN10,31*
X64210000Y10660000D03*
G04 #@! TO.P,CN10,30*
X66750000Y13200000D03*
G04 #@! TO.P,CN10,29*
X64210000Y13200000D03*
G04 #@! TO.P,CN10,28*
G04 #@! TO.N,UART3_DE*
X66750000Y15740000D03*
G04 #@! TO.P,CN10,27*
G04 #@! TO.N,N/C*
X64210000Y15740000D03*
G04 #@! TO.P,CN10,26*
X66750000Y18280000D03*
G04 #@! TO.P,CN10,25*
G04 #@! TO.N,UART3_TX*
X64210000Y18280000D03*
G04 #@! TO.P,CN10,24*
G04 #@! TO.N,N/C*
X66750000Y20820000D03*
G04 #@! TO.P,CN10,23*
X64210000Y20820000D03*
G04 #@! TO.P,CN10,22*
X66750000Y23360000D03*
G04 #@! TO.P,CN10,21*
X64210000Y23360000D03*
G04 #@! TO.P,CN10,20*
G04 #@! TO.N,GND*
X66750000Y25900000D03*
G04 #@! TO.P,CN10,19*
G04 #@! TO.N,N/C*
X64210000Y25900000D03*
G04 #@! TO.P,CN10,18*
G04 #@! TO.N,UART3_RX*
X66750000Y28440000D03*
G04 #@! TO.P,CN10,17*
G04 #@! TO.N,UART1_TX*
X64210000Y28440000D03*
G04 #@! TO.P,CN10,16*
G04 #@! TO.N,N/C*
X66750000Y30980000D03*
G04 #@! TO.P,CN10,15*
X64210000Y30980000D03*
G04 #@! TO.P,CN10,14*
X66750000Y33520000D03*
G04 #@! TO.P,CN10,13*
X64210000Y33520000D03*
G04 #@! TO.P,CN10,12*
G04 #@! TO.N,UART1_DE*
X66750000Y36060000D03*
G04 #@! TO.P,CN10,11*
G04 #@! TO.N,N/C*
X64210000Y36060000D03*
G04 #@! TO.P,CN10,10*
G04 #@! TO.N,/NC*
X66750000Y38600000D03*
G04 #@! TO.P,CN10,9*
G04 #@! TO.N,GND*
X64210000Y38600000D03*
G04 #@! TO.P,CN10,8*
G04 #@! TO.N,N/C*
X66750000Y41140000D03*
G04 #@! TO.P,CN10,7*
X64210000Y41140000D03*
G04 #@! TO.P,CN10,6*
G04 #@! TO.N,UART1_RX*
X66750000Y43680000D03*
G04 #@! TO.P,CN10,5*
G04 #@! TO.N,N/C*
X64210000Y43680000D03*
G04 #@! TO.P,CN10,4*
X66750000Y46220000D03*
G04 #@! TO.P,CN10,3*
X64210000Y46220000D03*
G04 #@! TO.P,CN10,2*
X66750000Y48760000D03*
D12*
G04 #@! TO.P,CN10,1*
X64210000Y48760000D03*
G04 #@! TD*
D11*
G04 #@! TO.P,CN7,38*
G04 #@! TO.N,N/C*
X5790000Y3040000D03*
G04 #@! TO.P,CN7,37*
X3250000Y3040000D03*
G04 #@! TO.P,CN7,36*
X5790000Y5580000D03*
G04 #@! TO.P,CN7,35*
X3250000Y5580000D03*
G04 #@! TO.P,CN7,34*
X5790000Y8120000D03*
G04 #@! TO.P,CN7,33*
X3250000Y8120000D03*
G04 #@! TO.P,CN7,32*
X5790000Y10660000D03*
G04 #@! TO.P,CN7,31*
X3250000Y10660000D03*
G04 #@! TO.P,CN7,30*
G04 #@! TO.N,RST*
X5790000Y13200000D03*
G04 #@! TO.P,CN7,29*
G04 #@! TO.N,N/C*
X3250000Y13200000D03*
G04 #@! TO.P,CN7,28*
G04 #@! TO.N,INT*
X5790000Y15740000D03*
G04 #@! TO.P,CN7,27*
G04 #@! TO.N,N/C*
X3250000Y15740000D03*
G04 #@! TO.P,CN7,26*
G04 #@! TO.N,/NC*
X5790000Y18280000D03*
G04 #@! TO.P,CN7,25*
G04 #@! TO.N,N/C*
X3250000Y18280000D03*
G04 #@! TO.P,CN7,24*
X5790000Y20820000D03*
G04 #@! TO.P,CN7,23*
X3250000Y20820000D03*
G04 #@! TO.P,CN7,22*
G04 #@! TO.N,GND*
X5790000Y23360000D03*
G04 #@! TO.P,CN7,21*
G04 #@! TO.N,N/C*
X3250000Y23360000D03*
G04 #@! TO.P,CN7,20*
G04 #@! TO.N,GND*
X5790000Y25900000D03*
G04 #@! TO.P,CN7,19*
X3250000Y25900000D03*
G04 #@! TO.P,CN7,18*
G04 #@! TO.N,N/C*
X5790000Y28440000D03*
G04 #@! TO.P,CN7,17*
G04 #@! TO.N,SPI_CS*
X3250000Y28440000D03*
G04 #@! TO.P,CN7,16*
G04 #@! TO.N,N/C*
X5790000Y30980000D03*
G04 #@! TO.P,CN7,15*
X3250000Y30980000D03*
G04 #@! TO.P,CN7,14*
X5790000Y33520000D03*
G04 #@! TO.P,CN7,13*
X3250000Y33520000D03*
G04 #@! TO.P,CN7,12*
X5790000Y36060000D03*
G04 #@! TO.P,CN7,11*
G04 #@! TO.N,/NC*
X3250000Y36060000D03*
G04 #@! TO.P,CN7,10*
X5790000Y38600000D03*
G04 #@! TO.P,CN7,9*
X3250000Y38600000D03*
G04 #@! TO.P,CN7,8*
G04 #@! TO.N,GND*
X5790000Y41140000D03*
G04 #@! TO.P,CN7,7*
G04 #@! TO.N,N/C*
X3250000Y41140000D03*
G04 #@! TO.P,CN7,6*
G04 #@! TO.N,E5V*
X5790000Y43680000D03*
G04 #@! TO.P,CN7,5*
G04 #@! TO.N,N/C*
X3250000Y43680000D03*
G04 #@! TO.P,CN7,4*
X5790000Y46220000D03*
G04 #@! TO.P,CN7,3*
G04 #@! TO.N,SPI_MOSI*
X3250000Y46220000D03*
G04 #@! TO.P,CN7,2*
G04 #@! TO.N,SPI_MISO*
X5790000Y48760000D03*
D12*
G04 #@! TO.P,CN7,1*
G04 #@! TO.N,SPI_SCLK*
X3250000Y48760000D03*
G04 #@! TD*
D18*
G04 #@! TO.P,IC1,8*
G04 #@! TO.N,+3V3*
X39198000Y23495000D03*
G04 #@! TO.P,IC1,7*
G04 #@! TO.N,Net-(IC1-Pad7)*
X39198000Y24765000D03*
G04 #@! TO.P,IC1,6*
G04 #@! TO.N,Net-(IC1-Pad6)*
X39198000Y26035000D03*
G04 #@! TO.P,IC1,5*
G04 #@! TO.N,GND*
X39198000Y27305000D03*
G04 #@! TO.P,IC1,4*
G04 #@! TO.N,UART1_TX*
X44622000Y27305000D03*
G04 #@! TO.P,IC1,3*
G04 #@! TO.N,UART1_DE*
X44622000Y26035000D03*
G04 #@! TO.P,IC1,2*
X44622000Y24765000D03*
G04 #@! TO.P,IC1,1*
G04 #@! TO.N,UART1_RX*
X44622000Y23495000D03*
G04 #@! TD*
G04 #@! TO.P,IC2,1*
G04 #@! TO.N,UART3_RX*
X30652000Y23495000D03*
G04 #@! TO.P,IC2,2*
G04 #@! TO.N,UART3_DE*
X30652000Y24765000D03*
G04 #@! TO.P,IC2,3*
X30652000Y26035000D03*
G04 #@! TO.P,IC2,4*
G04 #@! TO.N,UART3_TX*
X30652000Y27305000D03*
G04 #@! TO.P,IC2,5*
G04 #@! TO.N,GND*
X25228000Y27305000D03*
G04 #@! TO.P,IC2,6*
G04 #@! TO.N,Net-(IC2-Pad6)*
X25228000Y26035000D03*
G04 #@! TO.P,IC2,7*
G04 #@! TO.N,Net-(IC2-Pad7)*
X25228000Y24765000D03*
G04 #@! TO.P,IC2,8*
G04 #@! TO.N,+3V3*
X25228000Y23495000D03*
G04 #@! TD*
G04 #@! TO.P,RS485A1,1*
G04 #@! TO.N,N/C*
G04 #@! TA.AperFunction,ComponentPad*
G36*
G01*
X46570000Y36285000D02*
X46570000Y34835000D01*
G75*
G02*
X46320000Y34585000I-250000J0D01*
G01*
X45120000Y34585000D01*
G75*
G02*
X44870000Y34835000I0J250000D01*
G01*
X44870000Y36285000D01*
G75*
G02*
X45120000Y36535000I250000J0D01*
G01*
X46320000Y36535000D01*
G75*
G02*
X46570000Y36285000I0J-250000D01*
G01*
G37*
G04 #@! TD.AperFunction*
D10*
G04 #@! TO.P,RS485A1,2*
G04 #@! TO.N,Net-(IC1-Pad7)*
X43220000Y35560000D03*
G04 #@! TO.P,RS485A1,3*
G04 #@! TO.N,Net-(IC1-Pad6)*
X40720000Y35560000D03*
G04 #@! TO.P,RS485A1,4*
G04 #@! TO.N,GND*
X38220000Y35560000D03*
G04 #@! TD*
D19*
G04 #@! TO.N,GND*
X53213000Y48387000D03*
X54483000Y48387000D03*
X55753000Y48387000D03*
X53213000Y29972000D03*
X54483000Y29972000D03*
X55753000Y29972000D03*
X20955000Y0D03*
X22225000Y0D03*
X23495000Y0D03*
X61595000Y22860000D03*
X61595000Y24130000D03*
X61595000Y25400000D03*
X9525000Y19050000D03*
X10795000Y19050000D03*
X12065000Y19050000D03*
X14605000Y48260000D03*
X15875000Y48260000D03*
X17145000Y48260000D03*
X52324000Y22606000D03*
G04 #@! TO.N,+3V3*
X37465000Y23495000D03*
X36195000Y22860000D03*
X34925000Y22860000D03*
X37465000Y24765000D03*
X23495000Y24765000D03*
X23495000Y23495000D03*
X22225000Y22860000D03*
X20955000Y22860000D03*
X44450000Y18415000D03*
X44450000Y17145000D03*
X44450000Y15875000D03*
X44450000Y14605000D03*
X44450000Y13335000D03*
G04 #@! TO.N,INT*
X25400000Y15240000D03*
G04 #@! TO.N,UART3_DE*
X55308500Y20256500D03*
X53594000Y22606000D03*
G04 #@! TD*
D20*
G04 #@! TO.N,/NC*
X66750000Y5580000D02*
X66750000Y3250000D01*
X66750000Y3250000D02*
X66675000Y3175000D01*
X3250000Y38600000D02*
X5834000Y38600000D01*
X5834000Y38600000D02*
X5842000Y38608000D01*
G04 #@! TO.N,INT*
X5790000Y15740000D02*
X6485000Y15740000D01*
X6985000Y15240000D02*
X25400000Y15240000D01*
X6485000Y15740000D02*
X6985000Y15240000D01*
G04 #@! TO.N,SPI_CS*
X33284990Y17585010D02*
X21276990Y17585010D01*
X36900000Y13970000D02*
X33284990Y17585010D01*
X11399990Y27462010D02*
X11399990Y29687990D01*
X21276990Y17585010D02*
X11399990Y27462010D01*
X11399990Y29687990D02*
X12700000Y30988000D01*
G04 #@! TO.N,SPI_MOSI*
X10414000Y36322000D02*
X12700000Y38608000D01*
X32337009Y16684991D02*
X20904188Y16684992D01*
X34798000Y14224000D02*
X32337009Y16684991D01*
X10414000Y27175180D02*
X10414000Y36322000D01*
X34798000Y9742000D02*
X34798000Y14224000D01*
X20904188Y16684992D02*
X10414000Y27175180D01*
X35650000Y8890000D02*
X34798000Y9742000D01*
X36900000Y8890000D02*
X35650000Y8890000D01*
X13970000Y38823000D02*
X13970000Y42543590D01*
X13675000Y38528000D02*
X13970000Y38823000D01*
X12700000Y38528000D02*
X13675000Y38528000D01*
X13970000Y42543590D02*
X9015590Y47498000D01*
X9015590Y47498000D02*
X4572000Y47498000D01*
X4572000Y47498000D02*
X3302000Y46228000D01*
X3302000Y46228000D02*
X3048000Y46228000D01*
G04 #@! TO.N,SPI_MISO*
X12700000Y36028000D02*
X14478000Y37806000D01*
X14478000Y37806000D02*
X14478000Y42672000D01*
X14478000Y42672000D02*
X8382000Y48768000D01*
X8382000Y48768000D02*
X5588000Y48768000D01*
G04 #@! TO.N,SPI_SCLK*
X36900000Y11430000D02*
X35276795Y13053205D01*
X35276795Y14761205D02*
X32903000Y17135000D01*
X35276795Y13053205D02*
X35276795Y14761205D01*
X32903000Y17135000D02*
X21090589Y17135001D01*
X10949980Y27275610D02*
X10949980Y31777980D01*
X21090589Y17135001D02*
X10949980Y27275610D01*
X10949980Y31777980D02*
X12700000Y33528000D01*
X14928009Y42858401D02*
X7748410Y50038000D01*
X14928009Y35756009D02*
X14928009Y42858401D01*
X12700000Y33528000D02*
X14928009Y35756009D01*
X7748410Y50038000D02*
X4572000Y50038000D01*
X4572000Y50038000D02*
X3302000Y48768000D01*
G04 #@! TO.N,UART3_DE*
X29639500Y24765000D02*
X30652000Y24765000D01*
X29210000Y24335500D02*
X29639500Y24765000D01*
X31115000Y20320000D02*
X29210000Y22225000D01*
X55245000Y20320000D02*
X31115000Y20320000D01*
X60960000Y14605000D02*
X55308500Y20256500D01*
X29210000Y22225000D02*
X29210000Y24335500D01*
X63645999Y14564999D02*
X63605998Y14605000D01*
X64814002Y14605000D02*
X64774001Y14564999D01*
X63605998Y14605000D02*
X60960000Y14605000D01*
X65615000Y14605000D02*
X64814002Y14605000D01*
X64774001Y14564999D02*
X63645999Y14564999D01*
X66750000Y15740000D02*
X65615000Y14605000D01*
X30652000Y26035000D02*
X30652000Y24765000D01*
X55308500Y20256500D02*
X55245000Y20320000D01*
X53594000Y23858000D02*
X53594000Y22606000D01*
G04 #@! TO.N,UART3_TX*
X31664500Y27305000D02*
X30652000Y27305000D01*
X32385000Y26584500D02*
X31664500Y27305000D01*
X32385000Y22860000D02*
X32385000Y26584500D01*
X59825000Y18280000D02*
X56515000Y21590000D01*
X33655000Y21590000D02*
X32385000Y22860000D01*
X56515000Y21590000D02*
X33655000Y21590000D01*
X64210000Y18280000D02*
X59825000Y18280000D01*
G04 #@! TO.N,UART3_RX*
X59729296Y17104999D02*
X67314001Y17104999D01*
X55879295Y20955000D02*
X59729296Y17104999D01*
X68580000Y26610000D02*
X66750000Y28440000D01*
X33020000Y20955000D02*
X55879295Y20955000D01*
X30652000Y23323000D02*
X33020000Y20955000D01*
X68580000Y18370998D02*
X68580000Y26610000D01*
X67314001Y17104999D02*
X68580000Y18370998D01*
X30652000Y23495000D02*
X30652000Y23323000D01*
G04 #@! TO.N,UART1_TX*
X63075000Y27305000D02*
X64210000Y28440000D01*
X44622000Y27305000D02*
X63075000Y27305000D01*
G04 #@! TO.N,UART1_DE*
X43609500Y26035000D02*
X43180000Y26464500D01*
X44622000Y26035000D02*
X43609500Y26035000D01*
X43599499Y27955001D02*
X45704999Y27955001D01*
X43180000Y27535502D02*
X43599499Y27955001D01*
X43180000Y26464500D02*
X43180000Y27535502D01*
X45704999Y27955001D02*
X45720000Y27940000D01*
X45720000Y27940000D02*
X61595000Y27940000D01*
X61595000Y27940000D02*
X62230000Y28575000D01*
X62230000Y28575000D02*
X62230000Y33655000D01*
X65385001Y34695001D02*
X66750000Y36060000D01*
X63270001Y34695001D02*
X65385001Y34695001D01*
X62230000Y33655000D02*
X63270001Y34695001D01*
X44622000Y26035000D02*
X44622000Y24765000D01*
X44622000Y24765000D02*
X46609000Y24765000D01*
X46609000Y24765000D02*
X47498000Y23876000D01*
X47498000Y23876000D02*
X49022000Y23876000D01*
G04 #@! TO.N,UART1_RX*
X63645999Y42315001D02*
X65385001Y42315001D01*
X62865000Y41534002D02*
X63645999Y42315001D01*
X62865000Y34926410D02*
X62865000Y41534002D01*
X61595000Y33656410D02*
X62865000Y34926410D01*
X65385001Y42315001D02*
X66750000Y43680000D01*
X61595000Y29210000D02*
X61595000Y33656410D01*
X43583088Y28575000D02*
X60960000Y28575000D01*
X60960000Y28575000D02*
X61595000Y29210000D01*
X42729991Y27721903D02*
X43583088Y28575000D01*
X42729991Y24374509D02*
X42729991Y27721903D01*
X43609500Y23495000D02*
X42729991Y24374509D01*
X44622000Y23495000D02*
X43609500Y23495000D01*
G04 #@! TO.N,V_IN*
X59690000Y3810000D02*
X59690000Y3175000D01*
X56515000Y6985000D02*
X59690000Y3810000D01*
X56515000Y10160000D02*
X56515000Y6985000D01*
X56729000Y10374000D02*
X56515000Y10160000D01*
X58420000Y10374000D02*
X56729000Y10374000D01*
G04 #@! TO.N,Net-(D3-Pad1)*
X49022000Y25908000D02*
X51308000Y25908000D01*
G04 #@! TO.N,Net-(D4-Pad1)*
X53594000Y25908000D02*
X55880000Y25908000D01*
G04 #@! TO.N,Net-(D5-Pad1)*
X57894000Y3556000D02*
X57894000Y1379000D01*
X57894000Y1379000D02*
X57785000Y1270000D01*
G04 #@! TO.N,Net-(IC1-Pad7)*
X42640000Y30480000D02*
X41370000Y29210000D01*
X41370000Y29210000D02*
X41370000Y26130000D01*
X40005000Y24765000D02*
X39198000Y24765000D01*
X41370000Y26130000D02*
X40005000Y24765000D01*
X42640000Y34980000D02*
X43220000Y35560000D01*
X42640000Y30480000D02*
X42640000Y34980000D01*
G04 #@! TO.N,Net-(IC1-Pad6)*
X40210500Y26035000D02*
X39198000Y26035000D01*
X40640000Y26464500D02*
X40210500Y26035000D01*
X40640000Y30480000D02*
X40640000Y26464500D01*
X40640000Y35480000D02*
X40720000Y35560000D01*
X40640000Y30480000D02*
X40640000Y35480000D01*
G04 #@! TO.N,Net-(IC2-Pad6)*
X26240500Y26035000D02*
X25228000Y26035000D01*
X26670000Y26464500D02*
X26240500Y26035000D01*
X26670000Y30480000D02*
X26670000Y26464500D01*
X26670000Y35480000D02*
X26750000Y35560000D01*
X26670000Y30480000D02*
X26670000Y35480000D01*
G04 #@! TO.N,Net-(IC2-Pad7)*
X28670000Y30480000D02*
X27400000Y29210000D01*
X26035000Y24765000D02*
X25228000Y24765000D01*
X27400000Y26130000D02*
X26035000Y24765000D01*
X27400000Y29210000D02*
X27400000Y26130000D01*
X28670000Y34980000D02*
X29250000Y35560000D01*
X28670000Y30480000D02*
X28670000Y34980000D01*
G04 #@! TD*
D21*
G04 #@! TO.N,V_IN*
X54483000Y17145000D02*
X54485440Y17120224D01*
X54492667Y17096399D01*
X54504403Y17074443D01*
X54520197Y17055197D01*
X55753000Y15822394D01*
X55753000Y13013647D01*
X55632733Y12933287D01*
X55460713Y12761267D01*
X55325557Y12558992D01*
X55232460Y12334236D01*
X55185000Y12095637D01*
X55185000Y11852363D01*
X55232460Y11613764D01*
X55325557Y11389008D01*
X55460713Y11186733D01*
X55632733Y11014713D01*
X55835008Y10879557D01*
X56059764Y10786460D01*
X56298363Y10739000D01*
X56541637Y10739000D01*
X56780236Y10786460D01*
X56784301Y10788144D01*
X56785000Y10659750D01*
X56943750Y10501000D01*
X58293000Y10501000D01*
X58293000Y11700250D01*
X58134250Y11859000D01*
X57655000Y11861061D01*
X57655000Y11938000D01*
X59436000Y11938000D01*
X59436000Y11860496D01*
X59420000Y11862072D01*
X58705750Y11859000D01*
X58547000Y11700250D01*
X58547000Y10501000D01*
X58567000Y10501000D01*
X58567000Y10247000D01*
X58547000Y10247000D01*
X58547000Y10227000D01*
X58293000Y10227000D01*
X58293000Y10247000D01*
X56943750Y10247000D01*
X56785000Y10088250D01*
X56781928Y9524000D01*
X56794188Y9399518D01*
X56830498Y9279820D01*
X56889463Y9169506D01*
X56968815Y9072815D01*
X57036826Y9017000D01*
X55932606Y9017000D01*
X52794803Y12154803D01*
X52775557Y12170597D01*
X52753601Y12182333D01*
X52729776Y12189560D01*
X52705000Y12192000D01*
X50927000Y12192000D01*
X50927000Y12691248D01*
X50965820Y12670498D01*
X51085518Y12634188D01*
X51210000Y12621928D01*
X51524250Y12625000D01*
X51683000Y12783750D01*
X51683000Y14233000D01*
X51937000Y14233000D01*
X51937000Y12783750D01*
X52095750Y12625000D01*
X52410000Y12621928D01*
X52534482Y12634188D01*
X52654180Y12670498D01*
X52764494Y12729463D01*
X52861185Y12808815D01*
X52940537Y12905506D01*
X52999502Y13015820D01*
X53035812Y13135518D01*
X53048072Y13260000D01*
X53045000Y14074250D01*
X52886250Y14233000D01*
X51937000Y14233000D01*
X51683000Y14233000D01*
X51663000Y14233000D01*
X51663000Y14487000D01*
X51683000Y14487000D01*
X51683000Y15936250D01*
X51937000Y15936250D01*
X51937000Y14487000D01*
X52886250Y14487000D01*
X53045000Y14645750D01*
X53048072Y15460000D01*
X53035812Y15584482D01*
X52999502Y15704180D01*
X52940537Y15814494D01*
X52861185Y15911185D01*
X52764494Y15990537D01*
X52654180Y16049502D01*
X52534482Y16085812D01*
X52410000Y16098072D01*
X52095750Y16095000D01*
X51937000Y15936250D01*
X51683000Y15936250D01*
X51524250Y16095000D01*
X51210000Y16098072D01*
X51201878Y16097272D01*
X52159803Y17055197D01*
X52175597Y17074443D01*
X52187333Y17096399D01*
X52194560Y17120224D01*
X52196778Y17142747D01*
X52275820Y17100498D01*
X52395518Y17064188D01*
X52520000Y17051928D01*
X52821750Y17055000D01*
X52980500Y17213750D01*
X52980500Y18288000D01*
X53234500Y18288000D01*
X53234500Y17213750D01*
X53393250Y17055000D01*
X53695000Y17051928D01*
X53819482Y17064188D01*
X53939180Y17100498D01*
X54049494Y17159463D01*
X54146185Y17238815D01*
X54225537Y17335506D01*
X54284502Y17445820D01*
X54320812Y17565518D01*
X54333072Y17690000D01*
X54330000Y18129250D01*
X54171250Y18288000D01*
X53234500Y18288000D01*
X52980500Y18288000D01*
X52960500Y18288000D01*
X52960500Y18542000D01*
X52980500Y18542000D01*
X52980500Y18562000D01*
X53234500Y18562000D01*
X53234500Y18542000D01*
X54171250Y18542000D01*
X54330000Y18700750D01*
X54333072Y19140000D01*
X54320812Y19264482D01*
X54284502Y19384180D01*
X54225537Y19494494D01*
X54173419Y19558000D01*
X54483000Y19558000D01*
X54483000Y17145000D01*
G04 #@! TA.AperFunction,Conductor*
D22*
G36*
X54483000Y17145000D02*
G01*
X54485440Y17120224D01*
X54492667Y17096399D01*
X54504403Y17074443D01*
X54520197Y17055197D01*
X55753000Y15822394D01*
X55753000Y13013647D01*
X55632733Y12933287D01*
X55460713Y12761267D01*
X55325557Y12558992D01*
X55232460Y12334236D01*
X55185000Y12095637D01*
X55185000Y11852363D01*
X55232460Y11613764D01*
X55325557Y11389008D01*
X55460713Y11186733D01*
X55632733Y11014713D01*
X55835008Y10879557D01*
X56059764Y10786460D01*
X56298363Y10739000D01*
X56541637Y10739000D01*
X56780236Y10786460D01*
X56784301Y10788144D01*
X56785000Y10659750D01*
X56943750Y10501000D01*
X58293000Y10501000D01*
X58293000Y11700250D01*
X58134250Y11859000D01*
X57655000Y11861061D01*
X57655000Y11938000D01*
X59436000Y11938000D01*
X59436000Y11860496D01*
X59420000Y11862072D01*
X58705750Y11859000D01*
X58547000Y11700250D01*
X58547000Y10501000D01*
X58567000Y10501000D01*
X58567000Y10247000D01*
X58547000Y10247000D01*
X58547000Y10227000D01*
X58293000Y10227000D01*
X58293000Y10247000D01*
X56943750Y10247000D01*
X56785000Y10088250D01*
X56781928Y9524000D01*
X56794188Y9399518D01*
X56830498Y9279820D01*
X56889463Y9169506D01*
X56968815Y9072815D01*
X57036826Y9017000D01*
X55932606Y9017000D01*
X52794803Y12154803D01*
X52775557Y12170597D01*
X52753601Y12182333D01*
X52729776Y12189560D01*
X52705000Y12192000D01*
X50927000Y12192000D01*
X50927000Y12691248D01*
X50965820Y12670498D01*
X51085518Y12634188D01*
X51210000Y12621928D01*
X51524250Y12625000D01*
X51683000Y12783750D01*
X51683000Y14233000D01*
X51937000Y14233000D01*
X51937000Y12783750D01*
X52095750Y12625000D01*
X52410000Y12621928D01*
X52534482Y12634188D01*
X52654180Y12670498D01*
X52764494Y12729463D01*
X52861185Y12808815D01*
X52940537Y12905506D01*
X52999502Y13015820D01*
X53035812Y13135518D01*
X53048072Y13260000D01*
X53045000Y14074250D01*
X52886250Y14233000D01*
X51937000Y14233000D01*
X51683000Y14233000D01*
X51663000Y14233000D01*
X51663000Y14487000D01*
X51683000Y14487000D01*
X51683000Y15936250D01*
X51937000Y15936250D01*
X51937000Y14487000D01*
X52886250Y14487000D01*
X53045000Y14645750D01*
X53048072Y15460000D01*
X53035812Y15584482D01*
X52999502Y15704180D01*
X52940537Y15814494D01*
X52861185Y15911185D01*
X52764494Y15990537D01*
X52654180Y16049502D01*
X52534482Y16085812D01*
X52410000Y16098072D01*
X52095750Y16095000D01*
X51937000Y15936250D01*
X51683000Y15936250D01*
X51524250Y16095000D01*
X51210000Y16098072D01*
X51201878Y16097272D01*
X52159803Y17055197D01*
X52175597Y17074443D01*
X52187333Y17096399D01*
X52194560Y17120224D01*
X52196778Y17142747D01*
X52275820Y17100498D01*
X52395518Y17064188D01*
X52520000Y17051928D01*
X52821750Y17055000D01*
X52980500Y17213750D01*
X52980500Y18288000D01*
X53234500Y18288000D01*
X53234500Y17213750D01*
X53393250Y17055000D01*
X53695000Y17051928D01*
X53819482Y17064188D01*
X53939180Y17100498D01*
X54049494Y17159463D01*
X54146185Y17238815D01*
X54225537Y17335506D01*
X54284502Y17445820D01*
X54320812Y17565518D01*
X54333072Y17690000D01*
X54330000Y18129250D01*
X54171250Y18288000D01*
X53234500Y18288000D01*
X52980500Y18288000D01*
X52960500Y18288000D01*
X52960500Y18542000D01*
X52980500Y18542000D01*
X52980500Y18562000D01*
X53234500Y18562000D01*
X53234500Y18542000D01*
X54171250Y18542000D01*
X54330000Y18700750D01*
X54333072Y19140000D01*
X54320812Y19264482D01*
X54284502Y19384180D01*
X54225537Y19494494D01*
X54173419Y19558000D01*
X54483000Y19558000D01*
X54483000Y17145000D01*
G37*
G04 #@! TD.AperFunction*
G04 #@! TD*
D21*
G04 #@! TO.N,+3V3*
X37809688Y25214482D02*
X37797428Y25090000D01*
X37797428Y24440000D01*
X37809688Y24315518D01*
X37845998Y24195820D01*
X37881180Y24130000D01*
X37845998Y24064180D01*
X37809688Y23944482D01*
X37797428Y23820000D01*
X37800500Y23780750D01*
X37959250Y23622000D01*
X39071000Y23622000D01*
X39071000Y23642000D01*
X39325000Y23642000D01*
X39325000Y23622000D01*
X39345000Y23622000D01*
X39345000Y23368000D01*
X39325000Y23368000D01*
X39325000Y22693750D01*
X39483750Y22535000D01*
X39960500Y22531928D01*
X40084982Y22544188D01*
X40204680Y22580498D01*
X40314994Y22639463D01*
X40411685Y22718815D01*
X40491037Y22815506D01*
X40513000Y22856595D01*
X40513000Y22352000D01*
X34417000Y22352000D01*
X34417000Y23170000D01*
X37797428Y23170000D01*
X37809688Y23045518D01*
X37845998Y22925820D01*
X37904963Y22815506D01*
X37984315Y22718815D01*
X38081006Y22639463D01*
X38191320Y22580498D01*
X38311018Y22544188D01*
X38435500Y22531928D01*
X38912250Y22535000D01*
X39071000Y22693750D01*
X39071000Y23368000D01*
X37959250Y23368000D01*
X37800500Y23209250D01*
X37797428Y23170000D01*
X34417000Y23170000D01*
X34417000Y23529081D01*
X34480506Y23476963D01*
X34590820Y23417998D01*
X34710518Y23381688D01*
X34835000Y23369428D01*
X35274250Y23372500D01*
X35433000Y23531250D01*
X35433000Y24468000D01*
X35687000Y24468000D01*
X35687000Y23531250D01*
X35845750Y23372500D01*
X36285000Y23369428D01*
X36409482Y23381688D01*
X36529180Y23417998D01*
X36639494Y23476963D01*
X36736185Y23556315D01*
X36815537Y23653006D01*
X36874502Y23763320D01*
X36910812Y23883018D01*
X36923072Y24007500D01*
X36920000Y24309250D01*
X36761250Y24468000D01*
X35687000Y24468000D01*
X35433000Y24468000D01*
X35413000Y24468000D01*
X35413000Y24722000D01*
X35433000Y24722000D01*
X35433000Y24742000D01*
X35687000Y24742000D01*
X35687000Y24722000D01*
X36761250Y24722000D01*
X36920000Y24880750D01*
X36923072Y25182500D01*
X36914159Y25273000D01*
X37827439Y25273000D01*
X37809688Y25214482D01*
G04 #@! TA.AperFunction,Conductor*
D22*
G36*
X37809688Y25214482D02*
G01*
X37797428Y25090000D01*
X37797428Y24440000D01*
X37809688Y24315518D01*
X37845998Y24195820D01*
X37881180Y24130000D01*
X37845998Y24064180D01*
X37809688Y23944482D01*
X37797428Y23820000D01*
X37800500Y23780750D01*
X37959250Y23622000D01*
X39071000Y23622000D01*
X39071000Y23642000D01*
X39325000Y23642000D01*
X39325000Y23622000D01*
X39345000Y23622000D01*
X39345000Y23368000D01*
X39325000Y23368000D01*
X39325000Y22693750D01*
X39483750Y22535000D01*
X39960500Y22531928D01*
X40084982Y22544188D01*
X40204680Y22580498D01*
X40314994Y22639463D01*
X40411685Y22718815D01*
X40491037Y22815506D01*
X40513000Y22856595D01*
X40513000Y22352000D01*
X34417000Y22352000D01*
X34417000Y23170000D01*
X37797428Y23170000D01*
X37809688Y23045518D01*
X37845998Y22925820D01*
X37904963Y22815506D01*
X37984315Y22718815D01*
X38081006Y22639463D01*
X38191320Y22580498D01*
X38311018Y22544188D01*
X38435500Y22531928D01*
X38912250Y22535000D01*
X39071000Y22693750D01*
X39071000Y23368000D01*
X37959250Y23368000D01*
X37800500Y23209250D01*
X37797428Y23170000D01*
X34417000Y23170000D01*
X34417000Y23529081D01*
X34480506Y23476963D01*
X34590820Y23417998D01*
X34710518Y23381688D01*
X34835000Y23369428D01*
X35274250Y23372500D01*
X35433000Y23531250D01*
X35433000Y24468000D01*
X35687000Y24468000D01*
X35687000Y23531250D01*
X35845750Y23372500D01*
X36285000Y23369428D01*
X36409482Y23381688D01*
X36529180Y23417998D01*
X36639494Y23476963D01*
X36736185Y23556315D01*
X36815537Y23653006D01*
X36874502Y23763320D01*
X36910812Y23883018D01*
X36923072Y24007500D01*
X36920000Y24309250D01*
X36761250Y24468000D01*
X35687000Y24468000D01*
X35433000Y24468000D01*
X35413000Y24468000D01*
X35413000Y24722000D01*
X35433000Y24722000D01*
X35433000Y24742000D01*
X35687000Y24742000D01*
X35687000Y24722000D01*
X36761250Y24722000D01*
X36920000Y24880750D01*
X36923072Y25182500D01*
X36914159Y25273000D01*
X37827439Y25273000D01*
X37809688Y25214482D01*
G37*
G04 #@! TD.AperFunction*
G04 #@! TD*
D21*
G04 #@! TO.N,GND*
X18923000Y48260000D02*
X18925440Y48235224D01*
X18932667Y48211399D01*
X18944403Y48189443D01*
X18960197Y48170197D01*
X18979443Y48154403D01*
X19001399Y48142667D01*
X19025224Y48135440D01*
X19050000Y48133000D01*
X50800000Y48133000D01*
X50824776Y48135440D01*
X50848601Y48142667D01*
X50870557Y48154403D01*
X50889803Y48170197D01*
X50905597Y48189443D01*
X50917333Y48211399D01*
X50924560Y48235224D01*
X50927000Y48260000D01*
X50927000Y51530340D01*
X56791316Y51530340D01*
X56791316Y51069660D01*
X56881190Y50617831D01*
X57057485Y50192218D01*
X57313425Y49809176D01*
X57639176Y49483425D01*
X58022218Y49227485D01*
X58447831Y49051190D01*
X58899660Y48961316D01*
X59360340Y48961316D01*
X59812169Y49051190D01*
X60237782Y49227485D01*
X60620824Y49483425D01*
X60946575Y49809176D01*
X61202515Y50192218D01*
X61378810Y50617831D01*
X61468684Y51069660D01*
X61468684Y51530340D01*
X61378810Y51982169D01*
X61202515Y52407782D01*
X60946575Y52790824D01*
X60620824Y53116575D01*
X60237782Y53372515D01*
X59812169Y53548810D01*
X59360340Y53638684D01*
X58899660Y53638684D01*
X58447831Y53548810D01*
X58022218Y53372515D01*
X57639176Y53116575D01*
X57313425Y52790824D01*
X57057485Y52407782D01*
X56881190Y51982169D01*
X56791316Y51530340D01*
X50927000Y51530340D01*
X50927000Y55753000D01*
X68453000Y55753000D01*
X68453000Y27811802D01*
X68191210Y28073592D01*
X68235000Y28293740D01*
X68235000Y28586260D01*
X68177932Y28873158D01*
X68065990Y29143411D01*
X67903475Y29386632D01*
X67696632Y29593475D01*
X67522240Y29710000D01*
X67696632Y29826525D01*
X67903475Y30033368D01*
X68065990Y30276589D01*
X68177932Y30546842D01*
X68235000Y30833740D01*
X68235000Y31126260D01*
X68177932Y31413158D01*
X68065990Y31683411D01*
X67903475Y31926632D01*
X67696632Y32133475D01*
X67522240Y32250000D01*
X67696632Y32366525D01*
X67903475Y32573368D01*
X68065990Y32816589D01*
X68177932Y33086842D01*
X68235000Y33373740D01*
X68235000Y33666260D01*
X68177932Y33953158D01*
X68065990Y34223411D01*
X67903475Y34466632D01*
X67696632Y34673475D01*
X67522240Y34790000D01*
X67696632Y34906525D01*
X67903475Y35113368D01*
X68065990Y35356589D01*
X68177932Y35626842D01*
X68235000Y35913740D01*
X68235000Y36206260D01*
X68177932Y36493158D01*
X68065990Y36763411D01*
X67903475Y37006632D01*
X67696632Y37213475D01*
X67522240Y37330000D01*
X67696632Y37446525D01*
X67903475Y37653368D01*
X68065990Y37896589D01*
X68177932Y38166842D01*
X68235000Y38453740D01*
X68235000Y38746260D01*
X68177932Y39033158D01*
X68065990Y39303411D01*
X67903475Y39546632D01*
X67696632Y39753475D01*
X67522240Y39870000D01*
X67696632Y39986525D01*
X67903475Y40193368D01*
X68065990Y40436589D01*
X68177932Y40706842D01*
X68235000Y40993740D01*
X68235000Y41286260D01*
X68177932Y41573158D01*
X68065990Y41843411D01*
X67903475Y42086632D01*
X67696632Y42293475D01*
X67522240Y42410000D01*
X67696632Y42526525D01*
X67903475Y42733368D01*
X68065990Y42976589D01*
X68177932Y43246842D01*
X68235000Y43533740D01*
X68235000Y43826260D01*
X68177932Y44113158D01*
X68065990Y44383411D01*
X67903475Y44626632D01*
X67696632Y44833475D01*
X67522240Y44950000D01*
X67696632Y45066525D01*
X67903475Y45273368D01*
X68065990Y45516589D01*
X68177932Y45786842D01*
X68235000Y46073740D01*
X68235000Y46366260D01*
X68177932Y46653158D01*
X68065990Y46923411D01*
X67903475Y47166632D01*
X67696632Y47373475D01*
X67522240Y47490000D01*
X67696632Y47606525D01*
X67903475Y47813368D01*
X68065990Y48056589D01*
X68177932Y48326842D01*
X68235000Y48613740D01*
X68235000Y48906260D01*
X68177932Y49193158D01*
X68065990Y49463411D01*
X67903475Y49706632D01*
X67696632Y49913475D01*
X67453411Y50075990D01*
X67183158Y50187932D01*
X66896260Y50245000D01*
X66603740Y50245000D01*
X66316842Y50187932D01*
X66046589Y50075990D01*
X65803368Y49913475D01*
X65671513Y49781620D01*
X65649502Y49854180D01*
X65590537Y49964494D01*
X65511185Y50061185D01*
X65414494Y50140537D01*
X65304180Y50199502D01*
X65184482Y50235812D01*
X65060000Y50248072D01*
X63360000Y50248072D01*
X63235518Y50235812D01*
X63115820Y50199502D01*
X63005506Y50140537D01*
X62908815Y50061185D01*
X62829463Y49964494D01*
X62770498Y49854180D01*
X62734188Y49734482D01*
X62721928Y49610000D01*
X62721928Y47910000D01*
X62734188Y47785518D01*
X62770498Y47665820D01*
X62829463Y47555506D01*
X62908815Y47458815D01*
X63005506Y47379463D01*
X63115820Y47320498D01*
X63188380Y47298487D01*
X63056525Y47166632D01*
X62894010Y46923411D01*
X62782068Y46653158D01*
X62725000Y46366260D01*
X62725000Y46073740D01*
X62782068Y45786842D01*
X62894010Y45516589D01*
X63056525Y45273368D01*
X63263368Y45066525D01*
X63437760Y44950000D01*
X63263368Y44833475D01*
X63056525Y44626632D01*
X62894010Y44383411D01*
X62782068Y44113158D01*
X62725000Y43826260D01*
X62725000Y43533740D01*
X62782068Y43246842D01*
X62894010Y42976589D01*
X63029704Y42773509D01*
X62353997Y42097801D01*
X62325000Y42074003D01*
X62301202Y42045005D01*
X62301201Y42045004D01*
X62230026Y41958278D01*
X62159454Y41826248D01*
X62115998Y41682987D01*
X62101324Y41534002D01*
X62105001Y41496670D01*
X62105000Y35241212D01*
X61083998Y34220209D01*
X61055000Y34196411D01*
X61031202Y34167413D01*
X61031201Y34167412D01*
X60960026Y34080686D01*
X60889454Y33948656D01*
X60884197Y33931325D01*
X60850159Y33819111D01*
X60845998Y33805395D01*
X60831324Y33656410D01*
X60835001Y33619078D01*
X60835000Y29524802D01*
X60645199Y29335000D01*
X43620410Y29335000D01*
X43583087Y29338676D01*
X43545764Y29335000D01*
X43545755Y29335000D01*
X43534983Y29333939D01*
X43617962Y29402038D01*
X43728405Y29536613D01*
X43810472Y29690149D01*
X43861008Y29856745D01*
X43878072Y30029999D01*
X43878072Y30930001D01*
X43861008Y31103255D01*
X43810472Y31269851D01*
X43728405Y31423387D01*
X43617962Y31557962D01*
X43483387Y31668405D01*
X43400000Y31712976D01*
X43400000Y33960544D01*
X43511110Y33971487D01*
X43791033Y34056401D01*
X44049013Y34194294D01*
X44275134Y34379866D01*
X44327223Y34443337D01*
X44381595Y34341614D01*
X44492038Y34207038D01*
X44626614Y34096595D01*
X44780150Y34014528D01*
X44946746Y33963992D01*
X45120000Y33946928D01*
X46320000Y33946928D01*
X46493254Y33963992D01*
X46659850Y34014528D01*
X46813386Y34096595D01*
X46947962Y34207038D01*
X47058405Y34341614D01*
X47140472Y34495150D01*
X47191008Y34661746D01*
X47208072Y34835000D01*
X47208072Y36285000D01*
X47191008Y36458254D01*
X47140472Y36624850D01*
X47058405Y36778386D01*
X46947962Y36912962D01*
X46813386Y37023405D01*
X46659850Y37105472D01*
X46493254Y37156008D01*
X46320000Y37173072D01*
X45120000Y37173072D01*
X44946746Y37156008D01*
X44780150Y37105472D01*
X44626614Y37023405D01*
X44492038Y36912962D01*
X44381595Y36778386D01*
X44327223Y36676663D01*
X44275134Y36740134D01*
X44049014Y36925706D01*
X43791034Y37063599D01*
X43511111Y37148513D01*
X43220000Y37177185D01*
X42928890Y37148513D01*
X42648967Y37063599D01*
X42390987Y36925706D01*
X42164866Y36740134D01*
X41979294Y36514014D01*
X41970000Y36496626D01*
X41960706Y36514014D01*
X41775134Y36740134D01*
X41549014Y36925706D01*
X41291034Y37063599D01*
X41011111Y37148513D01*
X40720000Y37177185D01*
X40428890Y37148513D01*
X40148967Y37063599D01*
X39890987Y36925706D01*
X39664866Y36740134D01*
X39479294Y36514014D01*
X39465538Y36488278D01*
X39309049Y36694429D01*
X39091193Y36887496D01*
X38839858Y37034352D01*
X38576890Y37126476D01*
X38347000Y37005155D01*
X38347000Y35687000D01*
X38367000Y35687000D01*
X38367000Y35433000D01*
X38347000Y35433000D01*
X38347000Y34114845D01*
X38576890Y33993524D01*
X38839858Y34085648D01*
X39091193Y34232504D01*
X39309049Y34425571D01*
X39465538Y34631722D01*
X39479294Y34605987D01*
X39664866Y34379866D01*
X39880001Y34203309D01*
X39880000Y31712977D01*
X39796613Y31668405D01*
X39662038Y31557962D01*
X39551595Y31423387D01*
X39469528Y31269851D01*
X39418992Y31103255D01*
X39401928Y30930001D01*
X39401928Y30029999D01*
X39418992Y29856745D01*
X39469528Y29690149D01*
X39551595Y29536613D01*
X39662038Y29402038D01*
X39796613Y29291595D01*
X39880000Y29247023D01*
X39880001Y28267553D01*
X39483750Y28265000D01*
X39325000Y28106250D01*
X39325000Y27432000D01*
X39345000Y27432000D01*
X39345000Y27178000D01*
X39325000Y27178000D01*
X39325000Y27158000D01*
X39071000Y27158000D01*
X39071000Y27178000D01*
X37959250Y27178000D01*
X37800500Y27019250D01*
X37797428Y26980000D01*
X37809688Y26855518D01*
X37845998Y26735820D01*
X37881180Y26670000D01*
X37845998Y26604180D01*
X37809688Y26484482D01*
X37797428Y26360000D01*
X37797428Y26035000D01*
X36918394Y26035000D01*
X36923072Y26082500D01*
X36920000Y26384250D01*
X36761250Y26543000D01*
X35687000Y26543000D01*
X35687000Y26523000D01*
X35433000Y26523000D01*
X35433000Y26543000D01*
X34358750Y26543000D01*
X34200000Y26384250D01*
X34196928Y26082500D01*
X34202455Y26026378D01*
X34166118Y26022799D01*
X34046996Y25986664D01*
X33937213Y25927983D01*
X33840987Y25849013D01*
X33762017Y25752787D01*
X33703336Y25643004D01*
X33667201Y25523882D01*
X33655000Y25400000D01*
X33655000Y22664802D01*
X33145000Y23174801D01*
X33145000Y26547177D01*
X33148676Y26584500D01*
X33145000Y26621823D01*
X33145000Y26621833D01*
X33134003Y26733486D01*
X33090546Y26876747D01*
X33019974Y27008776D01*
X32925001Y27124501D01*
X32896002Y27148299D01*
X32786801Y27257500D01*
X34196928Y27257500D01*
X34200000Y26955750D01*
X34358750Y26797000D01*
X35433000Y26797000D01*
X35433000Y27733750D01*
X35687000Y27733750D01*
X35687000Y26797000D01*
X36761250Y26797000D01*
X36920000Y26955750D01*
X36923072Y27257500D01*
X36910812Y27381982D01*
X36874502Y27501680D01*
X36815537Y27611994D01*
X36800760Y27630000D01*
X37797428Y27630000D01*
X37800500Y27590750D01*
X37959250Y27432000D01*
X39071000Y27432000D01*
X39071000Y28106250D01*
X38912250Y28265000D01*
X38435500Y28268072D01*
X38311018Y28255812D01*
X38191320Y28219502D01*
X38081006Y28160537D01*
X37984315Y28081185D01*
X37904963Y27984494D01*
X37845998Y27874180D01*
X37809688Y27754482D01*
X37797428Y27630000D01*
X36800760Y27630000D01*
X36736185Y27708685D01*
X36639494Y27788037D01*
X36529180Y27847002D01*
X36409482Y27883312D01*
X36285000Y27895572D01*
X35845750Y27892500D01*
X35687000Y27733750D01*
X35433000Y27733750D01*
X35274250Y27892500D01*
X34835000Y27895572D01*
X34710518Y27883312D01*
X34590820Y27847002D01*
X34480506Y27788037D01*
X34383815Y27708685D01*
X34304463Y27611994D01*
X34245498Y27501680D01*
X34209188Y27381982D01*
X34196928Y27257500D01*
X32786801Y27257500D01*
X32228303Y27815998D01*
X32204501Y27845001D01*
X32088776Y27939974D01*
X31956747Y28010546D01*
X31912689Y28023911D01*
X31865685Y28081185D01*
X31768994Y28160537D01*
X31658680Y28219502D01*
X31538982Y28255812D01*
X31414500Y28268072D01*
X29889500Y28268072D01*
X29765018Y28255812D01*
X29645320Y28219502D01*
X29535006Y28160537D01*
X29438315Y28081185D01*
X29358963Y27984494D01*
X29299998Y27874180D01*
X29263688Y27754482D01*
X29251428Y27630000D01*
X29251428Y26980000D01*
X29263688Y26855518D01*
X29299998Y26735820D01*
X29335180Y26670000D01*
X29299998Y26604180D01*
X29263688Y26484482D01*
X29251428Y26360000D01*
X29251428Y25710000D01*
X29263688Y25585518D01*
X29299998Y25465820D01*
X29308534Y25449850D01*
X29215224Y25399974D01*
X29099499Y25305001D01*
X29075696Y25275997D01*
X28698998Y24899299D01*
X28670000Y24875501D01*
X28646202Y24846503D01*
X28646201Y24846502D01*
X28575026Y24759776D01*
X28504454Y24627746D01*
X28482442Y24555178D01*
X28460998Y24484486D01*
X28451397Y24387003D01*
X28446324Y24335500D01*
X28450001Y24298168D01*
X28450000Y22262323D01*
X28446324Y22225000D01*
X28450000Y22187678D01*
X28450000Y22187668D01*
X28460997Y22076015D01*
X28504454Y21932754D01*
X28575026Y21800724D01*
X28603005Y21766632D01*
X28669999Y21684999D01*
X28699003Y21661196D01*
X30551200Y19808998D01*
X30574999Y19779999D01*
X30690724Y19685026D01*
X30822753Y19614454D01*
X30966014Y19570997D01*
X31077667Y19560000D01*
X31077677Y19560000D01*
X31115000Y19556324D01*
X31152323Y19560000D01*
X42291197Y19560000D01*
X42291000Y19558000D01*
X42291000Y12446000D01*
X42303201Y12322118D01*
X42339336Y12202996D01*
X42398017Y12093213D01*
X42476987Y11996987D01*
X42573213Y11918017D01*
X42682996Y11859336D01*
X42802118Y11823201D01*
X42926000Y11811000D01*
X46313789Y11811000D01*
X46275506Y11790537D01*
X46178815Y11711185D01*
X46099463Y11614494D01*
X46040498Y11504180D01*
X46004188Y11384482D01*
X45991928Y11260000D01*
X45995000Y8345750D01*
X46153750Y8187000D01*
X49403000Y8187000D01*
X49403000Y11736250D01*
X49244250Y11895000D01*
X48824648Y11895493D01*
X48866787Y11918017D01*
X48963013Y11996987D01*
X49041983Y12093213D01*
X49100664Y12202996D01*
X49136799Y12322118D01*
X49149000Y12446000D01*
X49149000Y12624069D01*
X49244250Y12625000D01*
X49403000Y12783750D01*
X49403000Y14233000D01*
X49383000Y14233000D01*
X49383000Y14487000D01*
X49403000Y14487000D01*
X49403000Y15936250D01*
X49244250Y16095000D01*
X49149000Y16095931D01*
X49149000Y17018000D01*
X49136799Y17141882D01*
X49100664Y17261004D01*
X49094247Y17273009D01*
X49145537Y17335506D01*
X49204502Y17445820D01*
X49240812Y17565518D01*
X49253072Y17690000D01*
X49806928Y17690000D01*
X49819188Y17565518D01*
X49855498Y17445820D01*
X49914463Y17335506D01*
X49993815Y17238815D01*
X50090506Y17159463D01*
X50200820Y17100498D01*
X50320518Y17064188D01*
X50445000Y17051928D01*
X50746750Y17055000D01*
X50905500Y17213750D01*
X50905500Y18288000D01*
X49968750Y18288000D01*
X49810000Y18129250D01*
X49806928Y17690000D01*
X49253072Y17690000D01*
X49250000Y18129250D01*
X49091250Y18288000D01*
X48154500Y18288000D01*
X48154500Y18268000D01*
X47900500Y18268000D01*
X47900500Y18288000D01*
X47880500Y18288000D01*
X47880500Y18542000D01*
X47900500Y18542000D01*
X47900500Y18562000D01*
X48154500Y18562000D01*
X48154500Y18542000D01*
X49091250Y18542000D01*
X49250000Y18700750D01*
X49253072Y19140000D01*
X49240812Y19264482D01*
X49204502Y19384180D01*
X49145537Y19494494D01*
X49091778Y19560000D01*
X49968222Y19560000D01*
X49914463Y19494494D01*
X49855498Y19384180D01*
X49819188Y19264482D01*
X49806928Y19140000D01*
X49810000Y18700750D01*
X49968750Y18542000D01*
X50905500Y18542000D01*
X50905500Y18562000D01*
X51159500Y18562000D01*
X51159500Y18542000D01*
X51179500Y18542000D01*
X51179500Y18288000D01*
X51159500Y18288000D01*
X51159500Y17213750D01*
X51200112Y17173138D01*
X50350987Y16324013D01*
X50272017Y16227787D01*
X50213336Y16118004D01*
X50205048Y16090681D01*
X50130000Y16098072D01*
X49815750Y16095000D01*
X49657000Y15936250D01*
X49657000Y14487000D01*
X49677000Y14487000D01*
X49677000Y14233000D01*
X49657000Y14233000D01*
X49657000Y12783750D01*
X49815750Y12625000D01*
X50130000Y12621928D01*
X50165000Y12625375D01*
X50165000Y12065000D01*
X50177201Y11941118D01*
X50191057Y11895441D01*
X49815750Y11895000D01*
X49657000Y11736250D01*
X49657000Y8187000D01*
X52906250Y8187000D01*
X53065000Y8345750D01*
X53067592Y10804382D01*
X55430987Y8440987D01*
X55527213Y8362017D01*
X55636996Y8303336D01*
X55755001Y8267540D01*
X55755001Y7022332D01*
X55751324Y6985000D01*
X55755001Y6947667D01*
X55761412Y6882581D01*
X55765998Y6836015D01*
X55809454Y6692754D01*
X55880026Y6560724D01*
X55948737Y6477000D01*
X55975000Y6444999D01*
X56003998Y6421201D01*
X57534522Y4890676D01*
X57395745Y4877008D01*
X57229149Y4826472D01*
X57075613Y4744405D01*
X56941038Y4633962D01*
X56830595Y4499387D01*
X56748528Y4345851D01*
X56697992Y4179255D01*
X56680928Y4006001D01*
X56680928Y3105999D01*
X56697992Y2932745D01*
X56748528Y2766149D01*
X56830595Y2612613D01*
X56941038Y2478038D01*
X57032787Y2402742D01*
X56966038Y2347962D01*
X56855595Y2213387D01*
X56773528Y2059851D01*
X56722992Y1893255D01*
X56705928Y1720001D01*
X56705928Y819999D01*
X56716762Y710000D01*
X48034874Y710000D01*
X47999999Y713435D01*
X47965124Y710000D01*
X47965123Y710000D01*
X47860816Y699727D01*
X47726980Y659128D01*
X47603637Y593200D01*
X47495525Y504475D01*
X47473292Y477384D01*
X45705909Y-1290000D01*
X45401473Y-1290000D01*
X45694305Y-997168D01*
X45951334Y-612496D01*
X46128379Y-185072D01*
X46218636Y268680D01*
X46218636Y731320D01*
X46128379Y1185072D01*
X45951334Y1612496D01*
X45694305Y1997168D01*
X45367168Y2324305D01*
X44982496Y2581334D01*
X44555072Y2758379D01*
X44101320Y2848636D01*
X43638680Y2848636D01*
X43184928Y2758379D01*
X42757504Y2581334D01*
X42372832Y2324305D01*
X42045695Y1997168D01*
X41788666Y1612496D01*
X41611621Y1185072D01*
X41521364Y731320D01*
X41521364Y268680D01*
X41611621Y-185072D01*
X41788666Y-612496D01*
X42045695Y-997168D01*
X42338527Y-1290000D01*
X13294092Y-1290000D01*
X11526712Y477379D01*
X11504475Y504475D01*
X11396363Y593200D01*
X11273020Y659128D01*
X11139184Y699727D01*
X11034877Y710000D01*
X11034875Y710000D01*
X11000000Y713435D01*
X10965125Y710000D01*
X2034721Y710000D01*
X1750101Y737907D01*
X1509718Y810483D01*
X1397000Y870416D01*
X1397000Y49610000D01*
X1761928Y49610000D01*
X1761928Y47910000D01*
X1774188Y47785518D01*
X1810498Y47665820D01*
X1869463Y47555506D01*
X1948815Y47458815D01*
X2045506Y47379463D01*
X2155820Y47320498D01*
X2228380Y47298487D01*
X2096525Y47166632D01*
X1934010Y46923411D01*
X1822068Y46653158D01*
X1765000Y46366260D01*
X1765000Y46073740D01*
X1822068Y45786842D01*
X1934010Y45516589D01*
X2096525Y45273368D01*
X2303368Y45066525D01*
X2477760Y44950000D01*
X2303368Y44833475D01*
X2096525Y44626632D01*
X1934010Y44383411D01*
X1822068Y44113158D01*
X1765000Y43826260D01*
X1765000Y43533740D01*
X1822068Y43246842D01*
X1934010Y42976589D01*
X2096525Y42733368D01*
X2303368Y42526525D01*
X2477760Y42410000D01*
X2303368Y42293475D01*
X2096525Y42086632D01*
X1934010Y41843411D01*
X1822068Y41573158D01*
X1765000Y41286260D01*
X1765000Y40993740D01*
X1822068Y40706842D01*
X1934010Y40436589D01*
X2096525Y40193368D01*
X2303368Y39986525D01*
X2477760Y39870000D01*
X2303368Y39753475D01*
X2096525Y39546632D01*
X1934010Y39303411D01*
X1822068Y39033158D01*
X1765000Y38746260D01*
X1765000Y38453740D01*
X1822068Y38166842D01*
X1934010Y37896589D01*
X2096525Y37653368D01*
X2303368Y37446525D01*
X2477760Y37330000D01*
X2303368Y37213475D01*
X2096525Y37006632D01*
X1934010Y36763411D01*
X1822068Y36493158D01*
X1765000Y36206260D01*
X1765000Y35913740D01*
X1822068Y35626842D01*
X1934010Y35356589D01*
X2096525Y35113368D01*
X2303368Y34906525D01*
X2477760Y34790000D01*
X2303368Y34673475D01*
X2096525Y34466632D01*
X1934010Y34223411D01*
X1822068Y33953158D01*
X1765000Y33666260D01*
X1765000Y33373740D01*
X1822068Y33086842D01*
X1934010Y32816589D01*
X2096525Y32573368D01*
X2303368Y32366525D01*
X2477760Y32250000D01*
X2303368Y32133475D01*
X2096525Y31926632D01*
X1934010Y31683411D01*
X1822068Y31413158D01*
X1765000Y31126260D01*
X1765000Y30833740D01*
X1822068Y30546842D01*
X1934010Y30276589D01*
X2096525Y30033368D01*
X2303368Y29826525D01*
X2477760Y29710000D01*
X2303368Y29593475D01*
X2096525Y29386632D01*
X1934010Y29143411D01*
X1822068Y28873158D01*
X1765000Y28586260D01*
X1765000Y28293740D01*
X1822068Y28006842D01*
X1934010Y27736589D01*
X2096525Y27493368D01*
X2303368Y27286525D01*
X2485534Y27164805D01*
X2368645Y27095178D01*
X2152412Y26900269D01*
X1978359Y26666920D01*
X1853175Y26404099D01*
X1808524Y26256890D01*
X1929845Y26027000D01*
X3123000Y26027000D01*
X3123000Y26047000D01*
X3377000Y26047000D01*
X3377000Y26027000D01*
X5663000Y26027000D01*
X5663000Y26047000D01*
X5917000Y26047000D01*
X5917000Y26027000D01*
X7110155Y26027000D01*
X7231476Y26256890D01*
X7186825Y26404099D01*
X7061641Y26666920D01*
X6887588Y26900269D01*
X6671355Y27095178D01*
X6554466Y27164805D01*
X6736632Y27286525D01*
X6943475Y27493368D01*
X7105990Y27736589D01*
X7217932Y28006842D01*
X7275000Y28293740D01*
X7275000Y28586260D01*
X7217932Y28873158D01*
X7105990Y29143411D01*
X6943475Y29386632D01*
X6736632Y29593475D01*
X6562240Y29710000D01*
X6736632Y29826525D01*
X6943475Y30033368D01*
X7105990Y30276589D01*
X7217932Y30546842D01*
X7275000Y30833740D01*
X7275000Y31126260D01*
X7217932Y31413158D01*
X7105990Y31683411D01*
X6943475Y31926632D01*
X6736632Y32133475D01*
X6562240Y32250000D01*
X6736632Y32366525D01*
X6943475Y32573368D01*
X7105990Y32816589D01*
X7217932Y33086842D01*
X7275000Y33373740D01*
X7275000Y33666260D01*
X7217932Y33953158D01*
X7105990Y34223411D01*
X6943475Y34466632D01*
X6736632Y34673475D01*
X6562240Y34790000D01*
X6736632Y34906525D01*
X6943475Y35113368D01*
X7105990Y35356589D01*
X7217932Y35626842D01*
X7275000Y35913740D01*
X7275000Y36206260D01*
X7217932Y36493158D01*
X7105990Y36763411D01*
X6943475Y37006632D01*
X6736632Y37213475D01*
X6562240Y37330000D01*
X6736632Y37446525D01*
X6943475Y37653368D01*
X7105990Y37896589D01*
X7217932Y38166842D01*
X7275000Y38453740D01*
X7275000Y38746260D01*
X7217932Y39033158D01*
X7105990Y39303411D01*
X6943475Y39546632D01*
X6736632Y39753475D01*
X6554466Y39875195D01*
X6671355Y39944822D01*
X6887588Y40139731D01*
X7061641Y40373080D01*
X7186825Y40635901D01*
X7231476Y40783110D01*
X7110155Y41013000D01*
X5917000Y41013000D01*
X5917000Y40993000D01*
X5663000Y40993000D01*
X5663000Y41013000D01*
X5643000Y41013000D01*
X5643000Y41267000D01*
X5663000Y41267000D01*
X5663000Y41287000D01*
X5917000Y41287000D01*
X5917000Y41267000D01*
X7110155Y41267000D01*
X7231476Y41496890D01*
X7186825Y41644099D01*
X7061641Y41906920D01*
X6887588Y42140269D01*
X6671355Y42335178D01*
X6554466Y42404805D01*
X6736632Y42526525D01*
X6943475Y42733368D01*
X7105990Y42976589D01*
X7217932Y43246842D01*
X7275000Y43533740D01*
X7275000Y43826260D01*
X7217932Y44113158D01*
X7105990Y44383411D01*
X6943475Y44626632D01*
X6736632Y44833475D01*
X6562240Y44950000D01*
X6736632Y45066525D01*
X6943475Y45273368D01*
X7105990Y45516589D01*
X7217932Y45786842D01*
X7275000Y46073740D01*
X7275000Y46366260D01*
X7217932Y46653158D01*
X7182789Y46738000D01*
X8700789Y46738000D01*
X13210001Y42228787D01*
X13210000Y40016072D01*
X11975000Y40016072D01*
X11935000Y40012132D01*
X11935000Y40249637D01*
X11887540Y40488236D01*
X11794443Y40712992D01*
X11659287Y40915267D01*
X11487267Y41087287D01*
X11284992Y41222443D01*
X11060236Y41315540D01*
X10821637Y41363000D01*
X10578363Y41363000D01*
X10339764Y41315540D01*
X10115008Y41222443D01*
X9912733Y41087287D01*
X9740713Y40915267D01*
X9605557Y40712992D01*
X9512460Y40488236D01*
X9465000Y40249637D01*
X9465000Y40006363D01*
X9512460Y39767764D01*
X9605557Y39543008D01*
X9740713Y39340733D01*
X9912733Y39168713D01*
X10115008Y39033557D01*
X10339764Y38940460D01*
X10578363Y38893000D01*
X10821637Y38893000D01*
X11060236Y38940460D01*
X11086928Y38951516D01*
X11086928Y38069730D01*
X9902998Y36885799D01*
X9874000Y36862001D01*
X9850202Y36833003D01*
X9850201Y36833002D01*
X9779026Y36746276D01*
X9708454Y36614246D01*
X9703840Y36599034D01*
X9669030Y36484276D01*
X9664998Y36470985D01*
X9650324Y36322000D01*
X9654001Y36284668D01*
X9654000Y27212502D01*
X9650324Y27175180D01*
X9654000Y27137858D01*
X9654000Y27137848D01*
X9664997Y27026195D01*
X9708454Y26882934D01*
X9779026Y26750904D01*
X9793321Y26733486D01*
X9873999Y26635179D01*
X9903003Y26611376D01*
X20340393Y16173985D01*
X20364187Y16144992D01*
X20393180Y16121198D01*
X20393185Y16121193D01*
X20479911Y16050018D01*
X20573487Y16000000D01*
X17982614Y16000000D01*
X18054960Y16238493D01*
X18081701Y16510000D01*
X18054960Y16781507D01*
X17975764Y17042581D01*
X17847157Y17283188D01*
X17674081Y17494081D01*
X17463188Y17667157D01*
X17222581Y17795764D01*
X16961507Y17874960D01*
X16758037Y17895000D01*
X16121963Y17895000D01*
X15918493Y17874960D01*
X15657419Y17795764D01*
X15416812Y17667157D01*
X15205919Y17494081D01*
X15032843Y17283188D01*
X14904236Y17042581D01*
X14825040Y16781507D01*
X14798299Y16510000D01*
X14825040Y16238493D01*
X14897386Y16000000D01*
X7299801Y16000000D01*
X7240600Y16059201D01*
X7217932Y16173158D01*
X7105990Y16443411D01*
X6943475Y16686632D01*
X6736632Y16893475D01*
X6562240Y17010000D01*
X6736632Y17126525D01*
X6943475Y17333368D01*
X7105990Y17576589D01*
X7217932Y17846842D01*
X7275000Y18133740D01*
X7275000Y18426260D01*
X7217932Y18713158D01*
X7105990Y18983411D01*
X6943475Y19226632D01*
X6736632Y19433475D01*
X6562240Y19550000D01*
X6736632Y19666525D01*
X6943475Y19873368D01*
X7105990Y20116589D01*
X7217932Y20386842D01*
X7275000Y20673740D01*
X7275000Y20966260D01*
X7217932Y21253158D01*
X7105990Y21523411D01*
X6943475Y21766632D01*
X6736632Y21973475D01*
X6554466Y22095195D01*
X6671355Y22164822D01*
X6887588Y22359731D01*
X7061641Y22593080D01*
X7186825Y22855901D01*
X7231476Y23003110D01*
X7110155Y23233000D01*
X5917000Y23233000D01*
X5917000Y23213000D01*
X5663000Y23213000D01*
X5663000Y23233000D01*
X5643000Y23233000D01*
X5643000Y23487000D01*
X5663000Y23487000D01*
X5663000Y25773000D01*
X5917000Y25773000D01*
X5917000Y23487000D01*
X7110155Y23487000D01*
X7231476Y23716890D01*
X7186825Y23864099D01*
X7061641Y24126920D01*
X6887588Y24360269D01*
X6671355Y24555178D01*
X6545745Y24630000D01*
X6671355Y24704822D01*
X6887588Y24899731D01*
X7061641Y25133080D01*
X7186825Y25395901D01*
X7231476Y25543110D01*
X7110155Y25773000D01*
X5917000Y25773000D01*
X5663000Y25773000D01*
X3377000Y25773000D01*
X3377000Y25753000D01*
X3123000Y25753000D01*
X3123000Y25773000D01*
X1929845Y25773000D01*
X1808524Y25543110D01*
X1853175Y25395901D01*
X1978359Y25133080D01*
X2152412Y24899731D01*
X2368645Y24704822D01*
X2485534Y24635195D01*
X2303368Y24513475D01*
X2096525Y24306632D01*
X1934010Y24063411D01*
X1822068Y23793158D01*
X1765000Y23506260D01*
X1765000Y23213740D01*
X1822068Y22926842D01*
X1934010Y22656589D01*
X2096525Y22413368D01*
X2303368Y22206525D01*
X2477760Y22090000D01*
X2303368Y21973475D01*
X2096525Y21766632D01*
X1934010Y21523411D01*
X1822068Y21253158D01*
X1765000Y20966260D01*
X1765000Y20673740D01*
X1822068Y20386842D01*
X1934010Y20116589D01*
X2096525Y19873368D01*
X2303368Y19666525D01*
X2477760Y19550000D01*
X2303368Y19433475D01*
X2096525Y19226632D01*
X1934010Y18983411D01*
X1822068Y18713158D01*
X1765000Y18426260D01*
X1765000Y18133740D01*
X1822068Y17846842D01*
X1934010Y17576589D01*
X2096525Y17333368D01*
X2303368Y17126525D01*
X2477760Y17010000D01*
X2303368Y16893475D01*
X2096525Y16686632D01*
X1934010Y16443411D01*
X1822068Y16173158D01*
X1765000Y15886260D01*
X1765000Y15593740D01*
X1822068Y15306842D01*
X1934010Y15036589D01*
X2096525Y14793368D01*
X2303368Y14586525D01*
X2477760Y14470000D01*
X2303368Y14353475D01*
X2096525Y14146632D01*
X1934010Y13903411D01*
X1822068Y13633158D01*
X1765000Y13346260D01*
X1765000Y13053740D01*
X1822068Y12766842D01*
X1934010Y12496589D01*
X2096525Y12253368D01*
X2303368Y12046525D01*
X2477760Y11930000D01*
X2303368Y11813475D01*
X2096525Y11606632D01*
X1934010Y11363411D01*
X1822068Y11093158D01*
X1765000Y10806260D01*
X1765000Y10513740D01*
X1822068Y10226842D01*
X1934010Y9956589D01*
X2096525Y9713368D01*
X2303368Y9506525D01*
X2477760Y9390000D01*
X2303368Y9273475D01*
X2096525Y9066632D01*
X1934010Y8823411D01*
X1822068Y8553158D01*
X1765000Y8266260D01*
X1765000Y7973740D01*
X1822068Y7686842D01*
X1934010Y7416589D01*
X2096525Y7173368D01*
X2303368Y6966525D01*
X2477760Y6850000D01*
X2303368Y6733475D01*
X2096525Y6526632D01*
X1934010Y6283411D01*
X1822068Y6013158D01*
X1765000Y5726260D01*
X1765000Y5433740D01*
X1822068Y5146842D01*
X1934010Y4876589D01*
X2096525Y4633368D01*
X2303368Y4426525D01*
X2477760Y4310000D01*
X2303368Y4193475D01*
X2096525Y3986632D01*
X1934010Y3743411D01*
X1822068Y3473158D01*
X1765000Y3186260D01*
X1765000Y2893740D01*
X1822068Y2606842D01*
X1934010Y2336589D01*
X2096525Y2093368D01*
X2303368Y1886525D01*
X2546589Y1724010D01*
X2816842Y1612068D01*
X3103740Y1555000D01*
X3396260Y1555000D01*
X3683158Y1612068D01*
X3953411Y1724010D01*
X4196632Y1886525D01*
X4403475Y2093368D01*
X4520000Y2267760D01*
X4636525Y2093368D01*
X4843368Y1886525D01*
X5086589Y1724010D01*
X5356842Y1612068D01*
X5643740Y1555000D01*
X5936260Y1555000D01*
X6223158Y1612068D01*
X6493411Y1724010D01*
X6736632Y1886525D01*
X6943475Y2093368D01*
X7105990Y2336589D01*
X7217932Y2606842D01*
X7275000Y2893740D01*
X7275000Y3186260D01*
X7218796Y3468815D01*
X14847682Y3468815D01*
X14866513Y3365764D01*
X14978610Y3116100D01*
X15137260Y2893103D01*
X15336366Y2705342D01*
X15568276Y2560032D01*
X15824079Y2462757D01*
X16093944Y2417256D01*
X16313000Y2578127D01*
X16313000Y3683000D01*
X16567000Y3683000D01*
X16567000Y2578127D01*
X16786056Y2417256D01*
X17055921Y2462757D01*
X17311724Y2560032D01*
X17543634Y2705342D01*
X17742740Y2893103D01*
X17901390Y3116100D01*
X18013487Y3365764D01*
X18032318Y3468815D01*
X35307682Y3468815D01*
X35326513Y3365764D01*
X35438610Y3116100D01*
X35597260Y2893103D01*
X35796366Y2705342D01*
X36028276Y2560032D01*
X36284079Y2462757D01*
X36553944Y2417256D01*
X36773000Y2578127D01*
X36773000Y3683000D01*
X37027000Y3683000D01*
X37027000Y2578127D01*
X37246056Y2417256D01*
X37515921Y2462757D01*
X37771724Y2560032D01*
X38003634Y2705342D01*
X38202740Y2893103D01*
X38361390Y3116100D01*
X38473487Y3365764D01*
X38492318Y3468815D01*
X38369656Y3683000D01*
X37027000Y3683000D01*
X36773000Y3683000D01*
X35430344Y3683000D01*
X35307682Y3468815D01*
X18032318Y3468815D01*
X17909656Y3683000D01*
X16567000Y3683000D01*
X16313000Y3683000D01*
X14970344Y3683000D01*
X14847682Y3468815D01*
X7218796Y3468815D01*
X7217932Y3473158D01*
X7105990Y3743411D01*
X6943475Y3986632D01*
X6736632Y4193475D01*
X6562240Y4310000D01*
X6736632Y4426525D01*
X6943475Y4633368D01*
X7105990Y4876589D01*
X7217932Y5146842D01*
X7275000Y5433740D01*
X7275000Y5726260D01*
X7217932Y6013158D01*
X7105990Y6283411D01*
X6943475Y6526632D01*
X6736632Y6733475D01*
X6562240Y6850000D01*
X6736632Y6966525D01*
X6943475Y7173368D01*
X7105990Y7416589D01*
X7217932Y7686842D01*
X7275000Y7973740D01*
X7275000Y8266260D01*
X7217932Y8553158D01*
X7105990Y8823411D01*
X6943475Y9066632D01*
X6736632Y9273475D01*
X6562240Y9390000D01*
X6736632Y9506525D01*
X6943475Y9713368D01*
X7105990Y9956589D01*
X7217932Y10226842D01*
X7275000Y10513740D01*
X7275000Y10806260D01*
X7217932Y11093158D01*
X7105990Y11363411D01*
X6943475Y11606632D01*
X6736632Y11813475D01*
X6562240Y11930000D01*
X6736632Y12046525D01*
X6943475Y12253368D01*
X7105990Y12496589D01*
X7217932Y12766842D01*
X7275000Y13053740D01*
X7275000Y13346260D01*
X7217932Y13633158D01*
X7105990Y13903411D01*
X6943475Y14146632D01*
X6736632Y14353475D01*
X6562240Y14470000D01*
X6673836Y14544566D01*
X6692753Y14534454D01*
X6836014Y14490997D01*
X6947667Y14480000D01*
X6947675Y14480000D01*
X6985000Y14476324D01*
X7022325Y14480000D01*
X14897386Y14480000D01*
X14825040Y14241507D01*
X14798299Y13970000D01*
X14825040Y13698493D01*
X14904236Y13437419D01*
X15032843Y13196812D01*
X15205919Y12985919D01*
X15416812Y12812843D01*
X15627927Y12700000D01*
X15416812Y12587157D01*
X15205919Y12414081D01*
X15032843Y12203188D01*
X14904236Y11962581D01*
X14825040Y11701507D01*
X14798299Y11430000D01*
X14825040Y11158493D01*
X14904236Y10897419D01*
X15032843Y10656812D01*
X15205919Y10445919D01*
X15416812Y10272843D01*
X15627927Y10160000D01*
X15416812Y10047157D01*
X15205919Y9874081D01*
X15032843Y9663188D01*
X14904236Y9422581D01*
X14825040Y9161507D01*
X14798299Y8890000D01*
X14825040Y8618493D01*
X14904236Y8357419D01*
X15032843Y8116812D01*
X15205919Y7905919D01*
X15416812Y7732843D01*
X15627927Y7620000D01*
X15416812Y7507157D01*
X15205919Y7334081D01*
X15032843Y7123188D01*
X14904236Y6882581D01*
X14825040Y6621507D01*
X14798299Y6350000D01*
X14825040Y6078493D01*
X14904236Y5817419D01*
X15032843Y5576812D01*
X15205919Y5365919D01*
X15416812Y5192843D01*
X15625028Y5081549D01*
X15568276Y5059968D01*
X15336366Y4914658D01*
X15137260Y4726897D01*
X14978610Y4503900D01*
X14866513Y4254236D01*
X14847682Y4151185D01*
X14970344Y3937000D01*
X16313000Y3937000D01*
X16313000Y3957000D01*
X16567000Y3957000D01*
X16567000Y3937000D01*
X17909656Y3937000D01*
X18032318Y4151185D01*
X18013487Y4254236D01*
X17901390Y4503900D01*
X17742740Y4726897D01*
X17543634Y4914658D01*
X17311724Y5059968D01*
X17254972Y5081549D01*
X17463188Y5192843D01*
X17674081Y5365919D01*
X17847157Y5576812D01*
X17975764Y5817419D01*
X18033823Y6008815D01*
X35307682Y6008815D01*
X35326513Y5905764D01*
X35438610Y5656100D01*
X35597260Y5433103D01*
X35796366Y5245342D01*
X36028276Y5100032D01*
X36080954Y5080000D01*
X36028276Y5059968D01*
X35796366Y4914658D01*
X35597260Y4726897D01*
X35438610Y4503900D01*
X35326513Y4254236D01*
X35307682Y4151185D01*
X35430344Y3937000D01*
X36773000Y3937000D01*
X36773000Y5041873D01*
X36721083Y5080000D01*
X36773000Y5118127D01*
X36773000Y6223000D01*
X37027000Y6223000D01*
X37027000Y5118127D01*
X37078917Y5080000D01*
X37027000Y5041873D01*
X37027000Y3937000D01*
X38369656Y3937000D01*
X38492318Y4151185D01*
X38473487Y4254236D01*
X38361390Y4503900D01*
X38202740Y4726897D01*
X38061595Y4860000D01*
X45991928Y4860000D01*
X46004188Y4735518D01*
X46040498Y4615820D01*
X46099463Y4505506D01*
X46178815Y4408815D01*
X46275506Y4329463D01*
X46385820Y4270498D01*
X46505518Y4234188D01*
X46630000Y4221928D01*
X49244250Y4225000D01*
X49403000Y4383750D01*
X49403000Y7933000D01*
X49657000Y7933000D01*
X49657000Y4383750D01*
X49815750Y4225000D01*
X52430000Y4221928D01*
X52554482Y4234188D01*
X52674180Y4270498D01*
X52784494Y4329463D01*
X52881185Y4408815D01*
X52960537Y4505506D01*
X53019502Y4615820D01*
X53055812Y4735518D01*
X53068072Y4860000D01*
X53065000Y7774250D01*
X52906250Y7933000D01*
X49657000Y7933000D01*
X49403000Y7933000D01*
X46153750Y7933000D01*
X45995000Y7774250D01*
X45991928Y4860000D01*
X38061595Y4860000D01*
X38003634Y4914658D01*
X37771724Y5059968D01*
X37719046Y5080000D01*
X37771724Y5100032D01*
X38003634Y5245342D01*
X38202740Y5433103D01*
X38361390Y5656100D01*
X38473487Y5905764D01*
X38492318Y6008815D01*
X38369656Y6223000D01*
X37027000Y6223000D01*
X36773000Y6223000D01*
X35430344Y6223000D01*
X35307682Y6008815D01*
X18033823Y6008815D01*
X18054960Y6078493D01*
X18081701Y6350000D01*
X18054960Y6621507D01*
X17975764Y6882581D01*
X17847157Y7123188D01*
X17674081Y7334081D01*
X17463188Y7507157D01*
X17252073Y7620000D01*
X17463188Y7732843D01*
X17674081Y7905919D01*
X17847157Y8116812D01*
X17975764Y8357419D01*
X18054960Y8618493D01*
X18081701Y8890000D01*
X18054960Y9161507D01*
X17975764Y9422581D01*
X17847157Y9663188D01*
X17674081Y9874081D01*
X17463188Y10047157D01*
X17252073Y10160000D01*
X17463188Y10272843D01*
X17674081Y10445919D01*
X17847157Y10656812D01*
X17975764Y10897419D01*
X18054960Y11158493D01*
X18081701Y11430000D01*
X18054960Y11701507D01*
X17975764Y11962581D01*
X17847157Y12203188D01*
X17674081Y12414081D01*
X17463188Y12587157D01*
X17252073Y12700000D01*
X17463188Y12812843D01*
X17674081Y12985919D01*
X17847157Y13196812D01*
X17975764Y13437419D01*
X18054960Y13698493D01*
X18081701Y13970000D01*
X18054960Y14241507D01*
X17982614Y14480000D01*
X24854465Y14480000D01*
X24957111Y14411414D01*
X25127271Y14340932D01*
X25307911Y14305000D01*
X25492089Y14305000D01*
X25672729Y14340932D01*
X25842889Y14411414D01*
X25996028Y14513738D01*
X26126262Y14643972D01*
X26228586Y14797111D01*
X26299068Y14967271D01*
X26335000Y15147911D01*
X26335000Y15332089D01*
X26299068Y15512729D01*
X26228586Y15682889D01*
X26126262Y15836028D01*
X26037298Y15924992D01*
X32022208Y15924991D01*
X34038001Y13909197D01*
X34038000Y9779323D01*
X34034324Y9742000D01*
X34038000Y9704678D01*
X34038000Y9704668D01*
X34048997Y9593015D01*
X34062673Y9547932D01*
X34092454Y9449754D01*
X34163026Y9317724D01*
X34165856Y9314276D01*
X34257999Y9201999D01*
X34287002Y9178197D01*
X35086201Y8378997D01*
X35109999Y8349999D01*
X35138997Y8326201D01*
X35225723Y8255026D01*
X35352990Y8187000D01*
X35357753Y8184454D01*
X35475833Y8148635D01*
X35492843Y8116812D01*
X35665919Y7905919D01*
X35876812Y7732843D01*
X36085028Y7621549D01*
X36028276Y7599968D01*
X35796366Y7454658D01*
X35597260Y7266897D01*
X35438610Y7043900D01*
X35326513Y6794236D01*
X35307682Y6691185D01*
X35430344Y6477000D01*
X36773000Y6477000D01*
X36773000Y6497000D01*
X37027000Y6497000D01*
X37027000Y6477000D01*
X38369656Y6477000D01*
X38492318Y6691185D01*
X38473487Y6794236D01*
X38361390Y7043900D01*
X38202740Y7266897D01*
X38003634Y7454658D01*
X37771724Y7599968D01*
X37714972Y7621549D01*
X37923188Y7732843D01*
X38134081Y7905919D01*
X38307157Y8116812D01*
X38435764Y8357419D01*
X38514960Y8618493D01*
X38541701Y8890000D01*
X38514960Y9161507D01*
X38435764Y9422581D01*
X38307157Y9663188D01*
X38134081Y9874081D01*
X37923188Y10047157D01*
X37712073Y10160000D01*
X37923188Y10272843D01*
X38134081Y10445919D01*
X38307157Y10656812D01*
X38435764Y10897419D01*
X38514960Y11158493D01*
X38541701Y11430000D01*
X38514960Y11701507D01*
X38435764Y11962581D01*
X38307157Y12203188D01*
X38134081Y12414081D01*
X37923188Y12587157D01*
X37712073Y12700000D01*
X37923188Y12812843D01*
X38134081Y12985919D01*
X38307157Y13196812D01*
X38435764Y13437419D01*
X38514960Y13698493D01*
X38541701Y13970000D01*
X38514960Y14241507D01*
X38435764Y14502581D01*
X38307157Y14743188D01*
X38134081Y14954081D01*
X37923188Y15127157D01*
X37712073Y15240000D01*
X37923188Y15352843D01*
X38134081Y15525919D01*
X38307157Y15736812D01*
X38435764Y15977419D01*
X38514960Y16238493D01*
X38541701Y16510000D01*
X38514960Y16781507D01*
X38435764Y17042581D01*
X38307157Y17283188D01*
X38134081Y17494081D01*
X37923188Y17667157D01*
X37682581Y17795764D01*
X37421507Y17874960D01*
X37218037Y17895000D01*
X36581963Y17895000D01*
X36378493Y17874960D01*
X36117419Y17795764D01*
X35876812Y17667157D01*
X35665919Y17494081D01*
X35492843Y17283188D01*
X35364236Y17042581D01*
X35285040Y16781507D01*
X35274124Y16670677D01*
X33848794Y18096007D01*
X33824991Y18125011D01*
X33709266Y18219984D01*
X33577237Y18290556D01*
X33433976Y18334013D01*
X33322323Y18345010D01*
X33322312Y18345010D01*
X33284990Y18348686D01*
X33247668Y18345010D01*
X21591792Y18345010D01*
X14536802Y25400000D01*
X19177000Y25400000D01*
X19177000Y22352000D01*
X19189201Y22228118D01*
X19225336Y22108996D01*
X19284017Y21999213D01*
X19362987Y21902987D01*
X19459213Y21824017D01*
X19568996Y21765336D01*
X19688118Y21729201D01*
X19812000Y21717000D01*
X26416000Y21717000D01*
X26539882Y21729201D01*
X26659004Y21765336D01*
X26768787Y21824017D01*
X26865013Y21902987D01*
X26943983Y21999213D01*
X27002664Y22108996D01*
X27038799Y22228118D01*
X27051000Y22352000D01*
X27051000Y24706199D01*
X27911003Y25566201D01*
X27940001Y25589999D01*
X28034974Y25705724D01*
X28105546Y25837753D01*
X28149003Y25981014D01*
X28160000Y26092667D01*
X28163677Y26130000D01*
X28160000Y26167333D01*
X28160000Y28895199D01*
X28406729Y29141928D01*
X28655001Y29141928D01*
X28828255Y29158992D01*
X28994851Y29209528D01*
X29148387Y29291595D01*
X29282962Y29402038D01*
X29393405Y29536613D01*
X29475472Y29690149D01*
X29526008Y29856745D01*
X29543072Y30029999D01*
X29543072Y30930001D01*
X29526008Y31103255D01*
X29475472Y31269851D01*
X29430000Y31354923D01*
X29430000Y33960544D01*
X29541110Y33971487D01*
X29821033Y34056401D01*
X30079013Y34194294D01*
X30305134Y34379866D01*
X30357223Y34443337D01*
X30411595Y34341614D01*
X30522038Y34207038D01*
X30656614Y34096595D01*
X30810150Y34014528D01*
X30976746Y33963992D01*
X31150000Y33946928D01*
X32350000Y33946928D01*
X32523254Y33963992D01*
X32689850Y34014528D01*
X32843386Y34096595D01*
X32977962Y34207038D01*
X33088405Y34341614D01*
X33170472Y34495150D01*
X33221008Y34661746D01*
X33238072Y34835000D01*
X33238072Y35200733D01*
X36753680Y35200733D01*
X36827558Y34919170D01*
X36954947Y34657430D01*
X37130951Y34425571D01*
X37348807Y34232504D01*
X37600142Y34085648D01*
X37863110Y33993524D01*
X38093000Y34114845D01*
X38093000Y35433000D01*
X36893835Y35433000D01*
X36753680Y35200733D01*
X33238072Y35200733D01*
X33238072Y35919267D01*
X36753680Y35919267D01*
X36893835Y35687000D01*
X38093000Y35687000D01*
X38093000Y37005155D01*
X37863110Y37126476D01*
X37600142Y37034352D01*
X37348807Y36887496D01*
X37130951Y36694429D01*
X36954947Y36462570D01*
X36827558Y36200830D01*
X36753680Y35919267D01*
X33238072Y35919267D01*
X33238072Y36285000D01*
X33221008Y36458254D01*
X33170472Y36624850D01*
X33088405Y36778386D01*
X32977962Y36912962D01*
X32843386Y37023405D01*
X32689850Y37105472D01*
X32523254Y37156008D01*
X32350000Y37173072D01*
X31150000Y37173072D01*
X30976746Y37156008D01*
X30810150Y37105472D01*
X30656614Y37023405D01*
X30522038Y36912962D01*
X30411595Y36778386D01*
X30357223Y36676663D01*
X30305134Y36740134D01*
X30079014Y36925706D01*
X29821034Y37063599D01*
X29541111Y37148513D01*
X29250000Y37177185D01*
X28958890Y37148513D01*
X28678967Y37063599D01*
X28420987Y36925706D01*
X28194866Y36740134D01*
X28009294Y36514014D01*
X28000000Y36496626D01*
X27990706Y36514014D01*
X27805134Y36740134D01*
X27579014Y36925706D01*
X27321034Y37063599D01*
X27041111Y37148513D01*
X26750000Y37177185D01*
X26458890Y37148513D01*
X26178967Y37063599D01*
X25920987Y36925706D01*
X25694866Y36740134D01*
X25509294Y36514014D01*
X25495538Y36488278D01*
X25339049Y36694429D01*
X25121193Y36887496D01*
X24869858Y37034352D01*
X24606890Y37126476D01*
X24377000Y37005155D01*
X24377000Y35687000D01*
X24397000Y35687000D01*
X24397000Y35433000D01*
X24377000Y35433000D01*
X24377000Y34114845D01*
X24606890Y33993524D01*
X24869858Y34085648D01*
X25121193Y34232504D01*
X25339049Y34425571D01*
X25495538Y34631722D01*
X25509294Y34605987D01*
X25694866Y34379866D01*
X25910001Y34203309D01*
X25910000Y31813640D01*
X25781745Y31801008D01*
X25615149Y31750472D01*
X25461613Y31668405D01*
X25327038Y31557962D01*
X25216595Y31423387D01*
X25134528Y31269851D01*
X25083992Y31103255D01*
X25066928Y30930001D01*
X25066928Y30029999D01*
X25083992Y29856745D01*
X25134528Y29690149D01*
X25216595Y29536613D01*
X25327038Y29402038D01*
X25461613Y29291595D01*
X25615149Y29209528D01*
X25781745Y29158992D01*
X25910000Y29146360D01*
X25910001Y28267553D01*
X25513750Y28265000D01*
X25355000Y28106250D01*
X25355000Y27432000D01*
X25375000Y27432000D01*
X25375000Y27178000D01*
X25355000Y27178000D01*
X25355000Y27158000D01*
X25101000Y27158000D01*
X25101000Y27178000D01*
X23989250Y27178000D01*
X23830500Y27019250D01*
X23827428Y26980000D01*
X23839688Y26855518D01*
X23875998Y26735820D01*
X23911180Y26670000D01*
X23875998Y26604180D01*
X23839688Y26484482D01*
X23827428Y26360000D01*
X23827428Y26035000D01*
X22692276Y26035000D01*
X22699072Y26104000D01*
X22696000Y26405750D01*
X22537250Y26564500D01*
X21463000Y26564500D01*
X21463000Y26544500D01*
X21209000Y26544500D01*
X21209000Y26564500D01*
X20134750Y26564500D01*
X19976000Y26405750D01*
X19972928Y26104000D01*
X19979724Y26035000D01*
X19812000Y26035000D01*
X19688118Y26022799D01*
X19568996Y25986664D01*
X19459213Y25927983D01*
X19362987Y25849013D01*
X19284017Y25752787D01*
X19225336Y25643004D01*
X19189201Y25523882D01*
X19177000Y25400000D01*
X14536802Y25400000D01*
X12827002Y27109799D01*
X12827002Y27201834D01*
X13059267Y27061680D01*
X13340830Y27135558D01*
X13602570Y27262947D01*
X13623717Y27279000D01*
X19972928Y27279000D01*
X19976000Y26977250D01*
X20134750Y26818500D01*
X21209000Y26818500D01*
X21209000Y27755250D01*
X21463000Y27755250D01*
X21463000Y26818500D01*
X22537250Y26818500D01*
X22696000Y26977250D01*
X22699072Y27279000D01*
X22686812Y27403482D01*
X22650502Y27523180D01*
X22593405Y27630000D01*
X23827428Y27630000D01*
X23830500Y27590750D01*
X23989250Y27432000D01*
X25101000Y27432000D01*
X25101000Y28106250D01*
X24942250Y28265000D01*
X24465500Y28268072D01*
X24341018Y28255812D01*
X24221320Y28219502D01*
X24111006Y28160537D01*
X24014315Y28081185D01*
X23934963Y27984494D01*
X23875998Y27874180D01*
X23839688Y27754482D01*
X23827428Y27630000D01*
X22593405Y27630000D01*
X22591537Y27633494D01*
X22512185Y27730185D01*
X22415494Y27809537D01*
X22305180Y27868502D01*
X22185482Y27904812D01*
X22061000Y27917072D01*
X21621750Y27914000D01*
X21463000Y27755250D01*
X21209000Y27755250D01*
X21050250Y27914000D01*
X20611000Y27917072D01*
X20486518Y27904812D01*
X20366820Y27868502D01*
X20256506Y27809537D01*
X20159815Y27730185D01*
X20080463Y27633494D01*
X20021498Y27523180D01*
X19985188Y27403482D01*
X19972928Y27279000D01*
X13623717Y27279000D01*
X13834429Y27438951D01*
X14027496Y27656807D01*
X14174352Y27908142D01*
X14266476Y28171110D01*
X14145155Y28401000D01*
X12827000Y28401000D01*
X12827000Y28381000D01*
X12573000Y28381000D01*
X12573000Y28401000D01*
X12553000Y28401000D01*
X12553000Y28655000D01*
X12573000Y28655000D01*
X12573000Y28675000D01*
X12827000Y28675000D01*
X12827000Y28655000D01*
X14145155Y28655000D01*
X14266476Y28884890D01*
X14174352Y29147858D01*
X14027496Y29399193D01*
X13834429Y29617049D01*
X13628278Y29773538D01*
X13654014Y29787294D01*
X13880134Y29972866D01*
X14065706Y30198986D01*
X14203599Y30456966D01*
X14288513Y30736889D01*
X14317185Y31028000D01*
X14288513Y31319111D01*
X14203599Y31599034D01*
X14065706Y31857014D01*
X13880134Y32083134D01*
X13654014Y32268706D01*
X13636626Y32278000D01*
X13654014Y32287294D01*
X13880134Y32472866D01*
X14065706Y32698986D01*
X14203599Y32956966D01*
X14288513Y33236889D01*
X14317185Y33528000D01*
X14288513Y33819111D01*
X14236704Y33989902D01*
X15439013Y35192211D01*
X15449397Y35200733D01*
X22783680Y35200733D01*
X22857558Y34919170D01*
X22984947Y34657430D01*
X23160951Y34425571D01*
X23378807Y34232504D01*
X23630142Y34085648D01*
X23893110Y33993524D01*
X24123000Y34114845D01*
X24123000Y35433000D01*
X22923835Y35433000D01*
X22783680Y35200733D01*
X15449397Y35200733D01*
X15468010Y35216008D01*
X15562983Y35331733D01*
X15633555Y35463762D01*
X15677012Y35607023D01*
X15688009Y35718676D01*
X15688009Y35718677D01*
X15691686Y35756009D01*
X15688009Y35793342D01*
X15688009Y35919267D01*
X22783680Y35919267D01*
X22923835Y35687000D01*
X24123000Y35687000D01*
X24123000Y37005155D01*
X23893110Y37126476D01*
X23630142Y37034352D01*
X23378807Y36887496D01*
X23160951Y36694429D01*
X22984947Y36462570D01*
X22857558Y36200830D01*
X22783680Y35919267D01*
X15688009Y35919267D01*
X15688009Y42821079D01*
X15691685Y42858402D01*
X15688009Y42895725D01*
X15688009Y42895734D01*
X15677012Y43007387D01*
X15633555Y43150648D01*
X15562983Y43282677D01*
X15468010Y43398402D01*
X15439012Y43422200D01*
X14577212Y44284000D01*
X54391928Y44284000D01*
X54391928Y42584000D01*
X54404188Y42459518D01*
X54440498Y42339820D01*
X54499463Y42229506D01*
X54578815Y42132815D01*
X54675506Y42053463D01*
X54785820Y41994498D01*
X54905518Y41958188D01*
X55030000Y41945928D01*
X56730000Y41945928D01*
X56854482Y41958188D01*
X56974180Y41994498D01*
X57084494Y42053463D01*
X57181185Y42132815D01*
X57260537Y42229506D01*
X57319502Y42339820D01*
X57341513Y42412380D01*
X57473368Y42280525D01*
X57716589Y42118010D01*
X57986842Y42006068D01*
X58273740Y41949000D01*
X58566260Y41949000D01*
X58853158Y42006068D01*
X59123411Y42118010D01*
X59366632Y42280525D01*
X59573475Y42487368D01*
X59735990Y42730589D01*
X59847932Y43000842D01*
X59905000Y43287740D01*
X59905000Y43580260D01*
X59847932Y43867158D01*
X59735990Y44137411D01*
X59573475Y44380632D01*
X59366632Y44587475D01*
X59123411Y44749990D01*
X58853158Y44861932D01*
X58566260Y44919000D01*
X58273740Y44919000D01*
X57986842Y44861932D01*
X57716589Y44749990D01*
X57473368Y44587475D01*
X57341513Y44455620D01*
X57319502Y44528180D01*
X57260537Y44638494D01*
X57181185Y44735185D01*
X57084494Y44814537D01*
X56974180Y44873502D01*
X56854482Y44909812D01*
X56730000Y44922072D01*
X55030000Y44922072D01*
X54905518Y44909812D01*
X54785820Y44873502D01*
X54675506Y44814537D01*
X54578815Y44735185D01*
X54499463Y44638494D01*
X54440498Y44528180D01*
X54404188Y44408482D01*
X54391928Y44284000D01*
X14577212Y44284000D01*
X8312214Y50548997D01*
X8288411Y50578001D01*
X8172686Y50672974D01*
X8040657Y50743546D01*
X7897396Y50787003D01*
X7785743Y50798000D01*
X7785732Y50798000D01*
X7748410Y50801676D01*
X7711088Y50798000D01*
X4609322Y50798000D01*
X4571999Y50801676D01*
X4534676Y50798000D01*
X4534667Y50798000D01*
X4423014Y50787003D01*
X4279753Y50743546D01*
X4147724Y50672974D01*
X4031999Y50578001D01*
X4008201Y50549003D01*
X3707270Y50248072D01*
X2400000Y50248072D01*
X2275518Y50235812D01*
X2155820Y50199502D01*
X2045506Y50140537D01*
X1948815Y50061185D01*
X1869463Y49964494D01*
X1810498Y49854180D01*
X1774188Y49734482D01*
X1761928Y49610000D01*
X1397000Y49610000D01*
X1397000Y52810340D01*
X8531316Y52810340D01*
X8531316Y52349660D01*
X8621190Y51897831D01*
X8797485Y51472218D01*
X9053425Y51089176D01*
X9379176Y50763425D01*
X9762218Y50507485D01*
X10187831Y50331190D01*
X10639660Y50241316D01*
X11100340Y50241316D01*
X11552169Y50331190D01*
X11977782Y50507485D01*
X12360824Y50763425D01*
X12686575Y51089176D01*
X12942515Y51472218D01*
X13118810Y51897831D01*
X13208684Y52349660D01*
X13208684Y52810340D01*
X13118810Y53262169D01*
X12942515Y53687782D01*
X12686575Y54070824D01*
X12360824Y54396575D01*
X11977782Y54652515D01*
X11552169Y54828810D01*
X11100340Y54918684D01*
X10639660Y54918684D01*
X10187831Y54828810D01*
X9762218Y54652515D01*
X9379176Y54396575D01*
X9053425Y54070824D01*
X8797485Y53687782D01*
X8621190Y53262169D01*
X8531316Y52810340D01*
X1397000Y52810340D01*
X1397000Y55753000D01*
X18923000Y55753000D01*
X18923000Y48260000D01*
G04 #@! TA.AperFunction,Conductor*
D22*
G36*
X18923000Y48260000D02*
G01*
X18925440Y48235224D01*
X18932667Y48211399D01*
X18944403Y48189443D01*
X18960197Y48170197D01*
X18979443Y48154403D01*
X19001399Y48142667D01*
X19025224Y48135440D01*
X19050000Y48133000D01*
X50800000Y48133000D01*
X50824776Y48135440D01*
X50848601Y48142667D01*
X50870557Y48154403D01*
X50889803Y48170197D01*
X50905597Y48189443D01*
X50917333Y48211399D01*
X50924560Y48235224D01*
X50927000Y48260000D01*
X50927000Y51530340D01*
X56791316Y51530340D01*
X56791316Y51069660D01*
X56881190Y50617831D01*
X57057485Y50192218D01*
X57313425Y49809176D01*
X57639176Y49483425D01*
X58022218Y49227485D01*
X58447831Y49051190D01*
X58899660Y48961316D01*
X59360340Y48961316D01*
X59812169Y49051190D01*
X60237782Y49227485D01*
X60620824Y49483425D01*
X60946575Y49809176D01*
X61202515Y50192218D01*
X61378810Y50617831D01*
X61468684Y51069660D01*
X61468684Y51530340D01*
X61378810Y51982169D01*
X61202515Y52407782D01*
X60946575Y52790824D01*
X60620824Y53116575D01*
X60237782Y53372515D01*
X59812169Y53548810D01*
X59360340Y53638684D01*
X58899660Y53638684D01*
X58447831Y53548810D01*
X58022218Y53372515D01*
X57639176Y53116575D01*
X57313425Y52790824D01*
X57057485Y52407782D01*
X56881190Y51982169D01*
X56791316Y51530340D01*
X50927000Y51530340D01*
X50927000Y55753000D01*
X68453000Y55753000D01*
X68453000Y27811802D01*
X68191210Y28073592D01*
X68235000Y28293740D01*
X68235000Y28586260D01*
X68177932Y28873158D01*
X68065990Y29143411D01*
X67903475Y29386632D01*
X67696632Y29593475D01*
X67522240Y29710000D01*
X67696632Y29826525D01*
X67903475Y30033368D01*
X68065990Y30276589D01*
X68177932Y30546842D01*
X68235000Y30833740D01*
X68235000Y31126260D01*
X68177932Y31413158D01*
X68065990Y31683411D01*
X67903475Y31926632D01*
X67696632Y32133475D01*
X67522240Y32250000D01*
X67696632Y32366525D01*
X67903475Y32573368D01*
X68065990Y32816589D01*
X68177932Y33086842D01*
X68235000Y33373740D01*
X68235000Y33666260D01*
X68177932Y33953158D01*
X68065990Y34223411D01*
X67903475Y34466632D01*
X67696632Y34673475D01*
X67522240Y34790000D01*
X67696632Y34906525D01*
X67903475Y35113368D01*
X68065990Y35356589D01*
X68177932Y35626842D01*
X68235000Y35913740D01*
X68235000Y36206260D01*
X68177932Y36493158D01*
X68065990Y36763411D01*
X67903475Y37006632D01*
X67696632Y37213475D01*
X67522240Y37330000D01*
X67696632Y37446525D01*
X67903475Y37653368D01*
X68065990Y37896589D01*
X68177932Y38166842D01*
X68235000Y38453740D01*
X68235000Y38746260D01*
X68177932Y39033158D01*
X68065990Y39303411D01*
X67903475Y39546632D01*
X67696632Y39753475D01*
X67522240Y39870000D01*
X67696632Y39986525D01*
X67903475Y40193368D01*
X68065990Y40436589D01*
X68177932Y40706842D01*
X68235000Y40993740D01*
X68235000Y41286260D01*
X68177932Y41573158D01*
X68065990Y41843411D01*
X67903475Y42086632D01*
X67696632Y42293475D01*
X67522240Y42410000D01*
X67696632Y42526525D01*
X67903475Y42733368D01*
X68065990Y42976589D01*
X68177932Y43246842D01*
X68235000Y43533740D01*
X68235000Y43826260D01*
X68177932Y44113158D01*
X68065990Y44383411D01*
X67903475Y44626632D01*
X67696632Y44833475D01*
X67522240Y44950000D01*
X67696632Y45066525D01*
X67903475Y45273368D01*
X68065990Y45516589D01*
X68177932Y45786842D01*
X68235000Y46073740D01*
X68235000Y46366260D01*
X68177932Y46653158D01*
X68065990Y46923411D01*
X67903475Y47166632D01*
X67696632Y47373475D01*
X67522240Y47490000D01*
X67696632Y47606525D01*
X67903475Y47813368D01*
X68065990Y48056589D01*
X68177932Y48326842D01*
X68235000Y48613740D01*
X68235000Y48906260D01*
X68177932Y49193158D01*
X68065990Y49463411D01*
X67903475Y49706632D01*
X67696632Y49913475D01*
X67453411Y50075990D01*
X67183158Y50187932D01*
X66896260Y50245000D01*
X66603740Y50245000D01*
X66316842Y50187932D01*
X66046589Y50075990D01*
X65803368Y49913475D01*
X65671513Y49781620D01*
X65649502Y49854180D01*
X65590537Y49964494D01*
X65511185Y50061185D01*
X65414494Y50140537D01*
X65304180Y50199502D01*
X65184482Y50235812D01*
X65060000Y50248072D01*
X63360000Y50248072D01*
X63235518Y50235812D01*
X63115820Y50199502D01*
X63005506Y50140537D01*
X62908815Y50061185D01*
X62829463Y49964494D01*
X62770498Y49854180D01*
X62734188Y49734482D01*
X62721928Y49610000D01*
X62721928Y47910000D01*
X62734188Y47785518D01*
X62770498Y47665820D01*
X62829463Y47555506D01*
X62908815Y47458815D01*
X63005506Y47379463D01*
X63115820Y47320498D01*
X63188380Y47298487D01*
X63056525Y47166632D01*
X62894010Y46923411D01*
X62782068Y46653158D01*
X62725000Y46366260D01*
X62725000Y46073740D01*
X62782068Y45786842D01*
X62894010Y45516589D01*
X63056525Y45273368D01*
X63263368Y45066525D01*
X63437760Y44950000D01*
X63263368Y44833475D01*
X63056525Y44626632D01*
X62894010Y44383411D01*
X62782068Y44113158D01*
X62725000Y43826260D01*
X62725000Y43533740D01*
X62782068Y43246842D01*
X62894010Y42976589D01*
X63029704Y42773509D01*
X62353997Y42097801D01*
X62325000Y42074003D01*
X62301202Y42045005D01*
X62301201Y42045004D01*
X62230026Y41958278D01*
X62159454Y41826248D01*
X62115998Y41682987D01*
X62101324Y41534002D01*
X62105001Y41496670D01*
X62105000Y35241212D01*
X61083998Y34220209D01*
X61055000Y34196411D01*
X61031202Y34167413D01*
X61031201Y34167412D01*
X60960026Y34080686D01*
X60889454Y33948656D01*
X60884197Y33931325D01*
X60850159Y33819111D01*
X60845998Y33805395D01*
X60831324Y33656410D01*
X60835001Y33619078D01*
X60835000Y29524802D01*
X60645199Y29335000D01*
X43620410Y29335000D01*
X43583087Y29338676D01*
X43545764Y29335000D01*
X43545755Y29335000D01*
X43534983Y29333939D01*
X43617962Y29402038D01*
X43728405Y29536613D01*
X43810472Y29690149D01*
X43861008Y29856745D01*
X43878072Y30029999D01*
X43878072Y30930001D01*
X43861008Y31103255D01*
X43810472Y31269851D01*
X43728405Y31423387D01*
X43617962Y31557962D01*
X43483387Y31668405D01*
X43400000Y31712976D01*
X43400000Y33960544D01*
X43511110Y33971487D01*
X43791033Y34056401D01*
X44049013Y34194294D01*
X44275134Y34379866D01*
X44327223Y34443337D01*
X44381595Y34341614D01*
X44492038Y34207038D01*
X44626614Y34096595D01*
X44780150Y34014528D01*
X44946746Y33963992D01*
X45120000Y33946928D01*
X46320000Y33946928D01*
X46493254Y33963992D01*
X46659850Y34014528D01*
X46813386Y34096595D01*
X46947962Y34207038D01*
X47058405Y34341614D01*
X47140472Y34495150D01*
X47191008Y34661746D01*
X47208072Y34835000D01*
X47208072Y36285000D01*
X47191008Y36458254D01*
X47140472Y36624850D01*
X47058405Y36778386D01*
X46947962Y36912962D01*
X46813386Y37023405D01*
X46659850Y37105472D01*
X46493254Y37156008D01*
X46320000Y37173072D01*
X45120000Y37173072D01*
X44946746Y37156008D01*
X44780150Y37105472D01*
X44626614Y37023405D01*
X44492038Y36912962D01*
X44381595Y36778386D01*
X44327223Y36676663D01*
X44275134Y36740134D01*
X44049014Y36925706D01*
X43791034Y37063599D01*
X43511111Y37148513D01*
X43220000Y37177185D01*
X42928890Y37148513D01*
X42648967Y37063599D01*
X42390987Y36925706D01*
X42164866Y36740134D01*
X41979294Y36514014D01*
X41970000Y36496626D01*
X41960706Y36514014D01*
X41775134Y36740134D01*
X41549014Y36925706D01*
X41291034Y37063599D01*
X41011111Y37148513D01*
X40720000Y37177185D01*
X40428890Y37148513D01*
X40148967Y37063599D01*
X39890987Y36925706D01*
X39664866Y36740134D01*
X39479294Y36514014D01*
X39465538Y36488278D01*
X39309049Y36694429D01*
X39091193Y36887496D01*
X38839858Y37034352D01*
X38576890Y37126476D01*
X38347000Y37005155D01*
X38347000Y35687000D01*
X38367000Y35687000D01*
X38367000Y35433000D01*
X38347000Y35433000D01*
X38347000Y34114845D01*
X38576890Y33993524D01*
X38839858Y34085648D01*
X39091193Y34232504D01*
X39309049Y34425571D01*
X39465538Y34631722D01*
X39479294Y34605987D01*
X39664866Y34379866D01*
X39880001Y34203309D01*
X39880000Y31712977D01*
X39796613Y31668405D01*
X39662038Y31557962D01*
X39551595Y31423387D01*
X39469528Y31269851D01*
X39418992Y31103255D01*
X39401928Y30930001D01*
X39401928Y30029999D01*
X39418992Y29856745D01*
X39469528Y29690149D01*
X39551595Y29536613D01*
X39662038Y29402038D01*
X39796613Y29291595D01*
X39880000Y29247023D01*
X39880001Y28267553D01*
X39483750Y28265000D01*
X39325000Y28106250D01*
X39325000Y27432000D01*
X39345000Y27432000D01*
X39345000Y27178000D01*
X39325000Y27178000D01*
X39325000Y27158000D01*
X39071000Y27158000D01*
X39071000Y27178000D01*
X37959250Y27178000D01*
X37800500Y27019250D01*
X37797428Y26980000D01*
X37809688Y26855518D01*
X37845998Y26735820D01*
X37881180Y26670000D01*
X37845998Y26604180D01*
X37809688Y26484482D01*
X37797428Y26360000D01*
X37797428Y26035000D01*
X36918394Y26035000D01*
X36923072Y26082500D01*
X36920000Y26384250D01*
X36761250Y26543000D01*
X35687000Y26543000D01*
X35687000Y26523000D01*
X35433000Y26523000D01*
X35433000Y26543000D01*
X34358750Y26543000D01*
X34200000Y26384250D01*
X34196928Y26082500D01*
X34202455Y26026378D01*
X34166118Y26022799D01*
X34046996Y25986664D01*
X33937213Y25927983D01*
X33840987Y25849013D01*
X33762017Y25752787D01*
X33703336Y25643004D01*
X33667201Y25523882D01*
X33655000Y25400000D01*
X33655000Y22664802D01*
X33145000Y23174801D01*
X33145000Y26547177D01*
X33148676Y26584500D01*
X33145000Y26621823D01*
X33145000Y26621833D01*
X33134003Y26733486D01*
X33090546Y26876747D01*
X33019974Y27008776D01*
X32925001Y27124501D01*
X32896002Y27148299D01*
X32786801Y27257500D01*
X34196928Y27257500D01*
X34200000Y26955750D01*
X34358750Y26797000D01*
X35433000Y26797000D01*
X35433000Y27733750D01*
X35687000Y27733750D01*
X35687000Y26797000D01*
X36761250Y26797000D01*
X36920000Y26955750D01*
X36923072Y27257500D01*
X36910812Y27381982D01*
X36874502Y27501680D01*
X36815537Y27611994D01*
X36800760Y27630000D01*
X37797428Y27630000D01*
X37800500Y27590750D01*
X37959250Y27432000D01*
X39071000Y27432000D01*
X39071000Y28106250D01*
X38912250Y28265000D01*
X38435500Y28268072D01*
X38311018Y28255812D01*
X38191320Y28219502D01*
X38081006Y28160537D01*
X37984315Y28081185D01*
X37904963Y27984494D01*
X37845998Y27874180D01*
X37809688Y27754482D01*
X37797428Y27630000D01*
X36800760Y27630000D01*
X36736185Y27708685D01*
X36639494Y27788037D01*
X36529180Y27847002D01*
X36409482Y27883312D01*
X36285000Y27895572D01*
X35845750Y27892500D01*
X35687000Y27733750D01*
X35433000Y27733750D01*
X35274250Y27892500D01*
X34835000Y27895572D01*
X34710518Y27883312D01*
X34590820Y27847002D01*
X34480506Y27788037D01*
X34383815Y27708685D01*
X34304463Y27611994D01*
X34245498Y27501680D01*
X34209188Y27381982D01*
X34196928Y27257500D01*
X32786801Y27257500D01*
X32228303Y27815998D01*
X32204501Y27845001D01*
X32088776Y27939974D01*
X31956747Y28010546D01*
X31912689Y28023911D01*
X31865685Y28081185D01*
X31768994Y28160537D01*
X31658680Y28219502D01*
X31538982Y28255812D01*
X31414500Y28268072D01*
X29889500Y28268072D01*
X29765018Y28255812D01*
X29645320Y28219502D01*
X29535006Y28160537D01*
X29438315Y28081185D01*
X29358963Y27984494D01*
X29299998Y27874180D01*
X29263688Y27754482D01*
X29251428Y27630000D01*
X29251428Y26980000D01*
X29263688Y26855518D01*
X29299998Y26735820D01*
X29335180Y26670000D01*
X29299998Y26604180D01*
X29263688Y26484482D01*
X29251428Y26360000D01*
X29251428Y25710000D01*
X29263688Y25585518D01*
X29299998Y25465820D01*
X29308534Y25449850D01*
X29215224Y25399974D01*
X29099499Y25305001D01*
X29075696Y25275997D01*
X28698998Y24899299D01*
X28670000Y24875501D01*
X28646202Y24846503D01*
X28646201Y24846502D01*
X28575026Y24759776D01*
X28504454Y24627746D01*
X28482442Y24555178D01*
X28460998Y24484486D01*
X28451397Y24387003D01*
X28446324Y24335500D01*
X28450001Y24298168D01*
X28450000Y22262323D01*
X28446324Y22225000D01*
X28450000Y22187678D01*
X28450000Y22187668D01*
X28460997Y22076015D01*
X28504454Y21932754D01*
X28575026Y21800724D01*
X28603005Y21766632D01*
X28669999Y21684999D01*
X28699003Y21661196D01*
X30551200Y19808998D01*
X30574999Y19779999D01*
X30690724Y19685026D01*
X30822753Y19614454D01*
X30966014Y19570997D01*
X31077667Y19560000D01*
X31077677Y19560000D01*
X31115000Y19556324D01*
X31152323Y19560000D01*
X42291197Y19560000D01*
X42291000Y19558000D01*
X42291000Y12446000D01*
X42303201Y12322118D01*
X42339336Y12202996D01*
X42398017Y12093213D01*
X42476987Y11996987D01*
X42573213Y11918017D01*
X42682996Y11859336D01*
X42802118Y11823201D01*
X42926000Y11811000D01*
X46313789Y11811000D01*
X46275506Y11790537D01*
X46178815Y11711185D01*
X46099463Y11614494D01*
X46040498Y11504180D01*
X46004188Y11384482D01*
X45991928Y11260000D01*
X45995000Y8345750D01*
X46153750Y8187000D01*
X49403000Y8187000D01*
X49403000Y11736250D01*
X49244250Y11895000D01*
X48824648Y11895493D01*
X48866787Y11918017D01*
X48963013Y11996987D01*
X49041983Y12093213D01*
X49100664Y12202996D01*
X49136799Y12322118D01*
X49149000Y12446000D01*
X49149000Y12624069D01*
X49244250Y12625000D01*
X49403000Y12783750D01*
X49403000Y14233000D01*
X49383000Y14233000D01*
X49383000Y14487000D01*
X49403000Y14487000D01*
X49403000Y15936250D01*
X49244250Y16095000D01*
X49149000Y16095931D01*
X49149000Y17018000D01*
X49136799Y17141882D01*
X49100664Y17261004D01*
X49094247Y17273009D01*
X49145537Y17335506D01*
X49204502Y17445820D01*
X49240812Y17565518D01*
X49253072Y17690000D01*
X49806928Y17690000D01*
X49819188Y17565518D01*
X49855498Y17445820D01*
X49914463Y17335506D01*
X49993815Y17238815D01*
X50090506Y17159463D01*
X50200820Y17100498D01*
X50320518Y17064188D01*
X50445000Y17051928D01*
X50746750Y17055000D01*
X50905500Y17213750D01*
X50905500Y18288000D01*
X49968750Y18288000D01*
X49810000Y18129250D01*
X49806928Y17690000D01*
X49253072Y17690000D01*
X49250000Y18129250D01*
X49091250Y18288000D01*
X48154500Y18288000D01*
X48154500Y18268000D01*
X47900500Y18268000D01*
X47900500Y18288000D01*
X47880500Y18288000D01*
X47880500Y18542000D01*
X47900500Y18542000D01*
X47900500Y18562000D01*
X48154500Y18562000D01*
X48154500Y18542000D01*
X49091250Y18542000D01*
X49250000Y18700750D01*
X49253072Y19140000D01*
X49240812Y19264482D01*
X49204502Y19384180D01*
X49145537Y19494494D01*
X49091778Y19560000D01*
X49968222Y19560000D01*
X49914463Y19494494D01*
X49855498Y19384180D01*
X49819188Y19264482D01*
X49806928Y19140000D01*
X49810000Y18700750D01*
X49968750Y18542000D01*
X50905500Y18542000D01*
X50905500Y18562000D01*
X51159500Y18562000D01*
X51159500Y18542000D01*
X51179500Y18542000D01*
X51179500Y18288000D01*
X51159500Y18288000D01*
X51159500Y17213750D01*
X51200112Y17173138D01*
X50350987Y16324013D01*
X50272017Y16227787D01*
X50213336Y16118004D01*
X50205048Y16090681D01*
X50130000Y16098072D01*
X49815750Y16095000D01*
X49657000Y15936250D01*
X49657000Y14487000D01*
X49677000Y14487000D01*
X49677000Y14233000D01*
X49657000Y14233000D01*
X49657000Y12783750D01*
X49815750Y12625000D01*
X50130000Y12621928D01*
X50165000Y12625375D01*
X50165000Y12065000D01*
X50177201Y11941118D01*
X50191057Y11895441D01*
X49815750Y11895000D01*
X49657000Y11736250D01*
X49657000Y8187000D01*
X52906250Y8187000D01*
X53065000Y8345750D01*
X53067592Y10804382D01*
X55430987Y8440987D01*
X55527213Y8362017D01*
X55636996Y8303336D01*
X55755001Y8267540D01*
X55755001Y7022332D01*
X55751324Y6985000D01*
X55755001Y6947667D01*
X55761412Y6882581D01*
X55765998Y6836015D01*
X55809454Y6692754D01*
X55880026Y6560724D01*
X55948737Y6477000D01*
X55975000Y6444999D01*
X56003998Y6421201D01*
X57534522Y4890676D01*
X57395745Y4877008D01*
X57229149Y4826472D01*
X57075613Y4744405D01*
X56941038Y4633962D01*
X56830595Y4499387D01*
X56748528Y4345851D01*
X56697992Y4179255D01*
X56680928Y4006001D01*
X56680928Y3105999D01*
X56697992Y2932745D01*
X56748528Y2766149D01*
X56830595Y2612613D01*
X56941038Y2478038D01*
X57032787Y2402742D01*
X56966038Y2347962D01*
X56855595Y2213387D01*
X56773528Y2059851D01*
X56722992Y1893255D01*
X56705928Y1720001D01*
X56705928Y819999D01*
X56716762Y710000D01*
X48034874Y710000D01*
X47999999Y713435D01*
X47965124Y710000D01*
X47965123Y710000D01*
X47860816Y699727D01*
X47726980Y659128D01*
X47603637Y593200D01*
X47495525Y504475D01*
X47473292Y477384D01*
X45705909Y-1290000D01*
X45401473Y-1290000D01*
X45694305Y-997168D01*
X45951334Y-612496D01*
X46128379Y-185072D01*
X46218636Y268680D01*
X46218636Y731320D01*
X46128379Y1185072D01*
X45951334Y1612496D01*
X45694305Y1997168D01*
X45367168Y2324305D01*
X44982496Y2581334D01*
X44555072Y2758379D01*
X44101320Y2848636D01*
X43638680Y2848636D01*
X43184928Y2758379D01*
X42757504Y2581334D01*
X42372832Y2324305D01*
X42045695Y1997168D01*
X41788666Y1612496D01*
X41611621Y1185072D01*
X41521364Y731320D01*
X41521364Y268680D01*
X41611621Y-185072D01*
X41788666Y-612496D01*
X42045695Y-997168D01*
X42338527Y-1290000D01*
X13294092Y-1290000D01*
X11526712Y477379D01*
X11504475Y504475D01*
X11396363Y593200D01*
X11273020Y659128D01*
X11139184Y699727D01*
X11034877Y710000D01*
X11034875Y710000D01*
X11000000Y713435D01*
X10965125Y710000D01*
X2034721Y710000D01*
X1750101Y737907D01*
X1509718Y810483D01*
X1397000Y870416D01*
X1397000Y49610000D01*
X1761928Y49610000D01*
X1761928Y47910000D01*
X1774188Y47785518D01*
X1810498Y47665820D01*
X1869463Y47555506D01*
X1948815Y47458815D01*
X2045506Y47379463D01*
X2155820Y47320498D01*
X2228380Y47298487D01*
X2096525Y47166632D01*
X1934010Y46923411D01*
X1822068Y46653158D01*
X1765000Y46366260D01*
X1765000Y46073740D01*
X1822068Y45786842D01*
X1934010Y45516589D01*
X2096525Y45273368D01*
X2303368Y45066525D01*
X2477760Y44950000D01*
X2303368Y44833475D01*
X2096525Y44626632D01*
X1934010Y44383411D01*
X1822068Y44113158D01*
X1765000Y43826260D01*
X1765000Y43533740D01*
X1822068Y43246842D01*
X1934010Y42976589D01*
X2096525Y42733368D01*
X2303368Y42526525D01*
X2477760Y42410000D01*
X2303368Y42293475D01*
X2096525Y42086632D01*
X1934010Y41843411D01*
X1822068Y41573158D01*
X1765000Y41286260D01*
X1765000Y40993740D01*
X1822068Y40706842D01*
X1934010Y40436589D01*
X2096525Y40193368D01*
X2303368Y39986525D01*
X2477760Y39870000D01*
X2303368Y39753475D01*
X2096525Y39546632D01*
X1934010Y39303411D01*
X1822068Y39033158D01*
X1765000Y38746260D01*
X1765000Y38453740D01*
X1822068Y38166842D01*
X1934010Y37896589D01*
X2096525Y37653368D01*
X2303368Y37446525D01*
X2477760Y37330000D01*
X2303368Y37213475D01*
X2096525Y37006632D01*
X1934010Y36763411D01*
X1822068Y36493158D01*
X1765000Y36206260D01*
X1765000Y35913740D01*
X1822068Y35626842D01*
X1934010Y35356589D01*
X2096525Y35113368D01*
X2303368Y34906525D01*
X2477760Y34790000D01*
X2303368Y34673475D01*
X2096525Y34466632D01*
X1934010Y34223411D01*
X1822068Y33953158D01*
X1765000Y33666260D01*
X1765000Y33373740D01*
X1822068Y33086842D01*
X1934010Y32816589D01*
X2096525Y32573368D01*
X2303368Y32366525D01*
X2477760Y32250000D01*
X2303368Y32133475D01*
X2096525Y31926632D01*
X1934010Y31683411D01*
X1822068Y31413158D01*
X1765000Y31126260D01*
X1765000Y30833740D01*
X1822068Y30546842D01*
X1934010Y30276589D01*
X2096525Y30033368D01*
X2303368Y29826525D01*
X2477760Y29710000D01*
X2303368Y29593475D01*
X2096525Y29386632D01*
X1934010Y29143411D01*
X1822068Y28873158D01*
X1765000Y28586260D01*
X1765000Y28293740D01*
X1822068Y28006842D01*
X1934010Y27736589D01*
X2096525Y27493368D01*
X2303368Y27286525D01*
X2485534Y27164805D01*
X2368645Y27095178D01*
X2152412Y26900269D01*
X1978359Y26666920D01*
X1853175Y26404099D01*
X1808524Y26256890D01*
X1929845Y26027000D01*
X3123000Y26027000D01*
X3123000Y26047000D01*
X3377000Y26047000D01*
X3377000Y26027000D01*
X5663000Y26027000D01*
X5663000Y26047000D01*
X5917000Y26047000D01*
X5917000Y26027000D01*
X7110155Y26027000D01*
X7231476Y26256890D01*
X7186825Y26404099D01*
X7061641Y26666920D01*
X6887588Y26900269D01*
X6671355Y27095178D01*
X6554466Y27164805D01*
X6736632Y27286525D01*
X6943475Y27493368D01*
X7105990Y27736589D01*
X7217932Y28006842D01*
X7275000Y28293740D01*
X7275000Y28586260D01*
X7217932Y28873158D01*
X7105990Y29143411D01*
X6943475Y29386632D01*
X6736632Y29593475D01*
X6562240Y29710000D01*
X6736632Y29826525D01*
X6943475Y30033368D01*
X7105990Y30276589D01*
X7217932Y30546842D01*
X7275000Y30833740D01*
X7275000Y31126260D01*
X7217932Y31413158D01*
X7105990Y31683411D01*
X6943475Y31926632D01*
X6736632Y32133475D01*
X6562240Y32250000D01*
X6736632Y32366525D01*
X6943475Y32573368D01*
X7105990Y32816589D01*
X7217932Y33086842D01*
X7275000Y33373740D01*
X7275000Y33666260D01*
X7217932Y33953158D01*
X7105990Y34223411D01*
X6943475Y34466632D01*
X6736632Y34673475D01*
X6562240Y34790000D01*
X6736632Y34906525D01*
X6943475Y35113368D01*
X7105990Y35356589D01*
X7217932Y35626842D01*
X7275000Y35913740D01*
X7275000Y36206260D01*
X7217932Y36493158D01*
X7105990Y36763411D01*
X6943475Y37006632D01*
X6736632Y37213475D01*
X6562240Y37330000D01*
X6736632Y37446525D01*
X6943475Y37653368D01*
X7105990Y37896589D01*
X7217932Y38166842D01*
X7275000Y38453740D01*
X7275000Y38746260D01*
X7217932Y39033158D01*
X7105990Y39303411D01*
X6943475Y39546632D01*
X6736632Y39753475D01*
X6554466Y39875195D01*
X6671355Y39944822D01*
X6887588Y40139731D01*
X7061641Y40373080D01*
X7186825Y40635901D01*
X7231476Y40783110D01*
X7110155Y41013000D01*
X5917000Y41013000D01*
X5917000Y40993000D01*
X5663000Y40993000D01*
X5663000Y41013000D01*
X5643000Y41013000D01*
X5643000Y41267000D01*
X5663000Y41267000D01*
X5663000Y41287000D01*
X5917000Y41287000D01*
X5917000Y41267000D01*
X7110155Y41267000D01*
X7231476Y41496890D01*
X7186825Y41644099D01*
X7061641Y41906920D01*
X6887588Y42140269D01*
X6671355Y42335178D01*
X6554466Y42404805D01*
X6736632Y42526525D01*
X6943475Y42733368D01*
X7105990Y42976589D01*
X7217932Y43246842D01*
X7275000Y43533740D01*
X7275000Y43826260D01*
X7217932Y44113158D01*
X7105990Y44383411D01*
X6943475Y44626632D01*
X6736632Y44833475D01*
X6562240Y44950000D01*
X6736632Y45066525D01*
X6943475Y45273368D01*
X7105990Y45516589D01*
X7217932Y45786842D01*
X7275000Y46073740D01*
X7275000Y46366260D01*
X7217932Y46653158D01*
X7182789Y46738000D01*
X8700789Y46738000D01*
X13210001Y42228787D01*
X13210000Y40016072D01*
X11975000Y40016072D01*
X11935000Y40012132D01*
X11935000Y40249637D01*
X11887540Y40488236D01*
X11794443Y40712992D01*
X11659287Y40915267D01*
X11487267Y41087287D01*
X11284992Y41222443D01*
X11060236Y41315540D01*
X10821637Y41363000D01*
X10578363Y41363000D01*
X10339764Y41315540D01*
X10115008Y41222443D01*
X9912733Y41087287D01*
X9740713Y40915267D01*
X9605557Y40712992D01*
X9512460Y40488236D01*
X9465000Y40249637D01*
X9465000Y40006363D01*
X9512460Y39767764D01*
X9605557Y39543008D01*
X9740713Y39340733D01*
X9912733Y39168713D01*
X10115008Y39033557D01*
X10339764Y38940460D01*
X10578363Y38893000D01*
X10821637Y38893000D01*
X11060236Y38940460D01*
X11086928Y38951516D01*
X11086928Y38069730D01*
X9902998Y36885799D01*
X9874000Y36862001D01*
X9850202Y36833003D01*
X9850201Y36833002D01*
X9779026Y36746276D01*
X9708454Y36614246D01*
X9703840Y36599034D01*
X9669030Y36484276D01*
X9664998Y36470985D01*
X9650324Y36322000D01*
X9654001Y36284668D01*
X9654000Y27212502D01*
X9650324Y27175180D01*
X9654000Y27137858D01*
X9654000Y27137848D01*
X9664997Y27026195D01*
X9708454Y26882934D01*
X9779026Y26750904D01*
X9793321Y26733486D01*
X9873999Y26635179D01*
X9903003Y26611376D01*
X20340393Y16173985D01*
X20364187Y16144992D01*
X20393180Y16121198D01*
X20393185Y16121193D01*
X20479911Y16050018D01*
X20573487Y16000000D01*
X17982614Y16000000D01*
X18054960Y16238493D01*
X18081701Y16510000D01*
X18054960Y16781507D01*
X17975764Y17042581D01*
X17847157Y17283188D01*
X17674081Y17494081D01*
X17463188Y17667157D01*
X17222581Y17795764D01*
X16961507Y17874960D01*
X16758037Y17895000D01*
X16121963Y17895000D01*
X15918493Y17874960D01*
X15657419Y17795764D01*
X15416812Y17667157D01*
X15205919Y17494081D01*
X15032843Y17283188D01*
X14904236Y17042581D01*
X14825040Y16781507D01*
X14798299Y16510000D01*
X14825040Y16238493D01*
X14897386Y16000000D01*
X7299801Y16000000D01*
X7240600Y16059201D01*
X7217932Y16173158D01*
X7105990Y16443411D01*
X6943475Y16686632D01*
X6736632Y16893475D01*
X6562240Y17010000D01*
X6736632Y17126525D01*
X6943475Y17333368D01*
X7105990Y17576589D01*
X7217932Y17846842D01*
X7275000Y18133740D01*
X7275000Y18426260D01*
X7217932Y18713158D01*
X7105990Y18983411D01*
X6943475Y19226632D01*
X6736632Y19433475D01*
X6562240Y19550000D01*
X6736632Y19666525D01*
X6943475Y19873368D01*
X7105990Y20116589D01*
X7217932Y20386842D01*
X7275000Y20673740D01*
X7275000Y20966260D01*
X7217932Y21253158D01*
X7105990Y21523411D01*
X6943475Y21766632D01*
X6736632Y21973475D01*
X6554466Y22095195D01*
X6671355Y22164822D01*
X6887588Y22359731D01*
X7061641Y22593080D01*
X7186825Y22855901D01*
X7231476Y23003110D01*
X7110155Y23233000D01*
X5917000Y23233000D01*
X5917000Y23213000D01*
X5663000Y23213000D01*
X5663000Y23233000D01*
X5643000Y23233000D01*
X5643000Y23487000D01*
X5663000Y23487000D01*
X5663000Y25773000D01*
X5917000Y25773000D01*
X5917000Y23487000D01*
X7110155Y23487000D01*
X7231476Y23716890D01*
X7186825Y23864099D01*
X7061641Y24126920D01*
X6887588Y24360269D01*
X6671355Y24555178D01*
X6545745Y24630000D01*
X6671355Y24704822D01*
X6887588Y24899731D01*
X7061641Y25133080D01*
X7186825Y25395901D01*
X7231476Y25543110D01*
X7110155Y25773000D01*
X5917000Y25773000D01*
X5663000Y25773000D01*
X3377000Y25773000D01*
X3377000Y25753000D01*
X3123000Y25753000D01*
X3123000Y25773000D01*
X1929845Y25773000D01*
X1808524Y25543110D01*
X1853175Y25395901D01*
X1978359Y25133080D01*
X2152412Y24899731D01*
X2368645Y24704822D01*
X2485534Y24635195D01*
X2303368Y24513475D01*
X2096525Y24306632D01*
X1934010Y24063411D01*
X1822068Y23793158D01*
X1765000Y23506260D01*
X1765000Y23213740D01*
X1822068Y22926842D01*
X1934010Y22656589D01*
X2096525Y22413368D01*
X2303368Y22206525D01*
X2477760Y22090000D01*
X2303368Y21973475D01*
X2096525Y21766632D01*
X1934010Y21523411D01*
X1822068Y21253158D01*
X1765000Y20966260D01*
X1765000Y20673740D01*
X1822068Y20386842D01*
X1934010Y20116589D01*
X2096525Y19873368D01*
X2303368Y19666525D01*
X2477760Y19550000D01*
X2303368Y19433475D01*
X2096525Y19226632D01*
X1934010Y18983411D01*
X1822068Y18713158D01*
X1765000Y18426260D01*
X1765000Y18133740D01*
X1822068Y17846842D01*
X1934010Y17576589D01*
X2096525Y17333368D01*
X2303368Y17126525D01*
X2477760Y17010000D01*
X2303368Y16893475D01*
X2096525Y16686632D01*
X1934010Y16443411D01*
X1822068Y16173158D01*
X1765000Y15886260D01*
X1765000Y15593740D01*
X1822068Y15306842D01*
X1934010Y15036589D01*
X2096525Y14793368D01*
X2303368Y14586525D01*
X2477760Y14470000D01*
X2303368Y14353475D01*
X2096525Y14146632D01*
X1934010Y13903411D01*
X1822068Y13633158D01*
X1765000Y13346260D01*
X1765000Y13053740D01*
X1822068Y12766842D01*
X1934010Y12496589D01*
X2096525Y12253368D01*
X2303368Y12046525D01*
X2477760Y11930000D01*
X2303368Y11813475D01*
X2096525Y11606632D01*
X1934010Y11363411D01*
X1822068Y11093158D01*
X1765000Y10806260D01*
X1765000Y10513740D01*
X1822068Y10226842D01*
X1934010Y9956589D01*
X2096525Y9713368D01*
X2303368Y9506525D01*
X2477760Y9390000D01*
X2303368Y9273475D01*
X2096525Y9066632D01*
X1934010Y8823411D01*
X1822068Y8553158D01*
X1765000Y8266260D01*
X1765000Y7973740D01*
X1822068Y7686842D01*
X1934010Y7416589D01*
X2096525Y7173368D01*
X2303368Y6966525D01*
X2477760Y6850000D01*
X2303368Y6733475D01*
X2096525Y6526632D01*
X1934010Y6283411D01*
X1822068Y6013158D01*
X1765000Y5726260D01*
X1765000Y5433740D01*
X1822068Y5146842D01*
X1934010Y4876589D01*
X2096525Y4633368D01*
X2303368Y4426525D01*
X2477760Y4310000D01*
X2303368Y4193475D01*
X2096525Y3986632D01*
X1934010Y3743411D01*
X1822068Y3473158D01*
X1765000Y3186260D01*
X1765000Y2893740D01*
X1822068Y2606842D01*
X1934010Y2336589D01*
X2096525Y2093368D01*
X2303368Y1886525D01*
X2546589Y1724010D01*
X2816842Y1612068D01*
X3103740Y1555000D01*
X3396260Y1555000D01*
X3683158Y1612068D01*
X3953411Y1724010D01*
X4196632Y1886525D01*
X4403475Y2093368D01*
X4520000Y2267760D01*
X4636525Y2093368D01*
X4843368Y1886525D01*
X5086589Y1724010D01*
X5356842Y1612068D01*
X5643740Y1555000D01*
X5936260Y1555000D01*
X6223158Y1612068D01*
X6493411Y1724010D01*
X6736632Y1886525D01*
X6943475Y2093368D01*
X7105990Y2336589D01*
X7217932Y2606842D01*
X7275000Y2893740D01*
X7275000Y3186260D01*
X7218796Y3468815D01*
X14847682Y3468815D01*
X14866513Y3365764D01*
X14978610Y3116100D01*
X15137260Y2893103D01*
X15336366Y2705342D01*
X15568276Y2560032D01*
X15824079Y2462757D01*
X16093944Y2417256D01*
X16313000Y2578127D01*
X16313000Y3683000D01*
X16567000Y3683000D01*
X16567000Y2578127D01*
X16786056Y2417256D01*
X17055921Y2462757D01*
X17311724Y2560032D01*
X17543634Y2705342D01*
X17742740Y2893103D01*
X17901390Y3116100D01*
X18013487Y3365764D01*
X18032318Y3468815D01*
X35307682Y3468815D01*
X35326513Y3365764D01*
X35438610Y3116100D01*
X35597260Y2893103D01*
X35796366Y2705342D01*
X36028276Y2560032D01*
X36284079Y2462757D01*
X36553944Y2417256D01*
X36773000Y2578127D01*
X36773000Y3683000D01*
X37027000Y3683000D01*
X37027000Y2578127D01*
X37246056Y2417256D01*
X37515921Y2462757D01*
X37771724Y2560032D01*
X38003634Y2705342D01*
X38202740Y2893103D01*
X38361390Y3116100D01*
X38473487Y3365764D01*
X38492318Y3468815D01*
X38369656Y3683000D01*
X37027000Y3683000D01*
X36773000Y3683000D01*
X35430344Y3683000D01*
X35307682Y3468815D01*
X18032318Y3468815D01*
X17909656Y3683000D01*
X16567000Y3683000D01*
X16313000Y3683000D01*
X14970344Y3683000D01*
X14847682Y3468815D01*
X7218796Y3468815D01*
X7217932Y3473158D01*
X7105990Y3743411D01*
X6943475Y3986632D01*
X6736632Y4193475D01*
X6562240Y4310000D01*
X6736632Y4426525D01*
X6943475Y4633368D01*
X7105990Y4876589D01*
X7217932Y5146842D01*
X7275000Y5433740D01*
X7275000Y5726260D01*
X7217932Y6013158D01*
X7105990Y6283411D01*
X6943475Y6526632D01*
X6736632Y6733475D01*
X6562240Y6850000D01*
X6736632Y6966525D01*
X6943475Y7173368D01*
X7105990Y7416589D01*
X7217932Y7686842D01*
X7275000Y7973740D01*
X7275000Y8266260D01*
X7217932Y8553158D01*
X7105990Y8823411D01*
X6943475Y9066632D01*
X6736632Y9273475D01*
X6562240Y9390000D01*
X6736632Y9506525D01*
X6943475Y9713368D01*
X7105990Y9956589D01*
X7217932Y10226842D01*
X7275000Y10513740D01*
X7275000Y10806260D01*
X7217932Y11093158D01*
X7105990Y11363411D01*
X6943475Y11606632D01*
X6736632Y11813475D01*
X6562240Y11930000D01*
X6736632Y12046525D01*
X6943475Y12253368D01*
X7105990Y12496589D01*
X7217932Y12766842D01*
X7275000Y13053740D01*
X7275000Y13346260D01*
X7217932Y13633158D01*
X7105990Y13903411D01*
X6943475Y14146632D01*
X6736632Y14353475D01*
X6562240Y14470000D01*
X6673836Y14544566D01*
X6692753Y14534454D01*
X6836014Y14490997D01*
X6947667Y14480000D01*
X6947675Y14480000D01*
X6985000Y14476324D01*
X7022325Y14480000D01*
X14897386Y14480000D01*
X14825040Y14241507D01*
X14798299Y13970000D01*
X14825040Y13698493D01*
X14904236Y13437419D01*
X15032843Y13196812D01*
X15205919Y12985919D01*
X15416812Y12812843D01*
X15627927Y12700000D01*
X15416812Y12587157D01*
X15205919Y12414081D01*
X15032843Y12203188D01*
X14904236Y11962581D01*
X14825040Y11701507D01*
X14798299Y11430000D01*
X14825040Y11158493D01*
X14904236Y10897419D01*
X15032843Y10656812D01*
X15205919Y10445919D01*
X15416812Y10272843D01*
X15627927Y10160000D01*
X15416812Y10047157D01*
X15205919Y9874081D01*
X15032843Y9663188D01*
X14904236Y9422581D01*
X14825040Y9161507D01*
X14798299Y8890000D01*
X14825040Y8618493D01*
X14904236Y8357419D01*
X15032843Y8116812D01*
X15205919Y7905919D01*
X15416812Y7732843D01*
X15627927Y7620000D01*
X15416812Y7507157D01*
X15205919Y7334081D01*
X15032843Y7123188D01*
X14904236Y6882581D01*
X14825040Y6621507D01*
X14798299Y6350000D01*
X14825040Y6078493D01*
X14904236Y5817419D01*
X15032843Y5576812D01*
X15205919Y5365919D01*
X15416812Y5192843D01*
X15625028Y5081549D01*
X15568276Y5059968D01*
X15336366Y4914658D01*
X15137260Y4726897D01*
X14978610Y4503900D01*
X14866513Y4254236D01*
X14847682Y4151185D01*
X14970344Y3937000D01*
X16313000Y3937000D01*
X16313000Y3957000D01*
X16567000Y3957000D01*
X16567000Y3937000D01*
X17909656Y3937000D01*
X18032318Y4151185D01*
X18013487Y4254236D01*
X17901390Y4503900D01*
X17742740Y4726897D01*
X17543634Y4914658D01*
X17311724Y5059968D01*
X17254972Y5081549D01*
X17463188Y5192843D01*
X17674081Y5365919D01*
X17847157Y5576812D01*
X17975764Y5817419D01*
X18033823Y6008815D01*
X35307682Y6008815D01*
X35326513Y5905764D01*
X35438610Y5656100D01*
X35597260Y5433103D01*
X35796366Y5245342D01*
X36028276Y5100032D01*
X36080954Y5080000D01*
X36028276Y5059968D01*
X35796366Y4914658D01*
X35597260Y4726897D01*
X35438610Y4503900D01*
X35326513Y4254236D01*
X35307682Y4151185D01*
X35430344Y3937000D01*
X36773000Y3937000D01*
X36773000Y5041873D01*
X36721083Y5080000D01*
X36773000Y5118127D01*
X36773000Y6223000D01*
X37027000Y6223000D01*
X37027000Y5118127D01*
X37078917Y5080000D01*
X37027000Y5041873D01*
X37027000Y3937000D01*
X38369656Y3937000D01*
X38492318Y4151185D01*
X38473487Y4254236D01*
X38361390Y4503900D01*
X38202740Y4726897D01*
X38061595Y4860000D01*
X45991928Y4860000D01*
X46004188Y4735518D01*
X46040498Y4615820D01*
X46099463Y4505506D01*
X46178815Y4408815D01*
X46275506Y4329463D01*
X46385820Y4270498D01*
X46505518Y4234188D01*
X46630000Y4221928D01*
X49244250Y4225000D01*
X49403000Y4383750D01*
X49403000Y7933000D01*
X49657000Y7933000D01*
X49657000Y4383750D01*
X49815750Y4225000D01*
X52430000Y4221928D01*
X52554482Y4234188D01*
X52674180Y4270498D01*
X52784494Y4329463D01*
X52881185Y4408815D01*
X52960537Y4505506D01*
X53019502Y4615820D01*
X53055812Y4735518D01*
X53068072Y4860000D01*
X53065000Y7774250D01*
X52906250Y7933000D01*
X49657000Y7933000D01*
X49403000Y7933000D01*
X46153750Y7933000D01*
X45995000Y7774250D01*
X45991928Y4860000D01*
X38061595Y4860000D01*
X38003634Y4914658D01*
X37771724Y5059968D01*
X37719046Y5080000D01*
X37771724Y5100032D01*
X38003634Y5245342D01*
X38202740Y5433103D01*
X38361390Y5656100D01*
X38473487Y5905764D01*
X38492318Y6008815D01*
X38369656Y6223000D01*
X37027000Y6223000D01*
X36773000Y6223000D01*
X35430344Y6223000D01*
X35307682Y6008815D01*
X18033823Y6008815D01*
X18054960Y6078493D01*
X18081701Y6350000D01*
X18054960Y6621507D01*
X17975764Y6882581D01*
X17847157Y7123188D01*
X17674081Y7334081D01*
X17463188Y7507157D01*
X17252073Y7620000D01*
X17463188Y7732843D01*
X17674081Y7905919D01*
X17847157Y8116812D01*
X17975764Y8357419D01*
X18054960Y8618493D01*
X18081701Y8890000D01*
X18054960Y9161507D01*
X17975764Y9422581D01*
X17847157Y9663188D01*
X17674081Y9874081D01*
X17463188Y10047157D01*
X17252073Y10160000D01*
X17463188Y10272843D01*
X17674081Y10445919D01*
X17847157Y10656812D01*
X17975764Y10897419D01*
X18054960Y11158493D01*
X18081701Y11430000D01*
X18054960Y11701507D01*
X17975764Y11962581D01*
X17847157Y12203188D01*
X17674081Y12414081D01*
X17463188Y12587157D01*
X17252073Y12700000D01*
X17463188Y12812843D01*
X17674081Y12985919D01*
X17847157Y13196812D01*
X17975764Y13437419D01*
X18054960Y13698493D01*
X18081701Y13970000D01*
X18054960Y14241507D01*
X17982614Y14480000D01*
X24854465Y14480000D01*
X24957111Y14411414D01*
X25127271Y14340932D01*
X25307911Y14305000D01*
X25492089Y14305000D01*
X25672729Y14340932D01*
X25842889Y14411414D01*
X25996028Y14513738D01*
X26126262Y14643972D01*
X26228586Y14797111D01*
X26299068Y14967271D01*
X26335000Y15147911D01*
X26335000Y15332089D01*
X26299068Y15512729D01*
X26228586Y15682889D01*
X26126262Y15836028D01*
X26037298Y15924992D01*
X32022208Y15924991D01*
X34038001Y13909197D01*
X34038000Y9779323D01*
X34034324Y9742000D01*
X34038000Y9704678D01*
X34038000Y9704668D01*
X34048997Y9593015D01*
X34062673Y9547932D01*
X34092454Y9449754D01*
X34163026Y9317724D01*
X34165856Y9314276D01*
X34257999Y9201999D01*
X34287002Y9178197D01*
X35086201Y8378997D01*
X35109999Y8349999D01*
X35138997Y8326201D01*
X35225723Y8255026D01*
X35352990Y8187000D01*
X35357753Y8184454D01*
X35475833Y8148635D01*
X35492843Y8116812D01*
X35665919Y7905919D01*
X35876812Y7732843D01*
X36085028Y7621549D01*
X36028276Y7599968D01*
X35796366Y7454658D01*
X35597260Y7266897D01*
X35438610Y7043900D01*
X35326513Y6794236D01*
X35307682Y6691185D01*
X35430344Y6477000D01*
X36773000Y6477000D01*
X36773000Y6497000D01*
X37027000Y6497000D01*
X37027000Y6477000D01*
X38369656Y6477000D01*
X38492318Y6691185D01*
X38473487Y6794236D01*
X38361390Y7043900D01*
X38202740Y7266897D01*
X38003634Y7454658D01*
X37771724Y7599968D01*
X37714972Y7621549D01*
X37923188Y7732843D01*
X38134081Y7905919D01*
X38307157Y8116812D01*
X38435764Y8357419D01*
X38514960Y8618493D01*
X38541701Y8890000D01*
X38514960Y9161507D01*
X38435764Y9422581D01*
X38307157Y9663188D01*
X38134081Y9874081D01*
X37923188Y10047157D01*
X37712073Y10160000D01*
X37923188Y10272843D01*
X38134081Y10445919D01*
X38307157Y10656812D01*
X38435764Y10897419D01*
X38514960Y11158493D01*
X38541701Y11430000D01*
X38514960Y11701507D01*
X38435764Y11962581D01*
X38307157Y12203188D01*
X38134081Y12414081D01*
X37923188Y12587157D01*
X37712073Y12700000D01*
X37923188Y12812843D01*
X38134081Y12985919D01*
X38307157Y13196812D01*
X38435764Y13437419D01*
X38514960Y13698493D01*
X38541701Y13970000D01*
X38514960Y14241507D01*
X38435764Y14502581D01*
X38307157Y14743188D01*
X38134081Y14954081D01*
X37923188Y15127157D01*
X37712073Y15240000D01*
X37923188Y15352843D01*
X38134081Y15525919D01*
X38307157Y15736812D01*
X38435764Y15977419D01*
X38514960Y16238493D01*
X38541701Y16510000D01*
X38514960Y16781507D01*
X38435764Y17042581D01*
X38307157Y17283188D01*
X38134081Y17494081D01*
X37923188Y17667157D01*
X37682581Y17795764D01*
X37421507Y17874960D01*
X37218037Y17895000D01*
X36581963Y17895000D01*
X36378493Y17874960D01*
X36117419Y17795764D01*
X35876812Y17667157D01*
X35665919Y17494081D01*
X35492843Y17283188D01*
X35364236Y17042581D01*
X35285040Y16781507D01*
X35274124Y16670677D01*
X33848794Y18096007D01*
X33824991Y18125011D01*
X33709266Y18219984D01*
X33577237Y18290556D01*
X33433976Y18334013D01*
X33322323Y18345010D01*
X33322312Y18345010D01*
X33284990Y18348686D01*
X33247668Y18345010D01*
X21591792Y18345010D01*
X14536802Y25400000D01*
X19177000Y25400000D01*
X19177000Y22352000D01*
X19189201Y22228118D01*
X19225336Y22108996D01*
X19284017Y21999213D01*
X19362987Y21902987D01*
X19459213Y21824017D01*
X19568996Y21765336D01*
X19688118Y21729201D01*
X19812000Y21717000D01*
X26416000Y21717000D01*
X26539882Y21729201D01*
X26659004Y21765336D01*
X26768787Y21824017D01*
X26865013Y21902987D01*
X26943983Y21999213D01*
X27002664Y22108996D01*
X27038799Y22228118D01*
X27051000Y22352000D01*
X27051000Y24706199D01*
X27911003Y25566201D01*
X27940001Y25589999D01*
X28034974Y25705724D01*
X28105546Y25837753D01*
X28149003Y25981014D01*
X28160000Y26092667D01*
X28163677Y26130000D01*
X28160000Y26167333D01*
X28160000Y28895199D01*
X28406729Y29141928D01*
X28655001Y29141928D01*
X28828255Y29158992D01*
X28994851Y29209528D01*
X29148387Y29291595D01*
X29282962Y29402038D01*
X29393405Y29536613D01*
X29475472Y29690149D01*
X29526008Y29856745D01*
X29543072Y30029999D01*
X29543072Y30930001D01*
X29526008Y31103255D01*
X29475472Y31269851D01*
X29430000Y31354923D01*
X29430000Y33960544D01*
X29541110Y33971487D01*
X29821033Y34056401D01*
X30079013Y34194294D01*
X30305134Y34379866D01*
X30357223Y34443337D01*
X30411595Y34341614D01*
X30522038Y34207038D01*
X30656614Y34096595D01*
X30810150Y34014528D01*
X30976746Y33963992D01*
X31150000Y33946928D01*
X32350000Y33946928D01*
X32523254Y33963992D01*
X32689850Y34014528D01*
X32843386Y34096595D01*
X32977962Y34207038D01*
X33088405Y34341614D01*
X33170472Y34495150D01*
X33221008Y34661746D01*
X33238072Y34835000D01*
X33238072Y35200733D01*
X36753680Y35200733D01*
X36827558Y34919170D01*
X36954947Y34657430D01*
X37130951Y34425571D01*
X37348807Y34232504D01*
X37600142Y34085648D01*
X37863110Y33993524D01*
X38093000Y34114845D01*
X38093000Y35433000D01*
X36893835Y35433000D01*
X36753680Y35200733D01*
X33238072Y35200733D01*
X33238072Y35919267D01*
X36753680Y35919267D01*
X36893835Y35687000D01*
X38093000Y35687000D01*
X38093000Y37005155D01*
X37863110Y37126476D01*
X37600142Y37034352D01*
X37348807Y36887496D01*
X37130951Y36694429D01*
X36954947Y36462570D01*
X36827558Y36200830D01*
X36753680Y35919267D01*
X33238072Y35919267D01*
X33238072Y36285000D01*
X33221008Y36458254D01*
X33170472Y36624850D01*
X33088405Y36778386D01*
X32977962Y36912962D01*
X32843386Y37023405D01*
X32689850Y37105472D01*
X32523254Y37156008D01*
X32350000Y37173072D01*
X31150000Y37173072D01*
X30976746Y37156008D01*
X30810150Y37105472D01*
X30656614Y37023405D01*
X30522038Y36912962D01*
X30411595Y36778386D01*
X30357223Y36676663D01*
X30305134Y36740134D01*
X30079014Y36925706D01*
X29821034Y37063599D01*
X29541111Y37148513D01*
X29250000Y37177185D01*
X28958890Y37148513D01*
X28678967Y37063599D01*
X28420987Y36925706D01*
X28194866Y36740134D01*
X28009294Y36514014D01*
X28000000Y36496626D01*
X27990706Y36514014D01*
X27805134Y36740134D01*
X27579014Y36925706D01*
X27321034Y37063599D01*
X27041111Y37148513D01*
X26750000Y37177185D01*
X26458890Y37148513D01*
X26178967Y37063599D01*
X25920987Y36925706D01*
X25694866Y36740134D01*
X25509294Y36514014D01*
X25495538Y36488278D01*
X25339049Y36694429D01*
X25121193Y36887496D01*
X24869858Y37034352D01*
X24606890Y37126476D01*
X24377000Y37005155D01*
X24377000Y35687000D01*
X24397000Y35687000D01*
X24397000Y35433000D01*
X24377000Y35433000D01*
X24377000Y34114845D01*
X24606890Y33993524D01*
X24869858Y34085648D01*
X25121193Y34232504D01*
X25339049Y34425571D01*
X25495538Y34631722D01*
X25509294Y34605987D01*
X25694866Y34379866D01*
X25910001Y34203309D01*
X25910000Y31813640D01*
X25781745Y31801008D01*
X25615149Y31750472D01*
X25461613Y31668405D01*
X25327038Y31557962D01*
X25216595Y31423387D01*
X25134528Y31269851D01*
X25083992Y31103255D01*
X25066928Y30930001D01*
X25066928Y30029999D01*
X25083992Y29856745D01*
X25134528Y29690149D01*
X25216595Y29536613D01*
X25327038Y29402038D01*
X25461613Y29291595D01*
X25615149Y29209528D01*
X25781745Y29158992D01*
X25910000Y29146360D01*
X25910001Y28267553D01*
X25513750Y28265000D01*
X25355000Y28106250D01*
X25355000Y27432000D01*
X25375000Y27432000D01*
X25375000Y27178000D01*
X25355000Y27178000D01*
X25355000Y27158000D01*
X25101000Y27158000D01*
X25101000Y27178000D01*
X23989250Y27178000D01*
X23830500Y27019250D01*
X23827428Y26980000D01*
X23839688Y26855518D01*
X23875998Y26735820D01*
X23911180Y26670000D01*
X23875998Y26604180D01*
X23839688Y26484482D01*
X23827428Y26360000D01*
X23827428Y26035000D01*
X22692276Y26035000D01*
X22699072Y26104000D01*
X22696000Y26405750D01*
X22537250Y26564500D01*
X21463000Y26564500D01*
X21463000Y26544500D01*
X21209000Y26544500D01*
X21209000Y26564500D01*
X20134750Y26564500D01*
X19976000Y26405750D01*
X19972928Y26104000D01*
X19979724Y26035000D01*
X19812000Y26035000D01*
X19688118Y26022799D01*
X19568996Y25986664D01*
X19459213Y25927983D01*
X19362987Y25849013D01*
X19284017Y25752787D01*
X19225336Y25643004D01*
X19189201Y25523882D01*
X19177000Y25400000D01*
X14536802Y25400000D01*
X12827002Y27109799D01*
X12827002Y27201834D01*
X13059267Y27061680D01*
X13340830Y27135558D01*
X13602570Y27262947D01*
X13623717Y27279000D01*
X19972928Y27279000D01*
X19976000Y26977250D01*
X20134750Y26818500D01*
X21209000Y26818500D01*
X21209000Y27755250D01*
X21463000Y27755250D01*
X21463000Y26818500D01*
X22537250Y26818500D01*
X22696000Y26977250D01*
X22699072Y27279000D01*
X22686812Y27403482D01*
X22650502Y27523180D01*
X22593405Y27630000D01*
X23827428Y27630000D01*
X23830500Y27590750D01*
X23989250Y27432000D01*
X25101000Y27432000D01*
X25101000Y28106250D01*
X24942250Y28265000D01*
X24465500Y28268072D01*
X24341018Y28255812D01*
X24221320Y28219502D01*
X24111006Y28160537D01*
X24014315Y28081185D01*
X23934963Y27984494D01*
X23875998Y27874180D01*
X23839688Y27754482D01*
X23827428Y27630000D01*
X22593405Y27630000D01*
X22591537Y27633494D01*
X22512185Y27730185D01*
X22415494Y27809537D01*
X22305180Y27868502D01*
X22185482Y27904812D01*
X22061000Y27917072D01*
X21621750Y27914000D01*
X21463000Y27755250D01*
X21209000Y27755250D01*
X21050250Y27914000D01*
X20611000Y27917072D01*
X20486518Y27904812D01*
X20366820Y27868502D01*
X20256506Y27809537D01*
X20159815Y27730185D01*
X20080463Y27633494D01*
X20021498Y27523180D01*
X19985188Y27403482D01*
X19972928Y27279000D01*
X13623717Y27279000D01*
X13834429Y27438951D01*
X14027496Y27656807D01*
X14174352Y27908142D01*
X14266476Y28171110D01*
X14145155Y28401000D01*
X12827000Y28401000D01*
X12827000Y28381000D01*
X12573000Y28381000D01*
X12573000Y28401000D01*
X12553000Y28401000D01*
X12553000Y28655000D01*
X12573000Y28655000D01*
X12573000Y28675000D01*
X12827000Y28675000D01*
X12827000Y28655000D01*
X14145155Y28655000D01*
X14266476Y28884890D01*
X14174352Y29147858D01*
X14027496Y29399193D01*
X13834429Y29617049D01*
X13628278Y29773538D01*
X13654014Y29787294D01*
X13880134Y29972866D01*
X14065706Y30198986D01*
X14203599Y30456966D01*
X14288513Y30736889D01*
X14317185Y31028000D01*
X14288513Y31319111D01*
X14203599Y31599034D01*
X14065706Y31857014D01*
X13880134Y32083134D01*
X13654014Y32268706D01*
X13636626Y32278000D01*
X13654014Y32287294D01*
X13880134Y32472866D01*
X14065706Y32698986D01*
X14203599Y32956966D01*
X14288513Y33236889D01*
X14317185Y33528000D01*
X14288513Y33819111D01*
X14236704Y33989902D01*
X15439013Y35192211D01*
X15449397Y35200733D01*
X22783680Y35200733D01*
X22857558Y34919170D01*
X22984947Y34657430D01*
X23160951Y34425571D01*
X23378807Y34232504D01*
X23630142Y34085648D01*
X23893110Y33993524D01*
X24123000Y34114845D01*
X24123000Y35433000D01*
X22923835Y35433000D01*
X22783680Y35200733D01*
X15449397Y35200733D01*
X15468010Y35216008D01*
X15562983Y35331733D01*
X15633555Y35463762D01*
X15677012Y35607023D01*
X15688009Y35718676D01*
X15688009Y35718677D01*
X15691686Y35756009D01*
X15688009Y35793342D01*
X15688009Y35919267D01*
X22783680Y35919267D01*
X22923835Y35687000D01*
X24123000Y35687000D01*
X24123000Y37005155D01*
X23893110Y37126476D01*
X23630142Y37034352D01*
X23378807Y36887496D01*
X23160951Y36694429D01*
X22984947Y36462570D01*
X22857558Y36200830D01*
X22783680Y35919267D01*
X15688009Y35919267D01*
X15688009Y42821079D01*
X15691685Y42858402D01*
X15688009Y42895725D01*
X15688009Y42895734D01*
X15677012Y43007387D01*
X15633555Y43150648D01*
X15562983Y43282677D01*
X15468010Y43398402D01*
X15439012Y43422200D01*
X14577212Y44284000D01*
X54391928Y44284000D01*
X54391928Y42584000D01*
X54404188Y42459518D01*
X54440498Y42339820D01*
X54499463Y42229506D01*
X54578815Y42132815D01*
X54675506Y42053463D01*
X54785820Y41994498D01*
X54905518Y41958188D01*
X55030000Y41945928D01*
X56730000Y41945928D01*
X56854482Y41958188D01*
X56974180Y41994498D01*
X57084494Y42053463D01*
X57181185Y42132815D01*
X57260537Y42229506D01*
X57319502Y42339820D01*
X57341513Y42412380D01*
X57473368Y42280525D01*
X57716589Y42118010D01*
X57986842Y42006068D01*
X58273740Y41949000D01*
X58566260Y41949000D01*
X58853158Y42006068D01*
X59123411Y42118010D01*
X59366632Y42280525D01*
X59573475Y42487368D01*
X59735990Y42730589D01*
X59847932Y43000842D01*
X59905000Y43287740D01*
X59905000Y43580260D01*
X59847932Y43867158D01*
X59735990Y44137411D01*
X59573475Y44380632D01*
X59366632Y44587475D01*
X59123411Y44749990D01*
X58853158Y44861932D01*
X58566260Y44919000D01*
X58273740Y44919000D01*
X57986842Y44861932D01*
X57716589Y44749990D01*
X57473368Y44587475D01*
X57341513Y44455620D01*
X57319502Y44528180D01*
X57260537Y44638494D01*
X57181185Y44735185D01*
X57084494Y44814537D01*
X56974180Y44873502D01*
X56854482Y44909812D01*
X56730000Y44922072D01*
X55030000Y44922072D01*
X54905518Y44909812D01*
X54785820Y44873502D01*
X54675506Y44814537D01*
X54578815Y44735185D01*
X54499463Y44638494D01*
X54440498Y44528180D01*
X54404188Y44408482D01*
X54391928Y44284000D01*
X14577212Y44284000D01*
X8312214Y50548997D01*
X8288411Y50578001D01*
X8172686Y50672974D01*
X8040657Y50743546D01*
X7897396Y50787003D01*
X7785743Y50798000D01*
X7785732Y50798000D01*
X7748410Y50801676D01*
X7711088Y50798000D01*
X4609322Y50798000D01*
X4571999Y50801676D01*
X4534676Y50798000D01*
X4534667Y50798000D01*
X4423014Y50787003D01*
X4279753Y50743546D01*
X4147724Y50672974D01*
X4031999Y50578001D01*
X4008201Y50549003D01*
X3707270Y50248072D01*
X2400000Y50248072D01*
X2275518Y50235812D01*
X2155820Y50199502D01*
X2045506Y50140537D01*
X1948815Y50061185D01*
X1869463Y49964494D01*
X1810498Y49854180D01*
X1774188Y49734482D01*
X1761928Y49610000D01*
X1397000Y49610000D01*
X1397000Y52810340D01*
X8531316Y52810340D01*
X8531316Y52349660D01*
X8621190Y51897831D01*
X8797485Y51472218D01*
X9053425Y51089176D01*
X9379176Y50763425D01*
X9762218Y50507485D01*
X10187831Y50331190D01*
X10639660Y50241316D01*
X11100340Y50241316D01*
X11552169Y50331190D01*
X11977782Y50507485D01*
X12360824Y50763425D01*
X12686575Y51089176D01*
X12942515Y51472218D01*
X13118810Y51897831D01*
X13208684Y52349660D01*
X13208684Y52810340D01*
X13118810Y53262169D01*
X12942515Y53687782D01*
X12686575Y54070824D01*
X12360824Y54396575D01*
X11977782Y54652515D01*
X11552169Y54828810D01*
X11100340Y54918684D01*
X10639660Y54918684D01*
X10187831Y54828810D01*
X9762218Y54652515D01*
X9379176Y54396575D01*
X9053425Y54070824D01*
X8797485Y53687782D01*
X8621190Y53262169D01*
X8531316Y52810340D01*
X1397000Y52810340D01*
X1397000Y55753000D01*
X18923000Y55753000D01*
X18923000Y48260000D01*
G37*
G04 #@! TD.AperFunction*
D21*
X60396200Y14093998D02*
X60419999Y14064999D01*
X60448997Y14041201D01*
X60535723Y13970026D01*
X60660350Y13903411D01*
X60667753Y13899454D01*
X60811014Y13855997D01*
X60922667Y13845000D01*
X60922677Y13845000D01*
X60960000Y13841324D01*
X60997323Y13845000D01*
X62869815Y13845000D01*
X62782068Y13633158D01*
X62725000Y13346260D01*
X62725000Y13053740D01*
X62782068Y12766842D01*
X62894010Y12496589D01*
X63056525Y12253368D01*
X63263368Y12046525D01*
X63437760Y11930000D01*
X63263368Y11813475D01*
X63056525Y11606632D01*
X62894010Y11363411D01*
X62782068Y11093158D01*
X62725000Y10806260D01*
X62725000Y10513740D01*
X62782068Y10226842D01*
X62894010Y9956589D01*
X63056525Y9713368D01*
X63263368Y9506525D01*
X63437760Y9390000D01*
X63263368Y9273475D01*
X63056525Y9066632D01*
X62894010Y8823411D01*
X62782068Y8553158D01*
X62725000Y8266260D01*
X62725000Y7973740D01*
X62782068Y7686842D01*
X62894010Y7416589D01*
X63056525Y7173368D01*
X63263368Y6966525D01*
X63437760Y6850000D01*
X63263368Y6733475D01*
X63056525Y6526632D01*
X62894010Y6283411D01*
X62782068Y6013158D01*
X62725000Y5726260D01*
X62725000Y5433740D01*
X62782068Y5146842D01*
X62894010Y4876589D01*
X63056525Y4633368D01*
X63263368Y4426525D01*
X63437760Y4310000D01*
X63263368Y4193475D01*
X63056525Y3986632D01*
X62894010Y3743411D01*
X62782068Y3473158D01*
X62725000Y3186260D01*
X62725000Y2893740D01*
X62782068Y2606842D01*
X62894010Y2336589D01*
X63056525Y2093368D01*
X63263368Y1886525D01*
X63506589Y1724010D01*
X63776842Y1612068D01*
X64063740Y1555000D01*
X64356260Y1555000D01*
X64643158Y1612068D01*
X64913411Y1724010D01*
X65156632Y1886525D01*
X65363475Y2093368D01*
X65480000Y2267760D01*
X65596525Y2093368D01*
X65803368Y1886525D01*
X66046589Y1724010D01*
X66316842Y1612068D01*
X66603740Y1555000D01*
X66896260Y1555000D01*
X67183158Y1612068D01*
X67453411Y1724010D01*
X67696632Y1886525D01*
X67903475Y2093368D01*
X68065990Y2336589D01*
X68177932Y2606842D01*
X68235000Y2893740D01*
X68235000Y3186260D01*
X68177932Y3473158D01*
X68065990Y3743411D01*
X67903475Y3986632D01*
X67696632Y4193475D01*
X67522240Y4310000D01*
X67696632Y4426525D01*
X67903475Y4633368D01*
X68065990Y4876589D01*
X68177932Y5146842D01*
X68235000Y5433740D01*
X68235000Y5726260D01*
X68177932Y6013158D01*
X68065990Y6283411D01*
X67903475Y6526632D01*
X67696632Y6733475D01*
X67522240Y6850000D01*
X67696632Y6966525D01*
X67903475Y7173368D01*
X68065990Y7416589D01*
X68177932Y7686842D01*
X68235000Y7973740D01*
X68235000Y8266260D01*
X68177932Y8553158D01*
X68065990Y8823411D01*
X67903475Y9066632D01*
X67696632Y9273475D01*
X67522240Y9390000D01*
X67696632Y9506525D01*
X67903475Y9713368D01*
X68065990Y9956589D01*
X68177932Y10226842D01*
X68235000Y10513740D01*
X68235000Y10806260D01*
X68177932Y11093158D01*
X68065990Y11363411D01*
X67903475Y11606632D01*
X67696632Y11813475D01*
X67522240Y11930000D01*
X67696632Y12046525D01*
X67903475Y12253368D01*
X68065990Y12496589D01*
X68177932Y12766842D01*
X68235000Y13053740D01*
X68235000Y13346260D01*
X68177932Y13633158D01*
X68065990Y13903411D01*
X67903475Y14146632D01*
X67696632Y14353475D01*
X67522240Y14470000D01*
X67696632Y14586525D01*
X67903475Y14793368D01*
X68065990Y15036589D01*
X68177932Y15306842D01*
X68235000Y15593740D01*
X68235000Y15886260D01*
X68177932Y16173158D01*
X68065990Y16443411D01*
X67930295Y16646492D01*
X68453000Y17169197D01*
X68453000Y799828D01*
X68258701Y739683D01*
X67976291Y710000D01*
X61181034Y710000D01*
X61179000Y984250D01*
X61020250Y1143000D01*
X60071000Y1143000D01*
X60071000Y1123000D01*
X59817000Y1123000D01*
X59817000Y1143000D01*
X59797000Y1143000D01*
X59797000Y1397000D01*
X59817000Y1397000D01*
X59817000Y1417000D01*
X60071000Y1417000D01*
X60071000Y1397000D01*
X61020250Y1397000D01*
X61179000Y1555750D01*
X61182072Y1970000D01*
X61169812Y2094482D01*
X61133502Y2214180D01*
X61074537Y2324494D01*
X60995185Y2421185D01*
X60908612Y2492233D01*
X61007405Y2612613D01*
X61089472Y2766149D01*
X61140008Y2932745D01*
X61157072Y3105999D01*
X61157072Y4006001D01*
X61140008Y4179255D01*
X61089472Y4345851D01*
X61007405Y4499387D01*
X60896962Y4633962D01*
X60762387Y4744405D01*
X60608851Y4826472D01*
X60442255Y4877008D01*
X60269001Y4894072D01*
X59680730Y4894072D01*
X58129333Y6445468D01*
X58293000Y6546768D01*
X58293000Y7747000D01*
X58547000Y7747000D01*
X58547000Y6546768D01*
X58779742Y6402715D01*
X59062745Y6471904D01*
X59326812Y6594975D01*
X59561795Y6767198D01*
X59758664Y6981954D01*
X59909854Y7230991D01*
X60009554Y7504739D01*
X60011476Y7517110D01*
X59890155Y7747000D01*
X58547000Y7747000D01*
X58293000Y7747000D01*
X58273000Y7747000D01*
X58273000Y8001000D01*
X58293000Y8001000D01*
X58293000Y8021000D01*
X58547000Y8021000D01*
X58547000Y8001000D01*
X59890155Y8001000D01*
X60011476Y8230890D01*
X60009554Y8243261D01*
X59954678Y8393934D01*
X60012013Y8440987D01*
X60090983Y8537213D01*
X60149664Y8646996D01*
X60185799Y8766118D01*
X60198000Y8890000D01*
X60198000Y12065000D01*
X60185799Y12188882D01*
X60149664Y12308004D01*
X60090983Y12417787D01*
X60012013Y12514013D01*
X59915787Y12592983D01*
X59806004Y12651664D01*
X59686882Y12687799D01*
X59563000Y12700000D01*
X57420224Y12700000D01*
X57379287Y12761267D01*
X57207267Y12933287D01*
X57004992Y13068443D01*
X56780236Y13161540D01*
X56541637Y13209000D01*
X56515000Y13209000D01*
X56515000Y15875000D01*
X56502799Y15998882D01*
X56466664Y16118004D01*
X56407983Y16227787D01*
X56329013Y16324013D01*
X55245000Y17408026D01*
X55245000Y19245199D01*
X60396200Y14093998D01*
G04 #@! TA.AperFunction,Conductor*
D22*
G36*
X60396200Y14093998D02*
G01*
X60419999Y14064999D01*
X60448997Y14041201D01*
X60535723Y13970026D01*
X60660350Y13903411D01*
X60667753Y13899454D01*
X60811014Y13855997D01*
X60922667Y13845000D01*
X60922677Y13845000D01*
X60960000Y13841324D01*
X60997323Y13845000D01*
X62869815Y13845000D01*
X62782068Y13633158D01*
X62725000Y13346260D01*
X62725000Y13053740D01*
X62782068Y12766842D01*
X62894010Y12496589D01*
X63056525Y12253368D01*
X63263368Y12046525D01*
X63437760Y11930000D01*
X63263368Y11813475D01*
X63056525Y11606632D01*
X62894010Y11363411D01*
X62782068Y11093158D01*
X62725000Y10806260D01*
X62725000Y10513740D01*
X62782068Y10226842D01*
X62894010Y9956589D01*
X63056525Y9713368D01*
X63263368Y9506525D01*
X63437760Y9390000D01*
X63263368Y9273475D01*
X63056525Y9066632D01*
X62894010Y8823411D01*
X62782068Y8553158D01*
X62725000Y8266260D01*
X62725000Y7973740D01*
X62782068Y7686842D01*
X62894010Y7416589D01*
X63056525Y7173368D01*
X63263368Y6966525D01*
X63437760Y6850000D01*
X63263368Y6733475D01*
X63056525Y6526632D01*
X62894010Y6283411D01*
X62782068Y6013158D01*
X62725000Y5726260D01*
X62725000Y5433740D01*
X62782068Y5146842D01*
X62894010Y4876589D01*
X63056525Y4633368D01*
X63263368Y4426525D01*
X63437760Y4310000D01*
X63263368Y4193475D01*
X63056525Y3986632D01*
X62894010Y3743411D01*
X62782068Y3473158D01*
X62725000Y3186260D01*
X62725000Y2893740D01*
X62782068Y2606842D01*
X62894010Y2336589D01*
X63056525Y2093368D01*
X63263368Y1886525D01*
X63506589Y1724010D01*
X63776842Y1612068D01*
X64063740Y1555000D01*
X64356260Y1555000D01*
X64643158Y1612068D01*
X64913411Y1724010D01*
X65156632Y1886525D01*
X65363475Y2093368D01*
X65480000Y2267760D01*
X65596525Y2093368D01*
X65803368Y1886525D01*
X66046589Y1724010D01*
X66316842Y1612068D01*
X66603740Y1555000D01*
X66896260Y1555000D01*
X67183158Y1612068D01*
X67453411Y1724010D01*
X67696632Y1886525D01*
X67903475Y2093368D01*
X68065990Y2336589D01*
X68177932Y2606842D01*
X68235000Y2893740D01*
X68235000Y3186260D01*
X68177932Y3473158D01*
X68065990Y3743411D01*
X67903475Y3986632D01*
X67696632Y4193475D01*
X67522240Y4310000D01*
X67696632Y4426525D01*
X67903475Y4633368D01*
X68065990Y4876589D01*
X68177932Y5146842D01*
X68235000Y5433740D01*
X68235000Y5726260D01*
X68177932Y6013158D01*
X68065990Y6283411D01*
X67903475Y6526632D01*
X67696632Y6733475D01*
X67522240Y6850000D01*
X67696632Y6966525D01*
X67903475Y7173368D01*
X68065990Y7416589D01*
X68177932Y7686842D01*
X68235000Y7973740D01*
X68235000Y8266260D01*
X68177932Y8553158D01*
X68065990Y8823411D01*
X67903475Y9066632D01*
X67696632Y9273475D01*
X67522240Y9390000D01*
X67696632Y9506525D01*
X67903475Y9713368D01*
X68065990Y9956589D01*
X68177932Y10226842D01*
X68235000Y10513740D01*
X68235000Y10806260D01*
X68177932Y11093158D01*
X68065990Y11363411D01*
X67903475Y11606632D01*
X67696632Y11813475D01*
X67522240Y11930000D01*
X67696632Y12046525D01*
X67903475Y12253368D01*
X68065990Y12496589D01*
X68177932Y12766842D01*
X68235000Y13053740D01*
X68235000Y13346260D01*
X68177932Y13633158D01*
X68065990Y13903411D01*
X67903475Y14146632D01*
X67696632Y14353475D01*
X67522240Y14470000D01*
X67696632Y14586525D01*
X67903475Y14793368D01*
X68065990Y15036589D01*
X68177932Y15306842D01*
X68235000Y15593740D01*
X68235000Y15886260D01*
X68177932Y16173158D01*
X68065990Y16443411D01*
X67930295Y16646492D01*
X68453000Y17169197D01*
X68453000Y799828D01*
X68258701Y739683D01*
X67976291Y710000D01*
X61181034Y710000D01*
X61179000Y984250D01*
X61020250Y1143000D01*
X60071000Y1143000D01*
X60071000Y1123000D01*
X59817000Y1123000D01*
X59817000Y1143000D01*
X59797000Y1143000D01*
X59797000Y1397000D01*
X59817000Y1397000D01*
X59817000Y1417000D01*
X60071000Y1417000D01*
X60071000Y1397000D01*
X61020250Y1397000D01*
X61179000Y1555750D01*
X61182072Y1970000D01*
X61169812Y2094482D01*
X61133502Y2214180D01*
X61074537Y2324494D01*
X60995185Y2421185D01*
X60908612Y2492233D01*
X61007405Y2612613D01*
X61089472Y2766149D01*
X61140008Y2932745D01*
X61157072Y3105999D01*
X61157072Y4006001D01*
X61140008Y4179255D01*
X61089472Y4345851D01*
X61007405Y4499387D01*
X60896962Y4633962D01*
X60762387Y4744405D01*
X60608851Y4826472D01*
X60442255Y4877008D01*
X60269001Y4894072D01*
X59680730Y4894072D01*
X58129333Y6445468D01*
X58293000Y6546768D01*
X58293000Y7747000D01*
X58547000Y7747000D01*
X58547000Y6546768D01*
X58779742Y6402715D01*
X59062745Y6471904D01*
X59326812Y6594975D01*
X59561795Y6767198D01*
X59758664Y6981954D01*
X59909854Y7230991D01*
X60009554Y7504739D01*
X60011476Y7517110D01*
X59890155Y7747000D01*
X58547000Y7747000D01*
X58293000Y7747000D01*
X58273000Y7747000D01*
X58273000Y8001000D01*
X58293000Y8001000D01*
X58293000Y8021000D01*
X58547000Y8021000D01*
X58547000Y8001000D01*
X59890155Y8001000D01*
X60011476Y8230890D01*
X60009554Y8243261D01*
X59954678Y8393934D01*
X60012013Y8440987D01*
X60090983Y8537213D01*
X60149664Y8646996D01*
X60185799Y8766118D01*
X60198000Y8890000D01*
X60198000Y12065000D01*
X60185799Y12188882D01*
X60149664Y12308004D01*
X60090983Y12417787D01*
X60012013Y12514013D01*
X59915787Y12592983D01*
X59806004Y12651664D01*
X59686882Y12687799D01*
X59563000Y12700000D01*
X57420224Y12700000D01*
X57379287Y12761267D01*
X57207267Y12933287D01*
X57004992Y13068443D01*
X56780236Y13161540D01*
X56541637Y13209000D01*
X56515000Y13209000D01*
X56515000Y15875000D01*
X56502799Y15998882D01*
X56466664Y16118004D01*
X56407983Y16227787D01*
X56329013Y16324013D01*
X55245000Y17408026D01*
X55245000Y19245199D01*
X60396200Y14093998D01*
G37*
G04 #@! TD.AperFunction*
D21*
X62782068Y26333158D02*
X62725000Y26046260D01*
X62725000Y25753740D01*
X62782068Y25466842D01*
X62894010Y25196589D01*
X63056525Y24953368D01*
X63263368Y24746525D01*
X63437760Y24630000D01*
X63263368Y24513475D01*
X63056525Y24306632D01*
X62894010Y24063411D01*
X62782068Y23793158D01*
X62725000Y23506260D01*
X62725000Y23213740D01*
X62782068Y22926842D01*
X62894010Y22656589D01*
X63056525Y22413368D01*
X63263368Y22206525D01*
X63437760Y22090000D01*
X63263368Y21973475D01*
X63056525Y21766632D01*
X62894010Y21523411D01*
X62782068Y21253158D01*
X62725000Y20966260D01*
X62725000Y20673740D01*
X62782068Y20386842D01*
X62894010Y20116589D01*
X63056525Y19873368D01*
X63263368Y19666525D01*
X63437760Y19550000D01*
X63263368Y19433475D01*
X63056525Y19226632D01*
X62931822Y19040000D01*
X60139802Y19040000D01*
X57078804Y22100997D01*
X57055001Y22130001D01*
X56939276Y22224974D01*
X56807247Y22295546D01*
X56663986Y22339003D01*
X56552333Y22350000D01*
X56552322Y22350000D01*
X56515000Y22353676D01*
X56477678Y22350000D01*
X54496396Y22350000D01*
X54529000Y22513911D01*
X54529000Y22698089D01*
X54512454Y22781268D01*
X54537387Y22794595D01*
X54671962Y22905038D01*
X54680601Y22915564D01*
X54728815Y22856815D01*
X54825506Y22777463D01*
X54935820Y22718498D01*
X55055518Y22682188D01*
X55180000Y22669928D01*
X55594250Y22673000D01*
X55753000Y22831750D01*
X55753000Y23781000D01*
X56007000Y23781000D01*
X56007000Y22831750D01*
X56165750Y22673000D01*
X56580000Y22669928D01*
X56704482Y22682188D01*
X56824180Y22718498D01*
X56934494Y22777463D01*
X57031185Y22856815D01*
X57110537Y22953506D01*
X57169502Y23063820D01*
X57205812Y23183518D01*
X57218072Y23308000D01*
X57215000Y23622250D01*
X57056250Y23781000D01*
X56007000Y23781000D01*
X55753000Y23781000D01*
X55733000Y23781000D01*
X55733000Y24035000D01*
X55753000Y24035000D01*
X55753000Y24055000D01*
X56007000Y24055000D01*
X56007000Y24035000D01*
X57056250Y24035000D01*
X57215000Y24193750D01*
X57218072Y24508000D01*
X57205812Y24632482D01*
X57169502Y24752180D01*
X57110537Y24862494D01*
X57031185Y24959185D01*
X57001724Y24983363D01*
X57068405Y25064613D01*
X57150472Y25218149D01*
X57201008Y25384745D01*
X57218072Y25557999D01*
X57218072Y26258001D01*
X57201008Y26431255D01*
X57166504Y26545000D01*
X62869815Y26545000D01*
X62782068Y26333158D01*
G04 #@! TA.AperFunction,Conductor*
D22*
G36*
X62782068Y26333158D02*
G01*
X62725000Y26046260D01*
X62725000Y25753740D01*
X62782068Y25466842D01*
X62894010Y25196589D01*
X63056525Y24953368D01*
X63263368Y24746525D01*
X63437760Y24630000D01*
X63263368Y24513475D01*
X63056525Y24306632D01*
X62894010Y24063411D01*
X62782068Y23793158D01*
X62725000Y23506260D01*
X62725000Y23213740D01*
X62782068Y22926842D01*
X62894010Y22656589D01*
X63056525Y22413368D01*
X63263368Y22206525D01*
X63437760Y22090000D01*
X63263368Y21973475D01*
X63056525Y21766632D01*
X62894010Y21523411D01*
X62782068Y21253158D01*
X62725000Y20966260D01*
X62725000Y20673740D01*
X62782068Y20386842D01*
X62894010Y20116589D01*
X63056525Y19873368D01*
X63263368Y19666525D01*
X63437760Y19550000D01*
X63263368Y19433475D01*
X63056525Y19226632D01*
X62931822Y19040000D01*
X60139802Y19040000D01*
X57078804Y22100997D01*
X57055001Y22130001D01*
X56939276Y22224974D01*
X56807247Y22295546D01*
X56663986Y22339003D01*
X56552333Y22350000D01*
X56552322Y22350000D01*
X56515000Y22353676D01*
X56477678Y22350000D01*
X54496396Y22350000D01*
X54529000Y22513911D01*
X54529000Y22698089D01*
X54512454Y22781268D01*
X54537387Y22794595D01*
X54671962Y22905038D01*
X54680601Y22915564D01*
X54728815Y22856815D01*
X54825506Y22777463D01*
X54935820Y22718498D01*
X55055518Y22682188D01*
X55180000Y22669928D01*
X55594250Y22673000D01*
X55753000Y22831750D01*
X55753000Y23781000D01*
X56007000Y23781000D01*
X56007000Y22831750D01*
X56165750Y22673000D01*
X56580000Y22669928D01*
X56704482Y22682188D01*
X56824180Y22718498D01*
X56934494Y22777463D01*
X57031185Y22856815D01*
X57110537Y22953506D01*
X57169502Y23063820D01*
X57205812Y23183518D01*
X57218072Y23308000D01*
X57215000Y23622250D01*
X57056250Y23781000D01*
X56007000Y23781000D01*
X55753000Y23781000D01*
X55733000Y23781000D01*
X55733000Y24035000D01*
X55753000Y24035000D01*
X55753000Y24055000D01*
X56007000Y24055000D01*
X56007000Y24035000D01*
X57056250Y24035000D01*
X57215000Y24193750D01*
X57218072Y24508000D01*
X57205812Y24632482D01*
X57169502Y24752180D01*
X57110537Y24862494D01*
X57031185Y24959185D01*
X57001724Y24983363D01*
X57068405Y25064613D01*
X57150472Y25218149D01*
X57201008Y25384745D01*
X57218072Y25557999D01*
X57218072Y26258001D01*
X57201008Y26431255D01*
X57166504Y26545000D01*
X62869815Y26545000D01*
X62782068Y26333158D01*
G37*
G04 #@! TD.AperFunction*
D21*
X41969991Y24411832D02*
X41966315Y24374509D01*
X41969991Y24337187D01*
X41969991Y24337177D01*
X41980988Y24225524D01*
X42010899Y24126920D01*
X42024445Y24082263D01*
X42095017Y23950233D01*
X42134862Y23901683D01*
X42189990Y23834508D01*
X42218993Y23810706D01*
X43045701Y22983997D01*
X43069499Y22954999D01*
X43098497Y22931201D01*
X43185224Y22860026D01*
X43317253Y22789454D01*
X43361311Y22776089D01*
X43408315Y22718815D01*
X43505006Y22639463D01*
X43615320Y22580498D01*
X43735018Y22544188D01*
X43859500Y22531928D01*
X45384500Y22531928D01*
X45508982Y22544188D01*
X45628680Y22580498D01*
X45738994Y22639463D01*
X45835685Y22718815D01*
X45915037Y22815506D01*
X45974002Y22925820D01*
X46010312Y23045518D01*
X46022572Y23170000D01*
X46022572Y23820000D01*
X46010312Y23944482D01*
X45991954Y24005000D01*
X46294199Y24005000D01*
X46934201Y23364997D01*
X46957999Y23335999D01*
X47073724Y23241026D01*
X47205753Y23170454D01*
X47349014Y23126997D01*
X47460667Y23116000D01*
X47460677Y23116000D01*
X47498000Y23112324D01*
X47535323Y23116000D01*
X47792765Y23116000D01*
X47833595Y23039613D01*
X47944038Y22905038D01*
X48078613Y22794595D01*
X48232149Y22712528D01*
X48398745Y22661992D01*
X48571999Y22644928D01*
X49472001Y22644928D01*
X49645255Y22661992D01*
X49811851Y22712528D01*
X49965387Y22794595D01*
X50099962Y22905038D01*
X50108601Y22915564D01*
X50156815Y22856815D01*
X50253506Y22777463D01*
X50363820Y22718498D01*
X50483518Y22682188D01*
X50608000Y22669928D01*
X51022250Y22673000D01*
X51181000Y22831750D01*
X51181000Y23781000D01*
X51161000Y23781000D01*
X51161000Y24035000D01*
X51181000Y24035000D01*
X51181000Y24055000D01*
X51435000Y24055000D01*
X51435000Y24035000D01*
X51455000Y24035000D01*
X51455000Y23781000D01*
X51435000Y23781000D01*
X51435000Y22831750D01*
X51593750Y22673000D01*
X52008000Y22669928D01*
X52132482Y22682188D01*
X52252180Y22718498D01*
X52362494Y22777463D01*
X52459185Y22856815D01*
X52507399Y22915564D01*
X52516038Y22905038D01*
X52650613Y22794595D01*
X52675546Y22781268D01*
X52659000Y22698089D01*
X52659000Y22513911D01*
X52691604Y22350000D01*
X41275000Y22350000D01*
X41275000Y24960198D01*
X41881003Y25566201D01*
X41910001Y25589999D01*
X41969991Y25663098D01*
X41969991Y24411832D01*
G04 #@! TA.AperFunction,Conductor*
D22*
G36*
X41969991Y24411832D02*
G01*
X41966315Y24374509D01*
X41969991Y24337187D01*
X41969991Y24337177D01*
X41980988Y24225524D01*
X42010899Y24126920D01*
X42024445Y24082263D01*
X42095017Y23950233D01*
X42134862Y23901683D01*
X42189990Y23834508D01*
X42218993Y23810706D01*
X43045701Y22983997D01*
X43069499Y22954999D01*
X43098497Y22931201D01*
X43185224Y22860026D01*
X43317253Y22789454D01*
X43361311Y22776089D01*
X43408315Y22718815D01*
X43505006Y22639463D01*
X43615320Y22580498D01*
X43735018Y22544188D01*
X43859500Y22531928D01*
X45384500Y22531928D01*
X45508982Y22544188D01*
X45628680Y22580498D01*
X45738994Y22639463D01*
X45835685Y22718815D01*
X45915037Y22815506D01*
X45974002Y22925820D01*
X46010312Y23045518D01*
X46022572Y23170000D01*
X46022572Y23820000D01*
X46010312Y23944482D01*
X45991954Y24005000D01*
X46294199Y24005000D01*
X46934201Y23364997D01*
X46957999Y23335999D01*
X47073724Y23241026D01*
X47205753Y23170454D01*
X47349014Y23126997D01*
X47460667Y23116000D01*
X47460677Y23116000D01*
X47498000Y23112324D01*
X47535323Y23116000D01*
X47792765Y23116000D01*
X47833595Y23039613D01*
X47944038Y22905038D01*
X48078613Y22794595D01*
X48232149Y22712528D01*
X48398745Y22661992D01*
X48571999Y22644928D01*
X49472001Y22644928D01*
X49645255Y22661992D01*
X49811851Y22712528D01*
X49965387Y22794595D01*
X50099962Y22905038D01*
X50108601Y22915564D01*
X50156815Y22856815D01*
X50253506Y22777463D01*
X50363820Y22718498D01*
X50483518Y22682188D01*
X50608000Y22669928D01*
X51022250Y22673000D01*
X51181000Y22831750D01*
X51181000Y23781000D01*
X51161000Y23781000D01*
X51161000Y24035000D01*
X51181000Y24035000D01*
X51181000Y24055000D01*
X51435000Y24055000D01*
X51435000Y24035000D01*
X51455000Y24035000D01*
X51455000Y23781000D01*
X51435000Y23781000D01*
X51435000Y22831750D01*
X51593750Y22673000D01*
X52008000Y22669928D01*
X52132482Y22682188D01*
X52252180Y22718498D01*
X52362494Y22777463D01*
X52459185Y22856815D01*
X52507399Y22915564D01*
X52516038Y22905038D01*
X52650613Y22794595D01*
X52675546Y22781268D01*
X52659000Y22698089D01*
X52659000Y22513911D01*
X52691604Y22350000D01*
X41275000Y22350000D01*
X41275000Y24960198D01*
X41881003Y25566201D01*
X41910001Y25589999D01*
X41969991Y25663098D01*
X41969991Y24411832D01*
G37*
G04 #@! TD.AperFunction*
D21*
X66877000Y26027000D02*
X66897000Y26027000D01*
X66897000Y25773000D01*
X66877000Y25773000D01*
X66877000Y25753000D01*
X66623000Y25753000D01*
X66623000Y25773000D01*
X66603000Y25773000D01*
X66603000Y26027000D01*
X66623000Y26027000D01*
X66623000Y26047000D01*
X66877000Y26047000D01*
X66877000Y26027000D01*
G04 #@! TA.AperFunction,Conductor*
D22*
G36*
X66877000Y26027000D02*
G01*
X66897000Y26027000D01*
X66897000Y25773000D01*
X66877000Y25773000D01*
X66877000Y25753000D01*
X66623000Y25753000D01*
X66623000Y25773000D01*
X66603000Y25773000D01*
X66603000Y26027000D01*
X66623000Y26027000D01*
X66623000Y26047000D01*
X66877000Y26047000D01*
X66877000Y26027000D01*
G37*
G04 #@! TD.AperFunction*
D21*
X64337000Y38727000D02*
X64357000Y38727000D01*
X64357000Y38473000D01*
X64337000Y38473000D01*
X64337000Y38453000D01*
X64083000Y38453000D01*
X64083000Y38473000D01*
X64063000Y38473000D01*
X64063000Y38727000D01*
X64083000Y38727000D01*
X64083000Y38747000D01*
X64337000Y38747000D01*
X64337000Y38727000D01*
G04 #@! TA.AperFunction,Conductor*
D22*
G36*
X64337000Y38727000D02*
G01*
X64357000Y38727000D01*
X64357000Y38473000D01*
X64337000Y38473000D01*
X64337000Y38453000D01*
X64083000Y38453000D01*
X64083000Y38473000D01*
X64063000Y38473000D01*
X64063000Y38727000D01*
X64083000Y38727000D01*
X64083000Y38747000D01*
X64337000Y38747000D01*
X64337000Y38727000D01*
G37*
G04 #@! TD.AperFunction*
G04 #@! TD*
D21*
G04 #@! TO.N,+3V3*
X19972928Y25204000D02*
X19976000Y24902250D01*
X20134750Y24743500D01*
X21209000Y24743500D01*
X21209000Y24763500D01*
X21463000Y24763500D01*
X21463000Y24743500D01*
X22537250Y24743500D01*
X22696000Y24902250D01*
X22699072Y25204000D01*
X22692276Y25273000D01*
X23857439Y25273000D01*
X23839688Y25214482D01*
X23827428Y25090000D01*
X23827428Y24440000D01*
X23839688Y24315518D01*
X23875998Y24195820D01*
X23911180Y24130000D01*
X23875998Y24064180D01*
X23839688Y23944482D01*
X23827428Y23820000D01*
X23830500Y23780750D01*
X23989250Y23622000D01*
X25101000Y23622000D01*
X25101000Y23642000D01*
X25355000Y23642000D01*
X25355000Y23622000D01*
X25375000Y23622000D01*
X25375000Y23368000D01*
X25355000Y23368000D01*
X25355000Y22693750D01*
X25513750Y22535000D01*
X25990500Y22531928D01*
X26114982Y22544188D01*
X26234680Y22580498D01*
X26289000Y22609533D01*
X26289000Y22479000D01*
X19939000Y22479000D01*
X19939000Y23170000D01*
X23827428Y23170000D01*
X23839688Y23045518D01*
X23875998Y22925820D01*
X23934963Y22815506D01*
X24014315Y22718815D01*
X24111006Y22639463D01*
X24221320Y22580498D01*
X24341018Y22544188D01*
X24465500Y22531928D01*
X24942250Y22535000D01*
X25101000Y22693750D01*
X25101000Y23368000D01*
X23989250Y23368000D01*
X23830500Y23209250D01*
X23827428Y23170000D01*
X19939000Y23170000D01*
X19939000Y24029000D01*
X19972928Y24029000D01*
X19985188Y23904518D01*
X20021498Y23784820D01*
X20080463Y23674506D01*
X20159815Y23577815D01*
X20256506Y23498463D01*
X20366820Y23439498D01*
X20486518Y23403188D01*
X20611000Y23390928D01*
X21050250Y23394000D01*
X21209000Y23552750D01*
X21209000Y24489500D01*
X21463000Y24489500D01*
X21463000Y23552750D01*
X21621750Y23394000D01*
X22061000Y23390928D01*
X22185482Y23403188D01*
X22305180Y23439498D01*
X22415494Y23498463D01*
X22512185Y23577815D01*
X22591537Y23674506D01*
X22650502Y23784820D01*
X22686812Y23904518D01*
X22699072Y24029000D01*
X22696000Y24330750D01*
X22537250Y24489500D01*
X21463000Y24489500D01*
X21209000Y24489500D01*
X20134750Y24489500D01*
X19976000Y24330750D01*
X19972928Y24029000D01*
X19939000Y24029000D01*
X19939000Y25273000D01*
X19979724Y25273000D01*
X19972928Y25204000D01*
G04 #@! TA.AperFunction,Conductor*
D22*
G36*
X19972928Y25204000D02*
G01*
X19976000Y24902250D01*
X20134750Y24743500D01*
X21209000Y24743500D01*
X21209000Y24763500D01*
X21463000Y24763500D01*
X21463000Y24743500D01*
X22537250Y24743500D01*
X22696000Y24902250D01*
X22699072Y25204000D01*
X22692276Y25273000D01*
X23857439Y25273000D01*
X23839688Y25214482D01*
X23827428Y25090000D01*
X23827428Y24440000D01*
X23839688Y24315518D01*
X23875998Y24195820D01*
X23911180Y24130000D01*
X23875998Y24064180D01*
X23839688Y23944482D01*
X23827428Y23820000D01*
X23830500Y23780750D01*
X23989250Y23622000D01*
X25101000Y23622000D01*
X25101000Y23642000D01*
X25355000Y23642000D01*
X25355000Y23622000D01*
X25375000Y23622000D01*
X25375000Y23368000D01*
X25355000Y23368000D01*
X25355000Y22693750D01*
X25513750Y22535000D01*
X25990500Y22531928D01*
X26114982Y22544188D01*
X26234680Y22580498D01*
X26289000Y22609533D01*
X26289000Y22479000D01*
X19939000Y22479000D01*
X19939000Y23170000D01*
X23827428Y23170000D01*
X23839688Y23045518D01*
X23875998Y22925820D01*
X23934963Y22815506D01*
X24014315Y22718815D01*
X24111006Y22639463D01*
X24221320Y22580498D01*
X24341018Y22544188D01*
X24465500Y22531928D01*
X24942250Y22535000D01*
X25101000Y22693750D01*
X25101000Y23368000D01*
X23989250Y23368000D01*
X23830500Y23209250D01*
X23827428Y23170000D01*
X19939000Y23170000D01*
X19939000Y24029000D01*
X19972928Y24029000D01*
X19985188Y23904518D01*
X20021498Y23784820D01*
X20080463Y23674506D01*
X20159815Y23577815D01*
X20256506Y23498463D01*
X20366820Y23439498D01*
X20486518Y23403188D01*
X20611000Y23390928D01*
X21050250Y23394000D01*
X21209000Y23552750D01*
X21209000Y24489500D01*
X21463000Y24489500D01*
X21463000Y23552750D01*
X21621750Y23394000D01*
X22061000Y23390928D01*
X22185482Y23403188D01*
X22305180Y23439498D01*
X22415494Y23498463D01*
X22512185Y23577815D01*
X22591537Y23674506D01*
X22650502Y23784820D01*
X22686812Y23904518D01*
X22699072Y24029000D01*
X22696000Y24330750D01*
X22537250Y24489500D01*
X21463000Y24489500D01*
X21209000Y24489500D01*
X20134750Y24489500D01*
X19976000Y24330750D01*
X19972928Y24029000D01*
X19939000Y24029000D01*
X19939000Y25273000D01*
X19979724Y25273000D01*
X19972928Y25204000D01*
G37*
G04 #@! TD.AperFunction*
G04 #@! TD*
D21*
G04 #@! TO.N,+3V3*
X44775498Y19384180D02*
X44739188Y19264482D01*
X44726928Y19140000D01*
X44730000Y18700750D01*
X44888750Y18542000D01*
X45825500Y18542000D01*
X45825500Y18562000D01*
X46079500Y18562000D01*
X46079500Y18542000D01*
X46099500Y18542000D01*
X46099500Y18288000D01*
X46079500Y18288000D01*
X46079500Y17213750D01*
X46238250Y17055000D01*
X46540000Y17051928D01*
X46664482Y17064188D01*
X46784180Y17100498D01*
X46863000Y17142629D01*
X46863000Y17018000D01*
X46865440Y16993224D01*
X46872667Y16969399D01*
X46884403Y16947443D01*
X46900197Y16928197D01*
X46919443Y16912403D01*
X46941399Y16900667D01*
X46965224Y16893440D01*
X46990000Y16891000D01*
X48387000Y16891000D01*
X48387000Y15802403D01*
X48380537Y15814494D01*
X48301185Y15911185D01*
X48204494Y15990537D01*
X48094180Y16049502D01*
X47974482Y16085812D01*
X47850000Y16098072D01*
X47535750Y16095000D01*
X47377000Y15936250D01*
X47377000Y14487000D01*
X47397000Y14487000D01*
X47397000Y14233000D01*
X47377000Y14233000D01*
X47377000Y12783750D01*
X47535750Y12625000D01*
X47850000Y12621928D01*
X47974482Y12634188D01*
X48094180Y12670498D01*
X48204494Y12729463D01*
X48301185Y12808815D01*
X48380537Y12905506D01*
X48387000Y12917597D01*
X48387000Y12573000D01*
X43053000Y12573000D01*
X43053000Y13260000D01*
X46011928Y13260000D01*
X46024188Y13135518D01*
X46060498Y13015820D01*
X46119463Y12905506D01*
X46198815Y12808815D01*
X46295506Y12729463D01*
X46405820Y12670498D01*
X46525518Y12634188D01*
X46650000Y12621928D01*
X46964250Y12625000D01*
X47123000Y12783750D01*
X47123000Y14233000D01*
X46173750Y14233000D01*
X46015000Y14074250D01*
X46011928Y13260000D01*
X43053000Y13260000D01*
X43053000Y15460000D01*
X46011928Y15460000D01*
X46015000Y14645750D01*
X46173750Y14487000D01*
X47123000Y14487000D01*
X47123000Y15936250D01*
X46964250Y16095000D01*
X46650000Y16098072D01*
X46525518Y16085812D01*
X46405820Y16049502D01*
X46295506Y15990537D01*
X46198815Y15911185D01*
X46119463Y15814494D01*
X46060498Y15704180D01*
X46024188Y15584482D01*
X46011928Y15460000D01*
X43053000Y15460000D01*
X43053000Y17690000D01*
X44726928Y17690000D01*
X44739188Y17565518D01*
X44775498Y17445820D01*
X44834463Y17335506D01*
X44913815Y17238815D01*
X45010506Y17159463D01*
X45120820Y17100498D01*
X45240518Y17064188D01*
X45365000Y17051928D01*
X45666750Y17055000D01*
X45825500Y17213750D01*
X45825500Y18288000D01*
X44888750Y18288000D01*
X44730000Y18129250D01*
X44726928Y17690000D01*
X43053000Y17690000D01*
X43053000Y19431000D01*
X44800524Y19431000D01*
X44775498Y19384180D01*
G04 #@! TA.AperFunction,Conductor*
D22*
G36*
X44775498Y19384180D02*
G01*
X44739188Y19264482D01*
X44726928Y19140000D01*
X44730000Y18700750D01*
X44888750Y18542000D01*
X45825500Y18542000D01*
X45825500Y18562000D01*
X46079500Y18562000D01*
X46079500Y18542000D01*
X46099500Y18542000D01*
X46099500Y18288000D01*
X46079500Y18288000D01*
X46079500Y17213750D01*
X46238250Y17055000D01*
X46540000Y17051928D01*
X46664482Y17064188D01*
X46784180Y17100498D01*
X46863000Y17142629D01*
X46863000Y17018000D01*
X46865440Y16993224D01*
X46872667Y16969399D01*
X46884403Y16947443D01*
X46900197Y16928197D01*
X46919443Y16912403D01*
X46941399Y16900667D01*
X46965224Y16893440D01*
X46990000Y16891000D01*
X48387000Y16891000D01*
X48387000Y15802403D01*
X48380537Y15814494D01*
X48301185Y15911185D01*
X48204494Y15990537D01*
X48094180Y16049502D01*
X47974482Y16085812D01*
X47850000Y16098072D01*
X47535750Y16095000D01*
X47377000Y15936250D01*
X47377000Y14487000D01*
X47397000Y14487000D01*
X47397000Y14233000D01*
X47377000Y14233000D01*
X47377000Y12783750D01*
X47535750Y12625000D01*
X47850000Y12621928D01*
X47974482Y12634188D01*
X48094180Y12670498D01*
X48204494Y12729463D01*
X48301185Y12808815D01*
X48380537Y12905506D01*
X48387000Y12917597D01*
X48387000Y12573000D01*
X43053000Y12573000D01*
X43053000Y13260000D01*
X46011928Y13260000D01*
X46024188Y13135518D01*
X46060498Y13015820D01*
X46119463Y12905506D01*
X46198815Y12808815D01*
X46295506Y12729463D01*
X46405820Y12670498D01*
X46525518Y12634188D01*
X46650000Y12621928D01*
X46964250Y12625000D01*
X47123000Y12783750D01*
X47123000Y14233000D01*
X46173750Y14233000D01*
X46015000Y14074250D01*
X46011928Y13260000D01*
X43053000Y13260000D01*
X43053000Y15460000D01*
X46011928Y15460000D01*
X46015000Y14645750D01*
X46173750Y14487000D01*
X47123000Y14487000D01*
X47123000Y15936250D01*
X46964250Y16095000D01*
X46650000Y16098072D01*
X46525518Y16085812D01*
X46405820Y16049502D01*
X46295506Y15990537D01*
X46198815Y15911185D01*
X46119463Y15814494D01*
X46060498Y15704180D01*
X46024188Y15584482D01*
X46011928Y15460000D01*
X43053000Y15460000D01*
X43053000Y17690000D01*
X44726928Y17690000D01*
X44739188Y17565518D01*
X44775498Y17445820D01*
X44834463Y17335506D01*
X44913815Y17238815D01*
X45010506Y17159463D01*
X45120820Y17100498D01*
X45240518Y17064188D01*
X45365000Y17051928D01*
X45666750Y17055000D01*
X45825500Y17213750D01*
X45825500Y18288000D01*
X44888750Y18288000D01*
X44730000Y18129250D01*
X44726928Y17690000D01*
X43053000Y17690000D01*
X43053000Y19431000D01*
X44800524Y19431000D01*
X44775498Y19384180D01*
G37*
G04 #@! TD.AperFunction*
G04 #@! TD*
M02*
