G04 #@! TF.GenerationSoftware,KiCad,Pcbnew,(5.1.10)-1*
G04 #@! TF.CreationDate,2021-07-06T11:56:46+05:30*
G04 #@! TF.ProjectId,STM_Morpho,53544d5f-4d6f-4727-9068-6f2e6b696361,rev?*
G04 #@! TF.SameCoordinates,PX7bfa480PY7270e00*
G04 #@! TF.FileFunction,Copper,L2,Bot*
G04 #@! TF.FilePolarity,Positive*
%FSLAX46Y46*%
G04 Gerber Fmt 4.6, Leading zero omitted, Abs format (unit mm)*
G04 Created by KiCad (PCBNEW (5.1.10)-1) date 2021-07-06 11:56:46*
%MOMM*%
%LPD*%
G01*
G04 APERTURE LIST*
G04 #@! TA.AperFunction,ComponentPad*
%ADD10O,1.700000X1.950000*%
G04 #@! TD*
G04 #@! TA.AperFunction,ComponentPad*
%ADD11O,1.700000X1.700000*%
G04 #@! TD*
G04 #@! TA.AperFunction,ComponentPad*
%ADD12R,1.700000X1.700000*%
G04 #@! TD*
G04 #@! TA.AperFunction,ComponentPad*
%ADD13O,2.000000X1.500000*%
G04 #@! TD*
G04 #@! TA.AperFunction,ComponentPad*
%ADD14O,1.950000X1.700000*%
G04 #@! TD*
G04 #@! TA.AperFunction,ComponentPad*
%ADD15O,2.000000X1.700000*%
G04 #@! TD*
G04 #@! TA.AperFunction,ViaPad*
%ADD16C,0.600000*%
G04 #@! TD*
G04 #@! TA.AperFunction,Conductor*
%ADD17C,0.250000*%
G04 #@! TD*
G04 #@! TA.AperFunction,Conductor*
%ADD18C,0.254000*%
G04 #@! TD*
G04 #@! TA.AperFunction,Conductor*
%ADD19C,0.100000*%
G04 #@! TD*
G04 APERTURE END LIST*
D10*
G04 #@! TO.P,RS485A2,4*
G04 #@! TO.N,GND*
X24250000Y35560000D03*
G04 #@! TO.P,RS485A2,3*
G04 #@! TO.N,Net-(IC2-Pad6)*
X26750000Y35560000D03*
G04 #@! TO.P,RS485A2,2*
G04 #@! TO.N,Net-(IC2-Pad7)*
X29250000Y35560000D03*
G04 #@! TO.P,RS485A2,1*
G04 #@! TO.N,N/C*
G04 #@! TA.AperFunction,ComponentPad*
G36*
G01*
X32600000Y36285000D02*
X32600000Y34835000D01*
G75*
G02*
X32350000Y34585000I-250000J0D01*
G01*
X31150000Y34585000D01*
G75*
G02*
X30900000Y34835000I0J250000D01*
G01*
X30900000Y36285000D01*
G75*
G02*
X31150000Y36535000I250000J0D01*
G01*
X32350000Y36535000D01*
G75*
G02*
X32600000Y36285000I0J-250000D01*
G01*
G37*
G04 #@! TD.AperFunction*
G04 #@! TD*
D11*
G04 #@! TO.P,J3,2*
G04 #@! TO.N,V_IN*
X58420000Y43434000D03*
D12*
G04 #@! TO.P,J3,1*
G04 #@! TO.N,E5V*
X55880000Y43434000D03*
G04 #@! TD*
D13*
G04 #@! TO.P,J1,6*
G04 #@! TO.N,INT*
X36900000Y16510000D03*
G04 #@! TO.P,J1,7*
G04 #@! TO.N,SPI_MISO*
X16440000Y16510000D03*
G04 #@! TO.P,J1,5*
G04 #@! TO.N,SPI_CS*
X36900000Y13970000D03*
G04 #@! TO.P,J1,8*
G04 #@! TO.N,RST*
X16440000Y13970000D03*
G04 #@! TO.P,J1,4*
G04 #@! TO.N,SPI_SCLK*
X36900000Y11430000D03*
G04 #@! TO.P,J1,9*
G04 #@! TO.N,N/C*
X16440000Y11430000D03*
G04 #@! TO.P,J1,3*
G04 #@! TO.N,SPI_MOSI*
X36900000Y8890000D03*
G04 #@! TO.P,J1,10*
G04 #@! TO.N,+3V3*
X16440000Y8890000D03*
G04 #@! TO.P,J1,2*
G04 #@! TO.N,GND*
X36900000Y6350000D03*
G04 #@! TO.P,J1,11*
G04 #@! TO.N,+3V3*
X16440000Y6350000D03*
G04 #@! TO.P,J1,1*
G04 #@! TO.N,GND*
X36900000Y3810000D03*
G04 #@! TO.P,J1,12*
X16440000Y3810000D03*
G04 #@! TD*
D14*
G04 #@! TO.P,SPI1,5*
G04 #@! TO.N,GND*
X12700000Y28528000D03*
G04 #@! TO.P,SPI1,4*
G04 #@! TO.N,SPI_CS*
X12700000Y31028000D03*
G04 #@! TO.P,SPI1,3*
G04 #@! TO.N,SPI_SCLK*
X12700000Y33528000D03*
G04 #@! TO.P,SPI1,2*
G04 #@! TO.N,SPI_MISO*
X12700000Y36028000D03*
G04 #@! TO.P,SPI1,1*
G04 #@! TO.N,SPI_MOSI*
G04 #@! TA.AperFunction,ComponentPad*
G36*
G01*
X11975000Y39378000D02*
X13425000Y39378000D01*
G75*
G02*
X13675000Y39128000I0J-250000D01*
G01*
X13675000Y37928000D01*
G75*
G02*
X13425000Y37678000I-250000J0D01*
G01*
X11975000Y37678000D01*
G75*
G02*
X11725000Y37928000I0J250000D01*
G01*
X11725000Y39128000D01*
G75*
G02*
X11975000Y39378000I250000J0D01*
G01*
G37*
G04 #@! TD.AperFunction*
G04 #@! TD*
D15*
G04 #@! TO.P,J2,2*
G04 #@! TO.N,GND*
X58420000Y7874000D03*
G04 #@! TO.P,J2,1*
G04 #@! TO.N,V_IN*
G04 #@! TA.AperFunction,ComponentPad*
G36*
G01*
X57670000Y11224000D02*
X59170000Y11224000D01*
G75*
G02*
X59420000Y10974000I0J-250000D01*
G01*
X59420000Y9774000D01*
G75*
G02*
X59170000Y9524000I-250000J0D01*
G01*
X57670000Y9524000D01*
G75*
G02*
X57420000Y9774000I0J250000D01*
G01*
X57420000Y10974000D01*
G75*
G02*
X57670000Y11224000I250000J0D01*
G01*
G37*
G04 #@! TD.AperFunction*
G04 #@! TD*
D11*
G04 #@! TO.P,CN10,38*
G04 #@! TO.N,/NC*
X66750000Y3040000D03*
G04 #@! TO.P,CN10,37*
G04 #@! TO.N,N/C*
X64210000Y3040000D03*
G04 #@! TO.P,CN10,36*
G04 #@! TO.N,/NC*
X66750000Y5580000D03*
G04 #@! TO.P,CN10,35*
G04 #@! TO.N,N/C*
X64210000Y5580000D03*
G04 #@! TO.P,CN10,34*
X66750000Y8120000D03*
G04 #@! TO.P,CN10,33*
X64210000Y8120000D03*
G04 #@! TO.P,CN10,32*
X66750000Y10660000D03*
G04 #@! TO.P,CN10,31*
X64210000Y10660000D03*
G04 #@! TO.P,CN10,30*
X66750000Y13200000D03*
G04 #@! TO.P,CN10,29*
X64210000Y13200000D03*
G04 #@! TO.P,CN10,28*
G04 #@! TO.N,UART3_DE*
X66750000Y15740000D03*
G04 #@! TO.P,CN10,27*
G04 #@! TO.N,N/C*
X64210000Y15740000D03*
G04 #@! TO.P,CN10,26*
X66750000Y18280000D03*
G04 #@! TO.P,CN10,25*
G04 #@! TO.N,UART3_TX*
X64210000Y18280000D03*
G04 #@! TO.P,CN10,24*
G04 #@! TO.N,N/C*
X66750000Y20820000D03*
G04 #@! TO.P,CN10,23*
X64210000Y20820000D03*
G04 #@! TO.P,CN10,22*
X66750000Y23360000D03*
G04 #@! TO.P,CN10,21*
X64210000Y23360000D03*
G04 #@! TO.P,CN10,20*
G04 #@! TO.N,GND*
X66750000Y25900000D03*
G04 #@! TO.P,CN10,19*
G04 #@! TO.N,N/C*
X64210000Y25900000D03*
G04 #@! TO.P,CN10,18*
G04 #@! TO.N,UART3_RX*
X66750000Y28440000D03*
G04 #@! TO.P,CN10,17*
G04 #@! TO.N,UART1_TX*
X64210000Y28440000D03*
G04 #@! TO.P,CN10,16*
G04 #@! TO.N,N/C*
X66750000Y30980000D03*
G04 #@! TO.P,CN10,15*
X64210000Y30980000D03*
G04 #@! TO.P,CN10,14*
X66750000Y33520000D03*
G04 #@! TO.P,CN10,13*
X64210000Y33520000D03*
G04 #@! TO.P,CN10,12*
G04 #@! TO.N,UART1_DE*
X66750000Y36060000D03*
G04 #@! TO.P,CN10,11*
G04 #@! TO.N,N/C*
X64210000Y36060000D03*
G04 #@! TO.P,CN10,10*
G04 #@! TO.N,/NC*
X66750000Y38600000D03*
G04 #@! TO.P,CN10,9*
G04 #@! TO.N,GND*
X64210000Y38600000D03*
G04 #@! TO.P,CN10,8*
G04 #@! TO.N,N/C*
X66750000Y41140000D03*
G04 #@! TO.P,CN10,7*
X64210000Y41140000D03*
G04 #@! TO.P,CN10,6*
G04 #@! TO.N,UART1_RX*
X66750000Y43680000D03*
G04 #@! TO.P,CN10,5*
G04 #@! TO.N,N/C*
X64210000Y43680000D03*
G04 #@! TO.P,CN10,4*
X66750000Y46220000D03*
G04 #@! TO.P,CN10,3*
X64210000Y46220000D03*
G04 #@! TO.P,CN10,2*
X66750000Y48760000D03*
D12*
G04 #@! TO.P,CN10,1*
X64210000Y48760000D03*
G04 #@! TD*
D11*
G04 #@! TO.P,CN7,38*
G04 #@! TO.N,N/C*
X5790000Y3040000D03*
G04 #@! TO.P,CN7,37*
X3250000Y3040000D03*
G04 #@! TO.P,CN7,36*
X5790000Y5580000D03*
G04 #@! TO.P,CN7,35*
X3250000Y5580000D03*
G04 #@! TO.P,CN7,34*
X5790000Y8120000D03*
G04 #@! TO.P,CN7,33*
X3250000Y8120000D03*
G04 #@! TO.P,CN7,32*
X5790000Y10660000D03*
G04 #@! TO.P,CN7,31*
X3250000Y10660000D03*
G04 #@! TO.P,CN7,30*
G04 #@! TO.N,RST*
X5790000Y13200000D03*
G04 #@! TO.P,CN7,29*
G04 #@! TO.N,N/C*
X3250000Y13200000D03*
G04 #@! TO.P,CN7,28*
G04 #@! TO.N,INT*
X5790000Y15740000D03*
G04 #@! TO.P,CN7,27*
G04 #@! TO.N,N/C*
X3250000Y15740000D03*
G04 #@! TO.P,CN7,26*
G04 #@! TO.N,/NC*
X5790000Y18280000D03*
G04 #@! TO.P,CN7,25*
G04 #@! TO.N,N/C*
X3250000Y18280000D03*
G04 #@! TO.P,CN7,24*
X5790000Y20820000D03*
G04 #@! TO.P,CN7,23*
X3250000Y20820000D03*
G04 #@! TO.P,CN7,22*
G04 #@! TO.N,GND*
X5790000Y23360000D03*
G04 #@! TO.P,CN7,21*
G04 #@! TO.N,N/C*
X3250000Y23360000D03*
G04 #@! TO.P,CN7,20*
G04 #@! TO.N,GND*
X5790000Y25900000D03*
G04 #@! TO.P,CN7,19*
X3250000Y25900000D03*
G04 #@! TO.P,CN7,18*
G04 #@! TO.N,N/C*
X5790000Y28440000D03*
G04 #@! TO.P,CN7,17*
G04 #@! TO.N,SPI_CS*
X3250000Y28440000D03*
G04 #@! TO.P,CN7,16*
G04 #@! TO.N,N/C*
X5790000Y30980000D03*
G04 #@! TO.P,CN7,15*
X3250000Y30980000D03*
G04 #@! TO.P,CN7,14*
X5790000Y33520000D03*
G04 #@! TO.P,CN7,13*
X3250000Y33520000D03*
G04 #@! TO.P,CN7,12*
X5790000Y36060000D03*
G04 #@! TO.P,CN7,11*
G04 #@! TO.N,/NC*
X3250000Y36060000D03*
G04 #@! TO.P,CN7,10*
X5790000Y38600000D03*
G04 #@! TO.P,CN7,9*
X3250000Y38600000D03*
G04 #@! TO.P,CN7,8*
G04 #@! TO.N,GND*
X5790000Y41140000D03*
G04 #@! TO.P,CN7,7*
G04 #@! TO.N,N/C*
X3250000Y41140000D03*
G04 #@! TO.P,CN7,6*
G04 #@! TO.N,E5V*
X5790000Y43680000D03*
G04 #@! TO.P,CN7,5*
G04 #@! TO.N,N/C*
X3250000Y43680000D03*
G04 #@! TO.P,CN7,4*
X5790000Y46220000D03*
G04 #@! TO.P,CN7,3*
G04 #@! TO.N,SPI_MOSI*
X3250000Y46220000D03*
G04 #@! TO.P,CN7,2*
G04 #@! TO.N,SPI_MISO*
X5790000Y48760000D03*
D12*
G04 #@! TO.P,CN7,1*
G04 #@! TO.N,SPI_SCLK*
X3250000Y48760000D03*
G04 #@! TD*
G04 #@! TO.P,RS485A1,1*
G04 #@! TO.N,N/C*
G04 #@! TA.AperFunction,ComponentPad*
G36*
G01*
X46570000Y36285000D02*
X46570000Y34835000D01*
G75*
G02*
X46320000Y34585000I-250000J0D01*
G01*
X45120000Y34585000D01*
G75*
G02*
X44870000Y34835000I0J250000D01*
G01*
X44870000Y36285000D01*
G75*
G02*
X45120000Y36535000I250000J0D01*
G01*
X46320000Y36535000D01*
G75*
G02*
X46570000Y36285000I0J-250000D01*
G01*
G37*
G04 #@! TD.AperFunction*
D10*
G04 #@! TO.P,RS485A1,2*
G04 #@! TO.N,Net-(IC1-Pad7)*
X43220000Y35560000D03*
G04 #@! TO.P,RS485A1,3*
G04 #@! TO.N,Net-(IC1-Pad6)*
X40720000Y35560000D03*
G04 #@! TO.P,RS485A1,4*
G04 #@! TO.N,GND*
X38220000Y35560000D03*
G04 #@! TD*
D16*
G04 #@! TO.N,GND*
X53213000Y48387000D03*
X54483000Y48387000D03*
X55753000Y48387000D03*
X53213000Y29972000D03*
X54483000Y29972000D03*
X55753000Y29972000D03*
X20955000Y0D03*
X22225000Y0D03*
X23495000Y0D03*
X61595000Y22860000D03*
X61595000Y24130000D03*
X61595000Y25400000D03*
X9525000Y19050000D03*
X10795000Y19050000D03*
X12065000Y19050000D03*
X14605000Y48260000D03*
X15875000Y48260000D03*
X17145000Y48260000D03*
X52324000Y22606000D03*
G04 #@! TO.N,+3V3*
X37465000Y23495000D03*
X36195000Y22860000D03*
X34925000Y22860000D03*
X37465000Y24765000D03*
X23495000Y24765000D03*
X23495000Y23495000D03*
X22225000Y22860000D03*
X20955000Y22860000D03*
X44450000Y18415000D03*
X44450000Y17145000D03*
X44450000Y15875000D03*
X44450000Y14605000D03*
X44450000Y13335000D03*
G04 #@! TO.N,INT*
X25400000Y15240000D03*
G04 #@! TO.N,UART3_DE*
X55308500Y20256500D03*
X53594000Y22606000D03*
G04 #@! TD*
D17*
G04 #@! TO.N,/NC*
X3250000Y36060000D02*
X3250000Y38810000D01*
X3250000Y38810000D02*
X3302000Y38862000D01*
G04 #@! TO.N,RST*
X16440000Y13970000D02*
X6350000Y13970000D01*
X6350000Y13970000D02*
X5842000Y13462000D01*
G04 #@! TO.N,INT*
X25400000Y15240000D02*
X35560000Y15240000D01*
X35560000Y15240000D02*
X36830000Y16510000D01*
G04 #@! TO.N,SPI_CS*
X4614999Y29804999D02*
X11516999Y29804999D01*
X3250000Y28440000D02*
X4614999Y29804999D01*
X11516999Y29804999D02*
X12700000Y30988000D01*
G04 #@! TO.N,SPI_MISO*
X12700000Y36028000D02*
X14264000Y36028000D01*
X14264000Y36028000D02*
X16510000Y33782000D01*
X16510000Y33782000D02*
X16510000Y16764000D01*
G04 #@! TO.N,UART3_DE*
X53594000Y21971000D02*
X55308500Y20256500D01*
X53594000Y22606000D02*
X53594000Y21971000D01*
G04 #@! TD*
D18*
G04 #@! TO.N,GND*
X18923000Y48260000D02*
X18925440Y48235224D01*
X18932667Y48211399D01*
X18944403Y48189443D01*
X18960197Y48170197D01*
X18979443Y48154403D01*
X19001399Y48142667D01*
X19025224Y48135440D01*
X19050000Y48133000D01*
X50800000Y48133000D01*
X50824776Y48135440D01*
X50848601Y48142667D01*
X50870557Y48154403D01*
X50889803Y48170197D01*
X50905597Y48189443D01*
X50917333Y48211399D01*
X50924560Y48235224D01*
X50927000Y48260000D01*
X50927000Y51530340D01*
X56791316Y51530340D01*
X56791316Y51069660D01*
X56881190Y50617831D01*
X57057485Y50192218D01*
X57313425Y49809176D01*
X57639176Y49483425D01*
X58022218Y49227485D01*
X58447831Y49051190D01*
X58899660Y48961316D01*
X59360340Y48961316D01*
X59812169Y49051190D01*
X60237782Y49227485D01*
X60620824Y49483425D01*
X60747399Y49610000D01*
X62721928Y49610000D01*
X62721928Y47910000D01*
X62734188Y47785518D01*
X62770498Y47665820D01*
X62829463Y47555506D01*
X62908815Y47458815D01*
X63005506Y47379463D01*
X63115820Y47320498D01*
X63188380Y47298487D01*
X63056525Y47166632D01*
X62894010Y46923411D01*
X62782068Y46653158D01*
X62725000Y46366260D01*
X62725000Y46073740D01*
X62782068Y45786842D01*
X62894010Y45516589D01*
X63056525Y45273368D01*
X63263368Y45066525D01*
X63437760Y44950000D01*
X63263368Y44833475D01*
X63056525Y44626632D01*
X62894010Y44383411D01*
X62782068Y44113158D01*
X62725000Y43826260D01*
X62725000Y43533740D01*
X62782068Y43246842D01*
X62894010Y42976589D01*
X63056525Y42733368D01*
X63263368Y42526525D01*
X63437760Y42410000D01*
X63263368Y42293475D01*
X63056525Y42086632D01*
X62894010Y41843411D01*
X62782068Y41573158D01*
X62725000Y41286260D01*
X62725000Y40993740D01*
X62782068Y40706842D01*
X62894010Y40436589D01*
X63056525Y40193368D01*
X63263368Y39986525D01*
X63445534Y39864805D01*
X63328645Y39795178D01*
X63112412Y39600269D01*
X62938359Y39366920D01*
X62813175Y39104099D01*
X62768524Y38956890D01*
X62889845Y38727000D01*
X64083000Y38727000D01*
X64083000Y38747000D01*
X64337000Y38747000D01*
X64337000Y38727000D01*
X64357000Y38727000D01*
X64357000Y38473000D01*
X64337000Y38473000D01*
X64337000Y38453000D01*
X64083000Y38453000D01*
X64083000Y38473000D01*
X62889845Y38473000D01*
X62768524Y38243110D01*
X62813175Y38095901D01*
X62938359Y37833080D01*
X63112412Y37599731D01*
X63328645Y37404822D01*
X63445534Y37335195D01*
X63263368Y37213475D01*
X63056525Y37006632D01*
X62894010Y36763411D01*
X62782068Y36493158D01*
X62725000Y36206260D01*
X62725000Y35913740D01*
X62782068Y35626842D01*
X62894010Y35356589D01*
X63056525Y35113368D01*
X63263368Y34906525D01*
X63437760Y34790000D01*
X63263368Y34673475D01*
X63056525Y34466632D01*
X62894010Y34223411D01*
X62782068Y33953158D01*
X62725000Y33666260D01*
X62725000Y33373740D01*
X62782068Y33086842D01*
X62894010Y32816589D01*
X63056525Y32573368D01*
X63263368Y32366525D01*
X63437760Y32250000D01*
X63263368Y32133475D01*
X63056525Y31926632D01*
X62894010Y31683411D01*
X62782068Y31413158D01*
X62725000Y31126260D01*
X62725000Y30833740D01*
X62782068Y30546842D01*
X62894010Y30276589D01*
X63056525Y30033368D01*
X63263368Y29826525D01*
X63437760Y29710000D01*
X63263368Y29593475D01*
X63056525Y29386632D01*
X62894010Y29143411D01*
X62782068Y28873158D01*
X62725000Y28586260D01*
X62725000Y28293740D01*
X62782068Y28006842D01*
X62894010Y27736589D01*
X63056525Y27493368D01*
X63263368Y27286525D01*
X63437760Y27170000D01*
X63263368Y27053475D01*
X63056525Y26846632D01*
X62894010Y26603411D01*
X62782068Y26333158D01*
X62725000Y26046260D01*
X62725000Y25753740D01*
X62782068Y25466842D01*
X62894010Y25196589D01*
X63056525Y24953368D01*
X63263368Y24746525D01*
X63437760Y24630000D01*
X63263368Y24513475D01*
X63056525Y24306632D01*
X62894010Y24063411D01*
X62782068Y23793158D01*
X62725000Y23506260D01*
X62725000Y23213740D01*
X62782068Y22926842D01*
X62894010Y22656589D01*
X63056525Y22413368D01*
X63263368Y22206525D01*
X63437760Y22090000D01*
X63263368Y21973475D01*
X63056525Y21766632D01*
X62894010Y21523411D01*
X62782068Y21253158D01*
X62725000Y20966260D01*
X62725000Y20673740D01*
X62782068Y20386842D01*
X62894010Y20116589D01*
X63056525Y19873368D01*
X63263368Y19666525D01*
X63437760Y19550000D01*
X63263368Y19433475D01*
X63056525Y19226632D01*
X62894010Y18983411D01*
X62782068Y18713158D01*
X62725000Y18426260D01*
X62725000Y18133740D01*
X62782068Y17846842D01*
X62894010Y17576589D01*
X63056525Y17333368D01*
X63263368Y17126525D01*
X63437760Y17010000D01*
X63263368Y16893475D01*
X63056525Y16686632D01*
X62894010Y16443411D01*
X62782068Y16173158D01*
X62725000Y15886260D01*
X62725000Y15593740D01*
X62782068Y15306842D01*
X62894010Y15036589D01*
X63056525Y14793368D01*
X63263368Y14586525D01*
X63437760Y14470000D01*
X63263368Y14353475D01*
X63056525Y14146632D01*
X62894010Y13903411D01*
X62782068Y13633158D01*
X62725000Y13346260D01*
X62725000Y13053740D01*
X62782068Y12766842D01*
X62894010Y12496589D01*
X63056525Y12253368D01*
X63263368Y12046525D01*
X63437760Y11930000D01*
X63263368Y11813475D01*
X63056525Y11606632D01*
X62894010Y11363411D01*
X62782068Y11093158D01*
X62725000Y10806260D01*
X62725000Y10513740D01*
X62782068Y10226842D01*
X62894010Y9956589D01*
X63056525Y9713368D01*
X63263368Y9506525D01*
X63437760Y9390000D01*
X63263368Y9273475D01*
X63056525Y9066632D01*
X62894010Y8823411D01*
X62782068Y8553158D01*
X62725000Y8266260D01*
X62725000Y7973740D01*
X62782068Y7686842D01*
X62894010Y7416589D01*
X63056525Y7173368D01*
X63263368Y6966525D01*
X63437760Y6850000D01*
X63263368Y6733475D01*
X63056525Y6526632D01*
X62894010Y6283411D01*
X62782068Y6013158D01*
X62725000Y5726260D01*
X62725000Y5433740D01*
X62782068Y5146842D01*
X62894010Y4876589D01*
X63056525Y4633368D01*
X63263368Y4426525D01*
X63437760Y4310000D01*
X63263368Y4193475D01*
X63056525Y3986632D01*
X62894010Y3743411D01*
X62782068Y3473158D01*
X62725000Y3186260D01*
X62725000Y2893740D01*
X62782068Y2606842D01*
X62894010Y2336589D01*
X63056525Y2093368D01*
X63263368Y1886525D01*
X63506589Y1724010D01*
X63776842Y1612068D01*
X64063740Y1555000D01*
X64356260Y1555000D01*
X64643158Y1612068D01*
X64913411Y1724010D01*
X65156632Y1886525D01*
X65363475Y2093368D01*
X65480000Y2267760D01*
X65596525Y2093368D01*
X65803368Y1886525D01*
X66046589Y1724010D01*
X66316842Y1612068D01*
X66603740Y1555000D01*
X66896260Y1555000D01*
X67183158Y1612068D01*
X67453411Y1724010D01*
X67696632Y1886525D01*
X67903475Y2093368D01*
X68065990Y2336589D01*
X68177932Y2606842D01*
X68235000Y2893740D01*
X68235000Y3186260D01*
X68177932Y3473158D01*
X68065990Y3743411D01*
X67903475Y3986632D01*
X67696632Y4193475D01*
X67522240Y4310000D01*
X67696632Y4426525D01*
X67903475Y4633368D01*
X68065990Y4876589D01*
X68177932Y5146842D01*
X68235000Y5433740D01*
X68235000Y5726260D01*
X68177932Y6013158D01*
X68065990Y6283411D01*
X67903475Y6526632D01*
X67696632Y6733475D01*
X67522240Y6850000D01*
X67696632Y6966525D01*
X67903475Y7173368D01*
X68065990Y7416589D01*
X68177932Y7686842D01*
X68235000Y7973740D01*
X68235000Y8266260D01*
X68177932Y8553158D01*
X68065990Y8823411D01*
X67903475Y9066632D01*
X67696632Y9273475D01*
X67522240Y9390000D01*
X67696632Y9506525D01*
X67903475Y9713368D01*
X68065990Y9956589D01*
X68177932Y10226842D01*
X68235000Y10513740D01*
X68235000Y10806260D01*
X68177932Y11093158D01*
X68065990Y11363411D01*
X67903475Y11606632D01*
X67696632Y11813475D01*
X67522240Y11930000D01*
X67696632Y12046525D01*
X67903475Y12253368D01*
X68065990Y12496589D01*
X68177932Y12766842D01*
X68235000Y13053740D01*
X68235000Y13346260D01*
X68177932Y13633158D01*
X68065990Y13903411D01*
X67903475Y14146632D01*
X67696632Y14353475D01*
X67522240Y14470000D01*
X67696632Y14586525D01*
X67903475Y14793368D01*
X68065990Y15036589D01*
X68177932Y15306842D01*
X68235000Y15593740D01*
X68235000Y15886260D01*
X68177932Y16173158D01*
X68065990Y16443411D01*
X67903475Y16686632D01*
X67696632Y16893475D01*
X67522240Y17010000D01*
X67696632Y17126525D01*
X67903475Y17333368D01*
X68065990Y17576589D01*
X68177932Y17846842D01*
X68235000Y18133740D01*
X68235000Y18426260D01*
X68177932Y18713158D01*
X68065990Y18983411D01*
X67903475Y19226632D01*
X67696632Y19433475D01*
X67522240Y19550000D01*
X67696632Y19666525D01*
X67903475Y19873368D01*
X68065990Y20116589D01*
X68177932Y20386842D01*
X68235000Y20673740D01*
X68235000Y20966260D01*
X68177932Y21253158D01*
X68065990Y21523411D01*
X67903475Y21766632D01*
X67696632Y21973475D01*
X67522240Y22090000D01*
X67696632Y22206525D01*
X67903475Y22413368D01*
X68065990Y22656589D01*
X68177932Y22926842D01*
X68235000Y23213740D01*
X68235000Y23506260D01*
X68177932Y23793158D01*
X68065990Y24063411D01*
X67903475Y24306632D01*
X67696632Y24513475D01*
X67514466Y24635195D01*
X67631355Y24704822D01*
X67847588Y24899731D01*
X68021641Y25133080D01*
X68146825Y25395901D01*
X68191476Y25543110D01*
X68070155Y25773000D01*
X66877000Y25773000D01*
X66877000Y25753000D01*
X66623000Y25753000D01*
X66623000Y25773000D01*
X66603000Y25773000D01*
X66603000Y26027000D01*
X66623000Y26027000D01*
X66623000Y26047000D01*
X66877000Y26047000D01*
X66877000Y26027000D01*
X68070155Y26027000D01*
X68191476Y26256890D01*
X68146825Y26404099D01*
X68021641Y26666920D01*
X67847588Y26900269D01*
X67631355Y27095178D01*
X67514466Y27164805D01*
X67696632Y27286525D01*
X67903475Y27493368D01*
X68065990Y27736589D01*
X68177932Y28006842D01*
X68235000Y28293740D01*
X68235000Y28586260D01*
X68177932Y28873158D01*
X68065990Y29143411D01*
X67903475Y29386632D01*
X67696632Y29593475D01*
X67522240Y29710000D01*
X67696632Y29826525D01*
X67903475Y30033368D01*
X68065990Y30276589D01*
X68177932Y30546842D01*
X68235000Y30833740D01*
X68235000Y31126260D01*
X68177932Y31413158D01*
X68065990Y31683411D01*
X67903475Y31926632D01*
X67696632Y32133475D01*
X67522240Y32250000D01*
X67696632Y32366525D01*
X67903475Y32573368D01*
X68065990Y32816589D01*
X68177932Y33086842D01*
X68235000Y33373740D01*
X68235000Y33666260D01*
X68177932Y33953158D01*
X68065990Y34223411D01*
X67903475Y34466632D01*
X67696632Y34673475D01*
X67522240Y34790000D01*
X67696632Y34906525D01*
X67903475Y35113368D01*
X68065990Y35356589D01*
X68177932Y35626842D01*
X68235000Y35913740D01*
X68235000Y36206260D01*
X68177932Y36493158D01*
X68065990Y36763411D01*
X67903475Y37006632D01*
X67696632Y37213475D01*
X67522240Y37330000D01*
X67696632Y37446525D01*
X67903475Y37653368D01*
X68065990Y37896589D01*
X68177932Y38166842D01*
X68235000Y38453740D01*
X68235000Y38746260D01*
X68177932Y39033158D01*
X68065990Y39303411D01*
X67903475Y39546632D01*
X67696632Y39753475D01*
X67522240Y39870000D01*
X67696632Y39986525D01*
X67903475Y40193368D01*
X68065990Y40436589D01*
X68177932Y40706842D01*
X68235000Y40993740D01*
X68235000Y41286260D01*
X68177932Y41573158D01*
X68065990Y41843411D01*
X67903475Y42086632D01*
X67696632Y42293475D01*
X67522240Y42410000D01*
X67696632Y42526525D01*
X67903475Y42733368D01*
X68065990Y42976589D01*
X68177932Y43246842D01*
X68235000Y43533740D01*
X68235000Y43826260D01*
X68177932Y44113158D01*
X68065990Y44383411D01*
X67903475Y44626632D01*
X67696632Y44833475D01*
X67522240Y44950000D01*
X67696632Y45066525D01*
X67903475Y45273368D01*
X68065990Y45516589D01*
X68177932Y45786842D01*
X68235000Y46073740D01*
X68235000Y46366260D01*
X68177932Y46653158D01*
X68065990Y46923411D01*
X67903475Y47166632D01*
X67696632Y47373475D01*
X67522240Y47490000D01*
X67696632Y47606525D01*
X67903475Y47813368D01*
X68065990Y48056589D01*
X68177932Y48326842D01*
X68235000Y48613740D01*
X68235000Y48906260D01*
X68177932Y49193158D01*
X68065990Y49463411D01*
X67903475Y49706632D01*
X67696632Y49913475D01*
X67453411Y50075990D01*
X67183158Y50187932D01*
X66896260Y50245000D01*
X66603740Y50245000D01*
X66316842Y50187932D01*
X66046589Y50075990D01*
X65803368Y49913475D01*
X65671513Y49781620D01*
X65649502Y49854180D01*
X65590537Y49964494D01*
X65511185Y50061185D01*
X65414494Y50140537D01*
X65304180Y50199502D01*
X65184482Y50235812D01*
X65060000Y50248072D01*
X63360000Y50248072D01*
X63235518Y50235812D01*
X63115820Y50199502D01*
X63005506Y50140537D01*
X62908815Y50061185D01*
X62829463Y49964494D01*
X62770498Y49854180D01*
X62734188Y49734482D01*
X62721928Y49610000D01*
X60747399Y49610000D01*
X60946575Y49809176D01*
X61202515Y50192218D01*
X61378810Y50617831D01*
X61468684Y51069660D01*
X61468684Y51530340D01*
X61378810Y51982169D01*
X61202515Y52407782D01*
X60946575Y52790824D01*
X60620824Y53116575D01*
X60237782Y53372515D01*
X59812169Y53548810D01*
X59360340Y53638684D01*
X58899660Y53638684D01*
X58447831Y53548810D01*
X58022218Y53372515D01*
X57639176Y53116575D01*
X57313425Y52790824D01*
X57057485Y52407782D01*
X56881190Y51982169D01*
X56791316Y51530340D01*
X50927000Y51530340D01*
X50927000Y55753000D01*
X68453000Y55753000D01*
X68453000Y799828D01*
X68258701Y739683D01*
X67976291Y710000D01*
X48034874Y710000D01*
X47999999Y713435D01*
X47965124Y710000D01*
X47965123Y710000D01*
X47860816Y699727D01*
X47726980Y659128D01*
X47603637Y593200D01*
X47495525Y504475D01*
X47473292Y477384D01*
X45705909Y-1290000D01*
X45401473Y-1290000D01*
X45694305Y-997168D01*
X45951334Y-612496D01*
X46128379Y-185072D01*
X46218636Y268680D01*
X46218636Y731320D01*
X46128379Y1185072D01*
X45951334Y1612496D01*
X45694305Y1997168D01*
X45367168Y2324305D01*
X44982496Y2581334D01*
X44555072Y2758379D01*
X44101320Y2848636D01*
X43638680Y2848636D01*
X43184928Y2758379D01*
X42757504Y2581334D01*
X42372832Y2324305D01*
X42045695Y1997168D01*
X41788666Y1612496D01*
X41611621Y1185072D01*
X41521364Y731320D01*
X41521364Y268680D01*
X41611621Y-185072D01*
X41788666Y-612496D01*
X42045695Y-997168D01*
X42338527Y-1290000D01*
X13294092Y-1290000D01*
X11526712Y477379D01*
X11504475Y504475D01*
X11396363Y593200D01*
X11273020Y659128D01*
X11139184Y699727D01*
X11034877Y710000D01*
X11034875Y710000D01*
X11000000Y713435D01*
X10965125Y710000D01*
X2034721Y710000D01*
X1750101Y737907D01*
X1509718Y810483D01*
X1397000Y870416D01*
X1397000Y49610000D01*
X1761928Y49610000D01*
X1761928Y47910000D01*
X1774188Y47785518D01*
X1810498Y47665820D01*
X1869463Y47555506D01*
X1948815Y47458815D01*
X2045506Y47379463D01*
X2155820Y47320498D01*
X2228380Y47298487D01*
X2096525Y47166632D01*
X1934010Y46923411D01*
X1822068Y46653158D01*
X1765000Y46366260D01*
X1765000Y46073740D01*
X1822068Y45786842D01*
X1934010Y45516589D01*
X2096525Y45273368D01*
X2303368Y45066525D01*
X2477760Y44950000D01*
X2303368Y44833475D01*
X2096525Y44626632D01*
X1934010Y44383411D01*
X1822068Y44113158D01*
X1765000Y43826260D01*
X1765000Y43533740D01*
X1822068Y43246842D01*
X1934010Y42976589D01*
X2096525Y42733368D01*
X2303368Y42526525D01*
X2477760Y42410000D01*
X2303368Y42293475D01*
X2096525Y42086632D01*
X1934010Y41843411D01*
X1822068Y41573158D01*
X1765000Y41286260D01*
X1765000Y40993740D01*
X1822068Y40706842D01*
X1934010Y40436589D01*
X2096525Y40193368D01*
X2303368Y39986525D01*
X2477760Y39870000D01*
X2303368Y39753475D01*
X2096525Y39546632D01*
X1934010Y39303411D01*
X1822068Y39033158D01*
X1765000Y38746260D01*
X1765000Y38453740D01*
X1822068Y38166842D01*
X1934010Y37896589D01*
X2096525Y37653368D01*
X2303368Y37446525D01*
X2477760Y37330000D01*
X2303368Y37213475D01*
X2096525Y37006632D01*
X1934010Y36763411D01*
X1822068Y36493158D01*
X1765000Y36206260D01*
X1765000Y35913740D01*
X1822068Y35626842D01*
X1934010Y35356589D01*
X2096525Y35113368D01*
X2303368Y34906525D01*
X2477760Y34790000D01*
X2303368Y34673475D01*
X2096525Y34466632D01*
X1934010Y34223411D01*
X1822068Y33953158D01*
X1765000Y33666260D01*
X1765000Y33373740D01*
X1822068Y33086842D01*
X1934010Y32816589D01*
X2096525Y32573368D01*
X2303368Y32366525D01*
X2477760Y32250000D01*
X2303368Y32133475D01*
X2096525Y31926632D01*
X1934010Y31683411D01*
X1822068Y31413158D01*
X1765000Y31126260D01*
X1765000Y30833740D01*
X1822068Y30546842D01*
X1934010Y30276589D01*
X2096525Y30033368D01*
X2303368Y29826525D01*
X2477760Y29710000D01*
X2303368Y29593475D01*
X2096525Y29386632D01*
X1934010Y29143411D01*
X1822068Y28873158D01*
X1765000Y28586260D01*
X1765000Y28293740D01*
X1822068Y28006842D01*
X1934010Y27736589D01*
X2096525Y27493368D01*
X2303368Y27286525D01*
X2485534Y27164805D01*
X2368645Y27095178D01*
X2152412Y26900269D01*
X1978359Y26666920D01*
X1853175Y26404099D01*
X1808524Y26256890D01*
X1929845Y26027000D01*
X3123000Y26027000D01*
X3123000Y26047000D01*
X3377000Y26047000D01*
X3377000Y26027000D01*
X5663000Y26027000D01*
X5663000Y26047000D01*
X5917000Y26047000D01*
X5917000Y26027000D01*
X7110155Y26027000D01*
X7231476Y26256890D01*
X7186825Y26404099D01*
X7061641Y26666920D01*
X6887588Y26900269D01*
X6671355Y27095178D01*
X6554466Y27164805D01*
X6736632Y27286525D01*
X6943475Y27493368D01*
X7105990Y27736589D01*
X7217932Y28006842D01*
X7250607Y28171110D01*
X11133524Y28171110D01*
X11225648Y27908142D01*
X11372504Y27656807D01*
X11565571Y27438951D01*
X11797430Y27262947D01*
X12059170Y27135558D01*
X12340733Y27061680D01*
X12573000Y27201835D01*
X12573000Y28401000D01*
X12827000Y28401000D01*
X12827000Y27201835D01*
X13059267Y27061680D01*
X13340830Y27135558D01*
X13602570Y27262947D01*
X13834429Y27438951D01*
X14027496Y27656807D01*
X14174352Y27908142D01*
X14266476Y28171110D01*
X14145155Y28401000D01*
X12827000Y28401000D01*
X12573000Y28401000D01*
X11254845Y28401000D01*
X11133524Y28171110D01*
X7250607Y28171110D01*
X7275000Y28293740D01*
X7275000Y28586260D01*
X7217932Y28873158D01*
X7146753Y29044999D01*
X11189614Y29044999D01*
X11133524Y28884890D01*
X11254845Y28655000D01*
X12573000Y28655000D01*
X12573000Y28675000D01*
X12827000Y28675000D01*
X12827000Y28655000D01*
X14145155Y28655000D01*
X14266476Y28884890D01*
X14174352Y29147858D01*
X14027496Y29399193D01*
X13834429Y29617049D01*
X13628278Y29773538D01*
X13654014Y29787294D01*
X13880134Y29972866D01*
X14065706Y30198986D01*
X14203599Y30456966D01*
X14288513Y30736889D01*
X14317185Y31028000D01*
X14288513Y31319111D01*
X14203599Y31599034D01*
X14065706Y31857014D01*
X13880134Y32083134D01*
X13654014Y32268706D01*
X13636626Y32278000D01*
X13654014Y32287294D01*
X13880134Y32472866D01*
X14065706Y32698986D01*
X14203599Y32956966D01*
X14288513Y33236889D01*
X14317185Y33528000D01*
X14288513Y33819111D01*
X14203599Y34099034D01*
X14065706Y34357014D01*
X13880134Y34583134D01*
X13654014Y34768706D01*
X13636626Y34778000D01*
X13654014Y34787294D01*
X13880134Y34972866D01*
X14044298Y35172901D01*
X15750000Y33467198D01*
X15750001Y17823848D01*
X15657419Y17795764D01*
X15416812Y17667157D01*
X15205919Y17494081D01*
X15032843Y17283188D01*
X14904236Y17042581D01*
X14825040Y16781507D01*
X14798299Y16510000D01*
X14825040Y16238493D01*
X14904236Y15977419D01*
X15032843Y15736812D01*
X15205919Y15525919D01*
X15416812Y15352843D01*
X15627927Y15240000D01*
X15416812Y15127157D01*
X15205919Y14954081D01*
X15032843Y14743188D01*
X15025794Y14730000D01*
X6880107Y14730000D01*
X6943475Y14793368D01*
X7105990Y15036589D01*
X7217932Y15306842D01*
X7275000Y15593740D01*
X7275000Y15886260D01*
X7217932Y16173158D01*
X7105990Y16443411D01*
X6943475Y16686632D01*
X6736632Y16893475D01*
X6562240Y17010000D01*
X6736632Y17126525D01*
X6943475Y17333368D01*
X7105990Y17576589D01*
X7217932Y17846842D01*
X7275000Y18133740D01*
X7275000Y18426260D01*
X7217932Y18713158D01*
X7105990Y18983411D01*
X6943475Y19226632D01*
X6736632Y19433475D01*
X6562240Y19550000D01*
X6736632Y19666525D01*
X6943475Y19873368D01*
X7105990Y20116589D01*
X7217932Y20386842D01*
X7275000Y20673740D01*
X7275000Y20966260D01*
X7217932Y21253158D01*
X7105990Y21523411D01*
X6943475Y21766632D01*
X6736632Y21973475D01*
X6554466Y22095195D01*
X6671355Y22164822D01*
X6887588Y22359731D01*
X7061641Y22593080D01*
X7186825Y22855901D01*
X7231476Y23003110D01*
X7110155Y23233000D01*
X5917000Y23233000D01*
X5917000Y23213000D01*
X5663000Y23213000D01*
X5663000Y23233000D01*
X5643000Y23233000D01*
X5643000Y23487000D01*
X5663000Y23487000D01*
X5663000Y25773000D01*
X5917000Y25773000D01*
X5917000Y23487000D01*
X7110155Y23487000D01*
X7231476Y23716890D01*
X7186825Y23864099D01*
X7061641Y24126920D01*
X6887588Y24360269D01*
X6671355Y24555178D01*
X6545745Y24630000D01*
X6671355Y24704822D01*
X6887588Y24899731D01*
X7061641Y25133080D01*
X7186825Y25395901D01*
X7231476Y25543110D01*
X7110155Y25773000D01*
X5917000Y25773000D01*
X5663000Y25773000D01*
X3377000Y25773000D01*
X3377000Y25753000D01*
X3123000Y25753000D01*
X3123000Y25773000D01*
X1929845Y25773000D01*
X1808524Y25543110D01*
X1853175Y25395901D01*
X1978359Y25133080D01*
X2152412Y24899731D01*
X2368645Y24704822D01*
X2485534Y24635195D01*
X2303368Y24513475D01*
X2096525Y24306632D01*
X1934010Y24063411D01*
X1822068Y23793158D01*
X1765000Y23506260D01*
X1765000Y23213740D01*
X1822068Y22926842D01*
X1934010Y22656589D01*
X2096525Y22413368D01*
X2303368Y22206525D01*
X2477760Y22090000D01*
X2303368Y21973475D01*
X2096525Y21766632D01*
X1934010Y21523411D01*
X1822068Y21253158D01*
X1765000Y20966260D01*
X1765000Y20673740D01*
X1822068Y20386842D01*
X1934010Y20116589D01*
X2096525Y19873368D01*
X2303368Y19666525D01*
X2477760Y19550000D01*
X2303368Y19433475D01*
X2096525Y19226632D01*
X1934010Y18983411D01*
X1822068Y18713158D01*
X1765000Y18426260D01*
X1765000Y18133740D01*
X1822068Y17846842D01*
X1934010Y17576589D01*
X2096525Y17333368D01*
X2303368Y17126525D01*
X2477760Y17010000D01*
X2303368Y16893475D01*
X2096525Y16686632D01*
X1934010Y16443411D01*
X1822068Y16173158D01*
X1765000Y15886260D01*
X1765000Y15593740D01*
X1822068Y15306842D01*
X1934010Y15036589D01*
X2096525Y14793368D01*
X2303368Y14586525D01*
X2477760Y14470000D01*
X2303368Y14353475D01*
X2096525Y14146632D01*
X1934010Y13903411D01*
X1822068Y13633158D01*
X1765000Y13346260D01*
X1765000Y13053740D01*
X1822068Y12766842D01*
X1934010Y12496589D01*
X2096525Y12253368D01*
X2303368Y12046525D01*
X2477760Y11930000D01*
X2303368Y11813475D01*
X2096525Y11606632D01*
X1934010Y11363411D01*
X1822068Y11093158D01*
X1765000Y10806260D01*
X1765000Y10513740D01*
X1822068Y10226842D01*
X1934010Y9956589D01*
X2096525Y9713368D01*
X2303368Y9506525D01*
X2477760Y9390000D01*
X2303368Y9273475D01*
X2096525Y9066632D01*
X1934010Y8823411D01*
X1822068Y8553158D01*
X1765000Y8266260D01*
X1765000Y7973740D01*
X1822068Y7686842D01*
X1934010Y7416589D01*
X2096525Y7173368D01*
X2303368Y6966525D01*
X2477760Y6850000D01*
X2303368Y6733475D01*
X2096525Y6526632D01*
X1934010Y6283411D01*
X1822068Y6013158D01*
X1765000Y5726260D01*
X1765000Y5433740D01*
X1822068Y5146842D01*
X1934010Y4876589D01*
X2096525Y4633368D01*
X2303368Y4426525D01*
X2477760Y4310000D01*
X2303368Y4193475D01*
X2096525Y3986632D01*
X1934010Y3743411D01*
X1822068Y3473158D01*
X1765000Y3186260D01*
X1765000Y2893740D01*
X1822068Y2606842D01*
X1934010Y2336589D01*
X2096525Y2093368D01*
X2303368Y1886525D01*
X2546589Y1724010D01*
X2816842Y1612068D01*
X3103740Y1555000D01*
X3396260Y1555000D01*
X3683158Y1612068D01*
X3953411Y1724010D01*
X4196632Y1886525D01*
X4403475Y2093368D01*
X4520000Y2267760D01*
X4636525Y2093368D01*
X4843368Y1886525D01*
X5086589Y1724010D01*
X5356842Y1612068D01*
X5643740Y1555000D01*
X5936260Y1555000D01*
X6223158Y1612068D01*
X6493411Y1724010D01*
X6736632Y1886525D01*
X6943475Y2093368D01*
X7105990Y2336589D01*
X7217932Y2606842D01*
X7275000Y2893740D01*
X7275000Y3186260D01*
X7218796Y3468815D01*
X14847682Y3468815D01*
X14866513Y3365764D01*
X14978610Y3116100D01*
X15137260Y2893103D01*
X15336366Y2705342D01*
X15568276Y2560032D01*
X15824079Y2462757D01*
X16093944Y2417256D01*
X16313000Y2578127D01*
X16313000Y3683000D01*
X16567000Y3683000D01*
X16567000Y2578127D01*
X16786056Y2417256D01*
X17055921Y2462757D01*
X17311724Y2560032D01*
X17543634Y2705342D01*
X17742740Y2893103D01*
X17901390Y3116100D01*
X18013487Y3365764D01*
X18032318Y3468815D01*
X35307682Y3468815D01*
X35326513Y3365764D01*
X35438610Y3116100D01*
X35597260Y2893103D01*
X35796366Y2705342D01*
X36028276Y2560032D01*
X36284079Y2462757D01*
X36553944Y2417256D01*
X36773000Y2578127D01*
X36773000Y3683000D01*
X37027000Y3683000D01*
X37027000Y2578127D01*
X37246056Y2417256D01*
X37515921Y2462757D01*
X37771724Y2560032D01*
X38003634Y2705342D01*
X38202740Y2893103D01*
X38361390Y3116100D01*
X38473487Y3365764D01*
X38492318Y3468815D01*
X38369656Y3683000D01*
X37027000Y3683000D01*
X36773000Y3683000D01*
X35430344Y3683000D01*
X35307682Y3468815D01*
X18032318Y3468815D01*
X17909656Y3683000D01*
X16567000Y3683000D01*
X16313000Y3683000D01*
X14970344Y3683000D01*
X14847682Y3468815D01*
X7218796Y3468815D01*
X7217932Y3473158D01*
X7105990Y3743411D01*
X6943475Y3986632D01*
X6736632Y4193475D01*
X6562240Y4310000D01*
X6736632Y4426525D01*
X6943475Y4633368D01*
X7105990Y4876589D01*
X7217932Y5146842D01*
X7275000Y5433740D01*
X7275000Y5726260D01*
X7217932Y6013158D01*
X7105990Y6283411D01*
X6943475Y6526632D01*
X6736632Y6733475D01*
X6562240Y6850000D01*
X6736632Y6966525D01*
X6943475Y7173368D01*
X7105990Y7416589D01*
X7217932Y7686842D01*
X7275000Y7973740D01*
X7275000Y8266260D01*
X7217932Y8553158D01*
X7105990Y8823411D01*
X6943475Y9066632D01*
X6736632Y9273475D01*
X6562240Y9390000D01*
X6736632Y9506525D01*
X6943475Y9713368D01*
X7105990Y9956589D01*
X7217932Y10226842D01*
X7275000Y10513740D01*
X7275000Y10806260D01*
X7217932Y11093158D01*
X7105990Y11363411D01*
X6943475Y11606632D01*
X6736632Y11813475D01*
X6562240Y11930000D01*
X6736632Y12046525D01*
X6943475Y12253368D01*
X7105990Y12496589D01*
X7217932Y12766842D01*
X7275000Y13053740D01*
X7275000Y13210000D01*
X15025794Y13210000D01*
X15032843Y13196812D01*
X15205919Y12985919D01*
X15416812Y12812843D01*
X15627927Y12700000D01*
X15416812Y12587157D01*
X15205919Y12414081D01*
X15032843Y12203188D01*
X14904236Y11962581D01*
X14825040Y11701507D01*
X14798299Y11430000D01*
X14825040Y11158493D01*
X14904236Y10897419D01*
X14958980Y10795000D01*
X14732000Y10795000D01*
X14608118Y10782799D01*
X14488996Y10746664D01*
X14379213Y10687983D01*
X14282987Y10609013D01*
X14204017Y10512787D01*
X14145336Y10403004D01*
X14109201Y10283882D01*
X14097000Y10160000D01*
X14097000Y4826000D01*
X14109201Y4702118D01*
X14145336Y4582996D01*
X14204017Y4473213D01*
X14282987Y4376987D01*
X14379213Y4298017D01*
X14488996Y4239336D01*
X14608118Y4203201D01*
X14732000Y4191000D01*
X14854958Y4191000D01*
X14847682Y4151185D01*
X14970344Y3937000D01*
X16313000Y3937000D01*
X16313000Y3957000D01*
X16567000Y3957000D01*
X16567000Y3937000D01*
X17909656Y3937000D01*
X18032318Y4151185D01*
X18025042Y4191000D01*
X22860000Y4191000D01*
X22983882Y4203201D01*
X23103004Y4239336D01*
X23212787Y4298017D01*
X23309013Y4376987D01*
X23387983Y4473213D01*
X23446664Y4582996D01*
X23482799Y4702118D01*
X23495000Y4826000D01*
X23495000Y6008815D01*
X35307682Y6008815D01*
X35326513Y5905764D01*
X35438610Y5656100D01*
X35597260Y5433103D01*
X35796366Y5245342D01*
X36028276Y5100032D01*
X36080954Y5080000D01*
X36028276Y5059968D01*
X35796366Y4914658D01*
X35597260Y4726897D01*
X35438610Y4503900D01*
X35326513Y4254236D01*
X35307682Y4151185D01*
X35430344Y3937000D01*
X36773000Y3937000D01*
X36773000Y5041873D01*
X36721083Y5080000D01*
X36773000Y5118127D01*
X36773000Y6223000D01*
X37027000Y6223000D01*
X37027000Y5118127D01*
X37078917Y5080000D01*
X37027000Y5041873D01*
X37027000Y3937000D01*
X38369656Y3937000D01*
X38492318Y4151185D01*
X38473487Y4254236D01*
X38361390Y4503900D01*
X38202740Y4726897D01*
X38003634Y4914658D01*
X37771724Y5059968D01*
X37719046Y5080000D01*
X37771724Y5100032D01*
X38003634Y5245342D01*
X38202740Y5433103D01*
X38361390Y5656100D01*
X38473487Y5905764D01*
X38492318Y6008815D01*
X38369656Y6223000D01*
X37027000Y6223000D01*
X36773000Y6223000D01*
X35430344Y6223000D01*
X35307682Y6008815D01*
X23495000Y6008815D01*
X23495000Y15332089D01*
X24465000Y15332089D01*
X24465000Y15147911D01*
X24500932Y14967271D01*
X24571414Y14797111D01*
X24673738Y14643972D01*
X24803972Y14513738D01*
X24957111Y14411414D01*
X25127271Y14340932D01*
X25307911Y14305000D01*
X25492089Y14305000D01*
X25672729Y14340932D01*
X25842889Y14411414D01*
X25945535Y14480000D01*
X35357386Y14480000D01*
X35285040Y14241507D01*
X35258299Y13970000D01*
X35285040Y13698493D01*
X35364236Y13437419D01*
X35492843Y13196812D01*
X35665919Y12985919D01*
X35876812Y12812843D01*
X36087927Y12700000D01*
X35876812Y12587157D01*
X35665919Y12414081D01*
X35492843Y12203188D01*
X35364236Y11962581D01*
X35285040Y11701507D01*
X35258299Y11430000D01*
X35285040Y11158493D01*
X35364236Y10897419D01*
X35492843Y10656812D01*
X35665919Y10445919D01*
X35876812Y10272843D01*
X36087927Y10160000D01*
X35876812Y10047157D01*
X35665919Y9874081D01*
X35492843Y9663188D01*
X35364236Y9422581D01*
X35285040Y9161507D01*
X35258299Y8890000D01*
X35285040Y8618493D01*
X35364236Y8357419D01*
X35492843Y8116812D01*
X35665919Y7905919D01*
X35876812Y7732843D01*
X36085028Y7621549D01*
X36028276Y7599968D01*
X35796366Y7454658D01*
X35597260Y7266897D01*
X35438610Y7043900D01*
X35326513Y6794236D01*
X35307682Y6691185D01*
X35430344Y6477000D01*
X36773000Y6477000D01*
X36773000Y6497000D01*
X37027000Y6497000D01*
X37027000Y6477000D01*
X38369656Y6477000D01*
X38492318Y6691185D01*
X38473487Y6794236D01*
X38361390Y7043900D01*
X38202740Y7266897D01*
X38003634Y7454658D01*
X37903963Y7517110D01*
X56828524Y7517110D01*
X56830446Y7504739D01*
X56930146Y7230991D01*
X57081336Y6981954D01*
X57278205Y6767198D01*
X57513188Y6594975D01*
X57777255Y6471904D01*
X58060258Y6402715D01*
X58293000Y6546768D01*
X58293000Y7747000D01*
X58547000Y7747000D01*
X58547000Y6546768D01*
X58779742Y6402715D01*
X59062745Y6471904D01*
X59326812Y6594975D01*
X59561795Y6767198D01*
X59758664Y6981954D01*
X59909854Y7230991D01*
X60009554Y7504739D01*
X60011476Y7517110D01*
X59890155Y7747000D01*
X58547000Y7747000D01*
X58293000Y7747000D01*
X56949845Y7747000D01*
X56828524Y7517110D01*
X37903963Y7517110D01*
X37771724Y7599968D01*
X37714972Y7621549D01*
X37923188Y7732843D01*
X38134081Y7905919D01*
X38307157Y8116812D01*
X38435764Y8357419D01*
X38514960Y8618493D01*
X38541701Y8890000D01*
X38514960Y9161507D01*
X38435764Y9422581D01*
X38307157Y9663188D01*
X38134081Y9874081D01*
X37923188Y10047157D01*
X37712073Y10160000D01*
X37923188Y10272843D01*
X38134081Y10445919D01*
X38307157Y10656812D01*
X38435764Y10897419D01*
X38514960Y11158493D01*
X38541701Y11430000D01*
X38514960Y11701507D01*
X38435764Y11962581D01*
X38307157Y12203188D01*
X38134081Y12414081D01*
X37923188Y12587157D01*
X37712073Y12700000D01*
X37923188Y12812843D01*
X38134081Y12985919D01*
X38307157Y13196812D01*
X38435764Y13437419D01*
X38514960Y13698493D01*
X38541701Y13970000D01*
X38514960Y14241507D01*
X38435764Y14502581D01*
X38307157Y14743188D01*
X38134081Y14954081D01*
X37923188Y15127157D01*
X37712073Y15240000D01*
X37923188Y15352843D01*
X38134081Y15525919D01*
X38307157Y15736812D01*
X38435764Y15977419D01*
X38514960Y16238493D01*
X38541701Y16510000D01*
X38514960Y16781507D01*
X38435764Y17042581D01*
X38307157Y17283188D01*
X38134081Y17494081D01*
X37923188Y17667157D01*
X37682581Y17795764D01*
X37421507Y17874960D01*
X37218037Y17895000D01*
X36581963Y17895000D01*
X36378493Y17874960D01*
X36117419Y17795764D01*
X35876812Y17667157D01*
X35665919Y17494081D01*
X35492843Y17283188D01*
X35364236Y17042581D01*
X35285040Y16781507D01*
X35258299Y16510000D01*
X35285040Y16238493D01*
X35331275Y16086076D01*
X35245199Y16000000D01*
X25945535Y16000000D01*
X25842889Y16068586D01*
X25672729Y16139068D01*
X25492089Y16175000D01*
X25307911Y16175000D01*
X25127271Y16139068D01*
X24957111Y16068586D01*
X24803972Y15966262D01*
X24673738Y15836028D01*
X24571414Y15682889D01*
X24500932Y15512729D01*
X24465000Y15332089D01*
X23495000Y15332089D01*
X23495000Y21717000D01*
X39497000Y21717000D01*
X39497000Y12446000D01*
X39509201Y12322118D01*
X39545336Y12202996D01*
X39604017Y12093213D01*
X39682987Y11996987D01*
X39779213Y11918017D01*
X39888996Y11859336D01*
X40008118Y11823201D01*
X40132000Y11811000D01*
X48514000Y11811000D01*
X48637882Y11823201D01*
X48757004Y11859336D01*
X48866787Y11918017D01*
X48963013Y11996987D01*
X49041983Y12093213D01*
X49100664Y12202996D01*
X49136799Y12322118D01*
X49149000Y12446000D01*
X49149000Y22698089D01*
X52659000Y22698089D01*
X52659000Y22513911D01*
X52694932Y22333271D01*
X52765414Y22163111D01*
X52834000Y22060465D01*
X52834000Y22008322D01*
X52830324Y21971000D01*
X52834000Y21933678D01*
X52834000Y21933667D01*
X52844997Y21822014D01*
X52888454Y21678753D01*
X52913037Y21632764D01*
X52959026Y21546724D01*
X52978159Y21523411D01*
X53054000Y21430999D01*
X53082998Y21407201D01*
X54385347Y20104851D01*
X54409432Y19983771D01*
X54479914Y19813611D01*
X54582238Y19660472D01*
X54712472Y19530238D01*
X54865611Y19427914D01*
X55035771Y19357432D01*
X55216411Y19321500D01*
X55400589Y19321500D01*
X55581229Y19357432D01*
X55751389Y19427914D01*
X55904528Y19530238D01*
X56034762Y19660472D01*
X56137086Y19813611D01*
X56207568Y19983771D01*
X56243500Y20164411D01*
X56243500Y20348589D01*
X56207568Y20529229D01*
X56137086Y20699389D01*
X56034762Y20852528D01*
X55904528Y20982762D01*
X55751389Y21085086D01*
X55581229Y21155568D01*
X55460149Y21179653D01*
X54438433Y22201369D01*
X54493068Y22333271D01*
X54529000Y22513911D01*
X54529000Y22698089D01*
X54493068Y22878729D01*
X54422586Y23048889D01*
X54320262Y23202028D01*
X54190028Y23332262D01*
X54036889Y23434586D01*
X53866729Y23505068D01*
X53686089Y23541000D01*
X53501911Y23541000D01*
X53321271Y23505068D01*
X53151111Y23434586D01*
X52997972Y23332262D01*
X52867738Y23202028D01*
X52765414Y23048889D01*
X52694932Y22878729D01*
X52659000Y22698089D01*
X49149000Y22698089D01*
X49149000Y25400000D01*
X49136799Y25523882D01*
X49100664Y25643004D01*
X49041983Y25752787D01*
X48963013Y25849013D01*
X48866787Y25927983D01*
X48757004Y25986664D01*
X48637882Y26022799D01*
X48514000Y26035000D01*
X19812000Y26035000D01*
X19688118Y26022799D01*
X19568996Y25986664D01*
X19459213Y25927983D01*
X19362987Y25849013D01*
X19284017Y25752787D01*
X19225336Y25643004D01*
X19189201Y25523882D01*
X19177000Y25400000D01*
X19177000Y10795000D01*
X17921020Y10795000D01*
X17975764Y10897419D01*
X18054960Y11158493D01*
X18081701Y11430000D01*
X18054960Y11701507D01*
X17975764Y11962581D01*
X17847157Y12203188D01*
X17674081Y12414081D01*
X17463188Y12587157D01*
X17252073Y12700000D01*
X17463188Y12812843D01*
X17674081Y12985919D01*
X17847157Y13196812D01*
X17975764Y13437419D01*
X18054960Y13698493D01*
X18081701Y13970000D01*
X18054960Y14241507D01*
X17975764Y14502581D01*
X17847157Y14743188D01*
X17674081Y14954081D01*
X17463188Y15127157D01*
X17252073Y15240000D01*
X17463188Y15352843D01*
X17674081Y15525919D01*
X17847157Y15736812D01*
X17975764Y15977419D01*
X18054960Y16238493D01*
X18081701Y16510000D01*
X18054960Y16781507D01*
X17975764Y17042581D01*
X17847157Y17283188D01*
X17674081Y17494081D01*
X17463188Y17667157D01*
X17270000Y17770418D01*
X17270000Y33744675D01*
X17273676Y33782000D01*
X17270000Y33819325D01*
X17270000Y33819333D01*
X17259003Y33930986D01*
X17215546Y34074247D01*
X17144974Y34206276D01*
X17050001Y34322001D01*
X17021004Y34345798D01*
X16166069Y35200733D01*
X22783680Y35200733D01*
X22857558Y34919170D01*
X22984947Y34657430D01*
X23160951Y34425571D01*
X23378807Y34232504D01*
X23630142Y34085648D01*
X23893110Y33993524D01*
X24123000Y34114845D01*
X24123000Y35433000D01*
X22923835Y35433000D01*
X22783680Y35200733D01*
X16166069Y35200733D01*
X15447535Y35919267D01*
X22783680Y35919267D01*
X22923835Y35687000D01*
X24123000Y35687000D01*
X24123000Y37005155D01*
X24377000Y37005155D01*
X24377000Y35687000D01*
X24397000Y35687000D01*
X24397000Y35433000D01*
X24377000Y35433000D01*
X24377000Y34114845D01*
X24606890Y33993524D01*
X24869858Y34085648D01*
X25121193Y34232504D01*
X25339049Y34425571D01*
X25495538Y34631722D01*
X25509294Y34605987D01*
X25694866Y34379866D01*
X25920986Y34194294D01*
X26178966Y34056401D01*
X26458889Y33971487D01*
X26750000Y33942815D01*
X27041110Y33971487D01*
X27321033Y34056401D01*
X27579013Y34194294D01*
X27805134Y34379866D01*
X27990706Y34605986D01*
X28000000Y34623374D01*
X28009294Y34605987D01*
X28194866Y34379866D01*
X28420986Y34194294D01*
X28678966Y34056401D01*
X28958889Y33971487D01*
X29250000Y33942815D01*
X29541110Y33971487D01*
X29821033Y34056401D01*
X30079013Y34194294D01*
X30305134Y34379866D01*
X30357223Y34443337D01*
X30411595Y34341614D01*
X30522038Y34207038D01*
X30656614Y34096595D01*
X30810150Y34014528D01*
X30976746Y33963992D01*
X31150000Y33946928D01*
X32350000Y33946928D01*
X32523254Y33963992D01*
X32689850Y34014528D01*
X32843386Y34096595D01*
X32977962Y34207038D01*
X33088405Y34341614D01*
X33170472Y34495150D01*
X33221008Y34661746D01*
X33238072Y34835000D01*
X33238072Y35200733D01*
X36753680Y35200733D01*
X36827558Y34919170D01*
X36954947Y34657430D01*
X37130951Y34425571D01*
X37348807Y34232504D01*
X37600142Y34085648D01*
X37863110Y33993524D01*
X38093000Y34114845D01*
X38093000Y35433000D01*
X36893835Y35433000D01*
X36753680Y35200733D01*
X33238072Y35200733D01*
X33238072Y35919267D01*
X36753680Y35919267D01*
X36893835Y35687000D01*
X38093000Y35687000D01*
X38093000Y37005155D01*
X38347000Y37005155D01*
X38347000Y35687000D01*
X38367000Y35687000D01*
X38367000Y35433000D01*
X38347000Y35433000D01*
X38347000Y34114845D01*
X38576890Y33993524D01*
X38839858Y34085648D01*
X39091193Y34232504D01*
X39309049Y34425571D01*
X39465538Y34631722D01*
X39479294Y34605987D01*
X39664866Y34379866D01*
X39890986Y34194294D01*
X40148966Y34056401D01*
X40428889Y33971487D01*
X40720000Y33942815D01*
X41011110Y33971487D01*
X41291033Y34056401D01*
X41549013Y34194294D01*
X41775134Y34379866D01*
X41960706Y34605986D01*
X41970000Y34623374D01*
X41979294Y34605987D01*
X42164866Y34379866D01*
X42390986Y34194294D01*
X42648966Y34056401D01*
X42928889Y33971487D01*
X43220000Y33942815D01*
X43511110Y33971487D01*
X43791033Y34056401D01*
X44049013Y34194294D01*
X44275134Y34379866D01*
X44327223Y34443337D01*
X44381595Y34341614D01*
X44492038Y34207038D01*
X44626614Y34096595D01*
X44780150Y34014528D01*
X44946746Y33963992D01*
X45120000Y33946928D01*
X46320000Y33946928D01*
X46493254Y33963992D01*
X46659850Y34014528D01*
X46813386Y34096595D01*
X46947962Y34207038D01*
X47058405Y34341614D01*
X47140472Y34495150D01*
X47191008Y34661746D01*
X47208072Y34835000D01*
X47208072Y36285000D01*
X47191008Y36458254D01*
X47140472Y36624850D01*
X47058405Y36778386D01*
X46947962Y36912962D01*
X46813386Y37023405D01*
X46659850Y37105472D01*
X46493254Y37156008D01*
X46320000Y37173072D01*
X45120000Y37173072D01*
X44946746Y37156008D01*
X44780150Y37105472D01*
X44626614Y37023405D01*
X44492038Y36912962D01*
X44381595Y36778386D01*
X44327223Y36676663D01*
X44275134Y36740134D01*
X44049014Y36925706D01*
X43791034Y37063599D01*
X43511111Y37148513D01*
X43220000Y37177185D01*
X42928890Y37148513D01*
X42648967Y37063599D01*
X42390987Y36925706D01*
X42164866Y36740134D01*
X41979294Y36514014D01*
X41970000Y36496626D01*
X41960706Y36514014D01*
X41775134Y36740134D01*
X41549014Y36925706D01*
X41291034Y37063599D01*
X41011111Y37148513D01*
X40720000Y37177185D01*
X40428890Y37148513D01*
X40148967Y37063599D01*
X39890987Y36925706D01*
X39664866Y36740134D01*
X39479294Y36514014D01*
X39465538Y36488278D01*
X39309049Y36694429D01*
X39091193Y36887496D01*
X38839858Y37034352D01*
X38576890Y37126476D01*
X38347000Y37005155D01*
X38093000Y37005155D01*
X37863110Y37126476D01*
X37600142Y37034352D01*
X37348807Y36887496D01*
X37130951Y36694429D01*
X36954947Y36462570D01*
X36827558Y36200830D01*
X36753680Y35919267D01*
X33238072Y35919267D01*
X33238072Y36285000D01*
X33221008Y36458254D01*
X33170472Y36624850D01*
X33088405Y36778386D01*
X32977962Y36912962D01*
X32843386Y37023405D01*
X32689850Y37105472D01*
X32523254Y37156008D01*
X32350000Y37173072D01*
X31150000Y37173072D01*
X30976746Y37156008D01*
X30810150Y37105472D01*
X30656614Y37023405D01*
X30522038Y36912962D01*
X30411595Y36778386D01*
X30357223Y36676663D01*
X30305134Y36740134D01*
X30079014Y36925706D01*
X29821034Y37063599D01*
X29541111Y37148513D01*
X29250000Y37177185D01*
X28958890Y37148513D01*
X28678967Y37063599D01*
X28420987Y36925706D01*
X28194866Y36740134D01*
X28009294Y36514014D01*
X28000000Y36496626D01*
X27990706Y36514014D01*
X27805134Y36740134D01*
X27579014Y36925706D01*
X27321034Y37063599D01*
X27041111Y37148513D01*
X26750000Y37177185D01*
X26458890Y37148513D01*
X26178967Y37063599D01*
X25920987Y36925706D01*
X25694866Y36740134D01*
X25509294Y36514014D01*
X25495538Y36488278D01*
X25339049Y36694429D01*
X25121193Y36887496D01*
X24869858Y37034352D01*
X24606890Y37126476D01*
X24377000Y37005155D01*
X24123000Y37005155D01*
X23893110Y37126476D01*
X23630142Y37034352D01*
X23378807Y36887496D01*
X23160951Y36694429D01*
X22984947Y36462570D01*
X22857558Y36200830D01*
X22783680Y35919267D01*
X15447535Y35919267D01*
X14827804Y36538997D01*
X14804001Y36568001D01*
X14688276Y36662974D01*
X14556247Y36733546D01*
X14412986Y36777003D01*
X14301333Y36788000D01*
X14301322Y36788000D01*
X14264000Y36791676D01*
X14226678Y36788000D01*
X14102595Y36788000D01*
X14065706Y36857014D01*
X13880134Y37083134D01*
X13816663Y37135223D01*
X13918386Y37189595D01*
X14052962Y37300038D01*
X14163405Y37434614D01*
X14245472Y37588150D01*
X14296008Y37754746D01*
X14313072Y37928000D01*
X14313072Y39128000D01*
X14296008Y39301254D01*
X14245472Y39467850D01*
X14163405Y39621386D01*
X14052962Y39755962D01*
X13918386Y39866405D01*
X13764850Y39948472D01*
X13598254Y39999008D01*
X13425000Y40016072D01*
X11975000Y40016072D01*
X11935000Y40012132D01*
X11935000Y40249637D01*
X11887540Y40488236D01*
X11794443Y40712992D01*
X11659287Y40915267D01*
X11487267Y41087287D01*
X11284992Y41222443D01*
X11060236Y41315540D01*
X10821637Y41363000D01*
X10578363Y41363000D01*
X10339764Y41315540D01*
X10115008Y41222443D01*
X9912733Y41087287D01*
X9740713Y40915267D01*
X9605557Y40712992D01*
X9512460Y40488236D01*
X9465000Y40249637D01*
X9465000Y40006363D01*
X9512460Y39767764D01*
X9605557Y39543008D01*
X9740713Y39340733D01*
X9912733Y39168713D01*
X10115008Y39033557D01*
X10339764Y38940460D01*
X10578363Y38893000D01*
X10821637Y38893000D01*
X11060236Y38940460D01*
X11086928Y38951516D01*
X11086928Y37928000D01*
X11103992Y37754746D01*
X11154528Y37588150D01*
X11236595Y37434614D01*
X11347038Y37300038D01*
X11481614Y37189595D01*
X11583337Y37135223D01*
X11519866Y37083134D01*
X11334294Y36857014D01*
X11196401Y36599034D01*
X11111487Y36319111D01*
X11082815Y36028000D01*
X11111487Y35736889D01*
X11196401Y35456966D01*
X11334294Y35198986D01*
X11519866Y34972866D01*
X11745986Y34787294D01*
X11763374Y34778000D01*
X11745986Y34768706D01*
X11519866Y34583134D01*
X11334294Y34357014D01*
X11196401Y34099034D01*
X11111487Y33819111D01*
X11082815Y33528000D01*
X11111487Y33236889D01*
X11196401Y32956966D01*
X11334294Y32698986D01*
X11519866Y32472866D01*
X11745986Y32287294D01*
X11763374Y32278000D01*
X11745986Y32268706D01*
X11519866Y32083134D01*
X11334294Y31857014D01*
X11196401Y31599034D01*
X11111487Y31319111D01*
X11082815Y31028000D01*
X11111487Y30736889D01*
X11163629Y30564999D01*
X7221544Y30564999D01*
X7275000Y30833740D01*
X7275000Y31126260D01*
X7217932Y31413158D01*
X7105990Y31683411D01*
X6943475Y31926632D01*
X6736632Y32133475D01*
X6562240Y32250000D01*
X6736632Y32366525D01*
X6943475Y32573368D01*
X7105990Y32816589D01*
X7217932Y33086842D01*
X7275000Y33373740D01*
X7275000Y33666260D01*
X7217932Y33953158D01*
X7105990Y34223411D01*
X6943475Y34466632D01*
X6736632Y34673475D01*
X6562240Y34790000D01*
X6736632Y34906525D01*
X6943475Y35113368D01*
X7105990Y35356589D01*
X7217932Y35626842D01*
X7275000Y35913740D01*
X7275000Y36206260D01*
X7217932Y36493158D01*
X7105990Y36763411D01*
X6943475Y37006632D01*
X6736632Y37213475D01*
X6562240Y37330000D01*
X6736632Y37446525D01*
X6943475Y37653368D01*
X7105990Y37896589D01*
X7217932Y38166842D01*
X7275000Y38453740D01*
X7275000Y38746260D01*
X7217932Y39033158D01*
X7105990Y39303411D01*
X6943475Y39546632D01*
X6736632Y39753475D01*
X6554466Y39875195D01*
X6671355Y39944822D01*
X6887588Y40139731D01*
X7061641Y40373080D01*
X7186825Y40635901D01*
X7231476Y40783110D01*
X7110155Y41013000D01*
X5917000Y41013000D01*
X5917000Y40993000D01*
X5663000Y40993000D01*
X5663000Y41013000D01*
X5643000Y41013000D01*
X5643000Y41267000D01*
X5663000Y41267000D01*
X5663000Y41287000D01*
X5917000Y41287000D01*
X5917000Y41267000D01*
X7110155Y41267000D01*
X7231476Y41496890D01*
X7186825Y41644099D01*
X7120665Y41783000D01*
X56515000Y41783000D01*
X56515000Y13209000D01*
X56298363Y13209000D01*
X56059764Y13161540D01*
X55835008Y13068443D01*
X55632733Y12933287D01*
X55460713Y12761267D01*
X55325557Y12558992D01*
X55232460Y12334236D01*
X55185000Y12095637D01*
X55185000Y11852363D01*
X55232460Y11613764D01*
X55325557Y11389008D01*
X55460713Y11186733D01*
X55632733Y11014713D01*
X55835008Y10879557D01*
X56059764Y10786460D01*
X56298363Y10739000D01*
X56515000Y10739000D01*
X56515000Y8890000D01*
X56527201Y8766118D01*
X56563336Y8646996D01*
X56622017Y8537213D01*
X56700987Y8440987D01*
X56797213Y8362017D01*
X56861234Y8327797D01*
X56830446Y8243261D01*
X56828524Y8230890D01*
X56949845Y8001000D01*
X58293000Y8001000D01*
X58293000Y8021000D01*
X58547000Y8021000D01*
X58547000Y8001000D01*
X59890155Y8001000D01*
X60011476Y8230890D01*
X60009554Y8243261D01*
X60005279Y8255000D01*
X60198000Y8255000D01*
X60321882Y8267201D01*
X60441004Y8303336D01*
X60550787Y8362017D01*
X60647013Y8440987D01*
X60725983Y8537213D01*
X60784664Y8646996D01*
X60820799Y8766118D01*
X60833000Y8890000D01*
X60833000Y45212000D01*
X60820799Y45335882D01*
X60784664Y45455004D01*
X60725983Y45564787D01*
X60647013Y45661013D01*
X60550787Y45739983D01*
X60441004Y45798664D01*
X60321882Y45834799D01*
X60198000Y45847000D01*
X57150000Y45847000D01*
X57026118Y45834799D01*
X56906996Y45798664D01*
X56797213Y45739983D01*
X56700987Y45661013D01*
X56644934Y45592711D01*
X56642000Y45593000D01*
X7137640Y45593000D01*
X7217932Y45786842D01*
X7275000Y46073740D01*
X7275000Y46366260D01*
X7217932Y46653158D01*
X7105990Y46923411D01*
X6943475Y47166632D01*
X6736632Y47373475D01*
X6562240Y47490000D01*
X6736632Y47606525D01*
X6943475Y47813368D01*
X7105990Y48056589D01*
X7217932Y48326842D01*
X7275000Y48613740D01*
X7275000Y48906260D01*
X7217932Y49193158D01*
X7105990Y49463411D01*
X6943475Y49706632D01*
X6736632Y49913475D01*
X6493411Y50075990D01*
X6223158Y50187932D01*
X5936260Y50245000D01*
X5643740Y50245000D01*
X5356842Y50187932D01*
X5086589Y50075990D01*
X4843368Y49913475D01*
X4711513Y49781620D01*
X4689502Y49854180D01*
X4630537Y49964494D01*
X4551185Y50061185D01*
X4454494Y50140537D01*
X4344180Y50199502D01*
X4224482Y50235812D01*
X4100000Y50248072D01*
X2400000Y50248072D01*
X2275518Y50235812D01*
X2155820Y50199502D01*
X2045506Y50140537D01*
X1948815Y50061185D01*
X1869463Y49964494D01*
X1810498Y49854180D01*
X1774188Y49734482D01*
X1761928Y49610000D01*
X1397000Y49610000D01*
X1397000Y52810340D01*
X8531316Y52810340D01*
X8531316Y52349660D01*
X8621190Y51897831D01*
X8797485Y51472218D01*
X9053425Y51089176D01*
X9379176Y50763425D01*
X9762218Y50507485D01*
X10187831Y50331190D01*
X10639660Y50241316D01*
X11100340Y50241316D01*
X11552169Y50331190D01*
X11977782Y50507485D01*
X12360824Y50763425D01*
X12686575Y51089176D01*
X12942515Y51472218D01*
X13118810Y51897831D01*
X13208684Y52349660D01*
X13208684Y52810340D01*
X13118810Y53262169D01*
X12942515Y53687782D01*
X12686575Y54070824D01*
X12360824Y54396575D01*
X11977782Y54652515D01*
X11552169Y54828810D01*
X11100340Y54918684D01*
X10639660Y54918684D01*
X10187831Y54828810D01*
X9762218Y54652515D01*
X9379176Y54396575D01*
X9053425Y54070824D01*
X8797485Y53687782D01*
X8621190Y53262169D01*
X8531316Y52810340D01*
X1397000Y52810340D01*
X1397000Y55753000D01*
X18923000Y55753000D01*
X18923000Y48260000D01*
G04 #@! TA.AperFunction,Conductor*
D19*
G36*
X18923000Y48260000D02*
G01*
X18925440Y48235224D01*
X18932667Y48211399D01*
X18944403Y48189443D01*
X18960197Y48170197D01*
X18979443Y48154403D01*
X19001399Y48142667D01*
X19025224Y48135440D01*
X19050000Y48133000D01*
X50800000Y48133000D01*
X50824776Y48135440D01*
X50848601Y48142667D01*
X50870557Y48154403D01*
X50889803Y48170197D01*
X50905597Y48189443D01*
X50917333Y48211399D01*
X50924560Y48235224D01*
X50927000Y48260000D01*
X50927000Y51530340D01*
X56791316Y51530340D01*
X56791316Y51069660D01*
X56881190Y50617831D01*
X57057485Y50192218D01*
X57313425Y49809176D01*
X57639176Y49483425D01*
X58022218Y49227485D01*
X58447831Y49051190D01*
X58899660Y48961316D01*
X59360340Y48961316D01*
X59812169Y49051190D01*
X60237782Y49227485D01*
X60620824Y49483425D01*
X60747399Y49610000D01*
X62721928Y49610000D01*
X62721928Y47910000D01*
X62734188Y47785518D01*
X62770498Y47665820D01*
X62829463Y47555506D01*
X62908815Y47458815D01*
X63005506Y47379463D01*
X63115820Y47320498D01*
X63188380Y47298487D01*
X63056525Y47166632D01*
X62894010Y46923411D01*
X62782068Y46653158D01*
X62725000Y46366260D01*
X62725000Y46073740D01*
X62782068Y45786842D01*
X62894010Y45516589D01*
X63056525Y45273368D01*
X63263368Y45066525D01*
X63437760Y44950000D01*
X63263368Y44833475D01*
X63056525Y44626632D01*
X62894010Y44383411D01*
X62782068Y44113158D01*
X62725000Y43826260D01*
X62725000Y43533740D01*
X62782068Y43246842D01*
X62894010Y42976589D01*
X63056525Y42733368D01*
X63263368Y42526525D01*
X63437760Y42410000D01*
X63263368Y42293475D01*
X63056525Y42086632D01*
X62894010Y41843411D01*
X62782068Y41573158D01*
X62725000Y41286260D01*
X62725000Y40993740D01*
X62782068Y40706842D01*
X62894010Y40436589D01*
X63056525Y40193368D01*
X63263368Y39986525D01*
X63445534Y39864805D01*
X63328645Y39795178D01*
X63112412Y39600269D01*
X62938359Y39366920D01*
X62813175Y39104099D01*
X62768524Y38956890D01*
X62889845Y38727000D01*
X64083000Y38727000D01*
X64083000Y38747000D01*
X64337000Y38747000D01*
X64337000Y38727000D01*
X64357000Y38727000D01*
X64357000Y38473000D01*
X64337000Y38473000D01*
X64337000Y38453000D01*
X64083000Y38453000D01*
X64083000Y38473000D01*
X62889845Y38473000D01*
X62768524Y38243110D01*
X62813175Y38095901D01*
X62938359Y37833080D01*
X63112412Y37599731D01*
X63328645Y37404822D01*
X63445534Y37335195D01*
X63263368Y37213475D01*
X63056525Y37006632D01*
X62894010Y36763411D01*
X62782068Y36493158D01*
X62725000Y36206260D01*
X62725000Y35913740D01*
X62782068Y35626842D01*
X62894010Y35356589D01*
X63056525Y35113368D01*
X63263368Y34906525D01*
X63437760Y34790000D01*
X63263368Y34673475D01*
X63056525Y34466632D01*
X62894010Y34223411D01*
X62782068Y33953158D01*
X62725000Y33666260D01*
X62725000Y33373740D01*
X62782068Y33086842D01*
X62894010Y32816589D01*
X63056525Y32573368D01*
X63263368Y32366525D01*
X63437760Y32250000D01*
X63263368Y32133475D01*
X63056525Y31926632D01*
X62894010Y31683411D01*
X62782068Y31413158D01*
X62725000Y31126260D01*
X62725000Y30833740D01*
X62782068Y30546842D01*
X62894010Y30276589D01*
X63056525Y30033368D01*
X63263368Y29826525D01*
X63437760Y29710000D01*
X63263368Y29593475D01*
X63056525Y29386632D01*
X62894010Y29143411D01*
X62782068Y28873158D01*
X62725000Y28586260D01*
X62725000Y28293740D01*
X62782068Y28006842D01*
X62894010Y27736589D01*
X63056525Y27493368D01*
X63263368Y27286525D01*
X63437760Y27170000D01*
X63263368Y27053475D01*
X63056525Y26846632D01*
X62894010Y26603411D01*
X62782068Y26333158D01*
X62725000Y26046260D01*
X62725000Y25753740D01*
X62782068Y25466842D01*
X62894010Y25196589D01*
X63056525Y24953368D01*
X63263368Y24746525D01*
X63437760Y24630000D01*
X63263368Y24513475D01*
X63056525Y24306632D01*
X62894010Y24063411D01*
X62782068Y23793158D01*
X62725000Y23506260D01*
X62725000Y23213740D01*
X62782068Y22926842D01*
X62894010Y22656589D01*
X63056525Y22413368D01*
X63263368Y22206525D01*
X63437760Y22090000D01*
X63263368Y21973475D01*
X63056525Y21766632D01*
X62894010Y21523411D01*
X62782068Y21253158D01*
X62725000Y20966260D01*
X62725000Y20673740D01*
X62782068Y20386842D01*
X62894010Y20116589D01*
X63056525Y19873368D01*
X63263368Y19666525D01*
X63437760Y19550000D01*
X63263368Y19433475D01*
X63056525Y19226632D01*
X62894010Y18983411D01*
X62782068Y18713158D01*
X62725000Y18426260D01*
X62725000Y18133740D01*
X62782068Y17846842D01*
X62894010Y17576589D01*
X63056525Y17333368D01*
X63263368Y17126525D01*
X63437760Y17010000D01*
X63263368Y16893475D01*
X63056525Y16686632D01*
X62894010Y16443411D01*
X62782068Y16173158D01*
X62725000Y15886260D01*
X62725000Y15593740D01*
X62782068Y15306842D01*
X62894010Y15036589D01*
X63056525Y14793368D01*
X63263368Y14586525D01*
X63437760Y14470000D01*
X63263368Y14353475D01*
X63056525Y14146632D01*
X62894010Y13903411D01*
X62782068Y13633158D01*
X62725000Y13346260D01*
X62725000Y13053740D01*
X62782068Y12766842D01*
X62894010Y12496589D01*
X63056525Y12253368D01*
X63263368Y12046525D01*
X63437760Y11930000D01*
X63263368Y11813475D01*
X63056525Y11606632D01*
X62894010Y11363411D01*
X62782068Y11093158D01*
X62725000Y10806260D01*
X62725000Y10513740D01*
X62782068Y10226842D01*
X62894010Y9956589D01*
X63056525Y9713368D01*
X63263368Y9506525D01*
X63437760Y9390000D01*
X63263368Y9273475D01*
X63056525Y9066632D01*
X62894010Y8823411D01*
X62782068Y8553158D01*
X62725000Y8266260D01*
X62725000Y7973740D01*
X62782068Y7686842D01*
X62894010Y7416589D01*
X63056525Y7173368D01*
X63263368Y6966525D01*
X63437760Y6850000D01*
X63263368Y6733475D01*
X63056525Y6526632D01*
X62894010Y6283411D01*
X62782068Y6013158D01*
X62725000Y5726260D01*
X62725000Y5433740D01*
X62782068Y5146842D01*
X62894010Y4876589D01*
X63056525Y4633368D01*
X63263368Y4426525D01*
X63437760Y4310000D01*
X63263368Y4193475D01*
X63056525Y3986632D01*
X62894010Y3743411D01*
X62782068Y3473158D01*
X62725000Y3186260D01*
X62725000Y2893740D01*
X62782068Y2606842D01*
X62894010Y2336589D01*
X63056525Y2093368D01*
X63263368Y1886525D01*
X63506589Y1724010D01*
X63776842Y1612068D01*
X64063740Y1555000D01*
X64356260Y1555000D01*
X64643158Y1612068D01*
X64913411Y1724010D01*
X65156632Y1886525D01*
X65363475Y2093368D01*
X65480000Y2267760D01*
X65596525Y2093368D01*
X65803368Y1886525D01*
X66046589Y1724010D01*
X66316842Y1612068D01*
X66603740Y1555000D01*
X66896260Y1555000D01*
X67183158Y1612068D01*
X67453411Y1724010D01*
X67696632Y1886525D01*
X67903475Y2093368D01*
X68065990Y2336589D01*
X68177932Y2606842D01*
X68235000Y2893740D01*
X68235000Y3186260D01*
X68177932Y3473158D01*
X68065990Y3743411D01*
X67903475Y3986632D01*
X67696632Y4193475D01*
X67522240Y4310000D01*
X67696632Y4426525D01*
X67903475Y4633368D01*
X68065990Y4876589D01*
X68177932Y5146842D01*
X68235000Y5433740D01*
X68235000Y5726260D01*
X68177932Y6013158D01*
X68065990Y6283411D01*
X67903475Y6526632D01*
X67696632Y6733475D01*
X67522240Y6850000D01*
X67696632Y6966525D01*
X67903475Y7173368D01*
X68065990Y7416589D01*
X68177932Y7686842D01*
X68235000Y7973740D01*
X68235000Y8266260D01*
X68177932Y8553158D01*
X68065990Y8823411D01*
X67903475Y9066632D01*
X67696632Y9273475D01*
X67522240Y9390000D01*
X67696632Y9506525D01*
X67903475Y9713368D01*
X68065990Y9956589D01*
X68177932Y10226842D01*
X68235000Y10513740D01*
X68235000Y10806260D01*
X68177932Y11093158D01*
X68065990Y11363411D01*
X67903475Y11606632D01*
X67696632Y11813475D01*
X67522240Y11930000D01*
X67696632Y12046525D01*
X67903475Y12253368D01*
X68065990Y12496589D01*
X68177932Y12766842D01*
X68235000Y13053740D01*
X68235000Y13346260D01*
X68177932Y13633158D01*
X68065990Y13903411D01*
X67903475Y14146632D01*
X67696632Y14353475D01*
X67522240Y14470000D01*
X67696632Y14586525D01*
X67903475Y14793368D01*
X68065990Y15036589D01*
X68177932Y15306842D01*
X68235000Y15593740D01*
X68235000Y15886260D01*
X68177932Y16173158D01*
X68065990Y16443411D01*
X67903475Y16686632D01*
X67696632Y16893475D01*
X67522240Y17010000D01*
X67696632Y17126525D01*
X67903475Y17333368D01*
X68065990Y17576589D01*
X68177932Y17846842D01*
X68235000Y18133740D01*
X68235000Y18426260D01*
X68177932Y18713158D01*
X68065990Y18983411D01*
X67903475Y19226632D01*
X67696632Y19433475D01*
X67522240Y19550000D01*
X67696632Y19666525D01*
X67903475Y19873368D01*
X68065990Y20116589D01*
X68177932Y20386842D01*
X68235000Y20673740D01*
X68235000Y20966260D01*
X68177932Y21253158D01*
X68065990Y21523411D01*
X67903475Y21766632D01*
X67696632Y21973475D01*
X67522240Y22090000D01*
X67696632Y22206525D01*
X67903475Y22413368D01*
X68065990Y22656589D01*
X68177932Y22926842D01*
X68235000Y23213740D01*
X68235000Y23506260D01*
X68177932Y23793158D01*
X68065990Y24063411D01*
X67903475Y24306632D01*
X67696632Y24513475D01*
X67514466Y24635195D01*
X67631355Y24704822D01*
X67847588Y24899731D01*
X68021641Y25133080D01*
X68146825Y25395901D01*
X68191476Y25543110D01*
X68070155Y25773000D01*
X66877000Y25773000D01*
X66877000Y25753000D01*
X66623000Y25753000D01*
X66623000Y25773000D01*
X66603000Y25773000D01*
X66603000Y26027000D01*
X66623000Y26027000D01*
X66623000Y26047000D01*
X66877000Y26047000D01*
X66877000Y26027000D01*
X68070155Y26027000D01*
X68191476Y26256890D01*
X68146825Y26404099D01*
X68021641Y26666920D01*
X67847588Y26900269D01*
X67631355Y27095178D01*
X67514466Y27164805D01*
X67696632Y27286525D01*
X67903475Y27493368D01*
X68065990Y27736589D01*
X68177932Y28006842D01*
X68235000Y28293740D01*
X68235000Y28586260D01*
X68177932Y28873158D01*
X68065990Y29143411D01*
X67903475Y29386632D01*
X67696632Y29593475D01*
X67522240Y29710000D01*
X67696632Y29826525D01*
X67903475Y30033368D01*
X68065990Y30276589D01*
X68177932Y30546842D01*
X68235000Y30833740D01*
X68235000Y31126260D01*
X68177932Y31413158D01*
X68065990Y31683411D01*
X67903475Y31926632D01*
X67696632Y32133475D01*
X67522240Y32250000D01*
X67696632Y32366525D01*
X67903475Y32573368D01*
X68065990Y32816589D01*
X68177932Y33086842D01*
X68235000Y33373740D01*
X68235000Y33666260D01*
X68177932Y33953158D01*
X68065990Y34223411D01*
X67903475Y34466632D01*
X67696632Y34673475D01*
X67522240Y34790000D01*
X67696632Y34906525D01*
X67903475Y35113368D01*
X68065990Y35356589D01*
X68177932Y35626842D01*
X68235000Y35913740D01*
X68235000Y36206260D01*
X68177932Y36493158D01*
X68065990Y36763411D01*
X67903475Y37006632D01*
X67696632Y37213475D01*
X67522240Y37330000D01*
X67696632Y37446525D01*
X67903475Y37653368D01*
X68065990Y37896589D01*
X68177932Y38166842D01*
X68235000Y38453740D01*
X68235000Y38746260D01*
X68177932Y39033158D01*
X68065990Y39303411D01*
X67903475Y39546632D01*
X67696632Y39753475D01*
X67522240Y39870000D01*
X67696632Y39986525D01*
X67903475Y40193368D01*
X68065990Y40436589D01*
X68177932Y40706842D01*
X68235000Y40993740D01*
X68235000Y41286260D01*
X68177932Y41573158D01*
X68065990Y41843411D01*
X67903475Y42086632D01*
X67696632Y42293475D01*
X67522240Y42410000D01*
X67696632Y42526525D01*
X67903475Y42733368D01*
X68065990Y42976589D01*
X68177932Y43246842D01*
X68235000Y43533740D01*
X68235000Y43826260D01*
X68177932Y44113158D01*
X68065990Y44383411D01*
X67903475Y44626632D01*
X67696632Y44833475D01*
X67522240Y44950000D01*
X67696632Y45066525D01*
X67903475Y45273368D01*
X68065990Y45516589D01*
X68177932Y45786842D01*
X68235000Y46073740D01*
X68235000Y46366260D01*
X68177932Y46653158D01*
X68065990Y46923411D01*
X67903475Y47166632D01*
X67696632Y47373475D01*
X67522240Y47490000D01*
X67696632Y47606525D01*
X67903475Y47813368D01*
X68065990Y48056589D01*
X68177932Y48326842D01*
X68235000Y48613740D01*
X68235000Y48906260D01*
X68177932Y49193158D01*
X68065990Y49463411D01*
X67903475Y49706632D01*
X67696632Y49913475D01*
X67453411Y50075990D01*
X67183158Y50187932D01*
X66896260Y50245000D01*
X66603740Y50245000D01*
X66316842Y50187932D01*
X66046589Y50075990D01*
X65803368Y49913475D01*
X65671513Y49781620D01*
X65649502Y49854180D01*
X65590537Y49964494D01*
X65511185Y50061185D01*
X65414494Y50140537D01*
X65304180Y50199502D01*
X65184482Y50235812D01*
X65060000Y50248072D01*
X63360000Y50248072D01*
X63235518Y50235812D01*
X63115820Y50199502D01*
X63005506Y50140537D01*
X62908815Y50061185D01*
X62829463Y49964494D01*
X62770498Y49854180D01*
X62734188Y49734482D01*
X62721928Y49610000D01*
X60747399Y49610000D01*
X60946575Y49809176D01*
X61202515Y50192218D01*
X61378810Y50617831D01*
X61468684Y51069660D01*
X61468684Y51530340D01*
X61378810Y51982169D01*
X61202515Y52407782D01*
X60946575Y52790824D01*
X60620824Y53116575D01*
X60237782Y53372515D01*
X59812169Y53548810D01*
X59360340Y53638684D01*
X58899660Y53638684D01*
X58447831Y53548810D01*
X58022218Y53372515D01*
X57639176Y53116575D01*
X57313425Y52790824D01*
X57057485Y52407782D01*
X56881190Y51982169D01*
X56791316Y51530340D01*
X50927000Y51530340D01*
X50927000Y55753000D01*
X68453000Y55753000D01*
X68453000Y799828D01*
X68258701Y739683D01*
X67976291Y710000D01*
X48034874Y710000D01*
X47999999Y713435D01*
X47965124Y710000D01*
X47965123Y710000D01*
X47860816Y699727D01*
X47726980Y659128D01*
X47603637Y593200D01*
X47495525Y504475D01*
X47473292Y477384D01*
X45705909Y-1290000D01*
X45401473Y-1290000D01*
X45694305Y-997168D01*
X45951334Y-612496D01*
X46128379Y-185072D01*
X46218636Y268680D01*
X46218636Y731320D01*
X46128379Y1185072D01*
X45951334Y1612496D01*
X45694305Y1997168D01*
X45367168Y2324305D01*
X44982496Y2581334D01*
X44555072Y2758379D01*
X44101320Y2848636D01*
X43638680Y2848636D01*
X43184928Y2758379D01*
X42757504Y2581334D01*
X42372832Y2324305D01*
X42045695Y1997168D01*
X41788666Y1612496D01*
X41611621Y1185072D01*
X41521364Y731320D01*
X41521364Y268680D01*
X41611621Y-185072D01*
X41788666Y-612496D01*
X42045695Y-997168D01*
X42338527Y-1290000D01*
X13294092Y-1290000D01*
X11526712Y477379D01*
X11504475Y504475D01*
X11396363Y593200D01*
X11273020Y659128D01*
X11139184Y699727D01*
X11034877Y710000D01*
X11034875Y710000D01*
X11000000Y713435D01*
X10965125Y710000D01*
X2034721Y710000D01*
X1750101Y737907D01*
X1509718Y810483D01*
X1397000Y870416D01*
X1397000Y49610000D01*
X1761928Y49610000D01*
X1761928Y47910000D01*
X1774188Y47785518D01*
X1810498Y47665820D01*
X1869463Y47555506D01*
X1948815Y47458815D01*
X2045506Y47379463D01*
X2155820Y47320498D01*
X2228380Y47298487D01*
X2096525Y47166632D01*
X1934010Y46923411D01*
X1822068Y46653158D01*
X1765000Y46366260D01*
X1765000Y46073740D01*
X1822068Y45786842D01*
X1934010Y45516589D01*
X2096525Y45273368D01*
X2303368Y45066525D01*
X2477760Y44950000D01*
X2303368Y44833475D01*
X2096525Y44626632D01*
X1934010Y44383411D01*
X1822068Y44113158D01*
X1765000Y43826260D01*
X1765000Y43533740D01*
X1822068Y43246842D01*
X1934010Y42976589D01*
X2096525Y42733368D01*
X2303368Y42526525D01*
X2477760Y42410000D01*
X2303368Y42293475D01*
X2096525Y42086632D01*
X1934010Y41843411D01*
X1822068Y41573158D01*
X1765000Y41286260D01*
X1765000Y40993740D01*
X1822068Y40706842D01*
X1934010Y40436589D01*
X2096525Y40193368D01*
X2303368Y39986525D01*
X2477760Y39870000D01*
X2303368Y39753475D01*
X2096525Y39546632D01*
X1934010Y39303411D01*
X1822068Y39033158D01*
X1765000Y38746260D01*
X1765000Y38453740D01*
X1822068Y38166842D01*
X1934010Y37896589D01*
X2096525Y37653368D01*
X2303368Y37446525D01*
X2477760Y37330000D01*
X2303368Y37213475D01*
X2096525Y37006632D01*
X1934010Y36763411D01*
X1822068Y36493158D01*
X1765000Y36206260D01*
X1765000Y35913740D01*
X1822068Y35626842D01*
X1934010Y35356589D01*
X2096525Y35113368D01*
X2303368Y34906525D01*
X2477760Y34790000D01*
X2303368Y34673475D01*
X2096525Y34466632D01*
X1934010Y34223411D01*
X1822068Y33953158D01*
X1765000Y33666260D01*
X1765000Y33373740D01*
X1822068Y33086842D01*
X1934010Y32816589D01*
X2096525Y32573368D01*
X2303368Y32366525D01*
X2477760Y32250000D01*
X2303368Y32133475D01*
X2096525Y31926632D01*
X1934010Y31683411D01*
X1822068Y31413158D01*
X1765000Y31126260D01*
X1765000Y30833740D01*
X1822068Y30546842D01*
X1934010Y30276589D01*
X2096525Y30033368D01*
X2303368Y29826525D01*
X2477760Y29710000D01*
X2303368Y29593475D01*
X2096525Y29386632D01*
X1934010Y29143411D01*
X1822068Y28873158D01*
X1765000Y28586260D01*
X1765000Y28293740D01*
X1822068Y28006842D01*
X1934010Y27736589D01*
X2096525Y27493368D01*
X2303368Y27286525D01*
X2485534Y27164805D01*
X2368645Y27095178D01*
X2152412Y26900269D01*
X1978359Y26666920D01*
X1853175Y26404099D01*
X1808524Y26256890D01*
X1929845Y26027000D01*
X3123000Y26027000D01*
X3123000Y26047000D01*
X3377000Y26047000D01*
X3377000Y26027000D01*
X5663000Y26027000D01*
X5663000Y26047000D01*
X5917000Y26047000D01*
X5917000Y26027000D01*
X7110155Y26027000D01*
X7231476Y26256890D01*
X7186825Y26404099D01*
X7061641Y26666920D01*
X6887588Y26900269D01*
X6671355Y27095178D01*
X6554466Y27164805D01*
X6736632Y27286525D01*
X6943475Y27493368D01*
X7105990Y27736589D01*
X7217932Y28006842D01*
X7250607Y28171110D01*
X11133524Y28171110D01*
X11225648Y27908142D01*
X11372504Y27656807D01*
X11565571Y27438951D01*
X11797430Y27262947D01*
X12059170Y27135558D01*
X12340733Y27061680D01*
X12573000Y27201835D01*
X12573000Y28401000D01*
X12827000Y28401000D01*
X12827000Y27201835D01*
X13059267Y27061680D01*
X13340830Y27135558D01*
X13602570Y27262947D01*
X13834429Y27438951D01*
X14027496Y27656807D01*
X14174352Y27908142D01*
X14266476Y28171110D01*
X14145155Y28401000D01*
X12827000Y28401000D01*
X12573000Y28401000D01*
X11254845Y28401000D01*
X11133524Y28171110D01*
X7250607Y28171110D01*
X7275000Y28293740D01*
X7275000Y28586260D01*
X7217932Y28873158D01*
X7146753Y29044999D01*
X11189614Y29044999D01*
X11133524Y28884890D01*
X11254845Y28655000D01*
X12573000Y28655000D01*
X12573000Y28675000D01*
X12827000Y28675000D01*
X12827000Y28655000D01*
X14145155Y28655000D01*
X14266476Y28884890D01*
X14174352Y29147858D01*
X14027496Y29399193D01*
X13834429Y29617049D01*
X13628278Y29773538D01*
X13654014Y29787294D01*
X13880134Y29972866D01*
X14065706Y30198986D01*
X14203599Y30456966D01*
X14288513Y30736889D01*
X14317185Y31028000D01*
X14288513Y31319111D01*
X14203599Y31599034D01*
X14065706Y31857014D01*
X13880134Y32083134D01*
X13654014Y32268706D01*
X13636626Y32278000D01*
X13654014Y32287294D01*
X13880134Y32472866D01*
X14065706Y32698986D01*
X14203599Y32956966D01*
X14288513Y33236889D01*
X14317185Y33528000D01*
X14288513Y33819111D01*
X14203599Y34099034D01*
X14065706Y34357014D01*
X13880134Y34583134D01*
X13654014Y34768706D01*
X13636626Y34778000D01*
X13654014Y34787294D01*
X13880134Y34972866D01*
X14044298Y35172901D01*
X15750000Y33467198D01*
X15750001Y17823848D01*
X15657419Y17795764D01*
X15416812Y17667157D01*
X15205919Y17494081D01*
X15032843Y17283188D01*
X14904236Y17042581D01*
X14825040Y16781507D01*
X14798299Y16510000D01*
X14825040Y16238493D01*
X14904236Y15977419D01*
X15032843Y15736812D01*
X15205919Y15525919D01*
X15416812Y15352843D01*
X15627927Y15240000D01*
X15416812Y15127157D01*
X15205919Y14954081D01*
X15032843Y14743188D01*
X15025794Y14730000D01*
X6880107Y14730000D01*
X6943475Y14793368D01*
X7105990Y15036589D01*
X7217932Y15306842D01*
X7275000Y15593740D01*
X7275000Y15886260D01*
X7217932Y16173158D01*
X7105990Y16443411D01*
X6943475Y16686632D01*
X6736632Y16893475D01*
X6562240Y17010000D01*
X6736632Y17126525D01*
X6943475Y17333368D01*
X7105990Y17576589D01*
X7217932Y17846842D01*
X7275000Y18133740D01*
X7275000Y18426260D01*
X7217932Y18713158D01*
X7105990Y18983411D01*
X6943475Y19226632D01*
X6736632Y19433475D01*
X6562240Y19550000D01*
X6736632Y19666525D01*
X6943475Y19873368D01*
X7105990Y20116589D01*
X7217932Y20386842D01*
X7275000Y20673740D01*
X7275000Y20966260D01*
X7217932Y21253158D01*
X7105990Y21523411D01*
X6943475Y21766632D01*
X6736632Y21973475D01*
X6554466Y22095195D01*
X6671355Y22164822D01*
X6887588Y22359731D01*
X7061641Y22593080D01*
X7186825Y22855901D01*
X7231476Y23003110D01*
X7110155Y23233000D01*
X5917000Y23233000D01*
X5917000Y23213000D01*
X5663000Y23213000D01*
X5663000Y23233000D01*
X5643000Y23233000D01*
X5643000Y23487000D01*
X5663000Y23487000D01*
X5663000Y25773000D01*
X5917000Y25773000D01*
X5917000Y23487000D01*
X7110155Y23487000D01*
X7231476Y23716890D01*
X7186825Y23864099D01*
X7061641Y24126920D01*
X6887588Y24360269D01*
X6671355Y24555178D01*
X6545745Y24630000D01*
X6671355Y24704822D01*
X6887588Y24899731D01*
X7061641Y25133080D01*
X7186825Y25395901D01*
X7231476Y25543110D01*
X7110155Y25773000D01*
X5917000Y25773000D01*
X5663000Y25773000D01*
X3377000Y25773000D01*
X3377000Y25753000D01*
X3123000Y25753000D01*
X3123000Y25773000D01*
X1929845Y25773000D01*
X1808524Y25543110D01*
X1853175Y25395901D01*
X1978359Y25133080D01*
X2152412Y24899731D01*
X2368645Y24704822D01*
X2485534Y24635195D01*
X2303368Y24513475D01*
X2096525Y24306632D01*
X1934010Y24063411D01*
X1822068Y23793158D01*
X1765000Y23506260D01*
X1765000Y23213740D01*
X1822068Y22926842D01*
X1934010Y22656589D01*
X2096525Y22413368D01*
X2303368Y22206525D01*
X2477760Y22090000D01*
X2303368Y21973475D01*
X2096525Y21766632D01*
X1934010Y21523411D01*
X1822068Y21253158D01*
X1765000Y20966260D01*
X1765000Y20673740D01*
X1822068Y20386842D01*
X1934010Y20116589D01*
X2096525Y19873368D01*
X2303368Y19666525D01*
X2477760Y19550000D01*
X2303368Y19433475D01*
X2096525Y19226632D01*
X1934010Y18983411D01*
X1822068Y18713158D01*
X1765000Y18426260D01*
X1765000Y18133740D01*
X1822068Y17846842D01*
X1934010Y17576589D01*
X2096525Y17333368D01*
X2303368Y17126525D01*
X2477760Y17010000D01*
X2303368Y16893475D01*
X2096525Y16686632D01*
X1934010Y16443411D01*
X1822068Y16173158D01*
X1765000Y15886260D01*
X1765000Y15593740D01*
X1822068Y15306842D01*
X1934010Y15036589D01*
X2096525Y14793368D01*
X2303368Y14586525D01*
X2477760Y14470000D01*
X2303368Y14353475D01*
X2096525Y14146632D01*
X1934010Y13903411D01*
X1822068Y13633158D01*
X1765000Y13346260D01*
X1765000Y13053740D01*
X1822068Y12766842D01*
X1934010Y12496589D01*
X2096525Y12253368D01*
X2303368Y12046525D01*
X2477760Y11930000D01*
X2303368Y11813475D01*
X2096525Y11606632D01*
X1934010Y11363411D01*
X1822068Y11093158D01*
X1765000Y10806260D01*
X1765000Y10513740D01*
X1822068Y10226842D01*
X1934010Y9956589D01*
X2096525Y9713368D01*
X2303368Y9506525D01*
X2477760Y9390000D01*
X2303368Y9273475D01*
X2096525Y9066632D01*
X1934010Y8823411D01*
X1822068Y8553158D01*
X1765000Y8266260D01*
X1765000Y7973740D01*
X1822068Y7686842D01*
X1934010Y7416589D01*
X2096525Y7173368D01*
X2303368Y6966525D01*
X2477760Y6850000D01*
X2303368Y6733475D01*
X2096525Y6526632D01*
X1934010Y6283411D01*
X1822068Y6013158D01*
X1765000Y5726260D01*
X1765000Y5433740D01*
X1822068Y5146842D01*
X1934010Y4876589D01*
X2096525Y4633368D01*
X2303368Y4426525D01*
X2477760Y4310000D01*
X2303368Y4193475D01*
X2096525Y3986632D01*
X1934010Y3743411D01*
X1822068Y3473158D01*
X1765000Y3186260D01*
X1765000Y2893740D01*
X1822068Y2606842D01*
X1934010Y2336589D01*
X2096525Y2093368D01*
X2303368Y1886525D01*
X2546589Y1724010D01*
X2816842Y1612068D01*
X3103740Y1555000D01*
X3396260Y1555000D01*
X3683158Y1612068D01*
X3953411Y1724010D01*
X4196632Y1886525D01*
X4403475Y2093368D01*
X4520000Y2267760D01*
X4636525Y2093368D01*
X4843368Y1886525D01*
X5086589Y1724010D01*
X5356842Y1612068D01*
X5643740Y1555000D01*
X5936260Y1555000D01*
X6223158Y1612068D01*
X6493411Y1724010D01*
X6736632Y1886525D01*
X6943475Y2093368D01*
X7105990Y2336589D01*
X7217932Y2606842D01*
X7275000Y2893740D01*
X7275000Y3186260D01*
X7218796Y3468815D01*
X14847682Y3468815D01*
X14866513Y3365764D01*
X14978610Y3116100D01*
X15137260Y2893103D01*
X15336366Y2705342D01*
X15568276Y2560032D01*
X15824079Y2462757D01*
X16093944Y2417256D01*
X16313000Y2578127D01*
X16313000Y3683000D01*
X16567000Y3683000D01*
X16567000Y2578127D01*
X16786056Y2417256D01*
X17055921Y2462757D01*
X17311724Y2560032D01*
X17543634Y2705342D01*
X17742740Y2893103D01*
X17901390Y3116100D01*
X18013487Y3365764D01*
X18032318Y3468815D01*
X35307682Y3468815D01*
X35326513Y3365764D01*
X35438610Y3116100D01*
X35597260Y2893103D01*
X35796366Y2705342D01*
X36028276Y2560032D01*
X36284079Y2462757D01*
X36553944Y2417256D01*
X36773000Y2578127D01*
X36773000Y3683000D01*
X37027000Y3683000D01*
X37027000Y2578127D01*
X37246056Y2417256D01*
X37515921Y2462757D01*
X37771724Y2560032D01*
X38003634Y2705342D01*
X38202740Y2893103D01*
X38361390Y3116100D01*
X38473487Y3365764D01*
X38492318Y3468815D01*
X38369656Y3683000D01*
X37027000Y3683000D01*
X36773000Y3683000D01*
X35430344Y3683000D01*
X35307682Y3468815D01*
X18032318Y3468815D01*
X17909656Y3683000D01*
X16567000Y3683000D01*
X16313000Y3683000D01*
X14970344Y3683000D01*
X14847682Y3468815D01*
X7218796Y3468815D01*
X7217932Y3473158D01*
X7105990Y3743411D01*
X6943475Y3986632D01*
X6736632Y4193475D01*
X6562240Y4310000D01*
X6736632Y4426525D01*
X6943475Y4633368D01*
X7105990Y4876589D01*
X7217932Y5146842D01*
X7275000Y5433740D01*
X7275000Y5726260D01*
X7217932Y6013158D01*
X7105990Y6283411D01*
X6943475Y6526632D01*
X6736632Y6733475D01*
X6562240Y6850000D01*
X6736632Y6966525D01*
X6943475Y7173368D01*
X7105990Y7416589D01*
X7217932Y7686842D01*
X7275000Y7973740D01*
X7275000Y8266260D01*
X7217932Y8553158D01*
X7105990Y8823411D01*
X6943475Y9066632D01*
X6736632Y9273475D01*
X6562240Y9390000D01*
X6736632Y9506525D01*
X6943475Y9713368D01*
X7105990Y9956589D01*
X7217932Y10226842D01*
X7275000Y10513740D01*
X7275000Y10806260D01*
X7217932Y11093158D01*
X7105990Y11363411D01*
X6943475Y11606632D01*
X6736632Y11813475D01*
X6562240Y11930000D01*
X6736632Y12046525D01*
X6943475Y12253368D01*
X7105990Y12496589D01*
X7217932Y12766842D01*
X7275000Y13053740D01*
X7275000Y13210000D01*
X15025794Y13210000D01*
X15032843Y13196812D01*
X15205919Y12985919D01*
X15416812Y12812843D01*
X15627927Y12700000D01*
X15416812Y12587157D01*
X15205919Y12414081D01*
X15032843Y12203188D01*
X14904236Y11962581D01*
X14825040Y11701507D01*
X14798299Y11430000D01*
X14825040Y11158493D01*
X14904236Y10897419D01*
X14958980Y10795000D01*
X14732000Y10795000D01*
X14608118Y10782799D01*
X14488996Y10746664D01*
X14379213Y10687983D01*
X14282987Y10609013D01*
X14204017Y10512787D01*
X14145336Y10403004D01*
X14109201Y10283882D01*
X14097000Y10160000D01*
X14097000Y4826000D01*
X14109201Y4702118D01*
X14145336Y4582996D01*
X14204017Y4473213D01*
X14282987Y4376987D01*
X14379213Y4298017D01*
X14488996Y4239336D01*
X14608118Y4203201D01*
X14732000Y4191000D01*
X14854958Y4191000D01*
X14847682Y4151185D01*
X14970344Y3937000D01*
X16313000Y3937000D01*
X16313000Y3957000D01*
X16567000Y3957000D01*
X16567000Y3937000D01*
X17909656Y3937000D01*
X18032318Y4151185D01*
X18025042Y4191000D01*
X22860000Y4191000D01*
X22983882Y4203201D01*
X23103004Y4239336D01*
X23212787Y4298017D01*
X23309013Y4376987D01*
X23387983Y4473213D01*
X23446664Y4582996D01*
X23482799Y4702118D01*
X23495000Y4826000D01*
X23495000Y6008815D01*
X35307682Y6008815D01*
X35326513Y5905764D01*
X35438610Y5656100D01*
X35597260Y5433103D01*
X35796366Y5245342D01*
X36028276Y5100032D01*
X36080954Y5080000D01*
X36028276Y5059968D01*
X35796366Y4914658D01*
X35597260Y4726897D01*
X35438610Y4503900D01*
X35326513Y4254236D01*
X35307682Y4151185D01*
X35430344Y3937000D01*
X36773000Y3937000D01*
X36773000Y5041873D01*
X36721083Y5080000D01*
X36773000Y5118127D01*
X36773000Y6223000D01*
X37027000Y6223000D01*
X37027000Y5118127D01*
X37078917Y5080000D01*
X37027000Y5041873D01*
X37027000Y3937000D01*
X38369656Y3937000D01*
X38492318Y4151185D01*
X38473487Y4254236D01*
X38361390Y4503900D01*
X38202740Y4726897D01*
X38003634Y4914658D01*
X37771724Y5059968D01*
X37719046Y5080000D01*
X37771724Y5100032D01*
X38003634Y5245342D01*
X38202740Y5433103D01*
X38361390Y5656100D01*
X38473487Y5905764D01*
X38492318Y6008815D01*
X38369656Y6223000D01*
X37027000Y6223000D01*
X36773000Y6223000D01*
X35430344Y6223000D01*
X35307682Y6008815D01*
X23495000Y6008815D01*
X23495000Y15332089D01*
X24465000Y15332089D01*
X24465000Y15147911D01*
X24500932Y14967271D01*
X24571414Y14797111D01*
X24673738Y14643972D01*
X24803972Y14513738D01*
X24957111Y14411414D01*
X25127271Y14340932D01*
X25307911Y14305000D01*
X25492089Y14305000D01*
X25672729Y14340932D01*
X25842889Y14411414D01*
X25945535Y14480000D01*
X35357386Y14480000D01*
X35285040Y14241507D01*
X35258299Y13970000D01*
X35285040Y13698493D01*
X35364236Y13437419D01*
X35492843Y13196812D01*
X35665919Y12985919D01*
X35876812Y12812843D01*
X36087927Y12700000D01*
X35876812Y12587157D01*
X35665919Y12414081D01*
X35492843Y12203188D01*
X35364236Y11962581D01*
X35285040Y11701507D01*
X35258299Y11430000D01*
X35285040Y11158493D01*
X35364236Y10897419D01*
X35492843Y10656812D01*
X35665919Y10445919D01*
X35876812Y10272843D01*
X36087927Y10160000D01*
X35876812Y10047157D01*
X35665919Y9874081D01*
X35492843Y9663188D01*
X35364236Y9422581D01*
X35285040Y9161507D01*
X35258299Y8890000D01*
X35285040Y8618493D01*
X35364236Y8357419D01*
X35492843Y8116812D01*
X35665919Y7905919D01*
X35876812Y7732843D01*
X36085028Y7621549D01*
X36028276Y7599968D01*
X35796366Y7454658D01*
X35597260Y7266897D01*
X35438610Y7043900D01*
X35326513Y6794236D01*
X35307682Y6691185D01*
X35430344Y6477000D01*
X36773000Y6477000D01*
X36773000Y6497000D01*
X37027000Y6497000D01*
X37027000Y6477000D01*
X38369656Y6477000D01*
X38492318Y6691185D01*
X38473487Y6794236D01*
X38361390Y7043900D01*
X38202740Y7266897D01*
X38003634Y7454658D01*
X37903963Y7517110D01*
X56828524Y7517110D01*
X56830446Y7504739D01*
X56930146Y7230991D01*
X57081336Y6981954D01*
X57278205Y6767198D01*
X57513188Y6594975D01*
X57777255Y6471904D01*
X58060258Y6402715D01*
X58293000Y6546768D01*
X58293000Y7747000D01*
X58547000Y7747000D01*
X58547000Y6546768D01*
X58779742Y6402715D01*
X59062745Y6471904D01*
X59326812Y6594975D01*
X59561795Y6767198D01*
X59758664Y6981954D01*
X59909854Y7230991D01*
X60009554Y7504739D01*
X60011476Y7517110D01*
X59890155Y7747000D01*
X58547000Y7747000D01*
X58293000Y7747000D01*
X56949845Y7747000D01*
X56828524Y7517110D01*
X37903963Y7517110D01*
X37771724Y7599968D01*
X37714972Y7621549D01*
X37923188Y7732843D01*
X38134081Y7905919D01*
X38307157Y8116812D01*
X38435764Y8357419D01*
X38514960Y8618493D01*
X38541701Y8890000D01*
X38514960Y9161507D01*
X38435764Y9422581D01*
X38307157Y9663188D01*
X38134081Y9874081D01*
X37923188Y10047157D01*
X37712073Y10160000D01*
X37923188Y10272843D01*
X38134081Y10445919D01*
X38307157Y10656812D01*
X38435764Y10897419D01*
X38514960Y11158493D01*
X38541701Y11430000D01*
X38514960Y11701507D01*
X38435764Y11962581D01*
X38307157Y12203188D01*
X38134081Y12414081D01*
X37923188Y12587157D01*
X37712073Y12700000D01*
X37923188Y12812843D01*
X38134081Y12985919D01*
X38307157Y13196812D01*
X38435764Y13437419D01*
X38514960Y13698493D01*
X38541701Y13970000D01*
X38514960Y14241507D01*
X38435764Y14502581D01*
X38307157Y14743188D01*
X38134081Y14954081D01*
X37923188Y15127157D01*
X37712073Y15240000D01*
X37923188Y15352843D01*
X38134081Y15525919D01*
X38307157Y15736812D01*
X38435764Y15977419D01*
X38514960Y16238493D01*
X38541701Y16510000D01*
X38514960Y16781507D01*
X38435764Y17042581D01*
X38307157Y17283188D01*
X38134081Y17494081D01*
X37923188Y17667157D01*
X37682581Y17795764D01*
X37421507Y17874960D01*
X37218037Y17895000D01*
X36581963Y17895000D01*
X36378493Y17874960D01*
X36117419Y17795764D01*
X35876812Y17667157D01*
X35665919Y17494081D01*
X35492843Y17283188D01*
X35364236Y17042581D01*
X35285040Y16781507D01*
X35258299Y16510000D01*
X35285040Y16238493D01*
X35331275Y16086076D01*
X35245199Y16000000D01*
X25945535Y16000000D01*
X25842889Y16068586D01*
X25672729Y16139068D01*
X25492089Y16175000D01*
X25307911Y16175000D01*
X25127271Y16139068D01*
X24957111Y16068586D01*
X24803972Y15966262D01*
X24673738Y15836028D01*
X24571414Y15682889D01*
X24500932Y15512729D01*
X24465000Y15332089D01*
X23495000Y15332089D01*
X23495000Y21717000D01*
X39497000Y21717000D01*
X39497000Y12446000D01*
X39509201Y12322118D01*
X39545336Y12202996D01*
X39604017Y12093213D01*
X39682987Y11996987D01*
X39779213Y11918017D01*
X39888996Y11859336D01*
X40008118Y11823201D01*
X40132000Y11811000D01*
X48514000Y11811000D01*
X48637882Y11823201D01*
X48757004Y11859336D01*
X48866787Y11918017D01*
X48963013Y11996987D01*
X49041983Y12093213D01*
X49100664Y12202996D01*
X49136799Y12322118D01*
X49149000Y12446000D01*
X49149000Y22698089D01*
X52659000Y22698089D01*
X52659000Y22513911D01*
X52694932Y22333271D01*
X52765414Y22163111D01*
X52834000Y22060465D01*
X52834000Y22008322D01*
X52830324Y21971000D01*
X52834000Y21933678D01*
X52834000Y21933667D01*
X52844997Y21822014D01*
X52888454Y21678753D01*
X52913037Y21632764D01*
X52959026Y21546724D01*
X52978159Y21523411D01*
X53054000Y21430999D01*
X53082998Y21407201D01*
X54385347Y20104851D01*
X54409432Y19983771D01*
X54479914Y19813611D01*
X54582238Y19660472D01*
X54712472Y19530238D01*
X54865611Y19427914D01*
X55035771Y19357432D01*
X55216411Y19321500D01*
X55400589Y19321500D01*
X55581229Y19357432D01*
X55751389Y19427914D01*
X55904528Y19530238D01*
X56034762Y19660472D01*
X56137086Y19813611D01*
X56207568Y19983771D01*
X56243500Y20164411D01*
X56243500Y20348589D01*
X56207568Y20529229D01*
X56137086Y20699389D01*
X56034762Y20852528D01*
X55904528Y20982762D01*
X55751389Y21085086D01*
X55581229Y21155568D01*
X55460149Y21179653D01*
X54438433Y22201369D01*
X54493068Y22333271D01*
X54529000Y22513911D01*
X54529000Y22698089D01*
X54493068Y22878729D01*
X54422586Y23048889D01*
X54320262Y23202028D01*
X54190028Y23332262D01*
X54036889Y23434586D01*
X53866729Y23505068D01*
X53686089Y23541000D01*
X53501911Y23541000D01*
X53321271Y23505068D01*
X53151111Y23434586D01*
X52997972Y23332262D01*
X52867738Y23202028D01*
X52765414Y23048889D01*
X52694932Y22878729D01*
X52659000Y22698089D01*
X49149000Y22698089D01*
X49149000Y25400000D01*
X49136799Y25523882D01*
X49100664Y25643004D01*
X49041983Y25752787D01*
X48963013Y25849013D01*
X48866787Y25927983D01*
X48757004Y25986664D01*
X48637882Y26022799D01*
X48514000Y26035000D01*
X19812000Y26035000D01*
X19688118Y26022799D01*
X19568996Y25986664D01*
X19459213Y25927983D01*
X19362987Y25849013D01*
X19284017Y25752787D01*
X19225336Y25643004D01*
X19189201Y25523882D01*
X19177000Y25400000D01*
X19177000Y10795000D01*
X17921020Y10795000D01*
X17975764Y10897419D01*
X18054960Y11158493D01*
X18081701Y11430000D01*
X18054960Y11701507D01*
X17975764Y11962581D01*
X17847157Y12203188D01*
X17674081Y12414081D01*
X17463188Y12587157D01*
X17252073Y12700000D01*
X17463188Y12812843D01*
X17674081Y12985919D01*
X17847157Y13196812D01*
X17975764Y13437419D01*
X18054960Y13698493D01*
X18081701Y13970000D01*
X18054960Y14241507D01*
X17975764Y14502581D01*
X17847157Y14743188D01*
X17674081Y14954081D01*
X17463188Y15127157D01*
X17252073Y15240000D01*
X17463188Y15352843D01*
X17674081Y15525919D01*
X17847157Y15736812D01*
X17975764Y15977419D01*
X18054960Y16238493D01*
X18081701Y16510000D01*
X18054960Y16781507D01*
X17975764Y17042581D01*
X17847157Y17283188D01*
X17674081Y17494081D01*
X17463188Y17667157D01*
X17270000Y17770418D01*
X17270000Y33744675D01*
X17273676Y33782000D01*
X17270000Y33819325D01*
X17270000Y33819333D01*
X17259003Y33930986D01*
X17215546Y34074247D01*
X17144974Y34206276D01*
X17050001Y34322001D01*
X17021004Y34345798D01*
X16166069Y35200733D01*
X22783680Y35200733D01*
X22857558Y34919170D01*
X22984947Y34657430D01*
X23160951Y34425571D01*
X23378807Y34232504D01*
X23630142Y34085648D01*
X23893110Y33993524D01*
X24123000Y34114845D01*
X24123000Y35433000D01*
X22923835Y35433000D01*
X22783680Y35200733D01*
X16166069Y35200733D01*
X15447535Y35919267D01*
X22783680Y35919267D01*
X22923835Y35687000D01*
X24123000Y35687000D01*
X24123000Y37005155D01*
X24377000Y37005155D01*
X24377000Y35687000D01*
X24397000Y35687000D01*
X24397000Y35433000D01*
X24377000Y35433000D01*
X24377000Y34114845D01*
X24606890Y33993524D01*
X24869858Y34085648D01*
X25121193Y34232504D01*
X25339049Y34425571D01*
X25495538Y34631722D01*
X25509294Y34605987D01*
X25694866Y34379866D01*
X25920986Y34194294D01*
X26178966Y34056401D01*
X26458889Y33971487D01*
X26750000Y33942815D01*
X27041110Y33971487D01*
X27321033Y34056401D01*
X27579013Y34194294D01*
X27805134Y34379866D01*
X27990706Y34605986D01*
X28000000Y34623374D01*
X28009294Y34605987D01*
X28194866Y34379866D01*
X28420986Y34194294D01*
X28678966Y34056401D01*
X28958889Y33971487D01*
X29250000Y33942815D01*
X29541110Y33971487D01*
X29821033Y34056401D01*
X30079013Y34194294D01*
X30305134Y34379866D01*
X30357223Y34443337D01*
X30411595Y34341614D01*
X30522038Y34207038D01*
X30656614Y34096595D01*
X30810150Y34014528D01*
X30976746Y33963992D01*
X31150000Y33946928D01*
X32350000Y33946928D01*
X32523254Y33963992D01*
X32689850Y34014528D01*
X32843386Y34096595D01*
X32977962Y34207038D01*
X33088405Y34341614D01*
X33170472Y34495150D01*
X33221008Y34661746D01*
X33238072Y34835000D01*
X33238072Y35200733D01*
X36753680Y35200733D01*
X36827558Y34919170D01*
X36954947Y34657430D01*
X37130951Y34425571D01*
X37348807Y34232504D01*
X37600142Y34085648D01*
X37863110Y33993524D01*
X38093000Y34114845D01*
X38093000Y35433000D01*
X36893835Y35433000D01*
X36753680Y35200733D01*
X33238072Y35200733D01*
X33238072Y35919267D01*
X36753680Y35919267D01*
X36893835Y35687000D01*
X38093000Y35687000D01*
X38093000Y37005155D01*
X38347000Y37005155D01*
X38347000Y35687000D01*
X38367000Y35687000D01*
X38367000Y35433000D01*
X38347000Y35433000D01*
X38347000Y34114845D01*
X38576890Y33993524D01*
X38839858Y34085648D01*
X39091193Y34232504D01*
X39309049Y34425571D01*
X39465538Y34631722D01*
X39479294Y34605987D01*
X39664866Y34379866D01*
X39890986Y34194294D01*
X40148966Y34056401D01*
X40428889Y33971487D01*
X40720000Y33942815D01*
X41011110Y33971487D01*
X41291033Y34056401D01*
X41549013Y34194294D01*
X41775134Y34379866D01*
X41960706Y34605986D01*
X41970000Y34623374D01*
X41979294Y34605987D01*
X42164866Y34379866D01*
X42390986Y34194294D01*
X42648966Y34056401D01*
X42928889Y33971487D01*
X43220000Y33942815D01*
X43511110Y33971487D01*
X43791033Y34056401D01*
X44049013Y34194294D01*
X44275134Y34379866D01*
X44327223Y34443337D01*
X44381595Y34341614D01*
X44492038Y34207038D01*
X44626614Y34096595D01*
X44780150Y34014528D01*
X44946746Y33963992D01*
X45120000Y33946928D01*
X46320000Y33946928D01*
X46493254Y33963992D01*
X46659850Y34014528D01*
X46813386Y34096595D01*
X46947962Y34207038D01*
X47058405Y34341614D01*
X47140472Y34495150D01*
X47191008Y34661746D01*
X47208072Y34835000D01*
X47208072Y36285000D01*
X47191008Y36458254D01*
X47140472Y36624850D01*
X47058405Y36778386D01*
X46947962Y36912962D01*
X46813386Y37023405D01*
X46659850Y37105472D01*
X46493254Y37156008D01*
X46320000Y37173072D01*
X45120000Y37173072D01*
X44946746Y37156008D01*
X44780150Y37105472D01*
X44626614Y37023405D01*
X44492038Y36912962D01*
X44381595Y36778386D01*
X44327223Y36676663D01*
X44275134Y36740134D01*
X44049014Y36925706D01*
X43791034Y37063599D01*
X43511111Y37148513D01*
X43220000Y37177185D01*
X42928890Y37148513D01*
X42648967Y37063599D01*
X42390987Y36925706D01*
X42164866Y36740134D01*
X41979294Y36514014D01*
X41970000Y36496626D01*
X41960706Y36514014D01*
X41775134Y36740134D01*
X41549014Y36925706D01*
X41291034Y37063599D01*
X41011111Y37148513D01*
X40720000Y37177185D01*
X40428890Y37148513D01*
X40148967Y37063599D01*
X39890987Y36925706D01*
X39664866Y36740134D01*
X39479294Y36514014D01*
X39465538Y36488278D01*
X39309049Y36694429D01*
X39091193Y36887496D01*
X38839858Y37034352D01*
X38576890Y37126476D01*
X38347000Y37005155D01*
X38093000Y37005155D01*
X37863110Y37126476D01*
X37600142Y37034352D01*
X37348807Y36887496D01*
X37130951Y36694429D01*
X36954947Y36462570D01*
X36827558Y36200830D01*
X36753680Y35919267D01*
X33238072Y35919267D01*
X33238072Y36285000D01*
X33221008Y36458254D01*
X33170472Y36624850D01*
X33088405Y36778386D01*
X32977962Y36912962D01*
X32843386Y37023405D01*
X32689850Y37105472D01*
X32523254Y37156008D01*
X32350000Y37173072D01*
X31150000Y37173072D01*
X30976746Y37156008D01*
X30810150Y37105472D01*
X30656614Y37023405D01*
X30522038Y36912962D01*
X30411595Y36778386D01*
X30357223Y36676663D01*
X30305134Y36740134D01*
X30079014Y36925706D01*
X29821034Y37063599D01*
X29541111Y37148513D01*
X29250000Y37177185D01*
X28958890Y37148513D01*
X28678967Y37063599D01*
X28420987Y36925706D01*
X28194866Y36740134D01*
X28009294Y36514014D01*
X28000000Y36496626D01*
X27990706Y36514014D01*
X27805134Y36740134D01*
X27579014Y36925706D01*
X27321034Y37063599D01*
X27041111Y37148513D01*
X26750000Y37177185D01*
X26458890Y37148513D01*
X26178967Y37063599D01*
X25920987Y36925706D01*
X25694866Y36740134D01*
X25509294Y36514014D01*
X25495538Y36488278D01*
X25339049Y36694429D01*
X25121193Y36887496D01*
X24869858Y37034352D01*
X24606890Y37126476D01*
X24377000Y37005155D01*
X24123000Y37005155D01*
X23893110Y37126476D01*
X23630142Y37034352D01*
X23378807Y36887496D01*
X23160951Y36694429D01*
X22984947Y36462570D01*
X22857558Y36200830D01*
X22783680Y35919267D01*
X15447535Y35919267D01*
X14827804Y36538997D01*
X14804001Y36568001D01*
X14688276Y36662974D01*
X14556247Y36733546D01*
X14412986Y36777003D01*
X14301333Y36788000D01*
X14301322Y36788000D01*
X14264000Y36791676D01*
X14226678Y36788000D01*
X14102595Y36788000D01*
X14065706Y36857014D01*
X13880134Y37083134D01*
X13816663Y37135223D01*
X13918386Y37189595D01*
X14052962Y37300038D01*
X14163405Y37434614D01*
X14245472Y37588150D01*
X14296008Y37754746D01*
X14313072Y37928000D01*
X14313072Y39128000D01*
X14296008Y39301254D01*
X14245472Y39467850D01*
X14163405Y39621386D01*
X14052962Y39755962D01*
X13918386Y39866405D01*
X13764850Y39948472D01*
X13598254Y39999008D01*
X13425000Y40016072D01*
X11975000Y40016072D01*
X11935000Y40012132D01*
X11935000Y40249637D01*
X11887540Y40488236D01*
X11794443Y40712992D01*
X11659287Y40915267D01*
X11487267Y41087287D01*
X11284992Y41222443D01*
X11060236Y41315540D01*
X10821637Y41363000D01*
X10578363Y41363000D01*
X10339764Y41315540D01*
X10115008Y41222443D01*
X9912733Y41087287D01*
X9740713Y40915267D01*
X9605557Y40712992D01*
X9512460Y40488236D01*
X9465000Y40249637D01*
X9465000Y40006363D01*
X9512460Y39767764D01*
X9605557Y39543008D01*
X9740713Y39340733D01*
X9912733Y39168713D01*
X10115008Y39033557D01*
X10339764Y38940460D01*
X10578363Y38893000D01*
X10821637Y38893000D01*
X11060236Y38940460D01*
X11086928Y38951516D01*
X11086928Y37928000D01*
X11103992Y37754746D01*
X11154528Y37588150D01*
X11236595Y37434614D01*
X11347038Y37300038D01*
X11481614Y37189595D01*
X11583337Y37135223D01*
X11519866Y37083134D01*
X11334294Y36857014D01*
X11196401Y36599034D01*
X11111487Y36319111D01*
X11082815Y36028000D01*
X11111487Y35736889D01*
X11196401Y35456966D01*
X11334294Y35198986D01*
X11519866Y34972866D01*
X11745986Y34787294D01*
X11763374Y34778000D01*
X11745986Y34768706D01*
X11519866Y34583134D01*
X11334294Y34357014D01*
X11196401Y34099034D01*
X11111487Y33819111D01*
X11082815Y33528000D01*
X11111487Y33236889D01*
X11196401Y32956966D01*
X11334294Y32698986D01*
X11519866Y32472866D01*
X11745986Y32287294D01*
X11763374Y32278000D01*
X11745986Y32268706D01*
X11519866Y32083134D01*
X11334294Y31857014D01*
X11196401Y31599034D01*
X11111487Y31319111D01*
X11082815Y31028000D01*
X11111487Y30736889D01*
X11163629Y30564999D01*
X7221544Y30564999D01*
X7275000Y30833740D01*
X7275000Y31126260D01*
X7217932Y31413158D01*
X7105990Y31683411D01*
X6943475Y31926632D01*
X6736632Y32133475D01*
X6562240Y32250000D01*
X6736632Y32366525D01*
X6943475Y32573368D01*
X7105990Y32816589D01*
X7217932Y33086842D01*
X7275000Y33373740D01*
X7275000Y33666260D01*
X7217932Y33953158D01*
X7105990Y34223411D01*
X6943475Y34466632D01*
X6736632Y34673475D01*
X6562240Y34790000D01*
X6736632Y34906525D01*
X6943475Y35113368D01*
X7105990Y35356589D01*
X7217932Y35626842D01*
X7275000Y35913740D01*
X7275000Y36206260D01*
X7217932Y36493158D01*
X7105990Y36763411D01*
X6943475Y37006632D01*
X6736632Y37213475D01*
X6562240Y37330000D01*
X6736632Y37446525D01*
X6943475Y37653368D01*
X7105990Y37896589D01*
X7217932Y38166842D01*
X7275000Y38453740D01*
X7275000Y38746260D01*
X7217932Y39033158D01*
X7105990Y39303411D01*
X6943475Y39546632D01*
X6736632Y39753475D01*
X6554466Y39875195D01*
X6671355Y39944822D01*
X6887588Y40139731D01*
X7061641Y40373080D01*
X7186825Y40635901D01*
X7231476Y40783110D01*
X7110155Y41013000D01*
X5917000Y41013000D01*
X5917000Y40993000D01*
X5663000Y40993000D01*
X5663000Y41013000D01*
X5643000Y41013000D01*
X5643000Y41267000D01*
X5663000Y41267000D01*
X5663000Y41287000D01*
X5917000Y41287000D01*
X5917000Y41267000D01*
X7110155Y41267000D01*
X7231476Y41496890D01*
X7186825Y41644099D01*
X7120665Y41783000D01*
X56515000Y41783000D01*
X56515000Y13209000D01*
X56298363Y13209000D01*
X56059764Y13161540D01*
X55835008Y13068443D01*
X55632733Y12933287D01*
X55460713Y12761267D01*
X55325557Y12558992D01*
X55232460Y12334236D01*
X55185000Y12095637D01*
X55185000Y11852363D01*
X55232460Y11613764D01*
X55325557Y11389008D01*
X55460713Y11186733D01*
X55632733Y11014713D01*
X55835008Y10879557D01*
X56059764Y10786460D01*
X56298363Y10739000D01*
X56515000Y10739000D01*
X56515000Y8890000D01*
X56527201Y8766118D01*
X56563336Y8646996D01*
X56622017Y8537213D01*
X56700987Y8440987D01*
X56797213Y8362017D01*
X56861234Y8327797D01*
X56830446Y8243261D01*
X56828524Y8230890D01*
X56949845Y8001000D01*
X58293000Y8001000D01*
X58293000Y8021000D01*
X58547000Y8021000D01*
X58547000Y8001000D01*
X59890155Y8001000D01*
X60011476Y8230890D01*
X60009554Y8243261D01*
X60005279Y8255000D01*
X60198000Y8255000D01*
X60321882Y8267201D01*
X60441004Y8303336D01*
X60550787Y8362017D01*
X60647013Y8440987D01*
X60725983Y8537213D01*
X60784664Y8646996D01*
X60820799Y8766118D01*
X60833000Y8890000D01*
X60833000Y45212000D01*
X60820799Y45335882D01*
X60784664Y45455004D01*
X60725983Y45564787D01*
X60647013Y45661013D01*
X60550787Y45739983D01*
X60441004Y45798664D01*
X60321882Y45834799D01*
X60198000Y45847000D01*
X57150000Y45847000D01*
X57026118Y45834799D01*
X56906996Y45798664D01*
X56797213Y45739983D01*
X56700987Y45661013D01*
X56644934Y45592711D01*
X56642000Y45593000D01*
X7137640Y45593000D01*
X7217932Y45786842D01*
X7275000Y46073740D01*
X7275000Y46366260D01*
X7217932Y46653158D01*
X7105990Y46923411D01*
X6943475Y47166632D01*
X6736632Y47373475D01*
X6562240Y47490000D01*
X6736632Y47606525D01*
X6943475Y47813368D01*
X7105990Y48056589D01*
X7217932Y48326842D01*
X7275000Y48613740D01*
X7275000Y48906260D01*
X7217932Y49193158D01*
X7105990Y49463411D01*
X6943475Y49706632D01*
X6736632Y49913475D01*
X6493411Y50075990D01*
X6223158Y50187932D01*
X5936260Y50245000D01*
X5643740Y50245000D01*
X5356842Y50187932D01*
X5086589Y50075990D01*
X4843368Y49913475D01*
X4711513Y49781620D01*
X4689502Y49854180D01*
X4630537Y49964494D01*
X4551185Y50061185D01*
X4454494Y50140537D01*
X4344180Y50199502D01*
X4224482Y50235812D01*
X4100000Y50248072D01*
X2400000Y50248072D01*
X2275518Y50235812D01*
X2155820Y50199502D01*
X2045506Y50140537D01*
X1948815Y50061185D01*
X1869463Y49964494D01*
X1810498Y49854180D01*
X1774188Y49734482D01*
X1761928Y49610000D01*
X1397000Y49610000D01*
X1397000Y52810340D01*
X8531316Y52810340D01*
X8531316Y52349660D01*
X8621190Y51897831D01*
X8797485Y51472218D01*
X9053425Y51089176D01*
X9379176Y50763425D01*
X9762218Y50507485D01*
X10187831Y50331190D01*
X10639660Y50241316D01*
X11100340Y50241316D01*
X11552169Y50331190D01*
X11977782Y50507485D01*
X12360824Y50763425D01*
X12686575Y51089176D01*
X12942515Y51472218D01*
X13118810Y51897831D01*
X13208684Y52349660D01*
X13208684Y52810340D01*
X13118810Y53262169D01*
X12942515Y53687782D01*
X12686575Y54070824D01*
X12360824Y54396575D01*
X11977782Y54652515D01*
X11552169Y54828810D01*
X11100340Y54918684D01*
X10639660Y54918684D01*
X10187831Y54828810D01*
X9762218Y54652515D01*
X9379176Y54396575D01*
X9053425Y54070824D01*
X8797485Y53687782D01*
X8621190Y53262169D01*
X8531316Y52810340D01*
X1397000Y52810340D01*
X1397000Y55753000D01*
X18923000Y55753000D01*
X18923000Y48260000D01*
G37*
G04 #@! TD.AperFunction*
G04 #@! TD*
D18*
G04 #@! TO.N,V_IN*
X60071000Y9017000D02*
X59803174Y9017000D01*
X59871185Y9072815D01*
X59950537Y9169506D01*
X60009502Y9279820D01*
X60045812Y9399518D01*
X60058072Y9524000D01*
X60055000Y10088250D01*
X59896250Y10247000D01*
X58547000Y10247000D01*
X58547000Y10227000D01*
X58293000Y10227000D01*
X58293000Y10247000D01*
X58273000Y10247000D01*
X58273000Y10501000D01*
X58293000Y10501000D01*
X58293000Y11700250D01*
X58547000Y11700250D01*
X58547000Y10501000D01*
X59896250Y10501000D01*
X60055000Y10659750D01*
X60058072Y11224000D01*
X60045812Y11348482D01*
X60009502Y11468180D01*
X59950537Y11578494D01*
X59871185Y11675185D01*
X59774494Y11754537D01*
X59664180Y11813502D01*
X59544482Y11849812D01*
X59420000Y11862072D01*
X58705750Y11859000D01*
X58547000Y11700250D01*
X58293000Y11700250D01*
X58134250Y11859000D01*
X57655000Y11861061D01*
X57655000Y12095637D01*
X57607540Y12334236D01*
X57514443Y12558992D01*
X57379287Y12761267D01*
X57277000Y12863554D01*
X57277000Y42260306D01*
X57319502Y42339820D01*
X57343966Y42420466D01*
X57419731Y42336412D01*
X57653080Y42162359D01*
X57915901Y42037175D01*
X58063110Y41992524D01*
X58293000Y42113845D01*
X58293000Y43307000D01*
X58547000Y43307000D01*
X58547000Y42113845D01*
X58776890Y41992524D01*
X58924099Y42037175D01*
X59186920Y42162359D01*
X59420269Y42336412D01*
X59615178Y42552645D01*
X59764157Y42802748D01*
X59861481Y43077109D01*
X59740814Y43307000D01*
X58547000Y43307000D01*
X58293000Y43307000D01*
X58273000Y43307000D01*
X58273000Y43561000D01*
X58293000Y43561000D01*
X58293000Y44754155D01*
X58547000Y44754155D01*
X58547000Y43561000D01*
X59740814Y43561000D01*
X59861481Y43790891D01*
X59764157Y44065252D01*
X59615178Y44315355D01*
X59420269Y44531588D01*
X59186920Y44705641D01*
X58924099Y44830825D01*
X58776890Y44875476D01*
X58547000Y44754155D01*
X58293000Y44754155D01*
X58063110Y44875476D01*
X57915901Y44830825D01*
X57653080Y44705641D01*
X57419731Y44531588D01*
X57343966Y44447534D01*
X57319502Y44528180D01*
X57277000Y44607694D01*
X57277000Y45085000D01*
X60071000Y45085000D01*
X60071000Y9017000D01*
G04 #@! TA.AperFunction,Conductor*
D19*
G36*
X60071000Y9017000D02*
G01*
X59803174Y9017000D01*
X59871185Y9072815D01*
X59950537Y9169506D01*
X60009502Y9279820D01*
X60045812Y9399518D01*
X60058072Y9524000D01*
X60055000Y10088250D01*
X59896250Y10247000D01*
X58547000Y10247000D01*
X58547000Y10227000D01*
X58293000Y10227000D01*
X58293000Y10247000D01*
X58273000Y10247000D01*
X58273000Y10501000D01*
X58293000Y10501000D01*
X58293000Y11700250D01*
X58547000Y11700250D01*
X58547000Y10501000D01*
X59896250Y10501000D01*
X60055000Y10659750D01*
X60058072Y11224000D01*
X60045812Y11348482D01*
X60009502Y11468180D01*
X59950537Y11578494D01*
X59871185Y11675185D01*
X59774494Y11754537D01*
X59664180Y11813502D01*
X59544482Y11849812D01*
X59420000Y11862072D01*
X58705750Y11859000D01*
X58547000Y11700250D01*
X58293000Y11700250D01*
X58134250Y11859000D01*
X57655000Y11861061D01*
X57655000Y12095637D01*
X57607540Y12334236D01*
X57514443Y12558992D01*
X57379287Y12761267D01*
X57277000Y12863554D01*
X57277000Y42260306D01*
X57319502Y42339820D01*
X57343966Y42420466D01*
X57419731Y42336412D01*
X57653080Y42162359D01*
X57915901Y42037175D01*
X58063110Y41992524D01*
X58293000Y42113845D01*
X58293000Y43307000D01*
X58547000Y43307000D01*
X58547000Y42113845D01*
X58776890Y41992524D01*
X58924099Y42037175D01*
X59186920Y42162359D01*
X59420269Y42336412D01*
X59615178Y42552645D01*
X59764157Y42802748D01*
X59861481Y43077109D01*
X59740814Y43307000D01*
X58547000Y43307000D01*
X58293000Y43307000D01*
X58273000Y43307000D01*
X58273000Y43561000D01*
X58293000Y43561000D01*
X58293000Y44754155D01*
X58547000Y44754155D01*
X58547000Y43561000D01*
X59740814Y43561000D01*
X59861481Y43790891D01*
X59764157Y44065252D01*
X59615178Y44315355D01*
X59420269Y44531588D01*
X59186920Y44705641D01*
X58924099Y44830825D01*
X58776890Y44875476D01*
X58547000Y44754155D01*
X58293000Y44754155D01*
X58063110Y44875476D01*
X57915901Y44830825D01*
X57653080Y44705641D01*
X57419731Y44531588D01*
X57343966Y44447534D01*
X57319502Y44528180D01*
X57277000Y44607694D01*
X57277000Y45085000D01*
X60071000Y45085000D01*
X60071000Y9017000D01*
G37*
G04 #@! TD.AperFunction*
G04 #@! TD*
D18*
G04 #@! TO.N,E5V*
X54675506Y44814537D02*
X54578815Y44735185D01*
X54499463Y44638494D01*
X54440498Y44528180D01*
X54404188Y44408482D01*
X54391928Y44284000D01*
X54395000Y43719750D01*
X54553750Y43561000D01*
X55753000Y43561000D01*
X55753000Y43581000D01*
X56007000Y43581000D01*
X56007000Y43561000D01*
X56027000Y43561000D01*
X56027000Y43307000D01*
X56007000Y43307000D01*
X56007000Y43287000D01*
X55753000Y43287000D01*
X55753000Y43307000D01*
X54553750Y43307000D01*
X54395000Y43148250D01*
X54391928Y42584000D01*
X54395769Y42545000D01*
X6738117Y42545000D01*
X6887588Y42679731D01*
X7061641Y42913080D01*
X7186825Y43175901D01*
X7231476Y43323110D01*
X7110155Y43553000D01*
X5917000Y43553000D01*
X5917000Y43533000D01*
X5663000Y43533000D01*
X5663000Y43553000D01*
X5643000Y43553000D01*
X5643000Y43807000D01*
X5663000Y43807000D01*
X5663000Y43827000D01*
X5917000Y43827000D01*
X5917000Y43807000D01*
X7110155Y43807000D01*
X7231476Y44036890D01*
X7186825Y44184099D01*
X7061641Y44446920D01*
X6887588Y44680269D01*
X6720366Y44831000D01*
X54706306Y44831000D01*
X54675506Y44814537D01*
G04 #@! TA.AperFunction,Conductor*
D19*
G36*
X54675506Y44814537D02*
G01*
X54578815Y44735185D01*
X54499463Y44638494D01*
X54440498Y44528180D01*
X54404188Y44408482D01*
X54391928Y44284000D01*
X54395000Y43719750D01*
X54553750Y43561000D01*
X55753000Y43561000D01*
X55753000Y43581000D01*
X56007000Y43581000D01*
X56007000Y43561000D01*
X56027000Y43561000D01*
X56027000Y43307000D01*
X56007000Y43307000D01*
X56007000Y43287000D01*
X55753000Y43287000D01*
X55753000Y43307000D01*
X54553750Y43307000D01*
X54395000Y43148250D01*
X54391928Y42584000D01*
X54395769Y42545000D01*
X6738117Y42545000D01*
X6887588Y42679731D01*
X7061641Y42913080D01*
X7186825Y43175901D01*
X7231476Y43323110D01*
X7110155Y43553000D01*
X5917000Y43553000D01*
X5917000Y43533000D01*
X5663000Y43533000D01*
X5663000Y43553000D01*
X5643000Y43553000D01*
X5643000Y43807000D01*
X5663000Y43807000D01*
X5663000Y43827000D01*
X5917000Y43827000D01*
X5917000Y43807000D01*
X7110155Y43807000D01*
X7231476Y44036890D01*
X7186825Y44184099D01*
X7061641Y44446920D01*
X6887588Y44680269D01*
X6720366Y44831000D01*
X54706306Y44831000D01*
X54675506Y44814537D01*
G37*
G04 #@! TD.AperFunction*
G04 #@! TD*
D18*
G04 #@! TO.N,+3V3*
X48387000Y12573000D02*
X40259000Y12573000D01*
X40259000Y22352000D01*
X40256560Y22376776D01*
X40249333Y22400601D01*
X40237597Y22422557D01*
X40221803Y22441803D01*
X40202557Y22457597D01*
X40180601Y22469333D01*
X40156776Y22476560D01*
X40132000Y22479000D01*
X22860000Y22479000D01*
X22835224Y22476560D01*
X22811399Y22469333D01*
X22789443Y22457597D01*
X22770197Y22441803D01*
X22754403Y22422557D01*
X22742667Y22400601D01*
X22735440Y22376776D01*
X22733000Y22352000D01*
X22733000Y4953000D01*
X17480438Y4953000D01*
X17463188Y4967157D01*
X17254972Y5078451D01*
X17311724Y5100032D01*
X17543634Y5245342D01*
X17742740Y5433103D01*
X17901390Y5656100D01*
X18013487Y5905764D01*
X18032318Y6008815D01*
X17909656Y6223000D01*
X16567000Y6223000D01*
X16567000Y6203000D01*
X16313000Y6203000D01*
X16313000Y6223000D01*
X16293000Y6223000D01*
X16293000Y6477000D01*
X16313000Y6477000D01*
X16313000Y7581873D01*
X16261083Y7620000D01*
X16313000Y7658127D01*
X16313000Y8763000D01*
X16567000Y8763000D01*
X16567000Y7658127D01*
X16618917Y7620000D01*
X16567000Y7581873D01*
X16567000Y6477000D01*
X17909656Y6477000D01*
X18032318Y6691185D01*
X18013487Y6794236D01*
X17901390Y7043900D01*
X17742740Y7266897D01*
X17543634Y7454658D01*
X17311724Y7599968D01*
X17259046Y7620000D01*
X17311724Y7640032D01*
X17543634Y7785342D01*
X17742740Y7973103D01*
X17901390Y8196100D01*
X18013487Y8445764D01*
X18032318Y8548815D01*
X17909656Y8763000D01*
X16567000Y8763000D01*
X16313000Y8763000D01*
X16293000Y8763000D01*
X16293000Y9017000D01*
X16313000Y9017000D01*
X16313000Y9037000D01*
X16567000Y9037000D01*
X16567000Y9017000D01*
X17909656Y9017000D01*
X18032318Y9231185D01*
X18013487Y9334236D01*
X17901390Y9583900D01*
X17742740Y9806897D01*
X17543634Y9994658D01*
X17482441Y10033000D01*
X19812000Y10033000D01*
X19836776Y10035440D01*
X19860601Y10042667D01*
X19882557Y10054403D01*
X19901803Y10070197D01*
X19917597Y10089443D01*
X19929333Y10111399D01*
X19936560Y10135224D01*
X19939000Y10160000D01*
X19939000Y25273000D01*
X48387000Y25273000D01*
X48387000Y12573000D01*
G04 #@! TA.AperFunction,Conductor*
D19*
G36*
X48387000Y12573000D02*
G01*
X40259000Y12573000D01*
X40259000Y22352000D01*
X40256560Y22376776D01*
X40249333Y22400601D01*
X40237597Y22422557D01*
X40221803Y22441803D01*
X40202557Y22457597D01*
X40180601Y22469333D01*
X40156776Y22476560D01*
X40132000Y22479000D01*
X22860000Y22479000D01*
X22835224Y22476560D01*
X22811399Y22469333D01*
X22789443Y22457597D01*
X22770197Y22441803D01*
X22754403Y22422557D01*
X22742667Y22400601D01*
X22735440Y22376776D01*
X22733000Y22352000D01*
X22733000Y4953000D01*
X17480438Y4953000D01*
X17463188Y4967157D01*
X17254972Y5078451D01*
X17311724Y5100032D01*
X17543634Y5245342D01*
X17742740Y5433103D01*
X17901390Y5656100D01*
X18013487Y5905764D01*
X18032318Y6008815D01*
X17909656Y6223000D01*
X16567000Y6223000D01*
X16567000Y6203000D01*
X16313000Y6203000D01*
X16313000Y6223000D01*
X16293000Y6223000D01*
X16293000Y6477000D01*
X16313000Y6477000D01*
X16313000Y7581873D01*
X16261083Y7620000D01*
X16313000Y7658127D01*
X16313000Y8763000D01*
X16567000Y8763000D01*
X16567000Y7658127D01*
X16618917Y7620000D01*
X16567000Y7581873D01*
X16567000Y6477000D01*
X17909656Y6477000D01*
X18032318Y6691185D01*
X18013487Y6794236D01*
X17901390Y7043900D01*
X17742740Y7266897D01*
X17543634Y7454658D01*
X17311724Y7599968D01*
X17259046Y7620000D01*
X17311724Y7640032D01*
X17543634Y7785342D01*
X17742740Y7973103D01*
X17901390Y8196100D01*
X18013487Y8445764D01*
X18032318Y8548815D01*
X17909656Y8763000D01*
X16567000Y8763000D01*
X16313000Y8763000D01*
X16293000Y8763000D01*
X16293000Y9017000D01*
X16313000Y9017000D01*
X16313000Y9037000D01*
X16567000Y9037000D01*
X16567000Y9017000D01*
X17909656Y9017000D01*
X18032318Y9231185D01*
X18013487Y9334236D01*
X17901390Y9583900D01*
X17742740Y9806897D01*
X17543634Y9994658D01*
X17482441Y10033000D01*
X19812000Y10033000D01*
X19836776Y10035440D01*
X19860601Y10042667D01*
X19882557Y10054403D01*
X19901803Y10070197D01*
X19917597Y10089443D01*
X19929333Y10111399D01*
X19936560Y10135224D01*
X19939000Y10160000D01*
X19939000Y25273000D01*
X48387000Y25273000D01*
X48387000Y12573000D01*
G37*
G04 #@! TD.AperFunction*
G04 #@! TD*
M02*
