G04 #@! TF.GenerationSoftware,KiCad,Pcbnew,(5.1.10)-1*
G04 #@! TF.CreationDate,2021-07-06T11:56:46+05:30*
G04 #@! TF.ProjectId,STM_Morpho,53544d5f-4d6f-4727-9068-6f2e6b696361,rev?*
G04 #@! TF.SameCoordinates,PX7bfa480PY7270e00*
G04 #@! TF.FileFunction,Legend,Top*
G04 #@! TF.FilePolarity,Positive*
%FSLAX46Y46*%
G04 Gerber Fmt 4.6, Leading zero omitted, Abs format (unit mm)*
G04 Created by KiCad (PCBNEW (5.1.10)-1) date 2021-07-06 11:56:46*
%MOMM*%
%LPD*%
G01*
G04 APERTURE LIST*
%ADD10C,0.200000*%
%ADD11C,0.120000*%
G04 APERTURE END LIST*
D10*
X52792571Y27979620D02*
X52792571Y27170096D01*
X52840190Y27074858D01*
X52887809Y27027239D01*
X52983047Y26979620D01*
X53173523Y26979620D01*
X53268761Y27027239D01*
X53316380Y27074858D01*
X53364000Y27170096D01*
X53364000Y27979620D01*
X53792571Y27265334D02*
X54268761Y27265334D01*
X53697333Y26979620D02*
X54030666Y27979620D01*
X54364000Y26979620D01*
X55268761Y26979620D02*
X54935428Y27455810D01*
X54697333Y26979620D02*
X54697333Y27979620D01*
X55078285Y27979620D01*
X55173523Y27932000D01*
X55221142Y27884381D01*
X55268761Y27789143D01*
X55268761Y27646286D01*
X55221142Y27551048D01*
X55173523Y27503429D01*
X55078285Y27455810D01*
X54697333Y27455810D01*
X55554476Y27979620D02*
X56125904Y27979620D01*
X55840190Y26979620D02*
X55840190Y27979620D01*
X56364000Y27979620D02*
X56983047Y27979620D01*
X56649714Y27598667D01*
X56792571Y27598667D01*
X56887809Y27551048D01*
X56935428Y27503429D01*
X56983047Y27408191D01*
X56983047Y27170096D01*
X56935428Y27074858D01*
X56887809Y27027239D01*
X56792571Y26979620D01*
X56506857Y26979620D01*
X56411619Y27027239D01*
X56364000Y27074858D01*
X46950571Y27979620D02*
X46950571Y27170096D01*
X46998190Y27074858D01*
X47045809Y27027239D01*
X47141047Y26979620D01*
X47331523Y26979620D01*
X47426761Y27027239D01*
X47474380Y27074858D01*
X47522000Y27170096D01*
X47522000Y27979620D01*
X47950571Y27265334D02*
X48426761Y27265334D01*
X47855333Y26979620D02*
X48188666Y27979620D01*
X48522000Y26979620D01*
X49426761Y26979620D02*
X49093428Y27455810D01*
X48855333Y26979620D02*
X48855333Y27979620D01*
X49236285Y27979620D01*
X49331523Y27932000D01*
X49379142Y27884381D01*
X49426761Y27789143D01*
X49426761Y27646286D01*
X49379142Y27551048D01*
X49331523Y27503429D01*
X49236285Y27455810D01*
X48855333Y27455810D01*
X49712476Y27979620D02*
X50283904Y27979620D01*
X49998190Y26979620D02*
X49998190Y27979620D01*
X51141047Y26979620D02*
X50569619Y26979620D01*
X50855333Y26979620D02*
X50855333Y27979620D01*
X50760095Y27836762D01*
X50664857Y27741524D01*
X50569619Y27693905D01*
X61666428Y7239048D02*
X61666428Y8000953D01*
X61214047Y10088572D02*
X61975952Y10088572D01*
X61595000Y9707620D02*
X61595000Y10469524D01*
X53705428Y13644572D02*
X54467333Y13644572D01*
X54086380Y13263620D02*
X54086380Y14025524D01*
X55419714Y14263620D02*
X54943523Y14263620D01*
X54895904Y13787429D01*
X54943523Y13835048D01*
X55038761Y13882667D01*
X55276857Y13882667D01*
X55372095Y13835048D01*
X55419714Y13787429D01*
X55467333Y13692191D01*
X55467333Y13454096D01*
X55419714Y13358858D01*
X55372095Y13311239D01*
X55276857Y13263620D01*
X55038761Y13263620D01*
X54943523Y13311239D01*
X54895904Y13358858D01*
X55753047Y14263620D02*
X56086380Y13263620D01*
X56419714Y14263620D01*
X56514952Y13168381D02*
X57276857Y13168381D01*
X57514952Y13263620D02*
X57514952Y14263620D01*
X57991142Y13263620D02*
X57991142Y14263620D01*
X58562571Y13263620D01*
X58562571Y14263620D01*
X25320952Y3452858D02*
X25273333Y3405239D01*
X25130476Y3357620D01*
X25035238Y3357620D01*
X24892380Y3405239D01*
X24797142Y3500477D01*
X24749523Y3595715D01*
X24701904Y3786191D01*
X24701904Y3929048D01*
X24749523Y4119524D01*
X24797142Y4214762D01*
X24892380Y4310000D01*
X25035238Y4357620D01*
X25130476Y4357620D01*
X25273333Y4310000D01*
X25320952Y4262381D01*
X25701904Y3643334D02*
X26178095Y3643334D01*
X25606666Y3357620D02*
X25940000Y4357620D01*
X26273333Y3357620D01*
X26940000Y3881429D02*
X27082857Y3833810D01*
X27130476Y3786191D01*
X27178095Y3690953D01*
X27178095Y3548096D01*
X27130476Y3452858D01*
X27082857Y3405239D01*
X26987619Y3357620D01*
X26606666Y3357620D01*
X26606666Y4357620D01*
X26940000Y4357620D01*
X27035238Y4310000D01*
X27082857Y4262381D01*
X27130476Y4167143D01*
X27130476Y4071905D01*
X27082857Y3976667D01*
X27035238Y3929048D01*
X26940000Y3881429D01*
X26606666Y3881429D01*
X28082857Y3357620D02*
X27606666Y3357620D01*
X27606666Y4357620D01*
X28416190Y3881429D02*
X28749523Y3881429D01*
X28892380Y3357620D02*
X28416190Y3357620D01*
X28416190Y4357620D01*
X28892380Y4357620D01*
X30082857Y3357620D02*
X30082857Y4357620D01*
X30559047Y3357620D02*
X30559047Y4357620D01*
X31130476Y3357620D01*
X31130476Y4357620D01*
X43251428Y33091429D02*
X43394285Y33043810D01*
X43441904Y32996191D01*
X43489523Y32900953D01*
X43489523Y32758096D01*
X43441904Y32662858D01*
X43394285Y32615239D01*
X43299047Y32567620D01*
X42918095Y32567620D01*
X42918095Y33567620D01*
X43251428Y33567620D01*
X43346666Y33520000D01*
X43394285Y33472381D01*
X43441904Y33377143D01*
X43441904Y33281905D01*
X43394285Y33186667D01*
X43346666Y33139048D01*
X43251428Y33091429D01*
X42918095Y33091429D01*
X40401904Y32853334D02*
X40878095Y32853334D01*
X40306666Y32567620D02*
X40640000Y33567620D01*
X40973333Y32567620D01*
X29281428Y33091429D02*
X29424285Y33043810D01*
X29471904Y32996191D01*
X29519523Y32900953D01*
X29519523Y32758096D01*
X29471904Y32662858D01*
X29424285Y32615239D01*
X29329047Y32567620D01*
X28948095Y32567620D01*
X28948095Y33567620D01*
X29281428Y33567620D01*
X29376666Y33520000D01*
X29424285Y33472381D01*
X29471904Y33377143D01*
X29471904Y33281905D01*
X29424285Y33186667D01*
X29376666Y33139048D01*
X29281428Y33091429D01*
X28948095Y33091429D01*
X26431904Y32853334D02*
X26908095Y32853334D01*
X26336666Y32567620D02*
X26670000Y33567620D01*
X27003333Y32567620D01*
X16256095Y28948000D02*
X16160857Y28995620D01*
X16018000Y28995620D01*
X15875142Y28948000D01*
X15779904Y28852762D01*
X15732285Y28757524D01*
X15684666Y28567048D01*
X15684666Y28424191D01*
X15732285Y28233715D01*
X15779904Y28138477D01*
X15875142Y28043239D01*
X16018000Y27995620D01*
X16113238Y27995620D01*
X16256095Y28043239D01*
X16303714Y28090858D01*
X16303714Y28424191D01*
X16113238Y28424191D01*
X16732285Y27995620D02*
X16732285Y28995620D01*
X17303714Y27995620D01*
X17303714Y28995620D01*
X17779904Y27995620D02*
X17779904Y28995620D01*
X18018000Y28995620D01*
X18160857Y28948000D01*
X18256095Y28852762D01*
X18303714Y28757524D01*
X18351333Y28567048D01*
X18351333Y28424191D01*
X18303714Y28233715D01*
X18256095Y28138477D01*
X18160857Y28043239D01*
X18018000Y27995620D01*
X17779904Y27995620D01*
X16343333Y30630858D02*
X16295714Y30583239D01*
X16152857Y30535620D01*
X16057619Y30535620D01*
X15914761Y30583239D01*
X15819523Y30678477D01*
X15771904Y30773715D01*
X15724285Y30964191D01*
X15724285Y31107048D01*
X15771904Y31297524D01*
X15819523Y31392762D01*
X15914761Y31488000D01*
X16057619Y31535620D01*
X16152857Y31535620D01*
X16295714Y31488000D01*
X16343333Y31440381D01*
X16724285Y30583239D02*
X16867142Y30535620D01*
X17105238Y30535620D01*
X17200476Y30583239D01*
X17248095Y30630858D01*
X17295714Y30726096D01*
X17295714Y30821334D01*
X17248095Y30916572D01*
X17200476Y30964191D01*
X17105238Y31011810D01*
X16914761Y31059429D01*
X16819523Y31107048D01*
X16771904Y31154667D01*
X16724285Y31249905D01*
X16724285Y31345143D01*
X16771904Y31440381D01*
X16819523Y31488000D01*
X16914761Y31535620D01*
X17152857Y31535620D01*
X17295714Y31488000D01*
X15581523Y33123239D02*
X15724380Y33075620D01*
X15962476Y33075620D01*
X16057714Y33123239D01*
X16105333Y33170858D01*
X16152952Y33266096D01*
X16152952Y33361334D01*
X16105333Y33456572D01*
X16057714Y33504191D01*
X15962476Y33551810D01*
X15772000Y33599429D01*
X15676761Y33647048D01*
X15629142Y33694667D01*
X15581523Y33789905D01*
X15581523Y33885143D01*
X15629142Y33980381D01*
X15676761Y34028000D01*
X15772000Y34075620D01*
X16010095Y34075620D01*
X16152952Y34028000D01*
X17152952Y33170858D02*
X17105333Y33123239D01*
X16962476Y33075620D01*
X16867238Y33075620D01*
X16724380Y33123239D01*
X16629142Y33218477D01*
X16581523Y33313715D01*
X16533904Y33504191D01*
X16533904Y33647048D01*
X16581523Y33837524D01*
X16629142Y33932762D01*
X16724380Y34028000D01*
X16867238Y34075620D01*
X16962476Y34075620D01*
X17105333Y34028000D01*
X17152952Y33980381D01*
X18057714Y33075620D02*
X17581523Y33075620D01*
X17581523Y34075620D01*
X18391047Y33075620D02*
X18391047Y34075620D01*
X18962476Y33075620D02*
X18533904Y33647048D01*
X18962476Y34075620D02*
X18391047Y33504191D01*
X15573571Y35488620D02*
X15573571Y36488620D01*
X15906904Y35774334D01*
X16240238Y36488620D01*
X16240238Y35488620D01*
X16716428Y35488620D02*
X16716428Y36488620D01*
X17145000Y35536239D02*
X17287857Y35488620D01*
X17525952Y35488620D01*
X17621190Y35536239D01*
X17668809Y35583858D01*
X17716428Y35679096D01*
X17716428Y35774334D01*
X17668809Y35869572D01*
X17621190Y35917191D01*
X17525952Y35964810D01*
X17335476Y36012429D01*
X17240238Y36060048D01*
X17192619Y36107667D01*
X17145000Y36202905D01*
X17145000Y36298143D01*
X17192619Y36393381D01*
X17240238Y36441000D01*
X17335476Y36488620D01*
X17573571Y36488620D01*
X17716428Y36441000D01*
X18335476Y36488620D02*
X18525952Y36488620D01*
X18621190Y36441000D01*
X18716428Y36345762D01*
X18764047Y36155286D01*
X18764047Y35821953D01*
X18716428Y35631477D01*
X18621190Y35536239D01*
X18525952Y35488620D01*
X18335476Y35488620D01*
X18240238Y35536239D01*
X18145000Y35631477D01*
X18097380Y35821953D01*
X18097380Y36155286D01*
X18145000Y36345762D01*
X18240238Y36441000D01*
X18335476Y36488620D01*
X15573571Y38155620D02*
X15573571Y39155620D01*
X15906904Y38441334D01*
X16240238Y39155620D01*
X16240238Y38155620D01*
X16906904Y39155620D02*
X17097380Y39155620D01*
X17192619Y39108000D01*
X17287857Y39012762D01*
X17335476Y38822286D01*
X17335476Y38488953D01*
X17287857Y38298477D01*
X17192619Y38203239D01*
X17097380Y38155620D01*
X16906904Y38155620D01*
X16811666Y38203239D01*
X16716428Y38298477D01*
X16668809Y38488953D01*
X16668809Y38822286D01*
X16716428Y39012762D01*
X16811666Y39108000D01*
X16906904Y39155620D01*
X17716428Y38203239D02*
X17859285Y38155620D01*
X18097380Y38155620D01*
X18192619Y38203239D01*
X18240238Y38250858D01*
X18287857Y38346096D01*
X18287857Y38441334D01*
X18240238Y38536572D01*
X18192619Y38584191D01*
X18097380Y38631810D01*
X17906904Y38679429D01*
X17811666Y38727048D01*
X17764047Y38774667D01*
X17716428Y38869905D01*
X17716428Y38965143D01*
X17764047Y39060381D01*
X17811666Y39108000D01*
X17906904Y39155620D01*
X18145000Y39155620D01*
X18287857Y39108000D01*
X18716428Y38155620D02*
X18716428Y39155620D01*
X25868571Y47537620D02*
X25868571Y46728096D01*
X25916190Y46632858D01*
X25963809Y46585239D01*
X26059047Y46537620D01*
X26249523Y46537620D01*
X26344761Y46585239D01*
X26392380Y46632858D01*
X26440000Y46728096D01*
X26440000Y47537620D01*
X26868571Y46823334D02*
X27344761Y46823334D01*
X26773333Y46537620D02*
X27106666Y47537620D01*
X27440000Y46537620D01*
X28344761Y46537620D02*
X28011428Y47013810D01*
X27773333Y46537620D02*
X27773333Y47537620D01*
X28154285Y47537620D01*
X28249523Y47490000D01*
X28297142Y47442381D01*
X28344761Y47347143D01*
X28344761Y47204286D01*
X28297142Y47109048D01*
X28249523Y47061429D01*
X28154285Y47013810D01*
X27773333Y47013810D01*
X28630476Y47537620D02*
X29201904Y47537620D01*
X28916190Y46537620D02*
X28916190Y47537620D01*
X29440000Y47537620D02*
X30059047Y47537620D01*
X29725714Y47156667D01*
X29868571Y47156667D01*
X29963809Y47109048D01*
X30011428Y47061429D01*
X30059047Y46966191D01*
X30059047Y46728096D01*
X30011428Y46632858D01*
X29963809Y46585239D01*
X29868571Y46537620D01*
X29582857Y46537620D01*
X29487619Y46585239D01*
X29440000Y46632858D01*
X39838571Y47537620D02*
X39838571Y46728096D01*
X39886190Y46632858D01*
X39933809Y46585239D01*
X40029047Y46537620D01*
X40219523Y46537620D01*
X40314761Y46585239D01*
X40362380Y46632858D01*
X40410000Y46728096D01*
X40410000Y47537620D01*
X40838571Y46823334D02*
X41314761Y46823334D01*
X40743333Y46537620D02*
X41076666Y47537620D01*
X41410000Y46537620D01*
X42314761Y46537620D02*
X41981428Y47013810D01*
X41743333Y46537620D02*
X41743333Y47537620D01*
X42124285Y47537620D01*
X42219523Y47490000D01*
X42267142Y47442381D01*
X42314761Y47347143D01*
X42314761Y47204286D01*
X42267142Y47109048D01*
X42219523Y47061429D01*
X42124285Y47013810D01*
X41743333Y47013810D01*
X42600476Y47537620D02*
X43171904Y47537620D01*
X42886190Y46537620D02*
X42886190Y47537620D01*
X44029047Y46537620D02*
X43457619Y46537620D01*
X43743333Y46537620D02*
X43743333Y47537620D01*
X43648095Y47394762D01*
X43552857Y47299524D01*
X43457619Y47251905D01*
D11*
G04 #@! TO.C,RS485A2*
X31450000Y33460000D02*
X31750000Y34060000D01*
X32050000Y33460000D02*
X31450000Y33460000D01*
X31750000Y34060000D02*
X32050000Y33460000D01*
X24000000Y38760000D02*
X24500000Y38760000D01*
X24000000Y44260000D02*
X24000000Y38760000D01*
X24500000Y44260000D02*
X24000000Y44260000D01*
X24500000Y38760000D02*
X24500000Y44260000D01*
X26500000Y38760000D02*
X27000000Y38760000D01*
X26500000Y44260000D02*
X26500000Y38760000D01*
X27000000Y44260000D02*
X26500000Y44260000D01*
X27000000Y38760000D02*
X27000000Y44260000D01*
X29000000Y38760000D02*
X29500000Y38760000D01*
X29000000Y44260000D02*
X29000000Y38760000D01*
X29500000Y44260000D02*
X29000000Y44260000D01*
X29500000Y38760000D02*
X29500000Y44260000D01*
X31500000Y38760000D02*
X32000000Y38760000D01*
X31500000Y44260000D02*
X31500000Y38760000D01*
X32000000Y44260000D02*
X31500000Y44260000D01*
X32000000Y38760000D02*
X32000000Y44260000D01*
X23110000Y37650000D02*
X28000000Y37650000D01*
X23110000Y33150000D02*
X23110000Y37650000D01*
X21690000Y33150000D02*
X23110000Y33150000D01*
X21690000Y44870000D02*
X21690000Y33150000D01*
X28000000Y44870000D02*
X21690000Y44870000D01*
X32890000Y37650000D02*
X28000000Y37650000D01*
X32890000Y33150000D02*
X32890000Y37650000D01*
X34310000Y33150000D02*
X32890000Y33150000D01*
X34310000Y44870000D02*
X34310000Y33150000D01*
X28000000Y44870000D02*
X34310000Y44870000D01*
G04 #@! TO.C,R5*
X58716936Y535000D02*
X59171064Y535000D01*
X58716936Y2005000D02*
X59171064Y2005000D01*
G04 #@! TO.C,R4*
X55145000Y25135064D02*
X55145000Y24680936D01*
X56615000Y25135064D02*
X56615000Y24680936D01*
G04 #@! TO.C,R3*
X50573000Y25135064D02*
X50573000Y24680936D01*
X52043000Y25135064D02*
X52043000Y24680936D01*
G04 #@! TO.C,R2*
X27532064Y31215000D02*
X27077936Y31215000D01*
X27532064Y29745000D02*
X27077936Y29745000D01*
G04 #@! TO.C,D5*
X57059000Y2596000D02*
X59919000Y2596000D01*
X57059000Y4516000D02*
X57059000Y2596000D01*
X59919000Y4516000D02*
X57059000Y4516000D01*
G04 #@! TO.C,D4*
X52634000Y26743000D02*
X52634000Y23883000D01*
X54554000Y26743000D02*
X52634000Y26743000D01*
X54554000Y23883000D02*
X54554000Y26743000D01*
G04 #@! TO.C,D3*
X48062000Y26743000D02*
X48062000Y23883000D01*
X49982000Y26743000D02*
X48062000Y26743000D01*
X49982000Y23883000D02*
X49982000Y26743000D01*
G04 #@! TO.C,C2*
X22071000Y25392748D02*
X22071000Y25915252D01*
X20601000Y25392748D02*
X20601000Y25915252D01*
G04 #@! TO.C,J3*
X54550000Y42104000D02*
X54550000Y43434000D01*
X55880000Y42104000D02*
X54550000Y42104000D01*
X57150000Y42104000D02*
X57150000Y44764000D01*
X57150000Y44764000D02*
X59750000Y44764000D01*
X57150000Y42104000D02*
X59750000Y42104000D01*
X59750000Y42104000D02*
X59750000Y44764000D01*
G04 #@! TO.C,J1*
X37940000Y2560000D02*
X37940000Y17759999D01*
X37940000Y17759999D02*
X17940000Y17760000D01*
X17940000Y17760000D02*
X17940000Y2560001D01*
X17940000Y2560001D02*
X24606667Y2560000D01*
X24606667Y2560000D02*
X24606667Y2920000D01*
X24606667Y2920000D02*
X31273333Y2920000D01*
X31273333Y2920000D02*
X31273333Y2560000D01*
X31273333Y2560000D02*
X37940000Y2560000D01*
G04 #@! TO.C,SPI1*
X15450000Y41378000D02*
X14200000Y41378000D01*
X15450000Y40128000D02*
X15450000Y41378000D01*
X9950000Y26728000D02*
X9950000Y33528000D01*
X12900000Y26728000D02*
X9950000Y26728000D01*
X12900000Y25978000D02*
X12900000Y26728000D01*
X9950000Y33528000D02*
X9950000Y39268000D01*
X12900000Y40328000D02*
X11560000Y40328000D01*
X12900000Y41078000D02*
X12900000Y40328000D01*
X15150000Y25978000D02*
X15150000Y27778000D01*
X14400000Y25978000D02*
X15150000Y25978000D01*
X14400000Y27778000D02*
X14400000Y25978000D01*
X15150000Y27778000D02*
X14400000Y27778000D01*
X15150000Y39278000D02*
X15150000Y41078000D01*
X14400000Y39278000D02*
X15150000Y39278000D01*
X14400000Y41078000D02*
X14400000Y39278000D01*
X15150000Y41078000D02*
X14400000Y41078000D01*
X15150000Y29278000D02*
X15150000Y37778000D01*
X14400000Y29278000D02*
X15150000Y29278000D01*
X14400000Y37778000D02*
X14400000Y29278000D01*
X15150000Y37778000D02*
X14400000Y37778000D01*
X15160000Y25968000D02*
X15160000Y41088000D01*
X9190000Y25968000D02*
X15160000Y25968000D01*
X9190000Y41088000D02*
X9190000Y25968000D01*
X15160000Y41088000D02*
X9190000Y41088000D01*
G04 #@! TO.C,U1*
X46350000Y12630000D02*
X46350000Y13730000D01*
X46080000Y12630000D02*
X46350000Y12630000D01*
X46080000Y11130000D02*
X46080000Y12630000D01*
X52710000Y12630000D02*
X52710000Y15460000D01*
X52980000Y12630000D02*
X52710000Y12630000D01*
X52980000Y11130000D02*
X52980000Y12630000D01*
G04 #@! TO.C,J2*
X61170000Y13224000D02*
X59920000Y13224000D01*
X61170000Y11974000D02*
X61170000Y13224000D01*
X55670000Y6074000D02*
X55670000Y9124000D01*
X58620000Y6074000D02*
X55670000Y6074000D01*
X58620000Y5324000D02*
X58620000Y6074000D01*
X55670000Y9124000D02*
X55670000Y11114000D01*
X58620000Y12174000D02*
X57280000Y12174000D01*
X58620000Y12924000D02*
X58620000Y12174000D01*
X60870000Y5324000D02*
X60870000Y7124000D01*
X60120000Y5324000D02*
X60870000Y5324000D01*
X60120000Y7124000D02*
X60120000Y5324000D01*
X60870000Y7124000D02*
X60120000Y7124000D01*
X60870000Y11124000D02*
X60870000Y12924000D01*
X60120000Y11124000D02*
X60870000Y11124000D01*
X60120000Y12924000D02*
X60120000Y11124000D01*
X60870000Y12924000D02*
X60120000Y12924000D01*
X60870000Y8624000D02*
X60870000Y9624000D01*
X60120000Y8624000D02*
X60870000Y8624000D01*
X60120000Y9624000D02*
X60120000Y8624000D01*
X60870000Y9624000D02*
X60120000Y9624000D01*
X60880000Y5314000D02*
X60880000Y12934000D01*
X54910000Y5314000D02*
X60880000Y5314000D01*
X54910000Y12934000D02*
X54910000Y5314000D01*
X60880000Y12934000D02*
X54910000Y12934000D01*
G04 #@! TO.C,C4*
X46728748Y17680000D02*
X47251252Y17680000D01*
X46728748Y19150000D02*
X47251252Y19150000D01*
G04 #@! TO.C,C3*
X51808748Y17680000D02*
X52331252Y17680000D01*
X51808748Y19150000D02*
X52331252Y19150000D01*
G04 #@! TO.C,R1*
X41867064Y31215000D02*
X41412936Y31215000D01*
X41867064Y29745000D02*
X41412936Y29745000D01*
G04 #@! TO.C,C1*
X36295000Y25371248D02*
X36295000Y25893752D01*
X34825000Y25371248D02*
X34825000Y25893752D01*
D10*
G04 #@! TO.C,IC1*
X45385000Y22820000D02*
X43860000Y22820000D01*
X43510000Y27850000D02*
X43510000Y22950000D01*
X40310000Y27850000D02*
X43510000Y27850000D01*
X40310000Y22950000D02*
X40310000Y27850000D01*
X43510000Y22950000D02*
X40310000Y22950000D01*
G04 #@! TO.C,IC2*
X29540000Y22950000D02*
X26340000Y22950000D01*
X26340000Y22950000D02*
X26340000Y27850000D01*
X26340000Y27850000D02*
X29540000Y27850000D01*
X29540000Y27850000D02*
X29540000Y22950000D01*
X31415000Y22820000D02*
X29890000Y22820000D01*
D11*
G04 #@! TO.C,RS485A1*
X45420000Y33460000D02*
X45720000Y34060000D01*
X46020000Y33460000D02*
X45420000Y33460000D01*
X45720000Y34060000D02*
X46020000Y33460000D01*
X37970000Y38760000D02*
X38470000Y38760000D01*
X37970000Y44260000D02*
X37970000Y38760000D01*
X38470000Y44260000D02*
X37970000Y44260000D01*
X38470000Y38760000D02*
X38470000Y44260000D01*
X40470000Y38760000D02*
X40970000Y38760000D01*
X40470000Y44260000D02*
X40470000Y38760000D01*
X40970000Y44260000D02*
X40470000Y44260000D01*
X40970000Y38760000D02*
X40970000Y44260000D01*
X42970000Y38760000D02*
X43470000Y38760000D01*
X42970000Y44260000D02*
X42970000Y38760000D01*
X43470000Y44260000D02*
X42970000Y44260000D01*
X43470000Y38760000D02*
X43470000Y44260000D01*
X45470000Y38760000D02*
X45970000Y38760000D01*
X45470000Y44260000D02*
X45470000Y38760000D01*
X45970000Y44260000D02*
X45470000Y44260000D01*
X45970000Y38760000D02*
X45970000Y44260000D01*
X37080000Y37650000D02*
X41970000Y37650000D01*
X37080000Y33150000D02*
X37080000Y37650000D01*
X35660000Y33150000D02*
X37080000Y33150000D01*
X35660000Y44870000D02*
X35660000Y33150000D01*
X41970000Y44870000D02*
X35660000Y44870000D01*
X46860000Y37650000D02*
X41970000Y37650000D01*
X46860000Y33150000D02*
X46860000Y37650000D01*
X48280000Y33150000D02*
X46860000Y33150000D01*
X48280000Y44870000D02*
X48280000Y33150000D01*
X41970000Y44870000D02*
X48280000Y44870000D01*
G04 #@! TO.C,RS485A2*
D10*
X21153380Y38394000D02*
X20677190Y38060667D01*
X21153380Y37822572D02*
X20153380Y37822572D01*
X20153380Y38203524D01*
X20201000Y38298762D01*
X20248619Y38346381D01*
X20343857Y38394000D01*
X20486714Y38394000D01*
X20581952Y38346381D01*
X20629571Y38298762D01*
X20677190Y38203524D01*
X20677190Y37822572D01*
X21105761Y38774953D02*
X21153380Y38917810D01*
X21153380Y39155905D01*
X21105761Y39251143D01*
X21058142Y39298762D01*
X20962904Y39346381D01*
X20867666Y39346381D01*
X20772428Y39298762D01*
X20724809Y39251143D01*
X20677190Y39155905D01*
X20629571Y38965429D01*
X20581952Y38870191D01*
X20534333Y38822572D01*
X20439095Y38774953D01*
X20343857Y38774953D01*
X20248619Y38822572D01*
X20201000Y38870191D01*
X20153380Y38965429D01*
X20153380Y39203524D01*
X20201000Y39346381D01*
X20486714Y40203524D02*
X21153380Y40203524D01*
X20105761Y39965429D02*
X20820047Y39727334D01*
X20820047Y40346381D01*
X20581952Y40870191D02*
X20534333Y40774953D01*
X20486714Y40727334D01*
X20391476Y40679715D01*
X20343857Y40679715D01*
X20248619Y40727334D01*
X20201000Y40774953D01*
X20153380Y40870191D01*
X20153380Y41060667D01*
X20201000Y41155905D01*
X20248619Y41203524D01*
X20343857Y41251143D01*
X20391476Y41251143D01*
X20486714Y41203524D01*
X20534333Y41155905D01*
X20581952Y41060667D01*
X20581952Y40870191D01*
X20629571Y40774953D01*
X20677190Y40727334D01*
X20772428Y40679715D01*
X20962904Y40679715D01*
X21058142Y40727334D01*
X21105761Y40774953D01*
X21153380Y40870191D01*
X21153380Y41060667D01*
X21105761Y41155905D01*
X21058142Y41203524D01*
X20962904Y41251143D01*
X20772428Y41251143D01*
X20677190Y41203524D01*
X20629571Y41155905D01*
X20581952Y41060667D01*
X20153380Y42155905D02*
X20153380Y41679715D01*
X20629571Y41632096D01*
X20581952Y41679715D01*
X20534333Y41774953D01*
X20534333Y42013048D01*
X20581952Y42108286D01*
X20629571Y42155905D01*
X20724809Y42203524D01*
X20962904Y42203524D01*
X21058142Y42155905D01*
X21105761Y42108286D01*
X21153380Y42013048D01*
X21153380Y41774953D01*
X21105761Y41679715D01*
X21058142Y41632096D01*
X20867666Y42584477D02*
X20867666Y43060667D01*
X21153380Y42489239D02*
X20153380Y42822572D01*
X21153380Y43155905D01*
X20248619Y43441620D02*
X20201000Y43489239D01*
X20153380Y43584477D01*
X20153380Y43822572D01*
X20201000Y43917810D01*
X20248619Y43965429D01*
X20343857Y44013048D01*
X20439095Y44013048D01*
X20581952Y43965429D01*
X21153380Y43394000D01*
X21153380Y44013048D01*
G04 #@! TO.C,R5*
X56586380Y1103334D02*
X56110190Y770000D01*
X56586380Y531905D02*
X55586380Y531905D01*
X55586380Y912858D01*
X55634000Y1008096D01*
X55681619Y1055715D01*
X55776857Y1103334D01*
X55919714Y1103334D01*
X56014952Y1055715D01*
X56062571Y1008096D01*
X56110190Y912858D01*
X56110190Y531905D01*
X55586380Y2008096D02*
X55586380Y1531905D01*
X56062571Y1484286D01*
X56014952Y1531905D01*
X55967333Y1627143D01*
X55967333Y1865239D01*
X56014952Y1960477D01*
X56062571Y2008096D01*
X56157809Y2055715D01*
X56395904Y2055715D01*
X56491142Y2008096D01*
X56538761Y1960477D01*
X56586380Y1865239D01*
X56586380Y1627143D01*
X56538761Y1531905D01*
X56491142Y1484286D01*
G04 #@! TO.C,R4*
X55713333Y21645620D02*
X55380000Y22121810D01*
X55141904Y21645620D02*
X55141904Y22645620D01*
X55522857Y22645620D01*
X55618095Y22598000D01*
X55665714Y22550381D01*
X55713333Y22455143D01*
X55713333Y22312286D01*
X55665714Y22217048D01*
X55618095Y22169429D01*
X55522857Y22121810D01*
X55141904Y22121810D01*
X56570476Y22312286D02*
X56570476Y21645620D01*
X56332380Y22693239D02*
X56094285Y21978953D01*
X56713333Y21978953D01*
G04 #@! TO.C,R3*
X51141333Y21645620D02*
X50808000Y22121810D01*
X50569904Y21645620D02*
X50569904Y22645620D01*
X50950857Y22645620D01*
X51046095Y22598000D01*
X51093714Y22550381D01*
X51141333Y22455143D01*
X51141333Y22312286D01*
X51093714Y22217048D01*
X51046095Y22169429D01*
X50950857Y22121810D01*
X50569904Y22121810D01*
X51474666Y22645620D02*
X52093714Y22645620D01*
X51760380Y22264667D01*
X51903238Y22264667D01*
X51998476Y22217048D01*
X52046095Y22169429D01*
X52093714Y22074191D01*
X52093714Y21836096D01*
X52046095Y21740858D01*
X51998476Y21693239D01*
X51903238Y21645620D01*
X51617523Y21645620D01*
X51522285Y21693239D01*
X51474666Y21740858D01*
G04 #@! TO.C,R2*
X25217380Y30313334D02*
X24741190Y29980000D01*
X25217380Y29741905D02*
X24217380Y29741905D01*
X24217380Y30122858D01*
X24265000Y30218096D01*
X24312619Y30265715D01*
X24407857Y30313334D01*
X24550714Y30313334D01*
X24645952Y30265715D01*
X24693571Y30218096D01*
X24741190Y30122858D01*
X24741190Y29741905D01*
X24312619Y30694286D02*
X24265000Y30741905D01*
X24217380Y30837143D01*
X24217380Y31075239D01*
X24265000Y31170477D01*
X24312619Y31218096D01*
X24407857Y31265715D01*
X24503095Y31265715D01*
X24645952Y31218096D01*
X25217380Y30646667D01*
X25217380Y31265715D01*
G04 #@! TO.C,D5*
X56586380Y2817905D02*
X55586380Y2817905D01*
X55586380Y3056000D01*
X55634000Y3198858D01*
X55729238Y3294096D01*
X55824476Y3341715D01*
X56014952Y3389334D01*
X56157809Y3389334D01*
X56348285Y3341715D01*
X56443523Y3294096D01*
X56538761Y3198858D01*
X56586380Y3056000D01*
X56586380Y2817905D01*
X55586380Y4294096D02*
X55586380Y3817905D01*
X56062571Y3770286D01*
X56014952Y3817905D01*
X55967333Y3913143D01*
X55967333Y4151239D01*
X56014952Y4246477D01*
X56062571Y4294096D01*
X56157809Y4341715D01*
X56395904Y4341715D01*
X56491142Y4294096D01*
X56538761Y4246477D01*
X56586380Y4151239D01*
X56586380Y3913143D01*
X56538761Y3817905D01*
X56491142Y3770286D01*
G04 #@! TO.C,D4*
X52855904Y21645620D02*
X52855904Y22645620D01*
X53094000Y22645620D01*
X53236857Y22598000D01*
X53332095Y22502762D01*
X53379714Y22407524D01*
X53427333Y22217048D01*
X53427333Y22074191D01*
X53379714Y21883715D01*
X53332095Y21788477D01*
X53236857Y21693239D01*
X53094000Y21645620D01*
X52855904Y21645620D01*
X54284476Y22312286D02*
X54284476Y21645620D01*
X54046380Y22693239D02*
X53808285Y21978953D01*
X54427333Y21978953D01*
G04 #@! TO.C,D3*
X48283904Y21645620D02*
X48283904Y22645620D01*
X48522000Y22645620D01*
X48664857Y22598000D01*
X48760095Y22502762D01*
X48807714Y22407524D01*
X48855333Y22217048D01*
X48855333Y22074191D01*
X48807714Y21883715D01*
X48760095Y21788477D01*
X48664857Y21693239D01*
X48522000Y21645620D01*
X48283904Y21645620D01*
X49188666Y22645620D02*
X49807714Y22645620D01*
X49474380Y22264667D01*
X49617238Y22264667D01*
X49712476Y22217048D01*
X49760095Y22169429D01*
X49807714Y22074191D01*
X49807714Y21836096D01*
X49760095Y21740858D01*
X49712476Y21693239D01*
X49617238Y21645620D01*
X49331523Y21645620D01*
X49236285Y21693239D01*
X49188666Y21740858D01*
G04 #@! TO.C,C2*
X20013142Y25487334D02*
X20060761Y25439715D01*
X20108380Y25296858D01*
X20108380Y25201620D01*
X20060761Y25058762D01*
X19965523Y24963524D01*
X19870285Y24915905D01*
X19679809Y24868286D01*
X19536952Y24868286D01*
X19346476Y24915905D01*
X19251238Y24963524D01*
X19156000Y25058762D01*
X19108380Y25201620D01*
X19108380Y25296858D01*
X19156000Y25439715D01*
X19203619Y25487334D01*
X19203619Y25868286D02*
X19156000Y25915905D01*
X19108380Y26011143D01*
X19108380Y26249239D01*
X19156000Y26344477D01*
X19203619Y26392096D01*
X19298857Y26439715D01*
X19394095Y26439715D01*
X19536952Y26392096D01*
X20108380Y25820667D01*
X20108380Y26439715D01*
G04 #@! TO.C,J3*
X53002380Y43100667D02*
X53716666Y43100667D01*
X53859523Y43053048D01*
X53954761Y42957810D01*
X54002380Y42814953D01*
X54002380Y42719715D01*
X53002380Y43481620D02*
X53002380Y44100667D01*
X53383333Y43767334D01*
X53383333Y43910191D01*
X53430952Y44005429D01*
X53478571Y44053048D01*
X53573809Y44100667D01*
X53811904Y44100667D01*
X53907142Y44053048D01*
X53954761Y44005429D01*
X54002380Y43910191D01*
X54002380Y43624477D01*
X53954761Y43529239D01*
X53907142Y43481620D01*
G04 #@! TO.C,J1*
X27606666Y2107620D02*
X27606666Y1393334D01*
X27559047Y1250477D01*
X27463809Y1155239D01*
X27320952Y1107620D01*
X27225714Y1107620D01*
X28606666Y1107620D02*
X28035238Y1107620D01*
X28320952Y1107620D02*
X28320952Y2107620D01*
X28225714Y1964762D01*
X28130476Y1869524D01*
X28035238Y1821905D01*
X11128571Y16057620D02*
X11128571Y17057620D01*
X11461904Y16343334D01*
X11795238Y17057620D01*
X11795238Y16057620D01*
X12271428Y16057620D02*
X12271428Y17057620D01*
X12700000Y16105239D02*
X12842857Y16057620D01*
X13080952Y16057620D01*
X13176190Y16105239D01*
X13223809Y16152858D01*
X13271428Y16248096D01*
X13271428Y16343334D01*
X13223809Y16438572D01*
X13176190Y16486191D01*
X13080952Y16533810D01*
X12890476Y16581429D01*
X12795238Y16629048D01*
X12747619Y16676667D01*
X12700000Y16771905D01*
X12700000Y16867143D01*
X12747619Y16962381D01*
X12795238Y17010000D01*
X12890476Y17057620D01*
X13128571Y17057620D01*
X13271428Y17010000D01*
X13890476Y17057620D02*
X14080952Y17057620D01*
X14176190Y17010000D01*
X14271428Y16914762D01*
X14319047Y16724286D01*
X14319047Y16390953D01*
X14271428Y16200477D01*
X14176190Y16105239D01*
X14080952Y16057620D01*
X13890476Y16057620D01*
X13795238Y16105239D01*
X13700000Y16200477D01*
X13652380Y16390953D01*
X13652380Y16724286D01*
X13700000Y16914762D01*
X13795238Y17010000D01*
X13890476Y17057620D01*
X12152380Y13517620D02*
X11819047Y13993810D01*
X11580952Y13517620D02*
X11580952Y14517620D01*
X11961904Y14517620D01*
X12057142Y14470000D01*
X12104761Y14422381D01*
X12152380Y14327143D01*
X12152380Y14184286D01*
X12104761Y14089048D01*
X12057142Y14041429D01*
X11961904Y13993810D01*
X11580952Y13993810D01*
X12533333Y13565239D02*
X12676190Y13517620D01*
X12914285Y13517620D01*
X13009523Y13565239D01*
X13057142Y13612858D01*
X13104761Y13708096D01*
X13104761Y13803334D01*
X13057142Y13898572D01*
X13009523Y13946191D01*
X12914285Y13993810D01*
X12723809Y14041429D01*
X12628571Y14089048D01*
X12580952Y14136667D01*
X12533333Y14231905D01*
X12533333Y14327143D01*
X12580952Y14422381D01*
X12628571Y14470000D01*
X12723809Y14517620D01*
X12961904Y14517620D01*
X13104761Y14470000D01*
X13390476Y14517620D02*
X13961904Y14517620D01*
X13676190Y13517620D02*
X13676190Y14517620D01*
X11914285Y10977620D02*
X11914285Y11977620D01*
X12485714Y10977620D01*
X12485714Y11977620D01*
X13533333Y11072858D02*
X13485714Y11025239D01*
X13342857Y10977620D01*
X13247619Y10977620D01*
X13104761Y11025239D01*
X13009523Y11120477D01*
X12961904Y11215715D01*
X12914285Y11406191D01*
X12914285Y11549048D01*
X12961904Y11739524D01*
X13009523Y11834762D01*
X13104761Y11930000D01*
X13247619Y11977620D01*
X13342857Y11977620D01*
X13485714Y11930000D01*
X13533333Y11882381D01*
X11509523Y9437620D02*
X12128571Y9437620D01*
X11795238Y9056667D01*
X11938095Y9056667D01*
X12033333Y9009048D01*
X12080952Y8961429D01*
X12128571Y8866191D01*
X12128571Y8628096D01*
X12080952Y8532858D01*
X12033333Y8485239D01*
X11938095Y8437620D01*
X11652380Y8437620D01*
X11557142Y8485239D01*
X11509523Y8532858D01*
X12461904Y9104286D02*
X12700000Y8437620D01*
X12938095Y9104286D01*
X13223809Y9437620D02*
X13842857Y9437620D01*
X13509523Y9056667D01*
X13652380Y9056667D01*
X13747619Y9009048D01*
X13795238Y8961429D01*
X13842857Y8866191D01*
X13842857Y8628096D01*
X13795238Y8532858D01*
X13747619Y8485239D01*
X13652380Y8437620D01*
X13366666Y8437620D01*
X13271428Y8485239D01*
X13223809Y8532858D01*
X11509523Y6897620D02*
X12128571Y6897620D01*
X11795238Y6516667D01*
X11938095Y6516667D01*
X12033333Y6469048D01*
X12080952Y6421429D01*
X12128571Y6326191D01*
X12128571Y6088096D01*
X12080952Y5992858D01*
X12033333Y5945239D01*
X11938095Y5897620D01*
X11652380Y5897620D01*
X11557142Y5945239D01*
X11509523Y5992858D01*
X12461904Y6564286D02*
X12700000Y5897620D01*
X12938095Y6564286D01*
X13223809Y6897620D02*
X13842857Y6897620D01*
X13509523Y6516667D01*
X13652380Y6516667D01*
X13747619Y6469048D01*
X13795238Y6421429D01*
X13842857Y6326191D01*
X13842857Y6088096D01*
X13795238Y5992858D01*
X13747619Y5945239D01*
X13652380Y5897620D01*
X13366666Y5897620D01*
X13271428Y5945239D01*
X13223809Y5992858D01*
X11938095Y4310000D02*
X11842857Y4357620D01*
X11700000Y4357620D01*
X11557142Y4310000D01*
X11461904Y4214762D01*
X11414285Y4119524D01*
X11366666Y3929048D01*
X11366666Y3786191D01*
X11414285Y3595715D01*
X11461904Y3500477D01*
X11557142Y3405239D01*
X11700000Y3357620D01*
X11795238Y3357620D01*
X11938095Y3405239D01*
X11985714Y3452858D01*
X11985714Y3786191D01*
X11795238Y3786191D01*
X12414285Y3357620D02*
X12414285Y4357620D01*
X12985714Y3357620D01*
X12985714Y4357620D01*
X13461904Y3357620D02*
X13461904Y4357620D01*
X13700000Y4357620D01*
X13842857Y4310000D01*
X13938095Y4214762D01*
X13985714Y4119524D01*
X14033333Y3929048D01*
X14033333Y3786191D01*
X13985714Y3595715D01*
X13938095Y3500477D01*
X13842857Y3405239D01*
X13700000Y3357620D01*
X13461904Y3357620D01*
X39100238Y16057620D02*
X39100238Y17057620D01*
X39576428Y16057620D02*
X39576428Y17057620D01*
X40147857Y16057620D01*
X40147857Y17057620D01*
X40481190Y17057620D02*
X41052619Y17057620D01*
X40766904Y16057620D02*
X40766904Y17057620D01*
X39838333Y13612858D02*
X39790714Y13565239D01*
X39647857Y13517620D01*
X39552619Y13517620D01*
X39409761Y13565239D01*
X39314523Y13660477D01*
X39266904Y13755715D01*
X39219285Y13946191D01*
X39219285Y14089048D01*
X39266904Y14279524D01*
X39314523Y14374762D01*
X39409761Y14470000D01*
X39552619Y14517620D01*
X39647857Y14517620D01*
X39790714Y14470000D01*
X39838333Y14422381D01*
X40219285Y13565239D02*
X40362142Y13517620D01*
X40600238Y13517620D01*
X40695476Y13565239D01*
X40743095Y13612858D01*
X40790714Y13708096D01*
X40790714Y13803334D01*
X40743095Y13898572D01*
X40695476Y13946191D01*
X40600238Y13993810D01*
X40409761Y14041429D01*
X40314523Y14089048D01*
X40266904Y14136667D01*
X40219285Y14231905D01*
X40219285Y14327143D01*
X40266904Y14422381D01*
X40314523Y14470000D01*
X40409761Y14517620D01*
X40647857Y14517620D01*
X40790714Y14470000D01*
X38949523Y11025239D02*
X39092380Y10977620D01*
X39330476Y10977620D01*
X39425714Y11025239D01*
X39473333Y11072858D01*
X39520952Y11168096D01*
X39520952Y11263334D01*
X39473333Y11358572D01*
X39425714Y11406191D01*
X39330476Y11453810D01*
X39140000Y11501429D01*
X39044761Y11549048D01*
X38997142Y11596667D01*
X38949523Y11691905D01*
X38949523Y11787143D01*
X38997142Y11882381D01*
X39044761Y11930000D01*
X39140000Y11977620D01*
X39378095Y11977620D01*
X39520952Y11930000D01*
X40520952Y11072858D02*
X40473333Y11025239D01*
X40330476Y10977620D01*
X40235238Y10977620D01*
X40092380Y11025239D01*
X39997142Y11120477D01*
X39949523Y11215715D01*
X39901904Y11406191D01*
X39901904Y11549048D01*
X39949523Y11739524D01*
X39997142Y11834762D01*
X40092380Y11930000D01*
X40235238Y11977620D01*
X40330476Y11977620D01*
X40473333Y11930000D01*
X40520952Y11882381D01*
X41425714Y10977620D02*
X40949523Y10977620D01*
X40949523Y11977620D01*
X41759047Y10977620D02*
X41759047Y11977620D01*
X42330476Y10977620D02*
X41901904Y11549048D01*
X42330476Y11977620D02*
X41759047Y11406191D01*
X39068571Y8437620D02*
X39068571Y9437620D01*
X39401904Y8723334D01*
X39735238Y9437620D01*
X39735238Y8437620D01*
X40401904Y9437620D02*
X40592380Y9437620D01*
X40687619Y9390000D01*
X40782857Y9294762D01*
X40830476Y9104286D01*
X40830476Y8770953D01*
X40782857Y8580477D01*
X40687619Y8485239D01*
X40592380Y8437620D01*
X40401904Y8437620D01*
X40306666Y8485239D01*
X40211428Y8580477D01*
X40163809Y8770953D01*
X40163809Y9104286D01*
X40211428Y9294762D01*
X40306666Y9390000D01*
X40401904Y9437620D01*
X41211428Y8485239D02*
X41354285Y8437620D01*
X41592380Y8437620D01*
X41687619Y8485239D01*
X41735238Y8532858D01*
X41782857Y8628096D01*
X41782857Y8723334D01*
X41735238Y8818572D01*
X41687619Y8866191D01*
X41592380Y8913810D01*
X41401904Y8961429D01*
X41306666Y9009048D01*
X41259047Y9056667D01*
X41211428Y9151905D01*
X41211428Y9247143D01*
X41259047Y9342381D01*
X41306666Y9390000D01*
X41401904Y9437620D01*
X41640000Y9437620D01*
X41782857Y9390000D01*
X42211428Y8437620D02*
X42211428Y9437620D01*
X39878095Y6850000D02*
X39782857Y6897620D01*
X39640000Y6897620D01*
X39497142Y6850000D01*
X39401904Y6754762D01*
X39354285Y6659524D01*
X39306666Y6469048D01*
X39306666Y6326191D01*
X39354285Y6135715D01*
X39401904Y6040477D01*
X39497142Y5945239D01*
X39640000Y5897620D01*
X39735238Y5897620D01*
X39878095Y5945239D01*
X39925714Y5992858D01*
X39925714Y6326191D01*
X39735238Y6326191D01*
X40354285Y5897620D02*
X40354285Y6897620D01*
X40925714Y5897620D01*
X40925714Y6897620D01*
X41401904Y5897620D02*
X41401904Y6897620D01*
X41640000Y6897620D01*
X41782857Y6850000D01*
X41878095Y6754762D01*
X41925714Y6659524D01*
X41973333Y6469048D01*
X41973333Y6326191D01*
X41925714Y6135715D01*
X41878095Y6040477D01*
X41782857Y5945239D01*
X41640000Y5897620D01*
X41401904Y5897620D01*
X39878095Y4310000D02*
X39782857Y4357620D01*
X39640000Y4357620D01*
X39497142Y4310000D01*
X39401904Y4214762D01*
X39354285Y4119524D01*
X39306666Y3929048D01*
X39306666Y3786191D01*
X39354285Y3595715D01*
X39401904Y3500477D01*
X39497142Y3405239D01*
X39640000Y3357620D01*
X39735238Y3357620D01*
X39878095Y3405239D01*
X39925714Y3452858D01*
X39925714Y3786191D01*
X39735238Y3786191D01*
X40354285Y3357620D02*
X40354285Y4357620D01*
X40925714Y3357620D01*
X40925714Y4357620D01*
X41401904Y3357620D02*
X41401904Y4357620D01*
X41640000Y4357620D01*
X41782857Y4310000D01*
X41878095Y4214762D01*
X41925714Y4119524D01*
X41973333Y3929048D01*
X41973333Y3786191D01*
X41925714Y3595715D01*
X41878095Y3500477D01*
X41782857Y3405239D01*
X41640000Y3357620D01*
X41401904Y3357620D01*
G04 #@! TO.C,SPI1*
X11200000Y24233239D02*
X11342857Y24185620D01*
X11580952Y24185620D01*
X11676190Y24233239D01*
X11723809Y24280858D01*
X11771428Y24376096D01*
X11771428Y24471334D01*
X11723809Y24566572D01*
X11676190Y24614191D01*
X11580952Y24661810D01*
X11390476Y24709429D01*
X11295238Y24757048D01*
X11247619Y24804667D01*
X11200000Y24899905D01*
X11200000Y24995143D01*
X11247619Y25090381D01*
X11295238Y25138000D01*
X11390476Y25185620D01*
X11628571Y25185620D01*
X11771428Y25138000D01*
X12200000Y24185620D02*
X12200000Y25185620D01*
X12580952Y25185620D01*
X12676190Y25138000D01*
X12723809Y25090381D01*
X12771428Y24995143D01*
X12771428Y24852286D01*
X12723809Y24757048D01*
X12676190Y24709429D01*
X12580952Y24661810D01*
X12200000Y24661810D01*
X13200000Y24185620D02*
X13200000Y25185620D01*
X14200000Y24185620D02*
X13628571Y24185620D01*
X13914285Y24185620D02*
X13914285Y25185620D01*
X13819047Y25042762D01*
X13723809Y24947524D01*
X13628571Y24899905D01*
G04 #@! TO.C,U1*
X48768095Y4357620D02*
X48768095Y3548096D01*
X48815714Y3452858D01*
X48863333Y3405239D01*
X48958571Y3357620D01*
X49149047Y3357620D01*
X49244285Y3405239D01*
X49291904Y3452858D01*
X49339523Y3548096D01*
X49339523Y4357620D01*
X50339523Y3357620D02*
X49768095Y3357620D01*
X50053809Y3357620D02*
X50053809Y4357620D01*
X49958571Y4214762D01*
X49863333Y4119524D01*
X49768095Y4071905D01*
G04 #@! TO.C,J2*
X60626666Y14731620D02*
X60626666Y14017334D01*
X60579047Y13874477D01*
X60483809Y13779239D01*
X60340952Y13731620D01*
X60245714Y13731620D01*
X61055238Y14636381D02*
X61102857Y14684000D01*
X61198095Y14731620D01*
X61436190Y14731620D01*
X61531428Y14684000D01*
X61579047Y14636381D01*
X61626666Y14541143D01*
X61626666Y14445905D01*
X61579047Y14303048D01*
X61007619Y13731620D01*
X61626666Y13731620D01*
G04 #@! TO.C,C4*
X46823333Y19737858D02*
X46775714Y19690239D01*
X46632857Y19642620D01*
X46537619Y19642620D01*
X46394761Y19690239D01*
X46299523Y19785477D01*
X46251904Y19880715D01*
X46204285Y20071191D01*
X46204285Y20214048D01*
X46251904Y20404524D01*
X46299523Y20499762D01*
X46394761Y20595000D01*
X46537619Y20642620D01*
X46632857Y20642620D01*
X46775714Y20595000D01*
X46823333Y20547381D01*
X47680476Y20309286D02*
X47680476Y19642620D01*
X47442380Y20690239D02*
X47204285Y19975953D01*
X47823333Y19975953D01*
G04 #@! TO.C,C3*
X51903333Y19737858D02*
X51855714Y19690239D01*
X51712857Y19642620D01*
X51617619Y19642620D01*
X51474761Y19690239D01*
X51379523Y19785477D01*
X51331904Y19880715D01*
X51284285Y20071191D01*
X51284285Y20214048D01*
X51331904Y20404524D01*
X51379523Y20499762D01*
X51474761Y20595000D01*
X51617619Y20642620D01*
X51712857Y20642620D01*
X51855714Y20595000D01*
X51903333Y20547381D01*
X52236666Y20642620D02*
X52855714Y20642620D01*
X52522380Y20261667D01*
X52665238Y20261667D01*
X52760476Y20214048D01*
X52808095Y20166429D01*
X52855714Y20071191D01*
X52855714Y19833096D01*
X52808095Y19737858D01*
X52760476Y19690239D01*
X52665238Y19642620D01*
X52379523Y19642620D01*
X52284285Y19690239D01*
X52236666Y19737858D01*
G04 #@! TO.C,R1*
X39282380Y30313334D02*
X38806190Y29980000D01*
X39282380Y29741905D02*
X38282380Y29741905D01*
X38282380Y30122858D01*
X38330000Y30218096D01*
X38377619Y30265715D01*
X38472857Y30313334D01*
X38615714Y30313334D01*
X38710952Y30265715D01*
X38758571Y30218096D01*
X38806190Y30122858D01*
X38806190Y29741905D01*
X39282380Y31265715D02*
X39282380Y30694286D01*
X39282380Y30980000D02*
X38282380Y30980000D01*
X38425238Y30884762D01*
X38520476Y30789524D01*
X38568095Y30694286D01*
G04 #@! TO.C,C1*
X34237142Y25465834D02*
X34284761Y25418215D01*
X34332380Y25275358D01*
X34332380Y25180120D01*
X34284761Y25037262D01*
X34189523Y24942024D01*
X34094285Y24894405D01*
X33903809Y24846786D01*
X33760952Y24846786D01*
X33570476Y24894405D01*
X33475238Y24942024D01*
X33380000Y25037262D01*
X33332380Y25180120D01*
X33332380Y25275358D01*
X33380000Y25418215D01*
X33427619Y25465834D01*
X34332380Y26418215D02*
X34332380Y25846786D01*
X34332380Y26132500D02*
X33332380Y26132500D01*
X33475238Y26037262D01*
X33570476Y25942024D01*
X33618095Y25846786D01*
G04 #@! TO.C,IC1*
X40933809Y24947620D02*
X40933809Y25947620D01*
X41981428Y25042858D02*
X41933809Y24995239D01*
X41790952Y24947620D01*
X41695714Y24947620D01*
X41552857Y24995239D01*
X41457619Y25090477D01*
X41410000Y25185715D01*
X41362380Y25376191D01*
X41362380Y25519048D01*
X41410000Y25709524D01*
X41457619Y25804762D01*
X41552857Y25900000D01*
X41695714Y25947620D01*
X41790952Y25947620D01*
X41933809Y25900000D01*
X41981428Y25852381D01*
X42933809Y24947620D02*
X42362380Y24947620D01*
X42648095Y24947620D02*
X42648095Y25947620D01*
X42552857Y25804762D01*
X42457619Y25709524D01*
X42362380Y25661905D01*
G04 #@! TO.C,IC2*
X26963809Y24947620D02*
X26963809Y25947620D01*
X28011428Y25042858D02*
X27963809Y24995239D01*
X27820952Y24947620D01*
X27725714Y24947620D01*
X27582857Y24995239D01*
X27487619Y25090477D01*
X27440000Y25185715D01*
X27392380Y25376191D01*
X27392380Y25519048D01*
X27440000Y25709524D01*
X27487619Y25804762D01*
X27582857Y25900000D01*
X27725714Y25947620D01*
X27820952Y25947620D01*
X27963809Y25900000D01*
X28011428Y25852381D01*
X28392380Y25852381D02*
X28440000Y25900000D01*
X28535238Y25947620D01*
X28773333Y25947620D01*
X28868571Y25900000D01*
X28916190Y25852381D01*
X28963809Y25757143D01*
X28963809Y25661905D01*
X28916190Y25519048D01*
X28344761Y24947620D01*
X28963809Y24947620D01*
G04 #@! TO.C,RS485A1*
X49855380Y38394000D02*
X49379190Y38060667D01*
X49855380Y37822572D02*
X48855380Y37822572D01*
X48855380Y38203524D01*
X48903000Y38298762D01*
X48950619Y38346381D01*
X49045857Y38394000D01*
X49188714Y38394000D01*
X49283952Y38346381D01*
X49331571Y38298762D01*
X49379190Y38203524D01*
X49379190Y37822572D01*
X49807761Y38774953D02*
X49855380Y38917810D01*
X49855380Y39155905D01*
X49807761Y39251143D01*
X49760142Y39298762D01*
X49664904Y39346381D01*
X49569666Y39346381D01*
X49474428Y39298762D01*
X49426809Y39251143D01*
X49379190Y39155905D01*
X49331571Y38965429D01*
X49283952Y38870191D01*
X49236333Y38822572D01*
X49141095Y38774953D01*
X49045857Y38774953D01*
X48950619Y38822572D01*
X48903000Y38870191D01*
X48855380Y38965429D01*
X48855380Y39203524D01*
X48903000Y39346381D01*
X49188714Y40203524D02*
X49855380Y40203524D01*
X48807761Y39965429D02*
X49522047Y39727334D01*
X49522047Y40346381D01*
X49283952Y40870191D02*
X49236333Y40774953D01*
X49188714Y40727334D01*
X49093476Y40679715D01*
X49045857Y40679715D01*
X48950619Y40727334D01*
X48903000Y40774953D01*
X48855380Y40870191D01*
X48855380Y41060667D01*
X48903000Y41155905D01*
X48950619Y41203524D01*
X49045857Y41251143D01*
X49093476Y41251143D01*
X49188714Y41203524D01*
X49236333Y41155905D01*
X49283952Y41060667D01*
X49283952Y40870191D01*
X49331571Y40774953D01*
X49379190Y40727334D01*
X49474428Y40679715D01*
X49664904Y40679715D01*
X49760142Y40727334D01*
X49807761Y40774953D01*
X49855380Y40870191D01*
X49855380Y41060667D01*
X49807761Y41155905D01*
X49760142Y41203524D01*
X49664904Y41251143D01*
X49474428Y41251143D01*
X49379190Y41203524D01*
X49331571Y41155905D01*
X49283952Y41060667D01*
X48855380Y42155905D02*
X48855380Y41679715D01*
X49331571Y41632096D01*
X49283952Y41679715D01*
X49236333Y41774953D01*
X49236333Y42013048D01*
X49283952Y42108286D01*
X49331571Y42155905D01*
X49426809Y42203524D01*
X49664904Y42203524D01*
X49760142Y42155905D01*
X49807761Y42108286D01*
X49855380Y42013048D01*
X49855380Y41774953D01*
X49807761Y41679715D01*
X49760142Y41632096D01*
X49569666Y42584477D02*
X49569666Y43060667D01*
X49855380Y42489239D02*
X48855380Y42822572D01*
X49855380Y43155905D01*
X49855380Y44013048D02*
X49855380Y43441620D01*
X49855380Y43727334D02*
X48855380Y43727334D01*
X48998238Y43632096D01*
X49093476Y43536858D01*
X49141095Y43441620D01*
G04 #@! TD*
M02*
