G04 #@! TF.GenerationSoftware,KiCad,Pcbnew,(5.1.10)-1*
G04 #@! TF.CreationDate,2021-07-06T11:56:46+05:30*
G04 #@! TF.ProjectId,STM_Morpho,53544d5f-4d6f-4727-9068-6f2e6b696361,rev?*
G04 #@! TF.SameCoordinates,PX7bfa480PY7270e00*
G04 #@! TF.FileFunction,Soldermask,Bot*
G04 #@! TF.FilePolarity,Negative*
%FSLAX46Y46*%
G04 Gerber Fmt 4.6, Leading zero omitted, Abs format (unit mm)*
G04 Created by KiCad (PCBNEW (5.1.10)-1) date 2021-07-06 11:56:46*
%MOMM*%
%LPD*%
G01*
G04 APERTURE LIST*
%ADD10O,1.700000X1.950000*%
%ADD11O,1.700000X1.700000*%
%ADD12R,1.700000X1.700000*%
%ADD13O,2.000000X1.500000*%
%ADD14C,1.200000*%
%ADD15O,1.950000X1.700000*%
%ADD16O,2.000000X1.700000*%
G04 APERTURE END LIST*
D10*
G04 #@! TO.C,RS485A2*
X24250000Y35560000D03*
X26750000Y35560000D03*
X29250000Y35560000D03*
G36*
G01*
X32600000Y36285000D02*
X32600000Y34835000D01*
G75*
G02*
X32350000Y34585000I-250000J0D01*
G01*
X31150000Y34585000D01*
G75*
G02*
X30900000Y34835000I0J250000D01*
G01*
X30900000Y36285000D01*
G75*
G02*
X31150000Y36535000I250000J0D01*
G01*
X32350000Y36535000D01*
G75*
G02*
X32600000Y36285000I0J-250000D01*
G01*
G37*
G04 #@! TD*
D11*
G04 #@! TO.C,J3*
X58420000Y43434000D03*
D12*
X55880000Y43434000D03*
G04 #@! TD*
D13*
G04 #@! TO.C,J1*
X36900000Y16510000D03*
X16440000Y16510000D03*
X36900000Y13970000D03*
X16440000Y13970000D03*
X36900000Y11430000D03*
X16440000Y11430000D03*
X36900000Y8890000D03*
X16440000Y8890000D03*
X36900000Y6350000D03*
X16440000Y6350000D03*
X36900000Y3810000D03*
X16440000Y3810000D03*
G04 #@! TD*
D14*
G04 #@! TO.C,SPI1*
X10700000Y40128000D03*
D15*
X12700000Y28528000D03*
X12700000Y31028000D03*
X12700000Y33528000D03*
X12700000Y36028000D03*
G36*
G01*
X11975000Y39378000D02*
X13425000Y39378000D01*
G75*
G02*
X13675000Y39128000I0J-250000D01*
G01*
X13675000Y37928000D01*
G75*
G02*
X13425000Y37678000I-250000J0D01*
G01*
X11975000Y37678000D01*
G75*
G02*
X11725000Y37928000I0J250000D01*
G01*
X11725000Y39128000D01*
G75*
G02*
X11975000Y39378000I250000J0D01*
G01*
G37*
G04 #@! TD*
D14*
G04 #@! TO.C,J2*
X56420000Y11974000D03*
D16*
X58420000Y7874000D03*
G36*
G01*
X57670000Y11224000D02*
X59170000Y11224000D01*
G75*
G02*
X59420000Y10974000I0J-250000D01*
G01*
X59420000Y9774000D01*
G75*
G02*
X59170000Y9524000I-250000J0D01*
G01*
X57670000Y9524000D01*
G75*
G02*
X57420000Y9774000I0J250000D01*
G01*
X57420000Y10974000D01*
G75*
G02*
X57670000Y11224000I250000J0D01*
G01*
G37*
G04 #@! TD*
D11*
G04 #@! TO.C,CN10*
X66750000Y3040000D03*
X64210000Y3040000D03*
X66750000Y5580000D03*
X64210000Y5580000D03*
X66750000Y8120000D03*
X64210000Y8120000D03*
X66750000Y10660000D03*
X64210000Y10660000D03*
X66750000Y13200000D03*
X64210000Y13200000D03*
X66750000Y15740000D03*
X64210000Y15740000D03*
X66750000Y18280000D03*
X64210000Y18280000D03*
X66750000Y20820000D03*
X64210000Y20820000D03*
X66750000Y23360000D03*
X64210000Y23360000D03*
X66750000Y25900000D03*
X64210000Y25900000D03*
X66750000Y28440000D03*
X64210000Y28440000D03*
X66750000Y30980000D03*
X64210000Y30980000D03*
X66750000Y33520000D03*
X64210000Y33520000D03*
X66750000Y36060000D03*
X64210000Y36060000D03*
X66750000Y38600000D03*
X64210000Y38600000D03*
X66750000Y41140000D03*
X64210000Y41140000D03*
X66750000Y43680000D03*
X64210000Y43680000D03*
X66750000Y46220000D03*
X64210000Y46220000D03*
X66750000Y48760000D03*
D12*
X64210000Y48760000D03*
G04 #@! TD*
D11*
G04 #@! TO.C,CN7*
X5790000Y3040000D03*
X3250000Y3040000D03*
X5790000Y5580000D03*
X3250000Y5580000D03*
X5790000Y8120000D03*
X3250000Y8120000D03*
X5790000Y10660000D03*
X3250000Y10660000D03*
X5790000Y13200000D03*
X3250000Y13200000D03*
X5790000Y15740000D03*
X3250000Y15740000D03*
X5790000Y18280000D03*
X3250000Y18280000D03*
X5790000Y20820000D03*
X3250000Y20820000D03*
X5790000Y23360000D03*
X3250000Y23360000D03*
X5790000Y25900000D03*
X3250000Y25900000D03*
X5790000Y28440000D03*
X3250000Y28440000D03*
X5790000Y30980000D03*
X3250000Y30980000D03*
X5790000Y33520000D03*
X3250000Y33520000D03*
X5790000Y36060000D03*
X3250000Y36060000D03*
X5790000Y38600000D03*
X3250000Y38600000D03*
X5790000Y41140000D03*
X3250000Y41140000D03*
X5790000Y43680000D03*
X3250000Y43680000D03*
X5790000Y46220000D03*
X3250000Y46220000D03*
X5790000Y48760000D03*
D12*
X3250000Y48760000D03*
G04 #@! TD*
G04 #@! TO.C,RS485A1*
G36*
G01*
X46570000Y36285000D02*
X46570000Y34835000D01*
G75*
G02*
X46320000Y34585000I-250000J0D01*
G01*
X45120000Y34585000D01*
G75*
G02*
X44870000Y34835000I0J250000D01*
G01*
X44870000Y36285000D01*
G75*
G02*
X45120000Y36535000I250000J0D01*
G01*
X46320000Y36535000D01*
G75*
G02*
X46570000Y36285000I0J-250000D01*
G01*
G37*
D10*
X43220000Y35560000D03*
X40720000Y35560000D03*
X38220000Y35560000D03*
G04 #@! TD*
M02*
