G04 #@! TF.GenerationSoftware,KiCad,Pcbnew,(5.1.10)-1*
G04 #@! TF.CreationDate,2021-07-06T11:56:46+05:30*
G04 #@! TF.ProjectId,STM_Morpho,53544d5f-4d6f-4727-9068-6f2e6b696361,rev?*
G04 #@! TF.SameCoordinates,PX7bfa480PY7270e00*
G04 #@! TF.FileFunction,Paste,Top*
G04 #@! TF.FilePolarity,Positive*
%FSLAX46Y46*%
G04 Gerber Fmt 4.6, Leading zero omitted, Abs format (unit mm)*
G04 Created by KiCad (PCBNEW (5.1.10)-1) date 2021-07-06 11:56:46*
%MOMM*%
%LPD*%
G01*
G04 APERTURE LIST*
%ADD10R,2.750000X3.050000*%
%ADD11R,1.200000X2.200000*%
%ADD12R,1.525000X0.650000*%
G04 APERTURE END LIST*
G04 #@! TO.C,R5*
G36*
G01*
X59344000Y819999D02*
X59344000Y1720001D01*
G75*
G02*
X59593999Y1970000I249999J0D01*
G01*
X60294001Y1970000D01*
G75*
G02*
X60544000Y1720001I0J-249999D01*
G01*
X60544000Y819999D01*
G75*
G02*
X60294001Y570000I-249999J0D01*
G01*
X59593999Y570000D01*
G75*
G02*
X59344000Y819999I0J249999D01*
G01*
G37*
G36*
G01*
X57344000Y819999D02*
X57344000Y1720001D01*
G75*
G02*
X57593999Y1970000I249999J0D01*
G01*
X58294001Y1970000D01*
G75*
G02*
X58544000Y1720001I0J-249999D01*
G01*
X58544000Y819999D01*
G75*
G02*
X58294001Y570000I-249999J0D01*
G01*
X57593999Y570000D01*
G75*
G02*
X57344000Y819999I0J249999D01*
G01*
G37*
G04 #@! TD*
G04 #@! TO.C,R4*
G36*
G01*
X55429999Y24508000D02*
X56330001Y24508000D01*
G75*
G02*
X56580000Y24258001I0J-249999D01*
G01*
X56580000Y23557999D01*
G75*
G02*
X56330001Y23308000I-249999J0D01*
G01*
X55429999Y23308000D01*
G75*
G02*
X55180000Y23557999I0J249999D01*
G01*
X55180000Y24258001D01*
G75*
G02*
X55429999Y24508000I249999J0D01*
G01*
G37*
G36*
G01*
X55429999Y26508000D02*
X56330001Y26508000D01*
G75*
G02*
X56580000Y26258001I0J-249999D01*
G01*
X56580000Y25557999D01*
G75*
G02*
X56330001Y25308000I-249999J0D01*
G01*
X55429999Y25308000D01*
G75*
G02*
X55180000Y25557999I0J249999D01*
G01*
X55180000Y26258001D01*
G75*
G02*
X55429999Y26508000I249999J0D01*
G01*
G37*
G04 #@! TD*
G04 #@! TO.C,R3*
G36*
G01*
X50857999Y24508000D02*
X51758001Y24508000D01*
G75*
G02*
X52008000Y24258001I0J-249999D01*
G01*
X52008000Y23557999D01*
G75*
G02*
X51758001Y23308000I-249999J0D01*
G01*
X50857999Y23308000D01*
G75*
G02*
X50608000Y23557999I0J249999D01*
G01*
X50608000Y24258001D01*
G75*
G02*
X50857999Y24508000I249999J0D01*
G01*
G37*
G36*
G01*
X50857999Y26508000D02*
X51758001Y26508000D01*
G75*
G02*
X52008000Y26258001I0J-249999D01*
G01*
X52008000Y25557999D01*
G75*
G02*
X51758001Y25308000I-249999J0D01*
G01*
X50857999Y25308000D01*
G75*
G02*
X50608000Y25557999I0J249999D01*
G01*
X50608000Y26258001D01*
G75*
G02*
X50857999Y26508000I249999J0D01*
G01*
G37*
G04 #@! TD*
G04 #@! TO.C,R2*
G36*
G01*
X26905000Y30930001D02*
X26905000Y30029999D01*
G75*
G02*
X26655001Y29780000I-249999J0D01*
G01*
X25954999Y29780000D01*
G75*
G02*
X25705000Y30029999I0J249999D01*
G01*
X25705000Y30930001D01*
G75*
G02*
X25954999Y31180000I249999J0D01*
G01*
X26655001Y31180000D01*
G75*
G02*
X26905000Y30930001I0J-249999D01*
G01*
G37*
G36*
G01*
X28905000Y30930001D02*
X28905000Y30029999D01*
G75*
G02*
X28655001Y29780000I-249999J0D01*
G01*
X27954999Y29780000D01*
G75*
G02*
X27705000Y30029999I0J249999D01*
G01*
X27705000Y30930001D01*
G75*
G02*
X27954999Y31180000I249999J0D01*
G01*
X28655001Y31180000D01*
G75*
G02*
X28905000Y30930001I0J-249999D01*
G01*
G37*
G04 #@! TD*
G04 #@! TO.C,D5*
G36*
G01*
X59369000Y3105999D02*
X59369000Y4006001D01*
G75*
G02*
X59618999Y4256000I249999J0D01*
G01*
X60269001Y4256000D01*
G75*
G02*
X60519000Y4006001I0J-249999D01*
G01*
X60519000Y3105999D01*
G75*
G02*
X60269001Y2856000I-249999J0D01*
G01*
X59618999Y2856000D01*
G75*
G02*
X59369000Y3105999I0J249999D01*
G01*
G37*
G36*
G01*
X57319000Y3105999D02*
X57319000Y4006001D01*
G75*
G02*
X57568999Y4256000I249999J0D01*
G01*
X58219001Y4256000D01*
G75*
G02*
X58469000Y4006001I0J-249999D01*
G01*
X58469000Y3105999D01*
G75*
G02*
X58219001Y2856000I-249999J0D01*
G01*
X57568999Y2856000D01*
G75*
G02*
X57319000Y3105999I0J249999D01*
G01*
G37*
G04 #@! TD*
G04 #@! TO.C,D4*
G36*
G01*
X53143999Y24433000D02*
X54044001Y24433000D01*
G75*
G02*
X54294000Y24183001I0J-249999D01*
G01*
X54294000Y23532999D01*
G75*
G02*
X54044001Y23283000I-249999J0D01*
G01*
X53143999Y23283000D01*
G75*
G02*
X52894000Y23532999I0J249999D01*
G01*
X52894000Y24183001D01*
G75*
G02*
X53143999Y24433000I249999J0D01*
G01*
G37*
G36*
G01*
X53143999Y26483000D02*
X54044001Y26483000D01*
G75*
G02*
X54294000Y26233001I0J-249999D01*
G01*
X54294000Y25582999D01*
G75*
G02*
X54044001Y25333000I-249999J0D01*
G01*
X53143999Y25333000D01*
G75*
G02*
X52894000Y25582999I0J249999D01*
G01*
X52894000Y26233001D01*
G75*
G02*
X53143999Y26483000I249999J0D01*
G01*
G37*
G04 #@! TD*
G04 #@! TO.C,D3*
G36*
G01*
X48571999Y24433000D02*
X49472001Y24433000D01*
G75*
G02*
X49722000Y24183001I0J-249999D01*
G01*
X49722000Y23532999D01*
G75*
G02*
X49472001Y23283000I-249999J0D01*
G01*
X48571999Y23283000D01*
G75*
G02*
X48322000Y23532999I0J249999D01*
G01*
X48322000Y24183001D01*
G75*
G02*
X48571999Y24433000I249999J0D01*
G01*
G37*
G36*
G01*
X48571999Y26483000D02*
X49472001Y26483000D01*
G75*
G02*
X49722000Y26233001I0J-249999D01*
G01*
X49722000Y25582999D01*
G75*
G02*
X49472001Y25333000I-249999J0D01*
G01*
X48571999Y25333000D01*
G75*
G02*
X48322000Y25582999I0J249999D01*
G01*
X48322000Y26233001D01*
G75*
G02*
X48571999Y26483000I249999J0D01*
G01*
G37*
G04 #@! TD*
G04 #@! TO.C,C2*
G36*
G01*
X21811000Y26104000D02*
X20861000Y26104000D01*
G75*
G02*
X20611000Y26354000I0J250000D01*
G01*
X20611000Y27029000D01*
G75*
G02*
X20861000Y27279000I250000J0D01*
G01*
X21811000Y27279000D01*
G75*
G02*
X22061000Y27029000I0J-250000D01*
G01*
X22061000Y26354000D01*
G75*
G02*
X21811000Y26104000I-250000J0D01*
G01*
G37*
G36*
G01*
X21811000Y24029000D02*
X20861000Y24029000D01*
G75*
G02*
X20611000Y24279000I0J250000D01*
G01*
X20611000Y24954000D01*
G75*
G02*
X20861000Y25204000I250000J0D01*
G01*
X21811000Y25204000D01*
G75*
G02*
X22061000Y24954000I0J-250000D01*
G01*
X22061000Y24279000D01*
G75*
G02*
X21811000Y24029000I-250000J0D01*
G01*
G37*
G04 #@! TD*
D10*
G04 #@! TO.C,U1*
X48005000Y9735000D03*
X51055000Y6385000D03*
X51055000Y9735000D03*
X48005000Y6385000D03*
D11*
X47250000Y14360000D03*
X49530000Y14360000D03*
X51810000Y14360000D03*
G04 #@! TD*
G04 #@! TO.C,C4*
G36*
G01*
X47440000Y17940000D02*
X47440000Y18890000D01*
G75*
G02*
X47690000Y19140000I250000J0D01*
G01*
X48365000Y19140000D01*
G75*
G02*
X48615000Y18890000I0J-250000D01*
G01*
X48615000Y17940000D01*
G75*
G02*
X48365000Y17690000I-250000J0D01*
G01*
X47690000Y17690000D01*
G75*
G02*
X47440000Y17940000I0J250000D01*
G01*
G37*
G36*
G01*
X45365000Y17940000D02*
X45365000Y18890000D01*
G75*
G02*
X45615000Y19140000I250000J0D01*
G01*
X46290000Y19140000D01*
G75*
G02*
X46540000Y18890000I0J-250000D01*
G01*
X46540000Y17940000D01*
G75*
G02*
X46290000Y17690000I-250000J0D01*
G01*
X45615000Y17690000D01*
G75*
G02*
X45365000Y17940000I0J250000D01*
G01*
G37*
G04 #@! TD*
G04 #@! TO.C,C3*
G36*
G01*
X52520000Y17940000D02*
X52520000Y18890000D01*
G75*
G02*
X52770000Y19140000I250000J0D01*
G01*
X53445000Y19140000D01*
G75*
G02*
X53695000Y18890000I0J-250000D01*
G01*
X53695000Y17940000D01*
G75*
G02*
X53445000Y17690000I-250000J0D01*
G01*
X52770000Y17690000D01*
G75*
G02*
X52520000Y17940000I0J250000D01*
G01*
G37*
G36*
G01*
X50445000Y17940000D02*
X50445000Y18890000D01*
G75*
G02*
X50695000Y19140000I250000J0D01*
G01*
X51370000Y19140000D01*
G75*
G02*
X51620000Y18890000I0J-250000D01*
G01*
X51620000Y17940000D01*
G75*
G02*
X51370000Y17690000I-250000J0D01*
G01*
X50695000Y17690000D01*
G75*
G02*
X50445000Y17940000I0J250000D01*
G01*
G37*
G04 #@! TD*
G04 #@! TO.C,R1*
G36*
G01*
X41240000Y30930001D02*
X41240000Y30029999D01*
G75*
G02*
X40990001Y29780000I-249999J0D01*
G01*
X40289999Y29780000D01*
G75*
G02*
X40040000Y30029999I0J249999D01*
G01*
X40040000Y30930001D01*
G75*
G02*
X40289999Y31180000I249999J0D01*
G01*
X40990001Y31180000D01*
G75*
G02*
X41240000Y30930001I0J-249999D01*
G01*
G37*
G36*
G01*
X43240000Y30930001D02*
X43240000Y30029999D01*
G75*
G02*
X42990001Y29780000I-249999J0D01*
G01*
X42289999Y29780000D01*
G75*
G02*
X42040000Y30029999I0J249999D01*
G01*
X42040000Y30930001D01*
G75*
G02*
X42289999Y31180000I249999J0D01*
G01*
X42990001Y31180000D01*
G75*
G02*
X43240000Y30930001I0J-249999D01*
G01*
G37*
G04 #@! TD*
G04 #@! TO.C,C1*
G36*
G01*
X36035000Y26082500D02*
X35085000Y26082500D01*
G75*
G02*
X34835000Y26332500I0J250000D01*
G01*
X34835000Y27007500D01*
G75*
G02*
X35085000Y27257500I250000J0D01*
G01*
X36035000Y27257500D01*
G75*
G02*
X36285000Y27007500I0J-250000D01*
G01*
X36285000Y26332500D01*
G75*
G02*
X36035000Y26082500I-250000J0D01*
G01*
G37*
G36*
G01*
X36035000Y24007500D02*
X35085000Y24007500D01*
G75*
G02*
X34835000Y24257500I0J250000D01*
G01*
X34835000Y24932500D01*
G75*
G02*
X35085000Y25182500I250000J0D01*
G01*
X36035000Y25182500D01*
G75*
G02*
X36285000Y24932500I0J-250000D01*
G01*
X36285000Y24257500D01*
G75*
G02*
X36035000Y24007500I-250000J0D01*
G01*
G37*
G04 #@! TD*
D12*
G04 #@! TO.C,IC1*
X39198000Y23495000D03*
X39198000Y24765000D03*
X39198000Y26035000D03*
X39198000Y27305000D03*
X44622000Y27305000D03*
X44622000Y26035000D03*
X44622000Y24765000D03*
X44622000Y23495000D03*
G04 #@! TD*
G04 #@! TO.C,IC2*
X30652000Y23495000D03*
X30652000Y24765000D03*
X30652000Y26035000D03*
X30652000Y27305000D03*
X25228000Y27305000D03*
X25228000Y26035000D03*
X25228000Y24765000D03*
X25228000Y23495000D03*
G04 #@! TD*
M02*
