M48
; DRILL file {KiCad (5.1.10)-1} date 07/06/21 11:54:05
; FORMAT={-:-/ absolute / inch / decimal}
; #@! TF.CreationDate,2021-07-06T11:54:05+05:30
; #@! TF.GenerationSoftware,Kicad,Pcbnew,(5.1.10)-1
FMAT,2
INCH
T1C0.0157
T2C0.0374
T3C0.0394
T4C0.0472
%
G90
G05
T1
X0.675Y2.0
X0.675Y1.95
X0.675Y1.9
X0.86Y1.5
X0.89Y1.5
X0.935Y1.1
X0.95Y0.55
X0.97Y1.1
X0.99Y0.2
X1.03Y0.96
X1.04Y0.2
X1.07Y0.96
X1.09Y0.2
X1.34Y1.5
X1.37Y1.5
X1.41Y1.1
X1.44Y1.1
X1.51Y0.96
X1.54Y0.96
X1.75Y0.65
X1.75Y0.6
X1.75Y0.55
X1.8Y0.65
X1.81Y1.5
X1.84Y1.5
X1.85Y0.65
X1.88Y1.1
X1.92Y1.1
X1.99Y0.96
X2.02Y0.96
X2.125Y2.0
X2.125Y1.95
X2.125Y1.9
X2.125Y1.3
X2.125Y1.1
X2.125Y0.925
X2.175Y1.3
X2.175Y1.1
X2.175Y0.925
X2.175Y0.675
X2.225Y0.675
X2.34Y0.565
X2.34Y0.515
X2.34Y0.465
T2
X0.5Y1.4969
X0.5Y1.3984
X0.5Y1.3
X0.5Y1.2016
X0.5Y1.1031
X0.8266Y1.75
X0.925Y1.75
X1.0234Y1.75
X1.3016Y1.75
X1.4Y1.75
X1.4984Y1.75
X1.775Y1.75
X1.8734Y1.75
X1.9719Y1.75
T3
X0.128Y1.9197
X0.128Y1.8197
X0.128Y1.7197
X0.128Y1.6197
X0.128Y1.5197
X0.128Y1.4197
X0.128Y1.3197
X0.128Y1.2197
X0.128Y1.1197
X0.128Y1.0197
X0.128Y0.9197
X0.128Y0.8197
X0.128Y0.7197
X0.128Y0.6197
X0.128Y0.5197
X0.128Y0.4197
X0.128Y0.3197
X0.128Y0.2197
X0.128Y0.1197
X0.228Y1.9197
X0.228Y1.8197
X0.228Y1.7197
X0.228Y1.6197
X0.228Y1.5197
X0.228Y1.4197
X0.228Y1.3197
X0.228Y1.2197
X0.228Y1.1197
X0.228Y1.0197
X0.228Y0.9197
X0.228Y0.8197
X0.228Y0.7197
X0.228Y0.6197
X0.228Y0.5197
X0.228Y0.4197
X0.228Y0.3197
X0.228Y0.2197
X0.228Y0.1197
X0.5972Y0.6
X0.5972Y0.5
X0.5972Y0.4
X0.5972Y0.3
X0.5972Y0.2
X0.5972Y0.1
X1.4028Y0.6
X1.4028Y0.5
X1.4028Y0.4
X1.4028Y0.3
X1.4028Y0.2
X1.4028Y0.1
X2.225Y1.625
X2.2266Y0.125
X2.325Y1.625
X2.325Y0.125
X2.528Y1.9197
X2.528Y1.8197
X2.528Y1.7197
X2.528Y1.6197
X2.528Y1.5197
X2.528Y1.4197
X2.528Y1.3197
X2.528Y1.2197
X2.528Y1.1197
X2.528Y1.0197
X2.528Y0.9197
X2.528Y0.8197
X2.528Y0.7197
X2.528Y0.6197
X2.528Y0.5197
X2.528Y0.4197
X2.528Y0.3197
X2.528Y0.2197
X2.528Y0.1197
X2.628Y1.9197
X2.628Y1.8197
X2.628Y1.7197
X2.628Y1.6197
X2.628Y1.5197
X2.628Y1.4197
X2.628Y1.3197
X2.628Y1.2197
X2.628Y1.1197
X2.628Y1.0197
X2.628Y0.9197
X2.628Y0.8197
X2.628Y0.7197
X2.628Y0.6197
X2.628Y0.5197
X2.628Y0.4197
X2.628Y0.3197
X2.628Y0.2197
X2.628Y0.1197
T4
X2.388Y0.2037
T0
M30
