G04 #@! TF.GenerationSoftware,KiCad,Pcbnew,(5.1.10)-1*
G04 #@! TF.CreationDate,2021-07-06T11:53:58+05:30*
G04 #@! TF.ProjectId,STM_Morpho,53544d5f-4d6f-4727-9068-6f2e6b696361,rev?*
G04 #@! TF.SameCoordinates,PX7bfa480PY7270e00*
G04 #@! TF.FileFunction,Soldermask,Bot*
G04 #@! TF.FilePolarity,Negative*
%FSLAX46Y46*%
G04 Gerber Fmt 4.6, Leading zero omitted, Abs format (unit mm)*
G04 Created by KiCad (PCBNEW (5.1.10)-1) date 2021-07-06 11:53:58*
%MOMM*%
%LPD*%
G01*
G04 APERTURE LIST*
%ADD10O,1.700000X1.700000*%
%ADD11R,1.700000X1.700000*%
%ADD12O,2.000000X1.500000*%
%ADD13O,1.950000X1.700000*%
%ADD14C,1.200000*%
%ADD15O,1.700000X2.000000*%
%ADD16O,1.700000X1.950000*%
G04 APERTURE END LIST*
D10*
G04 #@! TO.C,CN10*
X66750000Y3040000D03*
X64210000Y3040000D03*
X66750000Y5580000D03*
X64210000Y5580000D03*
X66750000Y8120000D03*
X64210000Y8120000D03*
X66750000Y10660000D03*
X64210000Y10660000D03*
X66750000Y13200000D03*
X64210000Y13200000D03*
X66750000Y15740000D03*
X64210000Y15740000D03*
X66750000Y18280000D03*
X64210000Y18280000D03*
X66750000Y20820000D03*
X64210000Y20820000D03*
X66750000Y23360000D03*
X64210000Y23360000D03*
X66750000Y25900000D03*
X64210000Y25900000D03*
X66750000Y28440000D03*
X64210000Y28440000D03*
X66750000Y30980000D03*
X64210000Y30980000D03*
X66750000Y33520000D03*
X64210000Y33520000D03*
X66750000Y36060000D03*
X64210000Y36060000D03*
X66750000Y38600000D03*
X64210000Y38600000D03*
X66750000Y41140000D03*
X64210000Y41140000D03*
X66750000Y43680000D03*
X64210000Y43680000D03*
X66750000Y46220000D03*
X64210000Y46220000D03*
X66750000Y48760000D03*
D11*
X64210000Y48760000D03*
G04 #@! TD*
D12*
G04 #@! TO.C,J1*
X35630000Y15240000D03*
X15170000Y15240000D03*
X35630000Y12700000D03*
X15170000Y12700000D03*
X35630000Y10160000D03*
X15170000Y10160000D03*
X35630000Y7620000D03*
X15170000Y7620000D03*
X35630000Y5080000D03*
X15170000Y5080000D03*
X35630000Y2540000D03*
X15170000Y2540000D03*
G04 #@! TD*
D11*
G04 #@! TO.C,J3*
X56515000Y41275000D03*
D10*
X59055000Y41275000D03*
G04 #@! TD*
G04 #@! TO.C,CN7*
X5790000Y3040000D03*
X3250000Y3040000D03*
X5790000Y5580000D03*
X3250000Y5580000D03*
X5790000Y8120000D03*
X3250000Y8120000D03*
X5790000Y10660000D03*
X3250000Y10660000D03*
X5790000Y13200000D03*
X3250000Y13200000D03*
X5790000Y15740000D03*
X3250000Y15740000D03*
X5790000Y18280000D03*
X3250000Y18280000D03*
X5790000Y20820000D03*
X3250000Y20820000D03*
X5790000Y23360000D03*
X3250000Y23360000D03*
X5790000Y25900000D03*
X3250000Y25900000D03*
X5790000Y28440000D03*
X3250000Y28440000D03*
X5790000Y30980000D03*
X3250000Y30980000D03*
X5790000Y33520000D03*
X3250000Y33520000D03*
X5790000Y36060000D03*
X3250000Y36060000D03*
X5790000Y38600000D03*
X3250000Y38600000D03*
X5790000Y41140000D03*
X3250000Y41140000D03*
X5790000Y43680000D03*
X3250000Y43680000D03*
X5790000Y46220000D03*
X3250000Y46220000D03*
X5790000Y48760000D03*
D11*
X3250000Y48760000D03*
G04 #@! TD*
G04 #@! TO.C,SPI1*
G36*
G01*
X11975000Y38870000D02*
X13425000Y38870000D01*
G75*
G02*
X13675000Y38620000I0J-250000D01*
G01*
X13675000Y37420000D01*
G75*
G02*
X13425000Y37170000I-250000J0D01*
G01*
X11975000Y37170000D01*
G75*
G02*
X11725000Y37420000I0J250000D01*
G01*
X11725000Y38620000D01*
G75*
G02*
X11975000Y38870000I250000J0D01*
G01*
G37*
D13*
X12700000Y35520000D03*
X12700000Y33020000D03*
X12700000Y30520000D03*
X12700000Y28020000D03*
G04 #@! TD*
D14*
G04 #@! TO.C,J2*
X60655000Y5175000D03*
D15*
X56555000Y3175000D03*
G36*
G01*
X59905000Y3925000D02*
X59905000Y2425000D01*
G75*
G02*
X59655000Y2175000I-250000J0D01*
G01*
X58455000Y2175000D01*
G75*
G02*
X58205000Y2425000I0J250000D01*
G01*
X58205000Y3925000D01*
G75*
G02*
X58455000Y4175000I250000J0D01*
G01*
X59655000Y4175000D01*
G75*
G02*
X59905000Y3925000I0J-250000D01*
G01*
G37*
G04 #@! TD*
D16*
G04 #@! TO.C,CAN3*
X50085000Y44450000D03*
X47585000Y44450000D03*
G36*
G01*
X44235000Y43725000D02*
X44235000Y45175000D01*
G75*
G02*
X44485000Y45425000I250000J0D01*
G01*
X45685000Y45425000D01*
G75*
G02*
X45935000Y45175000I0J-250000D01*
G01*
X45935000Y43725000D01*
G75*
G02*
X45685000Y43475000I-250000J0D01*
G01*
X44485000Y43475000D01*
G75*
G02*
X44235000Y43725000I0J250000D01*
G01*
G37*
G04 #@! TD*
G04 #@! TO.C,CAN2*
X38060000Y44450000D03*
X35560000Y44450000D03*
G36*
G01*
X32210000Y43725000D02*
X32210000Y45175000D01*
G75*
G02*
X32460000Y45425000I250000J0D01*
G01*
X33660000Y45425000D01*
G75*
G02*
X33910000Y45175000I0J-250000D01*
G01*
X33910000Y43725000D01*
G75*
G02*
X33660000Y43475000I-250000J0D01*
G01*
X32460000Y43475000D01*
G75*
G02*
X32210000Y43725000I0J250000D01*
G01*
G37*
G04 #@! TD*
G04 #@! TO.C,CAN1*
X25995000Y44450000D03*
X23495000Y44450000D03*
G36*
G01*
X20145000Y43725000D02*
X20145000Y45175000D01*
G75*
G02*
X20395000Y45425000I250000J0D01*
G01*
X21595000Y45425000D01*
G75*
G02*
X21845000Y45175000I0J-250000D01*
G01*
X21845000Y43725000D01*
G75*
G02*
X21595000Y43475000I-250000J0D01*
G01*
X20395000Y43475000D01*
G75*
G02*
X20145000Y43725000I0J250000D01*
G01*
G37*
G04 #@! TD*
M02*
