G04 #@! TF.GenerationSoftware,KiCad,Pcbnew,(5.1.10)-1*
G04 #@! TF.CreationDate,2021-07-06T11:53:58+05:30*
G04 #@! TF.ProjectId,STM_Morpho,53544d5f-4d6f-4727-9068-6f2e6b696361,rev?*
G04 #@! TF.SameCoordinates,PX7bfa480PY7270e00*
G04 #@! TF.FileFunction,Legend,Bot*
G04 #@! TF.FilePolarity,Positive*
%FSLAX46Y46*%
G04 Gerber Fmt 4.6, Leading zero omitted, Abs format (unit mm)*
G04 Created by KiCad (PCBNEW (5.1.10)-1) date 2021-07-06 11:53:58*
%MOMM*%
%LPD*%
G01*
G04 APERTURE LIST*
%ADD10C,0.200000*%
%ADD11C,0.120000*%
G04 APERTURE END LIST*
D10*
X31836095Y22567620D02*
X31264666Y22567620D01*
X31550380Y21567620D02*
X31550380Y22567620D01*
X30740857Y22567620D02*
X30550380Y22567620D01*
X30455142Y22520000D01*
X30359904Y22424762D01*
X30312285Y22234286D01*
X30312285Y21900953D01*
X30359904Y21710477D01*
X30455142Y21615239D01*
X30550380Y21567620D01*
X30740857Y21567620D01*
X30836095Y21615239D01*
X30931333Y21710477D01*
X30978952Y21900953D01*
X30978952Y22234286D01*
X30931333Y22424762D01*
X30836095Y22520000D01*
X30740857Y22567620D01*
X29121809Y21567620D02*
X29121809Y22567620D01*
X28740857Y22567620D01*
X28645619Y22520000D01*
X28598000Y22472381D01*
X28550380Y22377143D01*
X28550380Y22234286D01*
X28598000Y22139048D01*
X28645619Y22091429D01*
X28740857Y22043810D01*
X29121809Y22043810D01*
X27931333Y22567620D02*
X27740857Y22567620D01*
X27645619Y22520000D01*
X27550380Y22424762D01*
X27502761Y22234286D01*
X27502761Y21900953D01*
X27550380Y21710477D01*
X27645619Y21615239D01*
X27740857Y21567620D01*
X27931333Y21567620D01*
X28026571Y21615239D01*
X28121809Y21710477D01*
X28169428Y21900953D01*
X28169428Y22234286D01*
X28121809Y22424762D01*
X28026571Y22520000D01*
X27931333Y22567620D01*
X27169428Y22567620D02*
X26931333Y21567620D01*
X26740857Y22281905D01*
X26550380Y21567620D01*
X26312285Y22567620D01*
X25931333Y22091429D02*
X25598000Y22091429D01*
X25455142Y21567620D02*
X25931333Y21567620D01*
X25931333Y22567620D01*
X25455142Y22567620D01*
X24455142Y21567620D02*
X24788476Y22043810D01*
X25026571Y21567620D02*
X25026571Y22567620D01*
X24645619Y22567620D01*
X24550380Y22520000D01*
X24502761Y22472381D01*
X24455142Y22377143D01*
X24455142Y22234286D01*
X24502761Y22139048D01*
X24550380Y22091429D01*
X24645619Y22043810D01*
X25026571Y22043810D01*
X22931333Y22091429D02*
X23264666Y22091429D01*
X23264666Y21567620D02*
X23264666Y22567620D01*
X22788476Y22567620D01*
X21836095Y21567620D02*
X22169428Y22043810D01*
X22407523Y21567620D02*
X22407523Y22567620D01*
X22026571Y22567620D01*
X21931333Y22520000D01*
X21883714Y22472381D01*
X21836095Y22377143D01*
X21836095Y22234286D01*
X21883714Y22139048D01*
X21931333Y22091429D01*
X22026571Y22043810D01*
X22407523Y22043810D01*
X21217047Y22567620D02*
X21026571Y22567620D01*
X20931333Y22520000D01*
X20836095Y22424762D01*
X20788476Y22234286D01*
X20788476Y21900953D01*
X20836095Y21710477D01*
X20931333Y21615239D01*
X21026571Y21567620D01*
X21217047Y21567620D01*
X21312285Y21615239D01*
X21407523Y21710477D01*
X21455142Y21900953D01*
X21455142Y22234286D01*
X21407523Y22424762D01*
X21312285Y22520000D01*
X21217047Y22567620D01*
X20359904Y21567620D02*
X20359904Y22567620D01*
X20026571Y21853334D01*
X19693238Y22567620D01*
X19693238Y21567620D01*
X18502761Y21615239D02*
X18359904Y21567620D01*
X18121809Y21567620D01*
X18026571Y21615239D01*
X17978952Y21662858D01*
X17931333Y21758096D01*
X17931333Y21853334D01*
X17978952Y21948572D01*
X18026571Y21996191D01*
X18121809Y22043810D01*
X18312285Y22091429D01*
X18407523Y22139048D01*
X18455142Y22186667D01*
X18502761Y22281905D01*
X18502761Y22377143D01*
X18455142Y22472381D01*
X18407523Y22520000D01*
X18312285Y22567620D01*
X18074190Y22567620D01*
X17931333Y22520000D01*
X17502761Y21567620D02*
X17502761Y22567620D01*
X17502761Y22091429D02*
X16931333Y22091429D01*
X16931333Y21567620D02*
X16931333Y22567620D01*
X16455142Y21567620D02*
X16455142Y22567620D01*
X15978952Y22091429D02*
X15645619Y22091429D01*
X15502761Y21567620D02*
X15978952Y21567620D01*
X15978952Y22567620D01*
X15502761Y22567620D01*
X14598000Y21567620D02*
X15074190Y21567620D01*
X15074190Y22567620D01*
X14264666Y21567620D02*
X14264666Y22567620D01*
X14026571Y22567620D01*
X13883714Y22520000D01*
X13788476Y22424762D01*
X13740857Y22329524D01*
X13693238Y22139048D01*
X13693238Y21996191D01*
X13740857Y21805715D01*
X13788476Y21710477D01*
X13883714Y21615239D01*
X14026571Y21567620D01*
X14264666Y21567620D01*
X13264666Y21948572D02*
X12502761Y21948572D01*
X30336095Y19962858D02*
X30383714Y19915239D01*
X30526571Y19867620D01*
X30621809Y19867620D01*
X30764666Y19915239D01*
X30859904Y20010477D01*
X30907523Y20105715D01*
X30955142Y20296191D01*
X30955142Y20439048D01*
X30907523Y20629524D01*
X30859904Y20724762D01*
X30764666Y20820000D01*
X30621809Y20867620D01*
X30526571Y20867620D01*
X30383714Y20820000D01*
X30336095Y20772381D01*
X29717047Y20867620D02*
X29526571Y20867620D01*
X29431333Y20820000D01*
X29336095Y20724762D01*
X29288476Y20534286D01*
X29288476Y20200953D01*
X29336095Y20010477D01*
X29431333Y19915239D01*
X29526571Y19867620D01*
X29717047Y19867620D01*
X29812285Y19915239D01*
X29907523Y20010477D01*
X29955142Y20200953D01*
X29955142Y20534286D01*
X29907523Y20724762D01*
X29812285Y20820000D01*
X29717047Y20867620D01*
X28859904Y19867620D02*
X28859904Y20867620D01*
X28288476Y19867620D01*
X28288476Y20867620D01*
X27812285Y19867620D02*
X27812285Y20867620D01*
X27240857Y19867620D01*
X27240857Y20867620D01*
X26764666Y20391429D02*
X26431333Y20391429D01*
X26288476Y19867620D02*
X26764666Y19867620D01*
X26764666Y20867620D01*
X26288476Y20867620D01*
X25288476Y19962858D02*
X25336095Y19915239D01*
X25478952Y19867620D01*
X25574190Y19867620D01*
X25717047Y19915239D01*
X25812285Y20010477D01*
X25859904Y20105715D01*
X25907523Y20296191D01*
X25907523Y20439048D01*
X25859904Y20629524D01*
X25812285Y20724762D01*
X25717047Y20820000D01*
X25574190Y20867620D01*
X25478952Y20867620D01*
X25336095Y20820000D01*
X25288476Y20772381D01*
X25002761Y20867620D02*
X24431333Y20867620D01*
X24717047Y19867620D02*
X24717047Y20867620D01*
X23050380Y20867620D02*
X23050380Y20153334D01*
X23098000Y20010477D01*
X23193238Y19915239D01*
X23336095Y19867620D01*
X23431333Y19867620D01*
X22669428Y20867620D02*
X22050380Y20867620D01*
X22383714Y20486667D01*
X22240857Y20486667D01*
X22145619Y20439048D01*
X22098000Y20391429D01*
X22050380Y20296191D01*
X22050380Y20058096D01*
X22098000Y19962858D01*
X22145619Y19915239D01*
X22240857Y19867620D01*
X22526571Y19867620D01*
X22621809Y19915239D01*
X22669428Y19962858D01*
X20669428Y20867620D02*
X20478952Y20867620D01*
X20383714Y20820000D01*
X20288476Y20724762D01*
X20240857Y20534286D01*
X20240857Y20200953D01*
X20288476Y20010477D01*
X20383714Y19915239D01*
X20478952Y19867620D01*
X20669428Y19867620D01*
X20764666Y19915239D01*
X20859904Y20010477D01*
X20907523Y20200953D01*
X20907523Y20534286D01*
X20859904Y20724762D01*
X20764666Y20820000D01*
X20669428Y20867620D01*
X19812285Y19867620D02*
X19812285Y20867620D01*
X19240857Y19867620D01*
X19240857Y20867620D01*
X18050380Y19915239D02*
X17907523Y19867620D01*
X17669428Y19867620D01*
X17574190Y19915239D01*
X17526571Y19962858D01*
X17478952Y20058096D01*
X17478952Y20153334D01*
X17526571Y20248572D01*
X17574190Y20296191D01*
X17669428Y20343810D01*
X17859904Y20391429D01*
X17955142Y20439048D01*
X18002761Y20486667D01*
X18050380Y20581905D01*
X18050380Y20677143D01*
X18002761Y20772381D01*
X17955142Y20820000D01*
X17859904Y20867620D01*
X17621809Y20867620D01*
X17478952Y20820000D01*
X17050380Y19867620D02*
X17050380Y20867620D01*
X17050380Y20391429D02*
X16478952Y20391429D01*
X16478952Y19867620D02*
X16478952Y20867620D01*
X16002761Y19867620D02*
X16002761Y20867620D01*
X15526571Y20391429D02*
X15193238Y20391429D01*
X15050380Y19867620D02*
X15526571Y19867620D01*
X15526571Y20867620D01*
X15050380Y20867620D01*
X14145619Y19867620D02*
X14621809Y19867620D01*
X14621809Y20867620D01*
X13812285Y19867620D02*
X13812285Y20867620D01*
X13574190Y20867620D01*
X13431333Y20820000D01*
X13336095Y20724762D01*
X13288476Y20629524D01*
X13240857Y20439048D01*
X13240857Y20296191D01*
X13288476Y20105715D01*
X13336095Y20010477D01*
X13431333Y19915239D01*
X13574190Y19867620D01*
X13812285Y19867620D01*
X30740857Y18215239D02*
X30598000Y18167620D01*
X30359904Y18167620D01*
X30264666Y18215239D01*
X30217047Y18262858D01*
X30169428Y18358096D01*
X30169428Y18453334D01*
X30217047Y18548572D01*
X30264666Y18596191D01*
X30359904Y18643810D01*
X30550380Y18691429D01*
X30645619Y18739048D01*
X30693238Y18786667D01*
X30740857Y18881905D01*
X30740857Y18977143D01*
X30693238Y19072381D01*
X30645619Y19120000D01*
X30550380Y19167620D01*
X30312285Y19167620D01*
X30169428Y19120000D01*
X29836095Y19167620D02*
X29598000Y18167620D01*
X29407523Y18881905D01*
X29217047Y18167620D01*
X28978952Y19167620D01*
X28645619Y18453334D02*
X28169428Y18453334D01*
X28740857Y18167620D02*
X28407523Y19167620D01*
X28074190Y18167620D01*
X27740857Y18167620D02*
X27740857Y19167620D01*
X27359904Y19167620D01*
X27264666Y19120000D01*
X27217047Y19072381D01*
X27169428Y18977143D01*
X27169428Y18834286D01*
X27217047Y18739048D01*
X27264666Y18691429D01*
X27359904Y18643810D01*
X27740857Y18643810D01*
X25693238Y19167620D02*
X25693238Y18453334D01*
X25740857Y18310477D01*
X25836095Y18215239D01*
X25978952Y18167620D01*
X26074190Y18167620D01*
X25217047Y18167620D02*
X25217047Y19167620D01*
X24836095Y19167620D01*
X24740857Y19120000D01*
X24693238Y19072381D01*
X24645619Y18977143D01*
X24645619Y18834286D01*
X24693238Y18739048D01*
X24740857Y18691429D01*
X24836095Y18643810D01*
X25217047Y18643810D01*
X23740857Y19167620D02*
X24217047Y19167620D01*
X24264666Y18691429D01*
X24217047Y18739048D01*
X24121809Y18786667D01*
X23883714Y18786667D01*
X23788476Y18739048D01*
X23740857Y18691429D01*
X23693238Y18596191D01*
X23693238Y18358096D01*
X23740857Y18262858D01*
X23788476Y18215239D01*
X23883714Y18167620D01*
X24121809Y18167620D01*
X24217047Y18215239D01*
X24264666Y18262858D01*
X22312285Y19167620D02*
X22121809Y19167620D01*
X22026571Y19120000D01*
X21931333Y19024762D01*
X21883714Y18834286D01*
X21883714Y18500953D01*
X21931333Y18310477D01*
X22026571Y18215239D01*
X22121809Y18167620D01*
X22312285Y18167620D01*
X22407523Y18215239D01*
X22502761Y18310477D01*
X22550380Y18500953D01*
X22550380Y18834286D01*
X22502761Y19024762D01*
X22407523Y19120000D01*
X22312285Y19167620D01*
X21455142Y18167620D02*
X21455142Y19167620D01*
X20883714Y18167620D01*
X20883714Y19167620D01*
X19645619Y18167620D02*
X19645619Y19167620D01*
X19074190Y18167620D01*
X19074190Y19167620D01*
X18598000Y19167620D02*
X18598000Y18358096D01*
X18550380Y18262858D01*
X18502761Y18215239D01*
X18407523Y18167620D01*
X18217047Y18167620D01*
X18121809Y18215239D01*
X18074190Y18262858D01*
X18026571Y18358096D01*
X18026571Y19167620D01*
X16978952Y18262858D02*
X17026571Y18215239D01*
X17169428Y18167620D01*
X17264666Y18167620D01*
X17407523Y18215239D01*
X17502761Y18310477D01*
X17550380Y18405715D01*
X17598000Y18596191D01*
X17598000Y18739048D01*
X17550380Y18929524D01*
X17502761Y19024762D01*
X17407523Y19120000D01*
X17264666Y19167620D01*
X17169428Y19167620D01*
X17026571Y19120000D01*
X16978952Y19072381D01*
X16074190Y18167620D02*
X16550380Y18167620D01*
X16550380Y19167620D01*
X15740857Y18691429D02*
X15407523Y18691429D01*
X15264666Y18167620D02*
X15740857Y18167620D01*
X15740857Y19167620D01*
X15264666Y19167620D01*
X14645619Y19167620D02*
X14455142Y19167620D01*
X14359904Y19120000D01*
X14264666Y19024762D01*
X14217047Y18834286D01*
X14217047Y18500953D01*
X14264666Y18310477D01*
X14359904Y18215239D01*
X14455142Y18167620D01*
X14645619Y18167620D01*
X14740857Y18215239D01*
X14836095Y18310477D01*
X14883714Y18500953D01*
X14883714Y18834286D01*
X14836095Y19024762D01*
X14740857Y19120000D01*
X14645619Y19167620D01*
X53147333Y31543715D02*
X53242571Y31448477D01*
X53528285Y31353239D01*
X53718761Y31353239D01*
X54004476Y31448477D01*
X54194952Y31638953D01*
X54290190Y31829429D01*
X54385428Y32210381D01*
X54385428Y32496096D01*
X54290190Y32877048D01*
X54194952Y33067524D01*
X54004476Y33258000D01*
X53718761Y33353239D01*
X53528285Y33353239D01*
X53242571Y33258000D01*
X53147333Y33162762D01*
X52385428Y31924667D02*
X51433047Y31924667D01*
X52575904Y31353239D02*
X51909238Y33353239D01*
X51242571Y31353239D01*
X50575904Y31353239D02*
X50575904Y33353239D01*
X49433047Y31353239D01*
X49433047Y33353239D01*
X45337809Y31353239D02*
X45433047Y31353239D01*
X45623523Y31448477D01*
X45909238Y31734191D01*
X46385428Y32305620D01*
X46575904Y32591334D01*
X46671142Y32877048D01*
X46671142Y33067524D01*
X46575904Y33258000D01*
X46385428Y33353239D01*
X46290190Y33353239D01*
X46099714Y33258000D01*
X46004476Y33067524D01*
X46004476Y32972286D01*
X46099714Y32781810D01*
X46194952Y32686572D01*
X46766380Y32305620D01*
X46861619Y32210381D01*
X46956857Y32019905D01*
X46956857Y31734191D01*
X46861619Y31543715D01*
X46766380Y31448477D01*
X46575904Y31353239D01*
X46290190Y31353239D01*
X46099714Y31448477D01*
X46004476Y31543715D01*
X45718761Y31924667D01*
X45623523Y32210381D01*
X45623523Y32400858D01*
X42956857Y32400858D02*
X42290190Y32400858D01*
X42004476Y31353239D02*
X42956857Y31353239D01*
X42956857Y33353239D01*
X42004476Y33353239D01*
X41433047Y33353239D02*
X40290190Y33353239D01*
X40861619Y31353239D02*
X40861619Y33353239D01*
X39623523Y31353239D02*
X39623523Y33353239D01*
X39623523Y32400858D02*
X38480666Y32400858D01*
X38480666Y31353239D02*
X38480666Y33353239D01*
X37528285Y32400858D02*
X36861619Y32400858D01*
X36575904Y31353239D02*
X37528285Y31353239D01*
X37528285Y33353239D01*
X36575904Y33353239D01*
X34575904Y31353239D02*
X35242571Y32305620D01*
X35718761Y31353239D02*
X35718761Y33353239D01*
X34956857Y33353239D01*
X34766380Y33258000D01*
X34671142Y33162762D01*
X34575904Y32972286D01*
X34575904Y32686572D01*
X34671142Y32496096D01*
X34766380Y32400858D01*
X34956857Y32305620D01*
X35718761Y32305620D01*
X33718761Y31353239D02*
X33718761Y33353239D01*
X32575904Y31353239D01*
X32575904Y33353239D01*
X31623523Y32400858D02*
X30956857Y32400858D01*
X30671142Y31353239D02*
X31623523Y31353239D01*
X31623523Y33353239D01*
X30671142Y33353239D01*
X30099714Y33353239D02*
X28956857Y33353239D01*
X29528285Y31353239D02*
X29528285Y33353239D01*
X26861619Y31448477D02*
X26575904Y31353239D01*
X26099714Y31353239D01*
X25909238Y31448477D01*
X25814000Y31543715D01*
X25718761Y31734191D01*
X25718761Y31924667D01*
X25814000Y32115143D01*
X25909238Y32210381D01*
X26099714Y32305620D01*
X26480666Y32400858D01*
X26671142Y32496096D01*
X26766380Y32591334D01*
X26861619Y32781810D01*
X26861619Y32972286D01*
X26766380Y33162762D01*
X26671142Y33258000D01*
X26480666Y33353239D01*
X26004476Y33353239D01*
X25718761Y33258000D01*
X24861619Y31353239D02*
X24861619Y33353239D01*
X24861619Y32400858D02*
X23718761Y32400858D01*
X23718761Y31353239D02*
X23718761Y33353239D01*
X22766380Y31353239D02*
X22766380Y33353239D01*
X21814000Y32400858D02*
X21147333Y32400858D01*
X20861619Y31353239D02*
X21814000Y31353239D01*
X21814000Y33353239D01*
X20861619Y33353239D01*
X19052095Y31353239D02*
X20004476Y31353239D01*
X20004476Y33353239D01*
X18385428Y31353239D02*
X18385428Y33353239D01*
X17909238Y33353239D01*
X17623523Y33258000D01*
X17433047Y33067524D01*
X17337809Y32877048D01*
X17242571Y32496096D01*
X17242571Y32210381D01*
X17337809Y31829429D01*
X17433047Y31638953D01*
X17623523Y31448477D01*
X17909238Y31353239D01*
X18385428Y31353239D01*
X58307904Y23013620D02*
X58307904Y24013620D01*
X57260285Y23108858D02*
X57307904Y23061239D01*
X57450761Y23013620D01*
X57546000Y23013620D01*
X57688857Y23061239D01*
X57784095Y23156477D01*
X57831714Y23251715D01*
X57879333Y23442191D01*
X57879333Y23585048D01*
X57831714Y23775524D01*
X57784095Y23870762D01*
X57688857Y23966000D01*
X57546000Y24013620D01*
X57450761Y24013620D01*
X57307904Y23966000D01*
X57260285Y23918381D01*
X56307904Y23013620D02*
X56879333Y23013620D01*
X56593619Y23013620D02*
X56593619Y24013620D01*
X56688857Y23870762D01*
X56784095Y23775524D01*
X56879333Y23727905D01*
X55831714Y23061239D02*
X55831714Y23013620D01*
X55879333Y22918381D01*
X55926952Y22870762D01*
X55403142Y23013620D02*
X55403142Y24013620D01*
X54355523Y23108858D02*
X54403142Y23061239D01*
X54546000Y23013620D01*
X54641238Y23013620D01*
X54784095Y23061239D01*
X54879333Y23156477D01*
X54926952Y23251715D01*
X54974571Y23442191D01*
X54974571Y23585048D01*
X54926952Y23775524D01*
X54879333Y23870762D01*
X54784095Y23966000D01*
X54641238Y24013620D01*
X54546000Y24013620D01*
X54403142Y23966000D01*
X54355523Y23918381D01*
X53974571Y23918381D02*
X53926952Y23966000D01*
X53831714Y24013620D01*
X53593619Y24013620D01*
X53498380Y23966000D01*
X53450761Y23918381D01*
X53403142Y23823143D01*
X53403142Y23727905D01*
X53450761Y23585048D01*
X54022190Y23013620D01*
X53403142Y23013620D01*
X52926952Y23061239D02*
X52926952Y23013620D01*
X52974571Y22918381D01*
X53022190Y22870762D01*
X52498380Y23013620D02*
X52498380Y24013620D01*
X51450761Y23108858D02*
X51498380Y23061239D01*
X51641238Y23013620D01*
X51736476Y23013620D01*
X51879333Y23061239D01*
X51974571Y23156477D01*
X52022190Y23251715D01*
X52069809Y23442191D01*
X52069809Y23585048D01*
X52022190Y23775524D01*
X51974571Y23870762D01*
X51879333Y23966000D01*
X51736476Y24013620D01*
X51641238Y24013620D01*
X51498380Y23966000D01*
X51450761Y23918381D01*
X51117428Y24013620D02*
X50498380Y24013620D01*
X50831714Y23632667D01*
X50688857Y23632667D01*
X50593619Y23585048D01*
X50546000Y23537429D01*
X50498380Y23442191D01*
X50498380Y23204096D01*
X50546000Y23108858D01*
X50593619Y23061239D01*
X50688857Y23013620D01*
X50974571Y23013620D01*
X51069809Y23061239D01*
X51117428Y23108858D01*
X50069809Y23394572D02*
X49307904Y23394572D01*
X48974571Y24013620D02*
X48403142Y24013620D01*
X48688857Y23013620D02*
X48688857Y24013620D01*
X47498380Y23108858D02*
X47546000Y23061239D01*
X47688857Y23013620D01*
X47784095Y23013620D01*
X47926952Y23061239D01*
X48022190Y23156477D01*
X48069809Y23251715D01*
X48117428Y23442191D01*
X48117428Y23585048D01*
X48069809Y23775524D01*
X48022190Y23870762D01*
X47926952Y23966000D01*
X47784095Y24013620D01*
X47688857Y24013620D01*
X47546000Y23966000D01*
X47498380Y23918381D01*
X47117428Y23299334D02*
X46641238Y23299334D01*
X47212666Y23013620D02*
X46879333Y24013620D01*
X46546000Y23013620D01*
X46212666Y23013620D02*
X46212666Y24013620D01*
X45641238Y23013620D01*
X45641238Y24013620D01*
X45260285Y24013620D02*
X44641238Y24013620D01*
X44974571Y23632667D01*
X44831714Y23632667D01*
X44736476Y23585048D01*
X44688857Y23537429D01*
X44641238Y23442191D01*
X44641238Y23204096D01*
X44688857Y23108858D01*
X44736476Y23061239D01*
X44831714Y23013620D01*
X45117428Y23013620D01*
X45212666Y23061239D01*
X45260285Y23108858D01*
X44307904Y24013620D02*
X43688857Y24013620D01*
X44022190Y23632667D01*
X43879333Y23632667D01*
X43784095Y23585048D01*
X43736476Y23537429D01*
X43688857Y23442191D01*
X43688857Y23204096D01*
X43736476Y23108858D01*
X43784095Y23061239D01*
X43879333Y23013620D01*
X44165047Y23013620D01*
X44260285Y23061239D01*
X44307904Y23108858D01*
X42831714Y23680286D02*
X42831714Y23013620D01*
X43069809Y24061239D02*
X43307904Y23346953D01*
X42688857Y23346953D01*
X55212666Y22313620D02*
X55212666Y21504096D01*
X55165047Y21408858D01*
X55117428Y21361239D01*
X55022190Y21313620D01*
X54831714Y21313620D01*
X54736476Y21361239D01*
X54688857Y21408858D01*
X54641238Y21504096D01*
X54641238Y22313620D01*
X53641238Y21313620D02*
X54212666Y21313620D01*
X53926952Y21313620D02*
X53926952Y22313620D01*
X54022190Y22170762D01*
X54117428Y22075524D01*
X54212666Y22027905D01*
X53212666Y21694572D02*
X52450761Y21694572D01*
X51498380Y21313620D02*
X51974571Y21313620D01*
X51974571Y22313620D01*
X51165047Y21313620D02*
X51165047Y22313620D01*
X50926952Y22313620D01*
X50784095Y22266000D01*
X50688857Y22170762D01*
X50641238Y22075524D01*
X50593619Y21885048D01*
X50593619Y21742191D01*
X50641238Y21551715D01*
X50688857Y21456477D01*
X50784095Y21361239D01*
X50926952Y21313620D01*
X51165047Y21313620D01*
X50260285Y22313620D02*
X49641238Y22313620D01*
X49974571Y21932667D01*
X49831714Y21932667D01*
X49736476Y21885048D01*
X49688857Y21837429D01*
X49641238Y21742191D01*
X49641238Y21504096D01*
X49688857Y21408858D01*
X49736476Y21361239D01*
X49831714Y21313620D01*
X50117428Y21313620D01*
X50212666Y21361239D01*
X50260285Y21408858D01*
X49165047Y21313620D02*
X48974571Y21313620D01*
X48879333Y21361239D01*
X48831714Y21408858D01*
X48736476Y21551715D01*
X48688857Y21742191D01*
X48688857Y22123143D01*
X48736476Y22218381D01*
X48784095Y22266000D01*
X48879333Y22313620D01*
X49069809Y22313620D01*
X49165047Y22266000D01*
X49212666Y22218381D01*
X49260285Y22123143D01*
X49260285Y21885048D01*
X49212666Y21789810D01*
X49165047Y21742191D01*
X49069809Y21694572D01*
X48879333Y21694572D01*
X48784095Y21742191D01*
X48736476Y21789810D01*
X48688857Y21885048D01*
X47736476Y21313620D02*
X48307904Y21313620D01*
X48022190Y21313620D02*
X48022190Y22313620D01*
X48117428Y22170762D01*
X48212666Y22075524D01*
X48307904Y22027905D01*
X46831714Y22313620D02*
X47307904Y22313620D01*
X47355523Y21837429D01*
X47307904Y21885048D01*
X47212666Y21932667D01*
X46974571Y21932667D01*
X46879333Y21885048D01*
X46831714Y21837429D01*
X46784095Y21742191D01*
X46784095Y21504096D01*
X46831714Y21408858D01*
X46879333Y21361239D01*
X46974571Y21313620D01*
X47212666Y21313620D01*
X47307904Y21361239D01*
X47355523Y21408858D01*
X46165047Y22313620D02*
X46069809Y22313620D01*
X45974571Y22266000D01*
X45926952Y22218381D01*
X45879333Y22123143D01*
X45831714Y21932667D01*
X45831714Y21694572D01*
X45879333Y21504096D01*
X45926952Y21408858D01*
X45974571Y21361239D01*
X46069809Y21313620D01*
X46165047Y21313620D01*
X46260285Y21361239D01*
X46307904Y21408858D01*
X46355523Y21504096D01*
X46403142Y21694572D01*
X46403142Y21932667D01*
X46355523Y22123143D01*
X46307904Y22218381D01*
X46260285Y22266000D01*
X46165047Y22313620D01*
X57593619Y19613620D02*
X57926952Y20089810D01*
X58165047Y19613620D02*
X58165047Y20613620D01*
X57784095Y20613620D01*
X57688857Y20566000D01*
X57641238Y20518381D01*
X57593619Y20423143D01*
X57593619Y20280286D01*
X57641238Y20185048D01*
X57688857Y20137429D01*
X57784095Y20089810D01*
X58165047Y20089810D01*
X56641238Y19613620D02*
X57212666Y19613620D01*
X56926952Y19613620D02*
X56926952Y20613620D01*
X57022190Y20470762D01*
X57117428Y20375524D01*
X57212666Y20327905D01*
X56165047Y19661239D02*
X56165047Y19613620D01*
X56212666Y19518381D01*
X56260285Y19470762D01*
X55165047Y19613620D02*
X55498380Y20089810D01*
X55736476Y19613620D02*
X55736476Y20613620D01*
X55355523Y20613620D01*
X55260285Y20566000D01*
X55212666Y20518381D01*
X55165047Y20423143D01*
X55165047Y20280286D01*
X55212666Y20185048D01*
X55260285Y20137429D01*
X55355523Y20089810D01*
X55736476Y20089810D01*
X54784095Y20518381D02*
X54736476Y20566000D01*
X54641238Y20613620D01*
X54403142Y20613620D01*
X54307904Y20566000D01*
X54260285Y20518381D01*
X54212666Y20423143D01*
X54212666Y20327905D01*
X54260285Y20185048D01*
X54831714Y19613620D01*
X54212666Y19613620D01*
X53736476Y19661239D02*
X53736476Y19613620D01*
X53784095Y19518381D01*
X53831714Y19470762D01*
X52736476Y19613620D02*
X53069809Y20089810D01*
X53307904Y19613620D02*
X53307904Y20613620D01*
X52926952Y20613620D01*
X52831714Y20566000D01*
X52784095Y20518381D01*
X52736476Y20423143D01*
X52736476Y20280286D01*
X52784095Y20185048D01*
X52831714Y20137429D01*
X52926952Y20089810D01*
X53307904Y20089810D01*
X52403142Y20613620D02*
X51784095Y20613620D01*
X52117428Y20232667D01*
X51974571Y20232667D01*
X51879333Y20185048D01*
X51831714Y20137429D01*
X51784095Y20042191D01*
X51784095Y19804096D01*
X51831714Y19708858D01*
X51879333Y19661239D01*
X51974571Y19613620D01*
X52260285Y19613620D01*
X52355523Y19661239D01*
X52403142Y19708858D01*
X50593619Y19994572D02*
X49831714Y19994572D01*
X48831714Y19613620D02*
X49403142Y19613620D01*
X49117428Y19613620D02*
X49117428Y20613620D01*
X49212666Y20470762D01*
X49307904Y20375524D01*
X49403142Y20327905D01*
X48450761Y20518381D02*
X48403142Y20566000D01*
X48307904Y20613620D01*
X48069809Y20613620D01*
X47974571Y20566000D01*
X47926952Y20518381D01*
X47879333Y20423143D01*
X47879333Y20327905D01*
X47926952Y20185048D01*
X48498380Y19613620D01*
X47879333Y19613620D01*
X47260285Y20613620D02*
X47165047Y20613620D01*
X47069809Y20566000D01*
X47022190Y20518381D01*
X46974571Y20423143D01*
X46926952Y20232667D01*
X46926952Y19994572D01*
X46974571Y19804096D01*
X47022190Y19708858D01*
X47069809Y19661239D01*
X47165047Y19613620D01*
X47260285Y19613620D01*
X47355523Y19661239D01*
X47403142Y19708858D01*
X47450761Y19804096D01*
X47498380Y19994572D01*
X47498380Y20232667D01*
X47450761Y20423143D01*
X47403142Y20518381D01*
X47355523Y20566000D01*
X47260285Y20613620D01*
X45546000Y20613620D02*
X45355523Y20613620D01*
X45260285Y20566000D01*
X45165047Y20470762D01*
X45117428Y20280286D01*
X45117428Y19946953D01*
X45165047Y19756477D01*
X45260285Y19661239D01*
X45355523Y19613620D01*
X45546000Y19613620D01*
X45641238Y19661239D01*
X45736476Y19756477D01*
X45784095Y19946953D01*
X45784095Y20280286D01*
X45736476Y20470762D01*
X45641238Y20566000D01*
X45546000Y20613620D01*
X44688857Y19613620D02*
X44688857Y20613620D01*
X44260285Y19613620D02*
X44260285Y20137429D01*
X44307904Y20232667D01*
X44403142Y20280286D01*
X44546000Y20280286D01*
X44641238Y20232667D01*
X44688857Y20185048D01*
X43784095Y19613620D02*
X43784095Y20280286D01*
X43784095Y20185048D02*
X43736476Y20232667D01*
X43641238Y20280286D01*
X43498380Y20280286D01*
X43403142Y20232667D01*
X43355523Y20137429D01*
X43355523Y19613620D01*
X43355523Y20137429D02*
X43307904Y20232667D01*
X43212666Y20280286D01*
X43069809Y20280286D01*
X42974571Y20232667D01*
X42926952Y20137429D01*
X42926952Y19613620D01*
X55379333Y18008858D02*
X55426952Y17961239D01*
X55569809Y17913620D01*
X55665047Y17913620D01*
X55807904Y17961239D01*
X55903142Y18056477D01*
X55950761Y18151715D01*
X55998380Y18342191D01*
X55998380Y18485048D01*
X55950761Y18675524D01*
X55903142Y18770762D01*
X55807904Y18866000D01*
X55665047Y18913620D01*
X55569809Y18913620D01*
X55426952Y18866000D01*
X55379333Y18818381D01*
X54426952Y17913620D02*
X54998380Y17913620D01*
X54712666Y17913620D02*
X54712666Y18913620D01*
X54807904Y18770762D01*
X54903142Y18675524D01*
X54998380Y18627905D01*
X53998380Y18294572D02*
X53236476Y18294572D01*
X52188857Y18008858D02*
X52236476Y17961239D01*
X52379333Y17913620D01*
X52474571Y17913620D01*
X52617428Y17961239D01*
X52712666Y18056477D01*
X52760285Y18151715D01*
X52807904Y18342191D01*
X52807904Y18485048D01*
X52760285Y18675524D01*
X52712666Y18770762D01*
X52617428Y18866000D01*
X52474571Y18913620D01*
X52379333Y18913620D01*
X52236476Y18866000D01*
X52188857Y18818381D01*
X51331714Y18913620D02*
X51522190Y18913620D01*
X51617428Y18866000D01*
X51665047Y18818381D01*
X51760285Y18675524D01*
X51807904Y18485048D01*
X51807904Y18104096D01*
X51760285Y18008858D01*
X51712666Y17961239D01*
X51617428Y17913620D01*
X51426952Y17913620D01*
X51331714Y17961239D01*
X51284095Y18008858D01*
X51236476Y18104096D01*
X51236476Y18342191D01*
X51284095Y18437429D01*
X51331714Y18485048D01*
X51426952Y18532667D01*
X51617428Y18532667D01*
X51712666Y18485048D01*
X51760285Y18437429D01*
X51807904Y18342191D01*
X50046000Y18294572D02*
X49284095Y18294572D01*
X48617428Y18913620D02*
X48522190Y18913620D01*
X48426952Y18866000D01*
X48379333Y18818381D01*
X48331714Y18723143D01*
X48284095Y18532667D01*
X48284095Y18294572D01*
X48331714Y18104096D01*
X48379333Y18008858D01*
X48426952Y17961239D01*
X48522190Y17913620D01*
X48617428Y17913620D01*
X48712666Y17961239D01*
X48760285Y18008858D01*
X48807904Y18104096D01*
X48855523Y18294572D01*
X48855523Y18532667D01*
X48807904Y18723143D01*
X48760285Y18818381D01*
X48712666Y18866000D01*
X48617428Y18913620D01*
X47855523Y18008858D02*
X47807904Y17961239D01*
X47855523Y17913620D01*
X47903142Y17961239D01*
X47855523Y18008858D01*
X47855523Y17913620D01*
X46855523Y17913620D02*
X47426952Y17913620D01*
X47141238Y17913620D02*
X47141238Y18913620D01*
X47236476Y18770762D01*
X47331714Y18675524D01*
X47426952Y18627905D01*
X45998380Y18580286D02*
X45998380Y17913620D01*
X46426952Y18580286D02*
X46426952Y18056477D01*
X46379333Y17961239D01*
X46284095Y17913620D01*
X46141238Y17913620D01*
X46046000Y17961239D01*
X45998380Y18008858D01*
X45188857Y18437429D02*
X45522190Y18437429D01*
X45522190Y17913620D02*
X45522190Y18913620D01*
X45046000Y18913620D01*
X57879333Y16308858D02*
X57926952Y16261239D01*
X58069809Y16213620D01*
X58165047Y16213620D01*
X58307904Y16261239D01*
X58403142Y16356477D01*
X58450761Y16451715D01*
X58498380Y16642191D01*
X58498380Y16785048D01*
X58450761Y16975524D01*
X58403142Y17070762D01*
X58307904Y17166000D01*
X58165047Y17213620D01*
X58069809Y17213620D01*
X57926952Y17166000D01*
X57879333Y17118381D01*
X57546000Y17213620D02*
X56879333Y17213620D01*
X57307904Y16213620D01*
X55736476Y16594572D02*
X54974571Y16594572D01*
X54546000Y17118381D02*
X54498380Y17166000D01*
X54403142Y17213620D01*
X54165047Y17213620D01*
X54069809Y17166000D01*
X54022190Y17118381D01*
X53974571Y17023143D01*
X53974571Y16927905D01*
X54022190Y16785048D01*
X54593619Y16213620D01*
X53974571Y16213620D01*
X53546000Y16308858D02*
X53498380Y16261239D01*
X53546000Y16213620D01*
X53593619Y16261239D01*
X53546000Y16308858D01*
X53546000Y16213620D01*
X53117428Y17118381D02*
X53069809Y17166000D01*
X52974571Y17213620D01*
X52736476Y17213620D01*
X52641238Y17166000D01*
X52593619Y17118381D01*
X52546000Y17023143D01*
X52546000Y16927905D01*
X52593619Y16785048D01*
X53165047Y16213620D01*
X52546000Y16213620D01*
X51688857Y16880286D02*
X51688857Y16213620D01*
X52117428Y16880286D02*
X52117428Y16356477D01*
X52069809Y16261239D01*
X51974571Y16213620D01*
X51831714Y16213620D01*
X51736476Y16261239D01*
X51688857Y16308858D01*
X50879333Y16737429D02*
X51212666Y16737429D01*
X51212666Y16213620D02*
X51212666Y17213620D01*
X50736476Y17213620D01*
X48260285Y16308858D02*
X48307904Y16261239D01*
X48450761Y16213620D01*
X48546000Y16213620D01*
X48688857Y16261239D01*
X48784095Y16356477D01*
X48831714Y16451715D01*
X48879333Y16642191D01*
X48879333Y16785048D01*
X48831714Y16975524D01*
X48784095Y17070762D01*
X48688857Y17166000D01*
X48546000Y17213620D01*
X48450761Y17213620D01*
X48307904Y17166000D01*
X48260285Y17118381D01*
X47688857Y16785048D02*
X47784095Y16832667D01*
X47831714Y16880286D01*
X47879333Y16975524D01*
X47879333Y17023143D01*
X47831714Y17118381D01*
X47784095Y17166000D01*
X47688857Y17213620D01*
X47498380Y17213620D01*
X47403142Y17166000D01*
X47355523Y17118381D01*
X47307904Y17023143D01*
X47307904Y16975524D01*
X47355523Y16880286D01*
X47403142Y16832667D01*
X47498380Y16785048D01*
X47688857Y16785048D01*
X47784095Y16737429D01*
X47831714Y16689810D01*
X47879333Y16594572D01*
X47879333Y16404096D01*
X47831714Y16308858D01*
X47784095Y16261239D01*
X47688857Y16213620D01*
X47498380Y16213620D01*
X47403142Y16261239D01*
X47355523Y16308858D01*
X47307904Y16404096D01*
X47307904Y16594572D01*
X47355523Y16689810D01*
X47403142Y16737429D01*
X47498380Y16785048D01*
X46117428Y16594572D02*
X45355523Y16594572D01*
X44355523Y16213620D02*
X44926952Y16213620D01*
X44641238Y16213620D02*
X44641238Y17213620D01*
X44736476Y17070762D01*
X44831714Y16975524D01*
X44926952Y16927905D01*
X43498380Y16880286D02*
X43498380Y16213620D01*
X43926952Y16880286D02*
X43926952Y16356477D01*
X43879333Y16261239D01*
X43784095Y16213620D01*
X43641238Y16213620D01*
X43546000Y16261239D01*
X43498380Y16308858D01*
X42688857Y16737429D02*
X43022190Y16737429D01*
X43022190Y16213620D02*
X43022190Y17213620D01*
X42546000Y17213620D01*
D11*
G04 #@! TO.C,CN10*
X68080000Y50090000D02*
X65480000Y50090000D01*
X68080000Y50090000D02*
X68080000Y1710000D01*
X68080000Y1710000D02*
X62880000Y1710000D01*
X62880000Y47490000D02*
X62880000Y1710000D01*
X65480000Y47490000D02*
X62880000Y47490000D01*
X65480000Y50090000D02*
X65480000Y47490000D01*
X62880000Y50090000D02*
X62880000Y48760000D01*
X64210000Y50090000D02*
X62880000Y50090000D01*
G04 #@! TO.C,CN7*
X7120000Y50090000D02*
X4520000Y50090000D01*
X7120000Y50090000D02*
X7120000Y1710000D01*
X7120000Y1710000D02*
X1920000Y1710000D01*
X1920000Y47490000D02*
X1920000Y1710000D01*
X4520000Y47490000D02*
X1920000Y47490000D01*
X4520000Y50090000D02*
X4520000Y47490000D01*
X1920000Y50090000D02*
X1920000Y48760000D01*
X3250000Y50090000D02*
X1920000Y50090000D01*
G04 #@! TO.C,CN10*
D10*
X66646666Y51172858D02*
X66694285Y51125239D01*
X66837142Y51077620D01*
X66932380Y51077620D01*
X67075238Y51125239D01*
X67170476Y51220477D01*
X67218095Y51315715D01*
X67265714Y51506191D01*
X67265714Y51649048D01*
X67218095Y51839524D01*
X67170476Y51934762D01*
X67075238Y52030000D01*
X66932380Y52077620D01*
X66837142Y52077620D01*
X66694285Y52030000D01*
X66646666Y51982381D01*
X66218095Y51077620D02*
X66218095Y52077620D01*
X65646666Y51077620D01*
X65646666Y52077620D01*
X64646666Y51077620D02*
X65218095Y51077620D01*
X64932380Y51077620D02*
X64932380Y52077620D01*
X65027619Y51934762D01*
X65122857Y51839524D01*
X65218095Y51791905D01*
X64027619Y52077620D02*
X63932380Y52077620D01*
X63837142Y52030000D01*
X63789523Y51982381D01*
X63741904Y51887143D01*
X63694285Y51696667D01*
X63694285Y51458572D01*
X63741904Y51268096D01*
X63789523Y51172858D01*
X63837142Y51125239D01*
X63932380Y51077620D01*
X64027619Y51077620D01*
X64122857Y51125239D01*
X64170476Y51172858D01*
X64218095Y51268096D01*
X64265714Y51458572D01*
X64265714Y51696667D01*
X64218095Y51887143D01*
X64170476Y51982381D01*
X64122857Y52030000D01*
X64027619Y52077620D01*
G04 #@! TO.C,CN7*
X5210476Y51172858D02*
X5258095Y51125239D01*
X5400952Y51077620D01*
X5496190Y51077620D01*
X5639047Y51125239D01*
X5734285Y51220477D01*
X5781904Y51315715D01*
X5829523Y51506191D01*
X5829523Y51649048D01*
X5781904Y51839524D01*
X5734285Y51934762D01*
X5639047Y52030000D01*
X5496190Y52077620D01*
X5400952Y52077620D01*
X5258095Y52030000D01*
X5210476Y51982381D01*
X4781904Y51077620D02*
X4781904Y52077620D01*
X4210476Y51077620D01*
X4210476Y52077620D01*
X3829523Y52077620D02*
X3162857Y52077620D01*
X3591428Y51077620D01*
G04 #@! TD*
M02*
