G04 #@! TF.GenerationSoftware,KiCad,Pcbnew,(5.1.10)-1*
G04 #@! TF.CreationDate,2021-07-06T11:53:58+05:30*
G04 #@! TF.ProjectId,STM_Morpho,53544d5f-4d6f-4727-9068-6f2e6b696361,rev?*
G04 #@! TF.SameCoordinates,PX7bfa480PY7270e00*
G04 #@! TF.FileFunction,Copper,L2,Bot*
G04 #@! TF.FilePolarity,Positive*
%FSLAX46Y46*%
G04 Gerber Fmt 4.6, Leading zero omitted, Abs format (unit mm)*
G04 Created by KiCad (PCBNEW (5.1.10)-1) date 2021-07-06 11:53:58*
%MOMM*%
%LPD*%
G01*
G04 APERTURE LIST*
G04 #@! TA.AperFunction,ComponentPad*
%ADD10O,1.700000X1.700000*%
G04 #@! TD*
G04 #@! TA.AperFunction,ComponentPad*
%ADD11R,1.700000X1.700000*%
G04 #@! TD*
G04 #@! TA.AperFunction,ComponentPad*
%ADD12O,2.000000X1.500000*%
G04 #@! TD*
G04 #@! TA.AperFunction,ComponentPad*
%ADD13O,1.950000X1.700000*%
G04 #@! TD*
G04 #@! TA.AperFunction,ComponentPad*
%ADD14O,1.700000X2.000000*%
G04 #@! TD*
G04 #@! TA.AperFunction,ComponentPad*
%ADD15O,1.700000X1.950000*%
G04 #@! TD*
G04 #@! TA.AperFunction,ViaPad*
%ADD16C,0.600000*%
G04 #@! TD*
G04 #@! TA.AperFunction,Conductor*
%ADD17C,0.250000*%
G04 #@! TD*
G04 #@! TA.AperFunction,Conductor*
%ADD18C,0.254000*%
G04 #@! TD*
G04 #@! TA.AperFunction,Conductor*
%ADD19C,0.100000*%
G04 #@! TD*
G04 APERTURE END LIST*
D10*
G04 #@! TO.P,CN10,38*
G04 #@! TO.N,/NC*
X66750000Y3040000D03*
G04 #@! TO.P,CN10,37*
G04 #@! TO.N,N/C*
X64210000Y3040000D03*
G04 #@! TO.P,CN10,36*
G04 #@! TO.N,/NC*
X66750000Y5580000D03*
G04 #@! TO.P,CN10,35*
G04 #@! TO.N,N/C*
X64210000Y5580000D03*
G04 #@! TO.P,CN10,34*
X66750000Y8120000D03*
G04 #@! TO.P,CN10,33*
X64210000Y8120000D03*
G04 #@! TO.P,CN10,32*
X66750000Y10660000D03*
G04 #@! TO.P,CN10,31*
X64210000Y10660000D03*
G04 #@! TO.P,CN10,30*
G04 #@! TO.N,FDCAN2TX*
X66750000Y13200000D03*
G04 #@! TO.P,CN10,29*
G04 #@! TO.N,N/C*
X64210000Y13200000D03*
G04 #@! TO.P,CN10,28*
X66750000Y15740000D03*
G04 #@! TO.P,CN10,27*
G04 #@! TO.N,FDCAN3TX*
X64210000Y15740000D03*
G04 #@! TO.P,CN10,26*
G04 #@! TO.N,N/C*
X66750000Y18280000D03*
G04 #@! TO.P,CN10,25*
X64210000Y18280000D03*
G04 #@! TO.P,CN10,24*
X66750000Y20820000D03*
G04 #@! TO.P,CN10,23*
G04 #@! TO.N,FDCAN3RX*
X64210000Y20820000D03*
G04 #@! TO.P,CN10,22*
G04 #@! TO.N,N/C*
X66750000Y23360000D03*
G04 #@! TO.P,CN10,21*
X64210000Y23360000D03*
G04 #@! TO.P,CN10,20*
G04 #@! TO.N,GND*
X66750000Y25900000D03*
G04 #@! TO.P,CN10,19*
G04 #@! TO.N,N/C*
X64210000Y25900000D03*
G04 #@! TO.P,CN10,18*
X66750000Y28440000D03*
G04 #@! TO.P,CN10,17*
X64210000Y28440000D03*
G04 #@! TO.P,CN10,16*
G04 #@! TO.N,FDCAN2RX*
X66750000Y30980000D03*
G04 #@! TO.P,CN10,15*
G04 #@! TO.N,N/C*
X64210000Y30980000D03*
G04 #@! TO.P,CN10,14*
G04 #@! TO.N,FDCAN1RX*
X66750000Y33520000D03*
G04 #@! TO.P,CN10,13*
G04 #@! TO.N,N/C*
X64210000Y33520000D03*
G04 #@! TO.P,CN10,12*
G04 #@! TO.N,FDCAN1TX*
X66750000Y36060000D03*
G04 #@! TO.P,CN10,11*
G04 #@! TO.N,N/C*
X64210000Y36060000D03*
G04 #@! TO.P,CN10,10*
G04 #@! TO.N,/NC*
X66750000Y38600000D03*
G04 #@! TO.P,CN10,9*
G04 #@! TO.N,GND*
X64210000Y38600000D03*
G04 #@! TO.P,CN10,8*
G04 #@! TO.N,N/C*
X66750000Y41140000D03*
G04 #@! TO.P,CN10,7*
X64210000Y41140000D03*
G04 #@! TO.P,CN10,6*
X66750000Y43680000D03*
G04 #@! TO.P,CN10,5*
X64210000Y43680000D03*
G04 #@! TO.P,CN10,4*
X66750000Y46220000D03*
G04 #@! TO.P,CN10,3*
X64210000Y46220000D03*
G04 #@! TO.P,CN10,2*
X66750000Y48760000D03*
D11*
G04 #@! TO.P,CN10,1*
X64210000Y48760000D03*
G04 #@! TD*
D12*
G04 #@! TO.P,J1,6*
G04 #@! TO.N,INT*
X35630000Y15240000D03*
G04 #@! TO.P,J1,7*
G04 #@! TO.N,SPI_MISO*
X15170000Y15240000D03*
G04 #@! TO.P,J1,5*
G04 #@! TO.N,SPI_CS*
X35630000Y12700000D03*
G04 #@! TO.P,J1,8*
G04 #@! TO.N,RST*
X15170000Y12700000D03*
G04 #@! TO.P,J1,4*
G04 #@! TO.N,SPI_SCLK*
X35630000Y10160000D03*
G04 #@! TO.P,J1,9*
G04 #@! TO.N,N/C*
X15170000Y10160000D03*
G04 #@! TO.P,J1,3*
G04 #@! TO.N,SPI_MOSI*
X35630000Y7620000D03*
G04 #@! TO.P,J1,10*
G04 #@! TO.N,+3V3*
X15170000Y7620000D03*
G04 #@! TO.P,J1,2*
G04 #@! TO.N,GND*
X35630000Y5080000D03*
G04 #@! TO.P,J1,11*
G04 #@! TO.N,+3V3*
X15170000Y5080000D03*
G04 #@! TO.P,J1,1*
G04 #@! TO.N,GND*
X35630000Y2540000D03*
G04 #@! TO.P,J1,12*
X15170000Y2540000D03*
G04 #@! TD*
D11*
G04 #@! TO.P,J3,1*
G04 #@! TO.N,E5V*
X56515000Y41275000D03*
D10*
G04 #@! TO.P,J3,2*
G04 #@! TO.N,V_IN*
X59055000Y41275000D03*
G04 #@! TD*
G04 #@! TO.P,CN7,38*
G04 #@! TO.N,N/C*
X5790000Y3040000D03*
G04 #@! TO.P,CN7,37*
X3250000Y3040000D03*
G04 #@! TO.P,CN7,36*
X5790000Y5580000D03*
G04 #@! TO.P,CN7,35*
X3250000Y5580000D03*
G04 #@! TO.P,CN7,34*
X5790000Y8120000D03*
G04 #@! TO.P,CN7,33*
X3250000Y8120000D03*
G04 #@! TO.P,CN7,32*
X5790000Y10660000D03*
G04 #@! TO.P,CN7,31*
X3250000Y10660000D03*
G04 #@! TO.P,CN7,30*
G04 #@! TO.N,INT*
X5790000Y13200000D03*
G04 #@! TO.P,CN7,29*
G04 #@! TO.N,N/C*
X3250000Y13200000D03*
G04 #@! TO.P,CN7,28*
G04 #@! TO.N,RST*
X5790000Y15740000D03*
G04 #@! TO.P,CN7,27*
G04 #@! TO.N,N/C*
X3250000Y15740000D03*
G04 #@! TO.P,CN7,26*
G04 #@! TO.N,/NC*
X5790000Y18280000D03*
G04 #@! TO.P,CN7,25*
G04 #@! TO.N,N/C*
X3250000Y18280000D03*
G04 #@! TO.P,CN7,24*
X5790000Y20820000D03*
G04 #@! TO.P,CN7,23*
X3250000Y20820000D03*
G04 #@! TO.P,CN7,22*
G04 #@! TO.N,GND*
X5790000Y23360000D03*
G04 #@! TO.P,CN7,21*
G04 #@! TO.N,N/C*
X3250000Y23360000D03*
G04 #@! TO.P,CN7,20*
G04 #@! TO.N,GND*
X5790000Y25900000D03*
G04 #@! TO.P,CN7,19*
X3250000Y25900000D03*
G04 #@! TO.P,CN7,18*
G04 #@! TO.N,N/C*
X5790000Y28440000D03*
G04 #@! TO.P,CN7,17*
G04 #@! TO.N,SPI_CS*
X3250000Y28440000D03*
G04 #@! TO.P,CN7,16*
G04 #@! TO.N,N/C*
X5790000Y30980000D03*
G04 #@! TO.P,CN7,15*
X3250000Y30980000D03*
G04 #@! TO.P,CN7,14*
X5790000Y33520000D03*
G04 #@! TO.P,CN7,13*
X3250000Y33520000D03*
G04 #@! TO.P,CN7,12*
X5790000Y36060000D03*
G04 #@! TO.P,CN7,11*
G04 #@! TO.N,/NC*
X3250000Y36060000D03*
G04 #@! TO.P,CN7,10*
X5790000Y38600000D03*
G04 #@! TO.P,CN7,9*
X3250000Y38600000D03*
G04 #@! TO.P,CN7,8*
G04 #@! TO.N,GND*
X5790000Y41140000D03*
G04 #@! TO.P,CN7,7*
G04 #@! TO.N,N/C*
X3250000Y41140000D03*
G04 #@! TO.P,CN7,6*
G04 #@! TO.N,E5V*
X5790000Y43680000D03*
G04 #@! TO.P,CN7,5*
G04 #@! TO.N,N/C*
X3250000Y43680000D03*
G04 #@! TO.P,CN7,4*
X5790000Y46220000D03*
G04 #@! TO.P,CN7,3*
G04 #@! TO.N,SPI_MOSI*
X3250000Y46220000D03*
G04 #@! TO.P,CN7,2*
G04 #@! TO.N,SPI_MISO*
X5790000Y48760000D03*
D11*
G04 #@! TO.P,CN7,1*
G04 #@! TO.N,SPI_SCLK*
X3250000Y48760000D03*
G04 #@! TD*
G04 #@! TO.P,SPI1,1*
G04 #@! TO.N,SPI_MOSI*
G04 #@! TA.AperFunction,ComponentPad*
G36*
G01*
X11975000Y38870000D02*
X13425000Y38870000D01*
G75*
G02*
X13675000Y38620000I0J-250000D01*
G01*
X13675000Y37420000D01*
G75*
G02*
X13425000Y37170000I-250000J0D01*
G01*
X11975000Y37170000D01*
G75*
G02*
X11725000Y37420000I0J250000D01*
G01*
X11725000Y38620000D01*
G75*
G02*
X11975000Y38870000I250000J0D01*
G01*
G37*
G04 #@! TD.AperFunction*
D13*
G04 #@! TO.P,SPI1,2*
G04 #@! TO.N,SPI_MISO*
X12700000Y35520000D03*
G04 #@! TO.P,SPI1,3*
G04 #@! TO.N,SPI_SCLK*
X12700000Y33020000D03*
G04 #@! TO.P,SPI1,4*
G04 #@! TO.N,SPI_CS*
X12700000Y30520000D03*
G04 #@! TO.P,SPI1,5*
G04 #@! TO.N,GND*
X12700000Y28020000D03*
G04 #@! TD*
D14*
G04 #@! TO.P,J2,2*
G04 #@! TO.N,GND*
X56555000Y3175000D03*
G04 #@! TO.P,J2,1*
G04 #@! TO.N,V_IN*
G04 #@! TA.AperFunction,ComponentPad*
G36*
G01*
X59905000Y3925000D02*
X59905000Y2425000D01*
G75*
G02*
X59655000Y2175000I-250000J0D01*
G01*
X58455000Y2175000D01*
G75*
G02*
X58205000Y2425000I0J250000D01*
G01*
X58205000Y3925000D01*
G75*
G02*
X58455000Y4175000I250000J0D01*
G01*
X59655000Y4175000D01*
G75*
G02*
X59905000Y3925000I0J-250000D01*
G01*
G37*
G04 #@! TD.AperFunction*
G04 #@! TD*
D15*
G04 #@! TO.P,CAN3,3*
G04 #@! TO.N,GND*
X50085000Y44450000D03*
G04 #@! TO.P,CAN3,2*
G04 #@! TO.N,Net-(C14-Pad2)*
X47585000Y44450000D03*
G04 #@! TO.P,CAN3,1*
G04 #@! TO.N,Net-(C13-Pad1)*
G04 #@! TA.AperFunction,ComponentPad*
G36*
G01*
X44235000Y43725000D02*
X44235000Y45175000D01*
G75*
G02*
X44485000Y45425000I250000J0D01*
G01*
X45685000Y45425000D01*
G75*
G02*
X45935000Y45175000I0J-250000D01*
G01*
X45935000Y43725000D01*
G75*
G02*
X45685000Y43475000I-250000J0D01*
G01*
X44485000Y43475000D01*
G75*
G02*
X44235000Y43725000I0J250000D01*
G01*
G37*
G04 #@! TD.AperFunction*
G04 #@! TD*
G04 #@! TO.P,CAN2,3*
G04 #@! TO.N,GND*
X38060000Y44450000D03*
G04 #@! TO.P,CAN2,2*
G04 #@! TO.N,Net-(C12-Pad2)*
X35560000Y44450000D03*
G04 #@! TO.P,CAN2,1*
G04 #@! TO.N,Net-(C11-Pad1)*
G04 #@! TA.AperFunction,ComponentPad*
G36*
G01*
X32210000Y43725000D02*
X32210000Y45175000D01*
G75*
G02*
X32460000Y45425000I250000J0D01*
G01*
X33660000Y45425000D01*
G75*
G02*
X33910000Y45175000I0J-250000D01*
G01*
X33910000Y43725000D01*
G75*
G02*
X33660000Y43475000I-250000J0D01*
G01*
X32460000Y43475000D01*
G75*
G02*
X32210000Y43725000I0J250000D01*
G01*
G37*
G04 #@! TD.AperFunction*
G04 #@! TD*
G04 #@! TO.P,CAN1,3*
G04 #@! TO.N,GND*
X25995000Y44450000D03*
G04 #@! TO.P,CAN1,2*
G04 #@! TO.N,/L1*
X23495000Y44450000D03*
G04 #@! TO.P,CAN1,1*
G04 #@! TO.N,/H1*
G04 #@! TA.AperFunction,ComponentPad*
G36*
G01*
X20145000Y43725000D02*
X20145000Y45175000D01*
G75*
G02*
X20395000Y45425000I250000J0D01*
G01*
X21595000Y45425000D01*
G75*
G02*
X21845000Y45175000I0J-250000D01*
G01*
X21845000Y43725000D01*
G75*
G02*
X21595000Y43475000I-250000J0D01*
G01*
X20395000Y43475000D01*
G75*
G02*
X20145000Y43725000I0J250000D01*
G01*
G37*
G04 #@! TD.AperFunction*
G04 #@! TD*
D16*
G04 #@! TO.N,GND*
X25146000Y5080000D03*
X26416000Y5080000D03*
X27686000Y5080000D03*
X17145000Y48260000D03*
X17145000Y49530000D03*
X17145000Y50800000D03*
X53975000Y48260000D03*
X53975000Y49530000D03*
X53975000Y50800000D03*
X45974000Y38100000D03*
X46736000Y38100000D03*
X34036000Y38100000D03*
X34798000Y38100000D03*
X21844000Y38100000D03*
X22606000Y38100000D03*
X53975000Y23495000D03*
X55245000Y23495000D03*
X53975000Y27940000D03*
X55245000Y27940000D03*
X55245000Y17145000D03*
X56515000Y17145000D03*
X53975000Y33020000D03*
X55245000Y33020000D03*
G04 #@! TO.N,+3V3*
X44450000Y16510000D03*
X44450000Y15240000D03*
X44450000Y13970000D03*
X45720000Y16510000D03*
X46990000Y16510000D03*
X47752000Y27940000D03*
X48768000Y27940000D03*
X50546000Y24384000D03*
X51308000Y24384000D03*
X38354000Y24384000D03*
X39116000Y24384000D03*
X35814000Y27940000D03*
X36576000Y27940000D03*
X26162000Y24384000D03*
X27178000Y24384000D03*
X24638000Y27940000D03*
X23748999Y27940000D03*
G04 #@! TO.N,INT*
X24130000Y13970000D03*
G04 #@! TO.N,V_IN*
X59436000Y11811000D03*
X59436000Y13081000D03*
X59436000Y14351000D03*
G04 #@! TD*
D17*
G04 #@! TO.N,SPI_CS*
X6120001Y29615001D02*
X4215001Y29615001D01*
X7025000Y30520000D02*
X6120001Y29615001D01*
X12700000Y30520000D02*
X7025000Y30520000D01*
X4215001Y29615001D02*
X3175000Y28575000D01*
G04 #@! TO.N,SPI_MISO*
X12700000Y35520000D02*
X14010000Y35520000D01*
X14010000Y35520000D02*
X14645000Y35520000D01*
X14645000Y35520000D02*
X15240000Y34925000D01*
X15240000Y34925000D02*
X15240000Y15240000D01*
G04 #@! TO.N,INT*
X35630000Y15240000D02*
X25400000Y15240000D01*
X25400000Y15240000D02*
X24130000Y13970000D01*
G04 #@! TO.N,RST*
X8830000Y12700000D02*
X5790000Y15740000D01*
X15170000Y12700000D02*
X8830000Y12700000D01*
G04 #@! TD*
D18*
G04 #@! TO.N,GND*
X19055665Y56281137D02*
X19109214Y56264970D01*
X19158597Y56238712D01*
X19201945Y56203359D01*
X19237600Y56160260D01*
X19264201Y56111063D01*
X19280742Y56057625D01*
X19290000Y55969545D01*
X19290001Y49965123D01*
X19292989Y49934787D01*
X19292946Y49928668D01*
X19293914Y49918802D01*
X19314315Y49724705D01*
X19327250Y49661690D01*
X19339312Y49598460D01*
X19342177Y49588970D01*
X19399889Y49402532D01*
X19424829Y49343203D01*
X19448932Y49283545D01*
X19453586Y49274792D01*
X19546411Y49103115D01*
X19582371Y49049802D01*
X19617633Y48995917D01*
X19623898Y48988235D01*
X19748302Y48837857D01*
X19793957Y48792520D01*
X19838987Y48746537D01*
X19846625Y48740218D01*
X19997867Y48616868D01*
X20051487Y48581243D01*
X20104564Y48544901D01*
X20113284Y48540186D01*
X20285606Y48448561D01*
X20345076Y48424049D01*
X20404248Y48398688D01*
X20413718Y48395757D01*
X20600554Y48339348D01*
X20663684Y48326848D01*
X20726623Y48313470D01*
X20736481Y48312434D01*
X20930209Y48293439D01*
X20965123Y48290000D01*
X49034877Y48290000D01*
X49065222Y48292989D01*
X49071332Y48292946D01*
X49081198Y48293914D01*
X49275295Y48314315D01*
X49338310Y48327250D01*
X49401540Y48339312D01*
X49411030Y48342177D01*
X49597468Y48399889D01*
X49656797Y48424829D01*
X49716455Y48448932D01*
X49725208Y48453586D01*
X49896885Y48546411D01*
X49950198Y48582371D01*
X50004083Y48617633D01*
X50011765Y48623898D01*
X50162143Y48748302D01*
X50207480Y48793957D01*
X50253463Y48838987D01*
X50259782Y48846625D01*
X50383132Y48997867D01*
X50418757Y49051487D01*
X50455099Y49104564D01*
X50459814Y49113284D01*
X50551439Y49285606D01*
X50575951Y49345076D01*
X50601312Y49404248D01*
X50604243Y49413718D01*
X50660652Y49600554D01*
X50673152Y49663684D01*
X50686530Y49726623D01*
X50687566Y49736481D01*
X50706611Y49930715D01*
X50710000Y49965123D01*
X50710000Y51530340D01*
X56791316Y51530340D01*
X56791316Y51069660D01*
X56881190Y50617831D01*
X57057485Y50192218D01*
X57313425Y49809176D01*
X57639176Y49483425D01*
X58022218Y49227485D01*
X58447831Y49051190D01*
X58899660Y48961316D01*
X59360340Y48961316D01*
X59812169Y49051190D01*
X60237782Y49227485D01*
X60620824Y49483425D01*
X60747399Y49610000D01*
X62721928Y49610000D01*
X62721928Y47910000D01*
X62734188Y47785518D01*
X62770498Y47665820D01*
X62829463Y47555506D01*
X62908815Y47458815D01*
X63005506Y47379463D01*
X63115820Y47320498D01*
X63188380Y47298487D01*
X63056525Y47166632D01*
X62894010Y46923411D01*
X62782068Y46653158D01*
X62725000Y46366260D01*
X62725000Y46073740D01*
X62782068Y45786842D01*
X62894010Y45516589D01*
X63056525Y45273368D01*
X63263368Y45066525D01*
X63437760Y44950000D01*
X63263368Y44833475D01*
X63056525Y44626632D01*
X62894010Y44383411D01*
X62782068Y44113158D01*
X62725000Y43826260D01*
X62725000Y43533740D01*
X62782068Y43246842D01*
X62894010Y42976589D01*
X63056525Y42733368D01*
X63263368Y42526525D01*
X63437760Y42410000D01*
X63263368Y42293475D01*
X63056525Y42086632D01*
X62894010Y41843411D01*
X62782068Y41573158D01*
X62725000Y41286260D01*
X62725000Y40993740D01*
X62782068Y40706842D01*
X62894010Y40436589D01*
X63056525Y40193368D01*
X63263368Y39986525D01*
X63445534Y39864805D01*
X63328645Y39795178D01*
X63112412Y39600269D01*
X62938359Y39366920D01*
X62813175Y39104099D01*
X62768524Y38956890D01*
X62889845Y38727000D01*
X64083000Y38727000D01*
X64083000Y38747000D01*
X64337000Y38747000D01*
X64337000Y38727000D01*
X64357000Y38727000D01*
X64357000Y38473000D01*
X64337000Y38473000D01*
X64337000Y38453000D01*
X64083000Y38453000D01*
X64083000Y38473000D01*
X62889845Y38473000D01*
X62768524Y38243110D01*
X62813175Y38095901D01*
X62938359Y37833080D01*
X63112412Y37599731D01*
X63328645Y37404822D01*
X63445534Y37335195D01*
X63263368Y37213475D01*
X63056525Y37006632D01*
X62894010Y36763411D01*
X62782068Y36493158D01*
X62725000Y36206260D01*
X62725000Y35913740D01*
X62782068Y35626842D01*
X62894010Y35356589D01*
X63056525Y35113368D01*
X63263368Y34906525D01*
X63437760Y34790000D01*
X63263368Y34673475D01*
X63056525Y34466632D01*
X62894010Y34223411D01*
X62782068Y33953158D01*
X62725000Y33666260D01*
X62725000Y33373740D01*
X62782068Y33086842D01*
X62894010Y32816589D01*
X63056525Y32573368D01*
X63263368Y32366525D01*
X63437760Y32250000D01*
X63263368Y32133475D01*
X63056525Y31926632D01*
X62894010Y31683411D01*
X62782068Y31413158D01*
X62725000Y31126260D01*
X62725000Y30833740D01*
X62782068Y30546842D01*
X62894010Y30276589D01*
X63056525Y30033368D01*
X63263368Y29826525D01*
X63437760Y29710000D01*
X63263368Y29593475D01*
X63056525Y29386632D01*
X62894010Y29143411D01*
X62782068Y28873158D01*
X62725000Y28586260D01*
X62725000Y28293740D01*
X62782068Y28006842D01*
X62894010Y27736589D01*
X63056525Y27493368D01*
X63263368Y27286525D01*
X63437760Y27170000D01*
X63263368Y27053475D01*
X63056525Y26846632D01*
X62894010Y26603411D01*
X62782068Y26333158D01*
X62725000Y26046260D01*
X62725000Y25753740D01*
X62782068Y25466842D01*
X62894010Y25196589D01*
X63056525Y24953368D01*
X63263368Y24746525D01*
X63437760Y24630000D01*
X63263368Y24513475D01*
X63056525Y24306632D01*
X62894010Y24063411D01*
X62782068Y23793158D01*
X62725000Y23506260D01*
X62725000Y23213740D01*
X62782068Y22926842D01*
X62894010Y22656589D01*
X63056525Y22413368D01*
X63263368Y22206525D01*
X63437760Y22090000D01*
X63263368Y21973475D01*
X63056525Y21766632D01*
X62894010Y21523411D01*
X62782068Y21253158D01*
X62725000Y20966260D01*
X62725000Y20673740D01*
X62782068Y20386842D01*
X62894010Y20116589D01*
X63056525Y19873368D01*
X63263368Y19666525D01*
X63437760Y19550000D01*
X63263368Y19433475D01*
X63056525Y19226632D01*
X62894010Y18983411D01*
X62782068Y18713158D01*
X62725000Y18426260D01*
X62725000Y18133740D01*
X62782068Y17846842D01*
X62894010Y17576589D01*
X63056525Y17333368D01*
X63263368Y17126525D01*
X63437760Y17010000D01*
X63263368Y16893475D01*
X63056525Y16686632D01*
X62894010Y16443411D01*
X62782068Y16173158D01*
X62725000Y15886260D01*
X62725000Y15593740D01*
X62782068Y15306842D01*
X62894010Y15036589D01*
X63056525Y14793368D01*
X63263368Y14586525D01*
X63437760Y14470000D01*
X63263368Y14353475D01*
X63056525Y14146632D01*
X62894010Y13903411D01*
X62782068Y13633158D01*
X62725000Y13346260D01*
X62725000Y13053740D01*
X62782068Y12766842D01*
X62894010Y12496589D01*
X63056525Y12253368D01*
X63263368Y12046525D01*
X63437760Y11930000D01*
X63263368Y11813475D01*
X63056525Y11606632D01*
X62894010Y11363411D01*
X62782068Y11093158D01*
X62725000Y10806260D01*
X62725000Y10513740D01*
X62782068Y10226842D01*
X62894010Y9956589D01*
X63056525Y9713368D01*
X63263368Y9506525D01*
X63437760Y9390000D01*
X63263368Y9273475D01*
X63056525Y9066632D01*
X62894010Y8823411D01*
X62782068Y8553158D01*
X62725000Y8266260D01*
X62725000Y7973740D01*
X62782068Y7686842D01*
X62894010Y7416589D01*
X63056525Y7173368D01*
X63263368Y6966525D01*
X63437760Y6850000D01*
X63263368Y6733475D01*
X63056525Y6526632D01*
X62894010Y6283411D01*
X62782068Y6013158D01*
X62725000Y5726260D01*
X62725000Y5433740D01*
X62782068Y5146842D01*
X62894010Y4876589D01*
X63056525Y4633368D01*
X63263368Y4426525D01*
X63437760Y4310000D01*
X63263368Y4193475D01*
X63056525Y3986632D01*
X62894010Y3743411D01*
X62782068Y3473158D01*
X62725000Y3186260D01*
X62725000Y2893740D01*
X62782068Y2606842D01*
X62894010Y2336589D01*
X63056525Y2093368D01*
X63263368Y1886525D01*
X63506589Y1724010D01*
X63776842Y1612068D01*
X64063740Y1555000D01*
X64356260Y1555000D01*
X64643158Y1612068D01*
X64913411Y1724010D01*
X65156632Y1886525D01*
X65363475Y2093368D01*
X65480000Y2267760D01*
X65596525Y2093368D01*
X65803368Y1886525D01*
X66046589Y1724010D01*
X66316842Y1612068D01*
X66603740Y1555000D01*
X66896260Y1555000D01*
X67183158Y1612068D01*
X67453411Y1724010D01*
X67696632Y1886525D01*
X67903475Y2093368D01*
X68065990Y2336589D01*
X68177932Y2606842D01*
X68235000Y2893740D01*
X68235000Y3186260D01*
X68177932Y3473158D01*
X68065990Y3743411D01*
X67903475Y3986632D01*
X67696632Y4193475D01*
X67522240Y4310000D01*
X67696632Y4426525D01*
X67903475Y4633368D01*
X68065990Y4876589D01*
X68177932Y5146842D01*
X68235000Y5433740D01*
X68235000Y5726260D01*
X68177932Y6013158D01*
X68065990Y6283411D01*
X67903475Y6526632D01*
X67696632Y6733475D01*
X67522240Y6850000D01*
X67696632Y6966525D01*
X67903475Y7173368D01*
X68065990Y7416589D01*
X68177932Y7686842D01*
X68235000Y7973740D01*
X68235000Y8266260D01*
X68177932Y8553158D01*
X68065990Y8823411D01*
X67903475Y9066632D01*
X67696632Y9273475D01*
X67522240Y9390000D01*
X67696632Y9506525D01*
X67903475Y9713368D01*
X68065990Y9956589D01*
X68177932Y10226842D01*
X68235000Y10513740D01*
X68235000Y10806260D01*
X68177932Y11093158D01*
X68065990Y11363411D01*
X67903475Y11606632D01*
X67696632Y11813475D01*
X67522240Y11930000D01*
X67696632Y12046525D01*
X67903475Y12253368D01*
X68065990Y12496589D01*
X68177932Y12766842D01*
X68235000Y13053740D01*
X68235000Y13346260D01*
X68177932Y13633158D01*
X68065990Y13903411D01*
X67903475Y14146632D01*
X67696632Y14353475D01*
X67522240Y14470000D01*
X67696632Y14586525D01*
X67903475Y14793368D01*
X68065990Y15036589D01*
X68177932Y15306842D01*
X68235000Y15593740D01*
X68235000Y15886260D01*
X68177932Y16173158D01*
X68065990Y16443411D01*
X67903475Y16686632D01*
X67696632Y16893475D01*
X67522240Y17010000D01*
X67696632Y17126525D01*
X67903475Y17333368D01*
X68065990Y17576589D01*
X68177932Y17846842D01*
X68235000Y18133740D01*
X68235000Y18426260D01*
X68177932Y18713158D01*
X68065990Y18983411D01*
X67903475Y19226632D01*
X67696632Y19433475D01*
X67522240Y19550000D01*
X67696632Y19666525D01*
X67903475Y19873368D01*
X68065990Y20116589D01*
X68177932Y20386842D01*
X68235000Y20673740D01*
X68235000Y20966260D01*
X68177932Y21253158D01*
X68065990Y21523411D01*
X67903475Y21766632D01*
X67696632Y21973475D01*
X67522240Y22090000D01*
X67696632Y22206525D01*
X67903475Y22413368D01*
X68065990Y22656589D01*
X68177932Y22926842D01*
X68235000Y23213740D01*
X68235000Y23506260D01*
X68177932Y23793158D01*
X68065990Y24063411D01*
X67903475Y24306632D01*
X67696632Y24513475D01*
X67514466Y24635195D01*
X67631355Y24704822D01*
X67847588Y24899731D01*
X68021641Y25133080D01*
X68146825Y25395901D01*
X68191476Y25543110D01*
X68070155Y25773000D01*
X66877000Y25773000D01*
X66877000Y25753000D01*
X66623000Y25753000D01*
X66623000Y25773000D01*
X66603000Y25773000D01*
X66603000Y26027000D01*
X66623000Y26027000D01*
X66623000Y26047000D01*
X66877000Y26047000D01*
X66877000Y26027000D01*
X68070155Y26027000D01*
X68191476Y26256890D01*
X68146825Y26404099D01*
X68021641Y26666920D01*
X67847588Y26900269D01*
X67631355Y27095178D01*
X67514466Y27164805D01*
X67696632Y27286525D01*
X67903475Y27493368D01*
X68065990Y27736589D01*
X68177932Y28006842D01*
X68235000Y28293740D01*
X68235000Y28586260D01*
X68177932Y28873158D01*
X68065990Y29143411D01*
X67903475Y29386632D01*
X67696632Y29593475D01*
X67522240Y29710000D01*
X67696632Y29826525D01*
X67903475Y30033368D01*
X68065990Y30276589D01*
X68177932Y30546842D01*
X68235000Y30833740D01*
X68235000Y31126260D01*
X68177932Y31413158D01*
X68065990Y31683411D01*
X67903475Y31926632D01*
X67696632Y32133475D01*
X67522240Y32250000D01*
X67696632Y32366525D01*
X67903475Y32573368D01*
X68065990Y32816589D01*
X68177932Y33086842D01*
X68235000Y33373740D01*
X68235000Y33666260D01*
X68177932Y33953158D01*
X68065990Y34223411D01*
X67903475Y34466632D01*
X67696632Y34673475D01*
X67522240Y34790000D01*
X67696632Y34906525D01*
X67903475Y35113368D01*
X68065990Y35356589D01*
X68177932Y35626842D01*
X68235000Y35913740D01*
X68235000Y36206260D01*
X68177932Y36493158D01*
X68065990Y36763411D01*
X67903475Y37006632D01*
X67696632Y37213475D01*
X67522240Y37330000D01*
X67696632Y37446525D01*
X67903475Y37653368D01*
X68065990Y37896589D01*
X68177932Y38166842D01*
X68235000Y38453740D01*
X68235000Y38746260D01*
X68177932Y39033158D01*
X68065990Y39303411D01*
X67903475Y39546632D01*
X67696632Y39753475D01*
X67522240Y39870000D01*
X67696632Y39986525D01*
X67903475Y40193368D01*
X68065990Y40436589D01*
X68177932Y40706842D01*
X68235000Y40993740D01*
X68235000Y41286260D01*
X68177932Y41573158D01*
X68065990Y41843411D01*
X67903475Y42086632D01*
X67696632Y42293475D01*
X67522240Y42410000D01*
X67696632Y42526525D01*
X67903475Y42733368D01*
X68065990Y42976589D01*
X68177932Y43246842D01*
X68235000Y43533740D01*
X68235000Y43826260D01*
X68177932Y44113158D01*
X68065990Y44383411D01*
X67903475Y44626632D01*
X67696632Y44833475D01*
X67522240Y44950000D01*
X67696632Y45066525D01*
X67903475Y45273368D01*
X68065990Y45516589D01*
X68177932Y45786842D01*
X68235000Y46073740D01*
X68235000Y46366260D01*
X68177932Y46653158D01*
X68065990Y46923411D01*
X67903475Y47166632D01*
X67696632Y47373475D01*
X67522240Y47490000D01*
X67696632Y47606525D01*
X67903475Y47813368D01*
X68065990Y48056589D01*
X68177932Y48326842D01*
X68235000Y48613740D01*
X68235000Y48906260D01*
X68177932Y49193158D01*
X68065990Y49463411D01*
X67903475Y49706632D01*
X67696632Y49913475D01*
X67453411Y50075990D01*
X67183158Y50187932D01*
X66896260Y50245000D01*
X66603740Y50245000D01*
X66316842Y50187932D01*
X66046589Y50075990D01*
X65803368Y49913475D01*
X65671513Y49781620D01*
X65649502Y49854180D01*
X65590537Y49964494D01*
X65511185Y50061185D01*
X65414494Y50140537D01*
X65304180Y50199502D01*
X65184482Y50235812D01*
X65060000Y50248072D01*
X63360000Y50248072D01*
X63235518Y50235812D01*
X63115820Y50199502D01*
X63005506Y50140537D01*
X62908815Y50061185D01*
X62829463Y49964494D01*
X62770498Y49854180D01*
X62734188Y49734482D01*
X62721928Y49610000D01*
X60747399Y49610000D01*
X60946575Y49809176D01*
X61202515Y50192218D01*
X61378810Y50617831D01*
X61468684Y51069660D01*
X61468684Y51530340D01*
X61378810Y51982169D01*
X61202515Y52407782D01*
X60946575Y52790824D01*
X60620824Y53116575D01*
X60237782Y53372515D01*
X59812169Y53548810D01*
X59360340Y53638684D01*
X58899660Y53638684D01*
X58447831Y53548810D01*
X58022218Y53372515D01*
X57639176Y53116575D01*
X57313425Y52790824D01*
X57057485Y52407782D01*
X56881190Y51982169D01*
X56791316Y51530340D01*
X50710000Y51530340D01*
X50710000Y55965278D01*
X50718863Y56055665D01*
X50735030Y56109214D01*
X50761288Y56158597D01*
X50796641Y56201945D01*
X50839740Y56237600D01*
X50888937Y56264201D01*
X50942375Y56280742D01*
X51030455Y56290000D01*
X68965278Y56290000D01*
X69055665Y56281137D01*
X69088000Y56271375D01*
X69088000Y1318793D01*
X69071633Y1288011D01*
X68912929Y1093420D01*
X68719455Y933365D01*
X68498576Y813936D01*
X68258701Y739683D01*
X67976291Y710000D01*
X61252888Y710000D01*
X61312787Y742017D01*
X61409013Y820987D01*
X61487983Y917213D01*
X61546664Y1026996D01*
X61582799Y1146118D01*
X61595000Y1270000D01*
X61595000Y4368446D01*
X61614287Y4387733D01*
X61749443Y4590008D01*
X61842540Y4814764D01*
X61890000Y5053363D01*
X61890000Y5296637D01*
X61842540Y5535236D01*
X61749443Y5759992D01*
X61614287Y5962267D01*
X61595000Y5981554D01*
X61595000Y42545000D01*
X61582799Y42668882D01*
X61546664Y42788004D01*
X61487983Y42897787D01*
X61409013Y42994013D01*
X61312787Y43072983D01*
X61203004Y43131664D01*
X61083882Y43167799D01*
X60960000Y43180000D01*
X57785000Y43180000D01*
X57661118Y43167799D01*
X57541996Y43131664D01*
X57432213Y43072983D01*
X57335987Y42994013D01*
X57257017Y42897787D01*
X57198336Y42788004D01*
X57190773Y42763072D01*
X55665000Y42763072D01*
X55540518Y42750812D01*
X55462710Y42727209D01*
X18718995Y42546502D01*
X16616197Y45175000D01*
X19506928Y45175000D01*
X19506928Y43725000D01*
X19523992Y43551746D01*
X19574528Y43385150D01*
X19656595Y43231614D01*
X19767038Y43097038D01*
X19901614Y42986595D01*
X20055150Y42904528D01*
X20221746Y42853992D01*
X20395000Y42836928D01*
X21595000Y42836928D01*
X21768254Y42853992D01*
X21934850Y42904528D01*
X22088386Y42986595D01*
X22222962Y43097038D01*
X22333405Y43231614D01*
X22387777Y43333337D01*
X22439866Y43269866D01*
X22665987Y43084294D01*
X22923967Y42946401D01*
X23203890Y42861487D01*
X23495000Y42832815D01*
X23786111Y42861487D01*
X24066034Y42946401D01*
X24324014Y43084294D01*
X24550134Y43269866D01*
X24735706Y43495986D01*
X24749462Y43521722D01*
X24905951Y43315571D01*
X25123807Y43122504D01*
X25375142Y42975648D01*
X25638110Y42883524D01*
X25868000Y43004845D01*
X25868000Y44323000D01*
X26122000Y44323000D01*
X26122000Y43004845D01*
X26351890Y42883524D01*
X26614858Y42975648D01*
X26866193Y43122504D01*
X27084049Y43315571D01*
X27260053Y43547430D01*
X27387442Y43809170D01*
X27461320Y44090733D01*
X27321165Y44323000D01*
X26122000Y44323000D01*
X25868000Y44323000D01*
X25848000Y44323000D01*
X25848000Y44577000D01*
X25868000Y44577000D01*
X25868000Y45895155D01*
X26122000Y45895155D01*
X26122000Y44577000D01*
X27321165Y44577000D01*
X27461320Y44809267D01*
X27387442Y45090830D01*
X27346477Y45175000D01*
X31571928Y45175000D01*
X31571928Y43725000D01*
X31588992Y43551746D01*
X31639528Y43385150D01*
X31721595Y43231614D01*
X31832038Y43097038D01*
X31966614Y42986595D01*
X32120150Y42904528D01*
X32286746Y42853992D01*
X32460000Y42836928D01*
X33660000Y42836928D01*
X33833254Y42853992D01*
X33999850Y42904528D01*
X34153386Y42986595D01*
X34287962Y43097038D01*
X34398405Y43231614D01*
X34452777Y43333337D01*
X34504866Y43269866D01*
X34730987Y43084294D01*
X34988967Y42946401D01*
X35268890Y42861487D01*
X35560000Y42832815D01*
X35851111Y42861487D01*
X36131034Y42946401D01*
X36389014Y43084294D01*
X36615134Y43269866D01*
X36800706Y43495986D01*
X36814462Y43521722D01*
X36970951Y43315571D01*
X37188807Y43122504D01*
X37440142Y42975648D01*
X37703110Y42883524D01*
X37933000Y43004845D01*
X37933000Y44323000D01*
X38187000Y44323000D01*
X38187000Y43004845D01*
X38416890Y42883524D01*
X38679858Y42975648D01*
X38931193Y43122504D01*
X39149049Y43315571D01*
X39325053Y43547430D01*
X39452442Y43809170D01*
X39526320Y44090733D01*
X39386165Y44323000D01*
X38187000Y44323000D01*
X37933000Y44323000D01*
X37913000Y44323000D01*
X37913000Y44577000D01*
X37933000Y44577000D01*
X37933000Y45895155D01*
X38187000Y45895155D01*
X38187000Y44577000D01*
X39386165Y44577000D01*
X39526320Y44809267D01*
X39452442Y45090830D01*
X39411477Y45175000D01*
X43596928Y45175000D01*
X43596928Y43725000D01*
X43613992Y43551746D01*
X43664528Y43385150D01*
X43746595Y43231614D01*
X43857038Y43097038D01*
X43991614Y42986595D01*
X44145150Y42904528D01*
X44311746Y42853992D01*
X44485000Y42836928D01*
X45685000Y42836928D01*
X45858254Y42853992D01*
X46024850Y42904528D01*
X46178386Y42986595D01*
X46312962Y43097038D01*
X46423405Y43231614D01*
X46477777Y43333337D01*
X46529866Y43269866D01*
X46755987Y43084294D01*
X47013967Y42946401D01*
X47293890Y42861487D01*
X47585000Y42832815D01*
X47876111Y42861487D01*
X48156034Y42946401D01*
X48414014Y43084294D01*
X48640134Y43269866D01*
X48825706Y43495986D01*
X48839462Y43521722D01*
X48995951Y43315571D01*
X49213807Y43122504D01*
X49465142Y42975648D01*
X49728110Y42883524D01*
X49958000Y43004845D01*
X49958000Y44323000D01*
X50212000Y44323000D01*
X50212000Y43004845D01*
X50441890Y42883524D01*
X50704858Y42975648D01*
X50956193Y43122504D01*
X51174049Y43315571D01*
X51350053Y43547430D01*
X51477442Y43809170D01*
X51551320Y44090733D01*
X51411165Y44323000D01*
X50212000Y44323000D01*
X49958000Y44323000D01*
X49938000Y44323000D01*
X49938000Y44577000D01*
X49958000Y44577000D01*
X49958000Y45895155D01*
X50212000Y45895155D01*
X50212000Y44577000D01*
X51411165Y44577000D01*
X51551320Y44809267D01*
X51477442Y45090830D01*
X51350053Y45352570D01*
X51174049Y45584429D01*
X50956193Y45777496D01*
X50704858Y45924352D01*
X50441890Y46016476D01*
X50212000Y45895155D01*
X49958000Y45895155D01*
X49728110Y46016476D01*
X49465142Y45924352D01*
X49213807Y45777496D01*
X48995951Y45584429D01*
X48839462Y45378278D01*
X48825706Y45404014D01*
X48640134Y45630134D01*
X48414013Y45815706D01*
X48156033Y45953599D01*
X47876110Y46038513D01*
X47585000Y46067185D01*
X47293889Y46038513D01*
X47013966Y45953599D01*
X46755986Y45815706D01*
X46529866Y45630134D01*
X46477777Y45566663D01*
X46423405Y45668386D01*
X46312962Y45802962D01*
X46178386Y45913405D01*
X46024850Y45995472D01*
X45858254Y46046008D01*
X45685000Y46063072D01*
X44485000Y46063072D01*
X44311746Y46046008D01*
X44145150Y45995472D01*
X43991614Y45913405D01*
X43857038Y45802962D01*
X43746595Y45668386D01*
X43664528Y45514850D01*
X43613992Y45348254D01*
X43596928Y45175000D01*
X39411477Y45175000D01*
X39325053Y45352570D01*
X39149049Y45584429D01*
X38931193Y45777496D01*
X38679858Y45924352D01*
X38416890Y46016476D01*
X38187000Y45895155D01*
X37933000Y45895155D01*
X37703110Y46016476D01*
X37440142Y45924352D01*
X37188807Y45777496D01*
X36970951Y45584429D01*
X36814462Y45378278D01*
X36800706Y45404014D01*
X36615134Y45630134D01*
X36389013Y45815706D01*
X36131033Y45953599D01*
X35851110Y46038513D01*
X35560000Y46067185D01*
X35268889Y46038513D01*
X34988966Y45953599D01*
X34730986Y45815706D01*
X34504866Y45630134D01*
X34452777Y45566663D01*
X34398405Y45668386D01*
X34287962Y45802962D01*
X34153386Y45913405D01*
X33999850Y45995472D01*
X33833254Y46046008D01*
X33660000Y46063072D01*
X32460000Y46063072D01*
X32286746Y46046008D01*
X32120150Y45995472D01*
X31966614Y45913405D01*
X31832038Y45802962D01*
X31721595Y45668386D01*
X31639528Y45514850D01*
X31588992Y45348254D01*
X31571928Y45175000D01*
X27346477Y45175000D01*
X27260053Y45352570D01*
X27084049Y45584429D01*
X26866193Y45777496D01*
X26614858Y45924352D01*
X26351890Y46016476D01*
X26122000Y45895155D01*
X25868000Y45895155D01*
X25638110Y46016476D01*
X25375142Y45924352D01*
X25123807Y45777496D01*
X24905951Y45584429D01*
X24749462Y45378278D01*
X24735706Y45404014D01*
X24550134Y45630134D01*
X24324013Y45815706D01*
X24066033Y45953599D01*
X23786110Y46038513D01*
X23495000Y46067185D01*
X23203889Y46038513D01*
X22923966Y45953599D01*
X22665986Y45815706D01*
X22439866Y45630134D01*
X22387777Y45566663D01*
X22333405Y45668386D01*
X22222962Y45802962D01*
X22088386Y45913405D01*
X21934850Y45995472D01*
X21768254Y46046008D01*
X21595000Y46063072D01*
X20395000Y46063072D01*
X20221746Y46046008D01*
X20055150Y45995472D01*
X19901614Y45913405D01*
X19767038Y45802962D01*
X19656595Y45668386D01*
X19574528Y45514850D01*
X19523992Y45348254D01*
X19506928Y45175000D01*
X16616197Y45175000D01*
X16370852Y45481681D01*
X16324013Y45534013D01*
X16227787Y45612983D01*
X16118004Y45671664D01*
X15998882Y45707799D01*
X15875000Y45720000D01*
X7190245Y45720000D01*
X7217932Y45786842D01*
X7275000Y46073740D01*
X7275000Y46366260D01*
X7217932Y46653158D01*
X7105990Y46923411D01*
X6943475Y47166632D01*
X6736632Y47373475D01*
X6562240Y47490000D01*
X6736632Y47606525D01*
X6943475Y47813368D01*
X7105990Y48056589D01*
X7217932Y48326842D01*
X7275000Y48613740D01*
X7275000Y48906260D01*
X7217932Y49193158D01*
X7105990Y49463411D01*
X6943475Y49706632D01*
X6736632Y49913475D01*
X6493411Y50075990D01*
X6223158Y50187932D01*
X5936260Y50245000D01*
X5643740Y50245000D01*
X5356842Y50187932D01*
X5086589Y50075990D01*
X4843368Y49913475D01*
X4711513Y49781620D01*
X4689502Y49854180D01*
X4630537Y49964494D01*
X4551185Y50061185D01*
X4454494Y50140537D01*
X4344180Y50199502D01*
X4224482Y50235812D01*
X4100000Y50248072D01*
X2400000Y50248072D01*
X2275518Y50235812D01*
X2155820Y50199502D01*
X2045506Y50140537D01*
X1948815Y50061185D01*
X1869463Y49964494D01*
X1810498Y49854180D01*
X1774188Y49734482D01*
X1761928Y49610000D01*
X1761928Y47910000D01*
X1774188Y47785518D01*
X1810498Y47665820D01*
X1869463Y47555506D01*
X1948815Y47458815D01*
X2045506Y47379463D01*
X2155820Y47320498D01*
X2228380Y47298487D01*
X2096525Y47166632D01*
X1934010Y46923411D01*
X1822068Y46653158D01*
X1765000Y46366260D01*
X1765000Y46073740D01*
X1822068Y45786842D01*
X1934010Y45516589D01*
X2096525Y45273368D01*
X2303368Y45066525D01*
X2477760Y44950000D01*
X2303368Y44833475D01*
X2096525Y44626632D01*
X1934010Y44383411D01*
X1822068Y44113158D01*
X1765000Y43826260D01*
X1765000Y43533740D01*
X1822068Y43246842D01*
X1934010Y42976589D01*
X2096525Y42733368D01*
X2303368Y42526525D01*
X2477760Y42410000D01*
X2303368Y42293475D01*
X2096525Y42086632D01*
X1934010Y41843411D01*
X1822068Y41573158D01*
X1765000Y41286260D01*
X1765000Y40993740D01*
X1822068Y40706842D01*
X1934010Y40436589D01*
X2096525Y40193368D01*
X2303368Y39986525D01*
X2477760Y39870000D01*
X2303368Y39753475D01*
X2096525Y39546632D01*
X1934010Y39303411D01*
X1822068Y39033158D01*
X1765000Y38746260D01*
X1765000Y38453740D01*
X1822068Y38166842D01*
X1934010Y37896589D01*
X2096525Y37653368D01*
X2303368Y37446525D01*
X2477760Y37330000D01*
X2303368Y37213475D01*
X2096525Y37006632D01*
X1934010Y36763411D01*
X1822068Y36493158D01*
X1765000Y36206260D01*
X1765000Y35913740D01*
X1822068Y35626842D01*
X1934010Y35356589D01*
X2096525Y35113368D01*
X2303368Y34906525D01*
X2477760Y34790000D01*
X2303368Y34673475D01*
X2096525Y34466632D01*
X1934010Y34223411D01*
X1822068Y33953158D01*
X1765000Y33666260D01*
X1765000Y33373740D01*
X1822068Y33086842D01*
X1934010Y32816589D01*
X2096525Y32573368D01*
X2303368Y32366525D01*
X2477760Y32250000D01*
X2303368Y32133475D01*
X2096525Y31926632D01*
X1934010Y31683411D01*
X1822068Y31413158D01*
X1765000Y31126260D01*
X1765000Y30833740D01*
X1822068Y30546842D01*
X1934010Y30276589D01*
X2096525Y30033368D01*
X2303368Y29826525D01*
X2477760Y29710000D01*
X2303368Y29593475D01*
X2096525Y29386632D01*
X1934010Y29143411D01*
X1822068Y28873158D01*
X1765000Y28586260D01*
X1765000Y28293740D01*
X1822068Y28006842D01*
X1934010Y27736589D01*
X2096525Y27493368D01*
X2303368Y27286525D01*
X2485534Y27164805D01*
X2368645Y27095178D01*
X2152412Y26900269D01*
X1978359Y26666920D01*
X1853175Y26404099D01*
X1808524Y26256890D01*
X1929845Y26027000D01*
X3123000Y26027000D01*
X3123000Y26047000D01*
X3377000Y26047000D01*
X3377000Y26027000D01*
X5663000Y26027000D01*
X5663000Y26047000D01*
X5917000Y26047000D01*
X5917000Y26027000D01*
X7110155Y26027000D01*
X7231476Y26256890D01*
X7186825Y26404099D01*
X7061641Y26666920D01*
X6887588Y26900269D01*
X6671355Y27095178D01*
X6554466Y27164805D01*
X6736632Y27286525D01*
X6943475Y27493368D01*
X7056892Y27663110D01*
X11133524Y27663110D01*
X11225648Y27400142D01*
X11372504Y27148807D01*
X11565571Y26930951D01*
X11797430Y26754947D01*
X12059170Y26627558D01*
X12340733Y26553680D01*
X12573000Y26693835D01*
X12573000Y27893000D01*
X12827000Y27893000D01*
X12827000Y26693835D01*
X13059267Y26553680D01*
X13340830Y26627558D01*
X13602570Y26754947D01*
X13834429Y26930951D01*
X14027496Y27148807D01*
X14174352Y27400142D01*
X14266476Y27663110D01*
X14145155Y27893000D01*
X12827000Y27893000D01*
X12573000Y27893000D01*
X11254845Y27893000D01*
X11133524Y27663110D01*
X7056892Y27663110D01*
X7105990Y27736589D01*
X7217932Y28006842D01*
X7275000Y28293740D01*
X7275000Y28586260D01*
X7217932Y28873158D01*
X7105990Y29143411D01*
X6952671Y29372869D01*
X7339802Y29760000D01*
X11297405Y29760000D01*
X11334294Y29690986D01*
X11519866Y29464866D01*
X11745986Y29279294D01*
X11771722Y29265538D01*
X11565571Y29109049D01*
X11372504Y28891193D01*
X11225648Y28639858D01*
X11133524Y28376890D01*
X11254845Y28147000D01*
X12573000Y28147000D01*
X12573000Y28167000D01*
X12827000Y28167000D01*
X12827000Y28147000D01*
X14145155Y28147000D01*
X14266476Y28376890D01*
X14174352Y28639858D01*
X14027496Y28891193D01*
X13834429Y29109049D01*
X13628278Y29265538D01*
X13654014Y29279294D01*
X13880134Y29464866D01*
X14065706Y29690986D01*
X14203599Y29948966D01*
X14288513Y30228889D01*
X14317185Y30520000D01*
X14288513Y30811111D01*
X14203599Y31091034D01*
X14065706Y31349014D01*
X13880134Y31575134D01*
X13654014Y31760706D01*
X13636626Y31770000D01*
X13654014Y31779294D01*
X13880134Y31964866D01*
X14065706Y32190986D01*
X14203599Y32448966D01*
X14288513Y32728889D01*
X14317185Y33020000D01*
X14288513Y33311111D01*
X14203599Y33591034D01*
X14065706Y33849014D01*
X13880134Y34075134D01*
X13654014Y34260706D01*
X13636626Y34270000D01*
X13654014Y34279294D01*
X13880134Y34464866D01*
X14065706Y34690986D01*
X14102595Y34760000D01*
X14330199Y34760000D01*
X14480000Y34610198D01*
X14480001Y16553848D01*
X14387419Y16525764D01*
X14146812Y16397157D01*
X13935919Y16224081D01*
X13762843Y16013188D01*
X13634236Y15772581D01*
X13555040Y15511507D01*
X13528299Y15240000D01*
X13555040Y14968493D01*
X13634236Y14707419D01*
X13762843Y14466812D01*
X13935919Y14255919D01*
X14146812Y14082843D01*
X14357927Y13970000D01*
X14146812Y13857157D01*
X13935919Y13684081D01*
X13762843Y13473188D01*
X13755794Y13460000D01*
X9144802Y13460000D01*
X7231209Y15373592D01*
X7275000Y15593740D01*
X7275000Y15886260D01*
X7217932Y16173158D01*
X7105990Y16443411D01*
X6943475Y16686632D01*
X6736632Y16893475D01*
X6562240Y17010000D01*
X6736632Y17126525D01*
X6943475Y17333368D01*
X7105990Y17576589D01*
X7217932Y17846842D01*
X7275000Y18133740D01*
X7275000Y18426260D01*
X7217932Y18713158D01*
X7105990Y18983411D01*
X6943475Y19226632D01*
X6736632Y19433475D01*
X6562240Y19550000D01*
X6736632Y19666525D01*
X6943475Y19873368D01*
X7105990Y20116589D01*
X7217932Y20386842D01*
X7275000Y20673740D01*
X7275000Y20966260D01*
X7217932Y21253158D01*
X7105990Y21523411D01*
X6943475Y21766632D01*
X6736632Y21973475D01*
X6554466Y22095195D01*
X6671355Y22164822D01*
X6887588Y22359731D01*
X7061641Y22593080D01*
X7186825Y22855901D01*
X7231476Y23003110D01*
X7110155Y23233000D01*
X5917000Y23233000D01*
X5917000Y23213000D01*
X5663000Y23213000D01*
X5663000Y23233000D01*
X5643000Y23233000D01*
X5643000Y23487000D01*
X5663000Y23487000D01*
X5663000Y25773000D01*
X5917000Y25773000D01*
X5917000Y23487000D01*
X7110155Y23487000D01*
X7231476Y23716890D01*
X7186825Y23864099D01*
X7061641Y24126920D01*
X6887588Y24360269D01*
X6671355Y24555178D01*
X6545745Y24630000D01*
X6671355Y24704822D01*
X6887588Y24899731D01*
X7061641Y25133080D01*
X7186825Y25395901D01*
X7231476Y25543110D01*
X7110155Y25773000D01*
X5917000Y25773000D01*
X5663000Y25773000D01*
X3377000Y25773000D01*
X3377000Y25753000D01*
X3123000Y25753000D01*
X3123000Y25773000D01*
X1929845Y25773000D01*
X1808524Y25543110D01*
X1853175Y25395901D01*
X1978359Y25133080D01*
X2152412Y24899731D01*
X2368645Y24704822D01*
X2485534Y24635195D01*
X2303368Y24513475D01*
X2096525Y24306632D01*
X1934010Y24063411D01*
X1822068Y23793158D01*
X1765000Y23506260D01*
X1765000Y23213740D01*
X1822068Y22926842D01*
X1934010Y22656589D01*
X2096525Y22413368D01*
X2303368Y22206525D01*
X2477760Y22090000D01*
X2303368Y21973475D01*
X2096525Y21766632D01*
X1934010Y21523411D01*
X1822068Y21253158D01*
X1765000Y20966260D01*
X1765000Y20673740D01*
X1822068Y20386842D01*
X1934010Y20116589D01*
X2096525Y19873368D01*
X2303368Y19666525D01*
X2477760Y19550000D01*
X2303368Y19433475D01*
X2096525Y19226632D01*
X1934010Y18983411D01*
X1822068Y18713158D01*
X1765000Y18426260D01*
X1765000Y18133740D01*
X1822068Y17846842D01*
X1934010Y17576589D01*
X2096525Y17333368D01*
X2303368Y17126525D01*
X2477760Y17010000D01*
X2303368Y16893475D01*
X2096525Y16686632D01*
X1934010Y16443411D01*
X1822068Y16173158D01*
X1765000Y15886260D01*
X1765000Y15593740D01*
X1822068Y15306842D01*
X1934010Y15036589D01*
X2096525Y14793368D01*
X2303368Y14586525D01*
X2477760Y14470000D01*
X2303368Y14353475D01*
X2096525Y14146632D01*
X1934010Y13903411D01*
X1822068Y13633158D01*
X1765000Y13346260D01*
X1765000Y13053740D01*
X1822068Y12766842D01*
X1934010Y12496589D01*
X2096525Y12253368D01*
X2303368Y12046525D01*
X2477760Y11930000D01*
X2303368Y11813475D01*
X2096525Y11606632D01*
X1934010Y11363411D01*
X1822068Y11093158D01*
X1765000Y10806260D01*
X1765000Y10513740D01*
X1822068Y10226842D01*
X1934010Y9956589D01*
X2096525Y9713368D01*
X2303368Y9506525D01*
X2477760Y9390000D01*
X2303368Y9273475D01*
X2096525Y9066632D01*
X1934010Y8823411D01*
X1822068Y8553158D01*
X1765000Y8266260D01*
X1765000Y7973740D01*
X1822068Y7686842D01*
X1934010Y7416589D01*
X2096525Y7173368D01*
X2303368Y6966525D01*
X2477760Y6850000D01*
X2303368Y6733475D01*
X2096525Y6526632D01*
X1934010Y6283411D01*
X1822068Y6013158D01*
X1765000Y5726260D01*
X1765000Y5433740D01*
X1822068Y5146842D01*
X1934010Y4876589D01*
X2096525Y4633368D01*
X2303368Y4426525D01*
X2477760Y4310000D01*
X2303368Y4193475D01*
X2096525Y3986632D01*
X1934010Y3743411D01*
X1822068Y3473158D01*
X1765000Y3186260D01*
X1765000Y2893740D01*
X1822068Y2606842D01*
X1934010Y2336589D01*
X2096525Y2093368D01*
X2303368Y1886525D01*
X2546589Y1724010D01*
X2816842Y1612068D01*
X3103740Y1555000D01*
X3396260Y1555000D01*
X3683158Y1612068D01*
X3953411Y1724010D01*
X4196632Y1886525D01*
X4403475Y2093368D01*
X4520000Y2267760D01*
X4636525Y2093368D01*
X4843368Y1886525D01*
X5086589Y1724010D01*
X5356842Y1612068D01*
X5643740Y1555000D01*
X5936260Y1555000D01*
X6223158Y1612068D01*
X6493411Y1724010D01*
X6736632Y1886525D01*
X6943475Y2093368D01*
X7013932Y2198815D01*
X13577682Y2198815D01*
X13596513Y2095764D01*
X13708610Y1846100D01*
X13867260Y1623103D01*
X14066366Y1435342D01*
X14298276Y1290032D01*
X14554079Y1192757D01*
X14823944Y1147256D01*
X15043000Y1308127D01*
X15043000Y2413000D01*
X15297000Y2413000D01*
X15297000Y1308127D01*
X15516056Y1147256D01*
X15785921Y1192757D01*
X16041724Y1290032D01*
X16273634Y1435342D01*
X16472740Y1623103D01*
X16631390Y1846100D01*
X16743487Y2095764D01*
X16762318Y2198815D01*
X34037682Y2198815D01*
X34056513Y2095764D01*
X34168610Y1846100D01*
X34327260Y1623103D01*
X34526366Y1435342D01*
X34758276Y1290032D01*
X35014079Y1192757D01*
X35283944Y1147256D01*
X35503000Y1308127D01*
X35503000Y2413000D01*
X35757000Y2413000D01*
X35757000Y1308127D01*
X35976056Y1147256D01*
X36245921Y1192757D01*
X36501724Y1290032D01*
X36733634Y1435342D01*
X36932740Y1623103D01*
X37091390Y1846100D01*
X37203487Y2095764D01*
X37222318Y2198815D01*
X37099656Y2413000D01*
X35757000Y2413000D01*
X35503000Y2413000D01*
X34160344Y2413000D01*
X34037682Y2198815D01*
X16762318Y2198815D01*
X16639656Y2413000D01*
X15297000Y2413000D01*
X15043000Y2413000D01*
X13700344Y2413000D01*
X13577682Y2198815D01*
X7013932Y2198815D01*
X7105990Y2336589D01*
X7217932Y2606842D01*
X7275000Y2893740D01*
X7275000Y3186260D01*
X7217932Y3473158D01*
X7105990Y3743411D01*
X6943475Y3986632D01*
X6736632Y4193475D01*
X6562240Y4310000D01*
X6736632Y4426525D01*
X6943475Y4633368D01*
X7105990Y4876589D01*
X7217932Y5146842D01*
X7275000Y5433740D01*
X7275000Y5726260D01*
X7217932Y6013158D01*
X7105990Y6283411D01*
X6943475Y6526632D01*
X6736632Y6733475D01*
X6562240Y6850000D01*
X6736632Y6966525D01*
X6943475Y7173368D01*
X7105990Y7416589D01*
X7217932Y7686842D01*
X7275000Y7973740D01*
X7275000Y8266260D01*
X7217932Y8553158D01*
X7105990Y8823411D01*
X6943475Y9066632D01*
X6736632Y9273475D01*
X6562240Y9390000D01*
X6736632Y9506525D01*
X6943475Y9713368D01*
X7105990Y9956589D01*
X7217932Y10226842D01*
X7275000Y10513740D01*
X7275000Y10806260D01*
X7217932Y11093158D01*
X7105990Y11363411D01*
X6943475Y11606632D01*
X6736632Y11813475D01*
X6562240Y11930000D01*
X6736632Y12046525D01*
X6943475Y12253368D01*
X7105990Y12496589D01*
X7217932Y12766842D01*
X7275000Y13053740D01*
X7275000Y13180198D01*
X8266201Y12188997D01*
X8289999Y12159999D01*
X8405724Y12065026D01*
X8537753Y11994454D01*
X8681014Y11950997D01*
X8792667Y11940000D01*
X8792676Y11940000D01*
X8829999Y11936324D01*
X8867322Y11940000D01*
X13755794Y11940000D01*
X13762843Y11926812D01*
X13935919Y11715919D01*
X14146812Y11542843D01*
X14357927Y11430000D01*
X14146812Y11317157D01*
X13935919Y11144081D01*
X13762843Y10933188D01*
X13634236Y10692581D01*
X13555040Y10431507D01*
X13528299Y10160000D01*
X13555040Y9888493D01*
X13634236Y9627419D01*
X13688980Y9525000D01*
X13335000Y9525000D01*
X13211118Y9512799D01*
X13091996Y9476664D01*
X12982213Y9417983D01*
X12885987Y9339013D01*
X12807017Y9242787D01*
X12748336Y9133004D01*
X12712201Y9013882D01*
X12700000Y8890000D01*
X12700000Y3810000D01*
X12712201Y3686118D01*
X12748336Y3566996D01*
X12807017Y3457213D01*
X12885987Y3360987D01*
X12982213Y3282017D01*
X13091996Y3223336D01*
X13211118Y3187201D01*
X13335000Y3175000D01*
X13682164Y3175000D01*
X13596513Y2984236D01*
X13577682Y2881185D01*
X13700344Y2667000D01*
X15043000Y2667000D01*
X15043000Y2687000D01*
X15297000Y2687000D01*
X15297000Y2667000D01*
X16639656Y2667000D01*
X16762318Y2881185D01*
X16743487Y2984236D01*
X16657836Y3175000D01*
X20955000Y3175000D01*
X21078882Y3187201D01*
X21198004Y3223336D01*
X21307787Y3282017D01*
X21404013Y3360987D01*
X21482983Y3457213D01*
X21541664Y3566996D01*
X21577799Y3686118D01*
X21590000Y3810000D01*
X21590000Y4738815D01*
X34037682Y4738815D01*
X34056513Y4635764D01*
X34168610Y4386100D01*
X34327260Y4163103D01*
X34526366Y3975342D01*
X34758276Y3830032D01*
X34810954Y3810000D01*
X34758276Y3789968D01*
X34526366Y3644658D01*
X34327260Y3456897D01*
X34168610Y3233900D01*
X34056513Y2984236D01*
X34037682Y2881185D01*
X34160344Y2667000D01*
X35503000Y2667000D01*
X35503000Y3771873D01*
X35451083Y3810000D01*
X35503000Y3848127D01*
X35503000Y4953000D01*
X35757000Y4953000D01*
X35757000Y3848127D01*
X35808917Y3810000D01*
X35757000Y3771873D01*
X35757000Y2667000D01*
X37099656Y2667000D01*
X37222318Y2881185D01*
X37203487Y2984236D01*
X37091390Y3233900D01*
X36932740Y3456897D01*
X36850192Y3534742D01*
X55083715Y3534742D01*
X55227768Y3302000D01*
X56428000Y3302000D01*
X56428000Y4645155D01*
X56198110Y4766476D01*
X56185739Y4764554D01*
X55911991Y4664854D01*
X55662954Y4513664D01*
X55448198Y4316795D01*
X55275975Y4081812D01*
X55152904Y3817745D01*
X55083715Y3534742D01*
X36850192Y3534742D01*
X36733634Y3644658D01*
X36501724Y3789968D01*
X36449046Y3810000D01*
X36501724Y3830032D01*
X36733634Y3975342D01*
X36932740Y4163103D01*
X37091390Y4386100D01*
X37203487Y4635764D01*
X37222318Y4738815D01*
X37099656Y4953000D01*
X35757000Y4953000D01*
X35503000Y4953000D01*
X34160344Y4953000D01*
X34037682Y4738815D01*
X21590000Y4738815D01*
X21590000Y14062089D01*
X23195000Y14062089D01*
X23195000Y13877911D01*
X23230932Y13697271D01*
X23301414Y13527111D01*
X23403738Y13373972D01*
X23533972Y13243738D01*
X23687111Y13141414D01*
X23857271Y13070932D01*
X24037911Y13035000D01*
X24222089Y13035000D01*
X24402729Y13070932D01*
X24572889Y13141414D01*
X24726028Y13243738D01*
X24856262Y13373972D01*
X24958586Y13527111D01*
X25029068Y13697271D01*
X25053153Y13818351D01*
X25714802Y14480000D01*
X34215794Y14480000D01*
X34222843Y14466812D01*
X34395919Y14255919D01*
X34606812Y14082843D01*
X34817927Y13970000D01*
X34606812Y13857157D01*
X34395919Y13684081D01*
X34222843Y13473188D01*
X34094236Y13232581D01*
X34015040Y12971507D01*
X33988299Y12700000D01*
X34015040Y12428493D01*
X34094236Y12167419D01*
X34222843Y11926812D01*
X34395919Y11715919D01*
X34606812Y11542843D01*
X34817927Y11430000D01*
X34606812Y11317157D01*
X34395919Y11144081D01*
X34222843Y10933188D01*
X34094236Y10692581D01*
X34015040Y10431507D01*
X33988299Y10160000D01*
X34015040Y9888493D01*
X34094236Y9627419D01*
X34222843Y9386812D01*
X34395919Y9175919D01*
X34606812Y9002843D01*
X34817927Y8890000D01*
X34606812Y8777157D01*
X34395919Y8604081D01*
X34222843Y8393188D01*
X34094236Y8152581D01*
X34015040Y7891507D01*
X33988299Y7620000D01*
X34015040Y7348493D01*
X34094236Y7087419D01*
X34222843Y6846812D01*
X34395919Y6635919D01*
X34606812Y6462843D01*
X34815028Y6351549D01*
X34758276Y6329968D01*
X34526366Y6184658D01*
X34327260Y5996897D01*
X34168610Y5773900D01*
X34056513Y5524236D01*
X34037682Y5421185D01*
X34160344Y5207000D01*
X35503000Y5207000D01*
X35503000Y5227000D01*
X35757000Y5227000D01*
X35757000Y5207000D01*
X37099656Y5207000D01*
X37222318Y5421185D01*
X37203487Y5524236D01*
X37091390Y5773900D01*
X36932740Y5996897D01*
X36733634Y6184658D01*
X36501724Y6329968D01*
X36444972Y6351549D01*
X36653188Y6462843D01*
X36864081Y6635919D01*
X37037157Y6846812D01*
X37165764Y7087419D01*
X37244960Y7348493D01*
X37271701Y7620000D01*
X37244960Y7891507D01*
X37165764Y8152581D01*
X37037157Y8393188D01*
X36864081Y8604081D01*
X36653188Y8777157D01*
X36442073Y8890000D01*
X36653188Y9002843D01*
X36864081Y9175919D01*
X37037157Y9386812D01*
X37165764Y9627419D01*
X37244960Y9888493D01*
X37271701Y10160000D01*
X37244960Y10431507D01*
X37165764Y10692581D01*
X37037157Y10933188D01*
X36864081Y11144081D01*
X36653188Y11317157D01*
X36442073Y11430000D01*
X36653188Y11542843D01*
X36864081Y11715919D01*
X37037157Y11926812D01*
X37165764Y12167419D01*
X37244960Y12428493D01*
X37271701Y12700000D01*
X37244960Y12971507D01*
X37165764Y13232581D01*
X37037157Y13473188D01*
X36864081Y13684081D01*
X36653188Y13857157D01*
X36442073Y13970000D01*
X36653188Y14082843D01*
X36864081Y14255919D01*
X37037157Y14466812D01*
X37165764Y14707419D01*
X37244960Y14968493D01*
X37271701Y15240000D01*
X37244960Y15511507D01*
X37165764Y15772581D01*
X37037157Y16013188D01*
X36864081Y16224081D01*
X36653188Y16397157D01*
X36412581Y16525764D01*
X36151507Y16604960D01*
X35948037Y16625000D01*
X35311963Y16625000D01*
X35108493Y16604960D01*
X34847419Y16525764D01*
X34606812Y16397157D01*
X34395919Y16224081D01*
X34222843Y16013188D01*
X34215794Y16000000D01*
X25437322Y16000000D01*
X25399999Y16003676D01*
X25362676Y16000000D01*
X25362667Y16000000D01*
X25251014Y15989003D01*
X25107753Y15945546D01*
X24975724Y15874974D01*
X24859999Y15780001D01*
X24836201Y15751003D01*
X23978351Y14893153D01*
X23857271Y14869068D01*
X23687111Y14798586D01*
X23533972Y14696262D01*
X23403738Y14566028D01*
X23301414Y14412889D01*
X23230932Y14242729D01*
X23195000Y14062089D01*
X21590000Y14062089D01*
X21590000Y20955000D01*
X42545000Y20955000D01*
X42545000Y12065000D01*
X42557201Y11941118D01*
X42593336Y11821996D01*
X42652017Y11712213D01*
X42730987Y11615987D01*
X42827213Y11537017D01*
X42936996Y11478336D01*
X43056118Y11442201D01*
X43180000Y11430000D01*
X48260000Y11430000D01*
X48383882Y11442201D01*
X48503004Y11478336D01*
X48612787Y11537017D01*
X48709013Y11615987D01*
X48787983Y11712213D01*
X48846664Y11821996D01*
X48882799Y11941118D01*
X48895000Y12065000D01*
X48895000Y21209000D01*
X52070000Y21209000D01*
X52193882Y21221201D01*
X52313004Y21257336D01*
X52422787Y21316017D01*
X52519013Y21394987D01*
X52597983Y21491213D01*
X52656664Y21600996D01*
X52692799Y21720118D01*
X52705000Y21844000D01*
X52705000Y29083000D01*
X52692799Y29206882D01*
X52656664Y29326004D01*
X52597983Y29435787D01*
X52519013Y29532013D01*
X52422787Y29610983D01*
X52313004Y29669664D01*
X52193882Y29705799D01*
X52070000Y29718000D01*
X17145000Y29718000D01*
X17021118Y29705799D01*
X16901996Y29669664D01*
X16792213Y29610983D01*
X16695987Y29532013D01*
X16617017Y29435787D01*
X16558336Y29326004D01*
X16522201Y29206882D01*
X16510000Y29083000D01*
X16510000Y16095019D01*
X16404081Y16224081D01*
X16193188Y16397157D01*
X16000000Y16500418D01*
X16000000Y34887678D01*
X16003676Y34925001D01*
X16000000Y34962324D01*
X16000000Y34962333D01*
X15989003Y35073986D01*
X15945546Y35217247D01*
X15874975Y35349275D01*
X15874974Y35349277D01*
X15803799Y35436003D01*
X15780001Y35465001D01*
X15751004Y35488798D01*
X15208803Y36030998D01*
X15185001Y36060001D01*
X15069276Y36154974D01*
X14937247Y36225546D01*
X14793986Y36269003D01*
X14682333Y36280000D01*
X14682322Y36280000D01*
X14645000Y36283676D01*
X14607678Y36280000D01*
X14102595Y36280000D01*
X14065706Y36349014D01*
X13880134Y36575134D01*
X13816663Y36627223D01*
X13918386Y36681595D01*
X14052962Y36792038D01*
X14163405Y36926614D01*
X14245472Y37080150D01*
X14296008Y37246746D01*
X14313072Y37420000D01*
X14313072Y38620000D01*
X14296008Y38793254D01*
X14245472Y38959850D01*
X14163405Y39113386D01*
X14052962Y39247962D01*
X13918386Y39358405D01*
X13764850Y39440472D01*
X13598254Y39491008D01*
X13425000Y39508072D01*
X11975000Y39508072D01*
X11801746Y39491008D01*
X11635150Y39440472D01*
X11481614Y39358405D01*
X11347038Y39247962D01*
X11236595Y39113386D01*
X11154528Y38959850D01*
X11103992Y38793254D01*
X11086928Y38620000D01*
X11086928Y37420000D01*
X11103992Y37246746D01*
X11154528Y37080150D01*
X11236595Y36926614D01*
X11347038Y36792038D01*
X11481614Y36681595D01*
X11583337Y36627223D01*
X11519866Y36575134D01*
X11334294Y36349014D01*
X11196401Y36091034D01*
X11111487Y35811111D01*
X11082815Y35520000D01*
X11111487Y35228889D01*
X11196401Y34948966D01*
X11334294Y34690986D01*
X11519866Y34464866D01*
X11745986Y34279294D01*
X11763374Y34270000D01*
X11745986Y34260706D01*
X11519866Y34075134D01*
X11334294Y33849014D01*
X11196401Y33591034D01*
X11111487Y33311111D01*
X11082815Y33020000D01*
X11111487Y32728889D01*
X11196401Y32448966D01*
X11334294Y32190986D01*
X11519866Y31964866D01*
X11745986Y31779294D01*
X11763374Y31770000D01*
X11745986Y31760706D01*
X11519866Y31575134D01*
X11334294Y31349014D01*
X11297405Y31280000D01*
X7244419Y31280000D01*
X7217932Y31413158D01*
X7105990Y31683411D01*
X6943475Y31926632D01*
X6736632Y32133475D01*
X6562240Y32250000D01*
X6736632Y32366525D01*
X6943475Y32573368D01*
X7105990Y32816589D01*
X7217932Y33086842D01*
X7275000Y33373740D01*
X7275000Y33666260D01*
X7217932Y33953158D01*
X7105990Y34223411D01*
X6943475Y34466632D01*
X6736632Y34673475D01*
X6562240Y34790000D01*
X6736632Y34906525D01*
X6943475Y35113368D01*
X7105990Y35356589D01*
X7217932Y35626842D01*
X7275000Y35913740D01*
X7275000Y36206260D01*
X7217932Y36493158D01*
X7105990Y36763411D01*
X6943475Y37006632D01*
X6736632Y37213475D01*
X6562240Y37330000D01*
X6736632Y37446525D01*
X6943475Y37653368D01*
X7105990Y37896589D01*
X7217932Y38166842D01*
X7275000Y38453740D01*
X7275000Y38746260D01*
X7217932Y39033158D01*
X7105990Y39303411D01*
X6943475Y39546632D01*
X6736632Y39753475D01*
X6554466Y39875195D01*
X6671355Y39944822D01*
X6887588Y40139731D01*
X7061641Y40373080D01*
X7186825Y40635901D01*
X7231476Y40783110D01*
X7110155Y41013000D01*
X5917000Y41013000D01*
X5917000Y40993000D01*
X5663000Y40993000D01*
X5663000Y41013000D01*
X5643000Y41013000D01*
X5643000Y41267000D01*
X5663000Y41267000D01*
X5663000Y41287000D01*
X5917000Y41287000D01*
X5917000Y41267000D01*
X7110155Y41267000D01*
X7231476Y41496890D01*
X7186825Y41644099D01*
X7061641Y41906920D01*
X7059344Y41910000D01*
X14906563Y41910000D01*
X16622260Y39422240D01*
X16698130Y39331604D01*
X16794731Y39253093D01*
X16904792Y39194936D01*
X17024085Y39159368D01*
X17148024Y39147757D01*
X57150000Y39338243D01*
X57150000Y4682339D01*
X56924261Y4764554D01*
X56911890Y4766476D01*
X56682000Y4645155D01*
X56682000Y3302000D01*
X56702000Y3302000D01*
X56702000Y3048000D01*
X56682000Y3048000D01*
X56682000Y1704845D01*
X56911890Y1583524D01*
X56924261Y1585446D01*
X57150000Y1667661D01*
X57150000Y1270000D01*
X57162201Y1146118D01*
X57198336Y1026996D01*
X57257017Y917213D01*
X57335987Y820987D01*
X57432213Y742017D01*
X57492112Y710000D01*
X48034874Y710000D01*
X47999999Y713435D01*
X47965124Y710000D01*
X47965123Y710000D01*
X47860816Y699727D01*
X47726980Y659128D01*
X47603637Y593200D01*
X47495525Y504475D01*
X47473292Y477384D01*
X45705909Y-1290000D01*
X45401473Y-1290000D01*
X45694305Y-997168D01*
X45951334Y-612496D01*
X46128379Y-185072D01*
X46218636Y268680D01*
X46218636Y731320D01*
X46128379Y1185072D01*
X45951334Y1612496D01*
X45694305Y1997168D01*
X45367168Y2324305D01*
X44982496Y2581334D01*
X44555072Y2758379D01*
X44269123Y2815258D01*
X55083715Y2815258D01*
X55152904Y2532255D01*
X55275975Y2268188D01*
X55448198Y2033205D01*
X55662954Y1836336D01*
X55911991Y1685146D01*
X56185739Y1585446D01*
X56198110Y1583524D01*
X56428000Y1704845D01*
X56428000Y3048000D01*
X55227768Y3048000D01*
X55083715Y2815258D01*
X44269123Y2815258D01*
X44101320Y2848636D01*
X43638680Y2848636D01*
X43184928Y2758379D01*
X42757504Y2581334D01*
X42372832Y2324305D01*
X42045695Y1997168D01*
X41788666Y1612496D01*
X41611621Y1185072D01*
X41521364Y731320D01*
X41521364Y268680D01*
X41611621Y-185072D01*
X41788666Y-612496D01*
X42045695Y-997168D01*
X42338527Y-1290000D01*
X13294092Y-1290000D01*
X11526712Y477379D01*
X11504475Y504475D01*
X11396363Y593200D01*
X11273020Y659128D01*
X11139184Y699727D01*
X11034877Y710000D01*
X11034875Y710000D01*
X11000000Y713435D01*
X10965125Y710000D01*
X2034721Y710000D01*
X1750101Y737907D01*
X1509718Y810483D01*
X1288011Y928367D01*
X1093420Y1087071D01*
X933365Y1280545D01*
X813936Y1501424D01*
X739683Y1741299D01*
X710000Y2023709D01*
X710000Y51730322D01*
X721739Y52810340D01*
X8531316Y52810340D01*
X8531316Y52349660D01*
X8621190Y51897831D01*
X8797485Y51472218D01*
X9053425Y51089176D01*
X9379176Y50763425D01*
X9762218Y50507485D01*
X10187831Y50331190D01*
X10639660Y50241316D01*
X11100340Y50241316D01*
X11552169Y50331190D01*
X11977782Y50507485D01*
X12360824Y50763425D01*
X12686575Y51089176D01*
X12942515Y51472218D01*
X13118810Y51897831D01*
X13208684Y52349660D01*
X13208684Y52810340D01*
X13118810Y53262169D01*
X12942515Y53687782D01*
X12686575Y54070824D01*
X12360824Y54396575D01*
X11977782Y54652515D01*
X11552169Y54828810D01*
X11100340Y54918684D01*
X10639660Y54918684D01*
X10187831Y54828810D01*
X9762218Y54652515D01*
X9379176Y54396575D01*
X9053425Y54070824D01*
X8797485Y53687782D01*
X8621190Y53262169D01*
X8531316Y52810340D01*
X721739Y52810340D01*
X758068Y56152541D01*
X761288Y56158597D01*
X796641Y56201945D01*
X839740Y56237600D01*
X888937Y56264201D01*
X942375Y56280742D01*
X1030455Y56290000D01*
X18965278Y56290000D01*
X19055665Y56281137D01*
G04 #@! TA.AperFunction,Conductor*
D19*
G36*
X19055665Y56281137D02*
G01*
X19109214Y56264970D01*
X19158597Y56238712D01*
X19201945Y56203359D01*
X19237600Y56160260D01*
X19264201Y56111063D01*
X19280742Y56057625D01*
X19290000Y55969545D01*
X19290001Y49965123D01*
X19292989Y49934787D01*
X19292946Y49928668D01*
X19293914Y49918802D01*
X19314315Y49724705D01*
X19327250Y49661690D01*
X19339312Y49598460D01*
X19342177Y49588970D01*
X19399889Y49402532D01*
X19424829Y49343203D01*
X19448932Y49283545D01*
X19453586Y49274792D01*
X19546411Y49103115D01*
X19582371Y49049802D01*
X19617633Y48995917D01*
X19623898Y48988235D01*
X19748302Y48837857D01*
X19793957Y48792520D01*
X19838987Y48746537D01*
X19846625Y48740218D01*
X19997867Y48616868D01*
X20051487Y48581243D01*
X20104564Y48544901D01*
X20113284Y48540186D01*
X20285606Y48448561D01*
X20345076Y48424049D01*
X20404248Y48398688D01*
X20413718Y48395757D01*
X20600554Y48339348D01*
X20663684Y48326848D01*
X20726623Y48313470D01*
X20736481Y48312434D01*
X20930209Y48293439D01*
X20965123Y48290000D01*
X49034877Y48290000D01*
X49065222Y48292989D01*
X49071332Y48292946D01*
X49081198Y48293914D01*
X49275295Y48314315D01*
X49338310Y48327250D01*
X49401540Y48339312D01*
X49411030Y48342177D01*
X49597468Y48399889D01*
X49656797Y48424829D01*
X49716455Y48448932D01*
X49725208Y48453586D01*
X49896885Y48546411D01*
X49950198Y48582371D01*
X50004083Y48617633D01*
X50011765Y48623898D01*
X50162143Y48748302D01*
X50207480Y48793957D01*
X50253463Y48838987D01*
X50259782Y48846625D01*
X50383132Y48997867D01*
X50418757Y49051487D01*
X50455099Y49104564D01*
X50459814Y49113284D01*
X50551439Y49285606D01*
X50575951Y49345076D01*
X50601312Y49404248D01*
X50604243Y49413718D01*
X50660652Y49600554D01*
X50673152Y49663684D01*
X50686530Y49726623D01*
X50687566Y49736481D01*
X50706611Y49930715D01*
X50710000Y49965123D01*
X50710000Y51530340D01*
X56791316Y51530340D01*
X56791316Y51069660D01*
X56881190Y50617831D01*
X57057485Y50192218D01*
X57313425Y49809176D01*
X57639176Y49483425D01*
X58022218Y49227485D01*
X58447831Y49051190D01*
X58899660Y48961316D01*
X59360340Y48961316D01*
X59812169Y49051190D01*
X60237782Y49227485D01*
X60620824Y49483425D01*
X60747399Y49610000D01*
X62721928Y49610000D01*
X62721928Y47910000D01*
X62734188Y47785518D01*
X62770498Y47665820D01*
X62829463Y47555506D01*
X62908815Y47458815D01*
X63005506Y47379463D01*
X63115820Y47320498D01*
X63188380Y47298487D01*
X63056525Y47166632D01*
X62894010Y46923411D01*
X62782068Y46653158D01*
X62725000Y46366260D01*
X62725000Y46073740D01*
X62782068Y45786842D01*
X62894010Y45516589D01*
X63056525Y45273368D01*
X63263368Y45066525D01*
X63437760Y44950000D01*
X63263368Y44833475D01*
X63056525Y44626632D01*
X62894010Y44383411D01*
X62782068Y44113158D01*
X62725000Y43826260D01*
X62725000Y43533740D01*
X62782068Y43246842D01*
X62894010Y42976589D01*
X63056525Y42733368D01*
X63263368Y42526525D01*
X63437760Y42410000D01*
X63263368Y42293475D01*
X63056525Y42086632D01*
X62894010Y41843411D01*
X62782068Y41573158D01*
X62725000Y41286260D01*
X62725000Y40993740D01*
X62782068Y40706842D01*
X62894010Y40436589D01*
X63056525Y40193368D01*
X63263368Y39986525D01*
X63445534Y39864805D01*
X63328645Y39795178D01*
X63112412Y39600269D01*
X62938359Y39366920D01*
X62813175Y39104099D01*
X62768524Y38956890D01*
X62889845Y38727000D01*
X64083000Y38727000D01*
X64083000Y38747000D01*
X64337000Y38747000D01*
X64337000Y38727000D01*
X64357000Y38727000D01*
X64357000Y38473000D01*
X64337000Y38473000D01*
X64337000Y38453000D01*
X64083000Y38453000D01*
X64083000Y38473000D01*
X62889845Y38473000D01*
X62768524Y38243110D01*
X62813175Y38095901D01*
X62938359Y37833080D01*
X63112412Y37599731D01*
X63328645Y37404822D01*
X63445534Y37335195D01*
X63263368Y37213475D01*
X63056525Y37006632D01*
X62894010Y36763411D01*
X62782068Y36493158D01*
X62725000Y36206260D01*
X62725000Y35913740D01*
X62782068Y35626842D01*
X62894010Y35356589D01*
X63056525Y35113368D01*
X63263368Y34906525D01*
X63437760Y34790000D01*
X63263368Y34673475D01*
X63056525Y34466632D01*
X62894010Y34223411D01*
X62782068Y33953158D01*
X62725000Y33666260D01*
X62725000Y33373740D01*
X62782068Y33086842D01*
X62894010Y32816589D01*
X63056525Y32573368D01*
X63263368Y32366525D01*
X63437760Y32250000D01*
X63263368Y32133475D01*
X63056525Y31926632D01*
X62894010Y31683411D01*
X62782068Y31413158D01*
X62725000Y31126260D01*
X62725000Y30833740D01*
X62782068Y30546842D01*
X62894010Y30276589D01*
X63056525Y30033368D01*
X63263368Y29826525D01*
X63437760Y29710000D01*
X63263368Y29593475D01*
X63056525Y29386632D01*
X62894010Y29143411D01*
X62782068Y28873158D01*
X62725000Y28586260D01*
X62725000Y28293740D01*
X62782068Y28006842D01*
X62894010Y27736589D01*
X63056525Y27493368D01*
X63263368Y27286525D01*
X63437760Y27170000D01*
X63263368Y27053475D01*
X63056525Y26846632D01*
X62894010Y26603411D01*
X62782068Y26333158D01*
X62725000Y26046260D01*
X62725000Y25753740D01*
X62782068Y25466842D01*
X62894010Y25196589D01*
X63056525Y24953368D01*
X63263368Y24746525D01*
X63437760Y24630000D01*
X63263368Y24513475D01*
X63056525Y24306632D01*
X62894010Y24063411D01*
X62782068Y23793158D01*
X62725000Y23506260D01*
X62725000Y23213740D01*
X62782068Y22926842D01*
X62894010Y22656589D01*
X63056525Y22413368D01*
X63263368Y22206525D01*
X63437760Y22090000D01*
X63263368Y21973475D01*
X63056525Y21766632D01*
X62894010Y21523411D01*
X62782068Y21253158D01*
X62725000Y20966260D01*
X62725000Y20673740D01*
X62782068Y20386842D01*
X62894010Y20116589D01*
X63056525Y19873368D01*
X63263368Y19666525D01*
X63437760Y19550000D01*
X63263368Y19433475D01*
X63056525Y19226632D01*
X62894010Y18983411D01*
X62782068Y18713158D01*
X62725000Y18426260D01*
X62725000Y18133740D01*
X62782068Y17846842D01*
X62894010Y17576589D01*
X63056525Y17333368D01*
X63263368Y17126525D01*
X63437760Y17010000D01*
X63263368Y16893475D01*
X63056525Y16686632D01*
X62894010Y16443411D01*
X62782068Y16173158D01*
X62725000Y15886260D01*
X62725000Y15593740D01*
X62782068Y15306842D01*
X62894010Y15036589D01*
X63056525Y14793368D01*
X63263368Y14586525D01*
X63437760Y14470000D01*
X63263368Y14353475D01*
X63056525Y14146632D01*
X62894010Y13903411D01*
X62782068Y13633158D01*
X62725000Y13346260D01*
X62725000Y13053740D01*
X62782068Y12766842D01*
X62894010Y12496589D01*
X63056525Y12253368D01*
X63263368Y12046525D01*
X63437760Y11930000D01*
X63263368Y11813475D01*
X63056525Y11606632D01*
X62894010Y11363411D01*
X62782068Y11093158D01*
X62725000Y10806260D01*
X62725000Y10513740D01*
X62782068Y10226842D01*
X62894010Y9956589D01*
X63056525Y9713368D01*
X63263368Y9506525D01*
X63437760Y9390000D01*
X63263368Y9273475D01*
X63056525Y9066632D01*
X62894010Y8823411D01*
X62782068Y8553158D01*
X62725000Y8266260D01*
X62725000Y7973740D01*
X62782068Y7686842D01*
X62894010Y7416589D01*
X63056525Y7173368D01*
X63263368Y6966525D01*
X63437760Y6850000D01*
X63263368Y6733475D01*
X63056525Y6526632D01*
X62894010Y6283411D01*
X62782068Y6013158D01*
X62725000Y5726260D01*
X62725000Y5433740D01*
X62782068Y5146842D01*
X62894010Y4876589D01*
X63056525Y4633368D01*
X63263368Y4426525D01*
X63437760Y4310000D01*
X63263368Y4193475D01*
X63056525Y3986632D01*
X62894010Y3743411D01*
X62782068Y3473158D01*
X62725000Y3186260D01*
X62725000Y2893740D01*
X62782068Y2606842D01*
X62894010Y2336589D01*
X63056525Y2093368D01*
X63263368Y1886525D01*
X63506589Y1724010D01*
X63776842Y1612068D01*
X64063740Y1555000D01*
X64356260Y1555000D01*
X64643158Y1612068D01*
X64913411Y1724010D01*
X65156632Y1886525D01*
X65363475Y2093368D01*
X65480000Y2267760D01*
X65596525Y2093368D01*
X65803368Y1886525D01*
X66046589Y1724010D01*
X66316842Y1612068D01*
X66603740Y1555000D01*
X66896260Y1555000D01*
X67183158Y1612068D01*
X67453411Y1724010D01*
X67696632Y1886525D01*
X67903475Y2093368D01*
X68065990Y2336589D01*
X68177932Y2606842D01*
X68235000Y2893740D01*
X68235000Y3186260D01*
X68177932Y3473158D01*
X68065990Y3743411D01*
X67903475Y3986632D01*
X67696632Y4193475D01*
X67522240Y4310000D01*
X67696632Y4426525D01*
X67903475Y4633368D01*
X68065990Y4876589D01*
X68177932Y5146842D01*
X68235000Y5433740D01*
X68235000Y5726260D01*
X68177932Y6013158D01*
X68065990Y6283411D01*
X67903475Y6526632D01*
X67696632Y6733475D01*
X67522240Y6850000D01*
X67696632Y6966525D01*
X67903475Y7173368D01*
X68065990Y7416589D01*
X68177932Y7686842D01*
X68235000Y7973740D01*
X68235000Y8266260D01*
X68177932Y8553158D01*
X68065990Y8823411D01*
X67903475Y9066632D01*
X67696632Y9273475D01*
X67522240Y9390000D01*
X67696632Y9506525D01*
X67903475Y9713368D01*
X68065990Y9956589D01*
X68177932Y10226842D01*
X68235000Y10513740D01*
X68235000Y10806260D01*
X68177932Y11093158D01*
X68065990Y11363411D01*
X67903475Y11606632D01*
X67696632Y11813475D01*
X67522240Y11930000D01*
X67696632Y12046525D01*
X67903475Y12253368D01*
X68065990Y12496589D01*
X68177932Y12766842D01*
X68235000Y13053740D01*
X68235000Y13346260D01*
X68177932Y13633158D01*
X68065990Y13903411D01*
X67903475Y14146632D01*
X67696632Y14353475D01*
X67522240Y14470000D01*
X67696632Y14586525D01*
X67903475Y14793368D01*
X68065990Y15036589D01*
X68177932Y15306842D01*
X68235000Y15593740D01*
X68235000Y15886260D01*
X68177932Y16173158D01*
X68065990Y16443411D01*
X67903475Y16686632D01*
X67696632Y16893475D01*
X67522240Y17010000D01*
X67696632Y17126525D01*
X67903475Y17333368D01*
X68065990Y17576589D01*
X68177932Y17846842D01*
X68235000Y18133740D01*
X68235000Y18426260D01*
X68177932Y18713158D01*
X68065990Y18983411D01*
X67903475Y19226632D01*
X67696632Y19433475D01*
X67522240Y19550000D01*
X67696632Y19666525D01*
X67903475Y19873368D01*
X68065990Y20116589D01*
X68177932Y20386842D01*
X68235000Y20673740D01*
X68235000Y20966260D01*
X68177932Y21253158D01*
X68065990Y21523411D01*
X67903475Y21766632D01*
X67696632Y21973475D01*
X67522240Y22090000D01*
X67696632Y22206525D01*
X67903475Y22413368D01*
X68065990Y22656589D01*
X68177932Y22926842D01*
X68235000Y23213740D01*
X68235000Y23506260D01*
X68177932Y23793158D01*
X68065990Y24063411D01*
X67903475Y24306632D01*
X67696632Y24513475D01*
X67514466Y24635195D01*
X67631355Y24704822D01*
X67847588Y24899731D01*
X68021641Y25133080D01*
X68146825Y25395901D01*
X68191476Y25543110D01*
X68070155Y25773000D01*
X66877000Y25773000D01*
X66877000Y25753000D01*
X66623000Y25753000D01*
X66623000Y25773000D01*
X66603000Y25773000D01*
X66603000Y26027000D01*
X66623000Y26027000D01*
X66623000Y26047000D01*
X66877000Y26047000D01*
X66877000Y26027000D01*
X68070155Y26027000D01*
X68191476Y26256890D01*
X68146825Y26404099D01*
X68021641Y26666920D01*
X67847588Y26900269D01*
X67631355Y27095178D01*
X67514466Y27164805D01*
X67696632Y27286525D01*
X67903475Y27493368D01*
X68065990Y27736589D01*
X68177932Y28006842D01*
X68235000Y28293740D01*
X68235000Y28586260D01*
X68177932Y28873158D01*
X68065990Y29143411D01*
X67903475Y29386632D01*
X67696632Y29593475D01*
X67522240Y29710000D01*
X67696632Y29826525D01*
X67903475Y30033368D01*
X68065990Y30276589D01*
X68177932Y30546842D01*
X68235000Y30833740D01*
X68235000Y31126260D01*
X68177932Y31413158D01*
X68065990Y31683411D01*
X67903475Y31926632D01*
X67696632Y32133475D01*
X67522240Y32250000D01*
X67696632Y32366525D01*
X67903475Y32573368D01*
X68065990Y32816589D01*
X68177932Y33086842D01*
X68235000Y33373740D01*
X68235000Y33666260D01*
X68177932Y33953158D01*
X68065990Y34223411D01*
X67903475Y34466632D01*
X67696632Y34673475D01*
X67522240Y34790000D01*
X67696632Y34906525D01*
X67903475Y35113368D01*
X68065990Y35356589D01*
X68177932Y35626842D01*
X68235000Y35913740D01*
X68235000Y36206260D01*
X68177932Y36493158D01*
X68065990Y36763411D01*
X67903475Y37006632D01*
X67696632Y37213475D01*
X67522240Y37330000D01*
X67696632Y37446525D01*
X67903475Y37653368D01*
X68065990Y37896589D01*
X68177932Y38166842D01*
X68235000Y38453740D01*
X68235000Y38746260D01*
X68177932Y39033158D01*
X68065990Y39303411D01*
X67903475Y39546632D01*
X67696632Y39753475D01*
X67522240Y39870000D01*
X67696632Y39986525D01*
X67903475Y40193368D01*
X68065990Y40436589D01*
X68177932Y40706842D01*
X68235000Y40993740D01*
X68235000Y41286260D01*
X68177932Y41573158D01*
X68065990Y41843411D01*
X67903475Y42086632D01*
X67696632Y42293475D01*
X67522240Y42410000D01*
X67696632Y42526525D01*
X67903475Y42733368D01*
X68065990Y42976589D01*
X68177932Y43246842D01*
X68235000Y43533740D01*
X68235000Y43826260D01*
X68177932Y44113158D01*
X68065990Y44383411D01*
X67903475Y44626632D01*
X67696632Y44833475D01*
X67522240Y44950000D01*
X67696632Y45066525D01*
X67903475Y45273368D01*
X68065990Y45516589D01*
X68177932Y45786842D01*
X68235000Y46073740D01*
X68235000Y46366260D01*
X68177932Y46653158D01*
X68065990Y46923411D01*
X67903475Y47166632D01*
X67696632Y47373475D01*
X67522240Y47490000D01*
X67696632Y47606525D01*
X67903475Y47813368D01*
X68065990Y48056589D01*
X68177932Y48326842D01*
X68235000Y48613740D01*
X68235000Y48906260D01*
X68177932Y49193158D01*
X68065990Y49463411D01*
X67903475Y49706632D01*
X67696632Y49913475D01*
X67453411Y50075990D01*
X67183158Y50187932D01*
X66896260Y50245000D01*
X66603740Y50245000D01*
X66316842Y50187932D01*
X66046589Y50075990D01*
X65803368Y49913475D01*
X65671513Y49781620D01*
X65649502Y49854180D01*
X65590537Y49964494D01*
X65511185Y50061185D01*
X65414494Y50140537D01*
X65304180Y50199502D01*
X65184482Y50235812D01*
X65060000Y50248072D01*
X63360000Y50248072D01*
X63235518Y50235812D01*
X63115820Y50199502D01*
X63005506Y50140537D01*
X62908815Y50061185D01*
X62829463Y49964494D01*
X62770498Y49854180D01*
X62734188Y49734482D01*
X62721928Y49610000D01*
X60747399Y49610000D01*
X60946575Y49809176D01*
X61202515Y50192218D01*
X61378810Y50617831D01*
X61468684Y51069660D01*
X61468684Y51530340D01*
X61378810Y51982169D01*
X61202515Y52407782D01*
X60946575Y52790824D01*
X60620824Y53116575D01*
X60237782Y53372515D01*
X59812169Y53548810D01*
X59360340Y53638684D01*
X58899660Y53638684D01*
X58447831Y53548810D01*
X58022218Y53372515D01*
X57639176Y53116575D01*
X57313425Y52790824D01*
X57057485Y52407782D01*
X56881190Y51982169D01*
X56791316Y51530340D01*
X50710000Y51530340D01*
X50710000Y55965278D01*
X50718863Y56055665D01*
X50735030Y56109214D01*
X50761288Y56158597D01*
X50796641Y56201945D01*
X50839740Y56237600D01*
X50888937Y56264201D01*
X50942375Y56280742D01*
X51030455Y56290000D01*
X68965278Y56290000D01*
X69055665Y56281137D01*
X69088000Y56271375D01*
X69088000Y1318793D01*
X69071633Y1288011D01*
X68912929Y1093420D01*
X68719455Y933365D01*
X68498576Y813936D01*
X68258701Y739683D01*
X67976291Y710000D01*
X61252888Y710000D01*
X61312787Y742017D01*
X61409013Y820987D01*
X61487983Y917213D01*
X61546664Y1026996D01*
X61582799Y1146118D01*
X61595000Y1270000D01*
X61595000Y4368446D01*
X61614287Y4387733D01*
X61749443Y4590008D01*
X61842540Y4814764D01*
X61890000Y5053363D01*
X61890000Y5296637D01*
X61842540Y5535236D01*
X61749443Y5759992D01*
X61614287Y5962267D01*
X61595000Y5981554D01*
X61595000Y42545000D01*
X61582799Y42668882D01*
X61546664Y42788004D01*
X61487983Y42897787D01*
X61409013Y42994013D01*
X61312787Y43072983D01*
X61203004Y43131664D01*
X61083882Y43167799D01*
X60960000Y43180000D01*
X57785000Y43180000D01*
X57661118Y43167799D01*
X57541996Y43131664D01*
X57432213Y43072983D01*
X57335987Y42994013D01*
X57257017Y42897787D01*
X57198336Y42788004D01*
X57190773Y42763072D01*
X55665000Y42763072D01*
X55540518Y42750812D01*
X55462710Y42727209D01*
X18718995Y42546502D01*
X16616197Y45175000D01*
X19506928Y45175000D01*
X19506928Y43725000D01*
X19523992Y43551746D01*
X19574528Y43385150D01*
X19656595Y43231614D01*
X19767038Y43097038D01*
X19901614Y42986595D01*
X20055150Y42904528D01*
X20221746Y42853992D01*
X20395000Y42836928D01*
X21595000Y42836928D01*
X21768254Y42853992D01*
X21934850Y42904528D01*
X22088386Y42986595D01*
X22222962Y43097038D01*
X22333405Y43231614D01*
X22387777Y43333337D01*
X22439866Y43269866D01*
X22665987Y43084294D01*
X22923967Y42946401D01*
X23203890Y42861487D01*
X23495000Y42832815D01*
X23786111Y42861487D01*
X24066034Y42946401D01*
X24324014Y43084294D01*
X24550134Y43269866D01*
X24735706Y43495986D01*
X24749462Y43521722D01*
X24905951Y43315571D01*
X25123807Y43122504D01*
X25375142Y42975648D01*
X25638110Y42883524D01*
X25868000Y43004845D01*
X25868000Y44323000D01*
X26122000Y44323000D01*
X26122000Y43004845D01*
X26351890Y42883524D01*
X26614858Y42975648D01*
X26866193Y43122504D01*
X27084049Y43315571D01*
X27260053Y43547430D01*
X27387442Y43809170D01*
X27461320Y44090733D01*
X27321165Y44323000D01*
X26122000Y44323000D01*
X25868000Y44323000D01*
X25848000Y44323000D01*
X25848000Y44577000D01*
X25868000Y44577000D01*
X25868000Y45895155D01*
X26122000Y45895155D01*
X26122000Y44577000D01*
X27321165Y44577000D01*
X27461320Y44809267D01*
X27387442Y45090830D01*
X27346477Y45175000D01*
X31571928Y45175000D01*
X31571928Y43725000D01*
X31588992Y43551746D01*
X31639528Y43385150D01*
X31721595Y43231614D01*
X31832038Y43097038D01*
X31966614Y42986595D01*
X32120150Y42904528D01*
X32286746Y42853992D01*
X32460000Y42836928D01*
X33660000Y42836928D01*
X33833254Y42853992D01*
X33999850Y42904528D01*
X34153386Y42986595D01*
X34287962Y43097038D01*
X34398405Y43231614D01*
X34452777Y43333337D01*
X34504866Y43269866D01*
X34730987Y43084294D01*
X34988967Y42946401D01*
X35268890Y42861487D01*
X35560000Y42832815D01*
X35851111Y42861487D01*
X36131034Y42946401D01*
X36389014Y43084294D01*
X36615134Y43269866D01*
X36800706Y43495986D01*
X36814462Y43521722D01*
X36970951Y43315571D01*
X37188807Y43122504D01*
X37440142Y42975648D01*
X37703110Y42883524D01*
X37933000Y43004845D01*
X37933000Y44323000D01*
X38187000Y44323000D01*
X38187000Y43004845D01*
X38416890Y42883524D01*
X38679858Y42975648D01*
X38931193Y43122504D01*
X39149049Y43315571D01*
X39325053Y43547430D01*
X39452442Y43809170D01*
X39526320Y44090733D01*
X39386165Y44323000D01*
X38187000Y44323000D01*
X37933000Y44323000D01*
X37913000Y44323000D01*
X37913000Y44577000D01*
X37933000Y44577000D01*
X37933000Y45895155D01*
X38187000Y45895155D01*
X38187000Y44577000D01*
X39386165Y44577000D01*
X39526320Y44809267D01*
X39452442Y45090830D01*
X39411477Y45175000D01*
X43596928Y45175000D01*
X43596928Y43725000D01*
X43613992Y43551746D01*
X43664528Y43385150D01*
X43746595Y43231614D01*
X43857038Y43097038D01*
X43991614Y42986595D01*
X44145150Y42904528D01*
X44311746Y42853992D01*
X44485000Y42836928D01*
X45685000Y42836928D01*
X45858254Y42853992D01*
X46024850Y42904528D01*
X46178386Y42986595D01*
X46312962Y43097038D01*
X46423405Y43231614D01*
X46477777Y43333337D01*
X46529866Y43269866D01*
X46755987Y43084294D01*
X47013967Y42946401D01*
X47293890Y42861487D01*
X47585000Y42832815D01*
X47876111Y42861487D01*
X48156034Y42946401D01*
X48414014Y43084294D01*
X48640134Y43269866D01*
X48825706Y43495986D01*
X48839462Y43521722D01*
X48995951Y43315571D01*
X49213807Y43122504D01*
X49465142Y42975648D01*
X49728110Y42883524D01*
X49958000Y43004845D01*
X49958000Y44323000D01*
X50212000Y44323000D01*
X50212000Y43004845D01*
X50441890Y42883524D01*
X50704858Y42975648D01*
X50956193Y43122504D01*
X51174049Y43315571D01*
X51350053Y43547430D01*
X51477442Y43809170D01*
X51551320Y44090733D01*
X51411165Y44323000D01*
X50212000Y44323000D01*
X49958000Y44323000D01*
X49938000Y44323000D01*
X49938000Y44577000D01*
X49958000Y44577000D01*
X49958000Y45895155D01*
X50212000Y45895155D01*
X50212000Y44577000D01*
X51411165Y44577000D01*
X51551320Y44809267D01*
X51477442Y45090830D01*
X51350053Y45352570D01*
X51174049Y45584429D01*
X50956193Y45777496D01*
X50704858Y45924352D01*
X50441890Y46016476D01*
X50212000Y45895155D01*
X49958000Y45895155D01*
X49728110Y46016476D01*
X49465142Y45924352D01*
X49213807Y45777496D01*
X48995951Y45584429D01*
X48839462Y45378278D01*
X48825706Y45404014D01*
X48640134Y45630134D01*
X48414013Y45815706D01*
X48156033Y45953599D01*
X47876110Y46038513D01*
X47585000Y46067185D01*
X47293889Y46038513D01*
X47013966Y45953599D01*
X46755986Y45815706D01*
X46529866Y45630134D01*
X46477777Y45566663D01*
X46423405Y45668386D01*
X46312962Y45802962D01*
X46178386Y45913405D01*
X46024850Y45995472D01*
X45858254Y46046008D01*
X45685000Y46063072D01*
X44485000Y46063072D01*
X44311746Y46046008D01*
X44145150Y45995472D01*
X43991614Y45913405D01*
X43857038Y45802962D01*
X43746595Y45668386D01*
X43664528Y45514850D01*
X43613992Y45348254D01*
X43596928Y45175000D01*
X39411477Y45175000D01*
X39325053Y45352570D01*
X39149049Y45584429D01*
X38931193Y45777496D01*
X38679858Y45924352D01*
X38416890Y46016476D01*
X38187000Y45895155D01*
X37933000Y45895155D01*
X37703110Y46016476D01*
X37440142Y45924352D01*
X37188807Y45777496D01*
X36970951Y45584429D01*
X36814462Y45378278D01*
X36800706Y45404014D01*
X36615134Y45630134D01*
X36389013Y45815706D01*
X36131033Y45953599D01*
X35851110Y46038513D01*
X35560000Y46067185D01*
X35268889Y46038513D01*
X34988966Y45953599D01*
X34730986Y45815706D01*
X34504866Y45630134D01*
X34452777Y45566663D01*
X34398405Y45668386D01*
X34287962Y45802962D01*
X34153386Y45913405D01*
X33999850Y45995472D01*
X33833254Y46046008D01*
X33660000Y46063072D01*
X32460000Y46063072D01*
X32286746Y46046008D01*
X32120150Y45995472D01*
X31966614Y45913405D01*
X31832038Y45802962D01*
X31721595Y45668386D01*
X31639528Y45514850D01*
X31588992Y45348254D01*
X31571928Y45175000D01*
X27346477Y45175000D01*
X27260053Y45352570D01*
X27084049Y45584429D01*
X26866193Y45777496D01*
X26614858Y45924352D01*
X26351890Y46016476D01*
X26122000Y45895155D01*
X25868000Y45895155D01*
X25638110Y46016476D01*
X25375142Y45924352D01*
X25123807Y45777496D01*
X24905951Y45584429D01*
X24749462Y45378278D01*
X24735706Y45404014D01*
X24550134Y45630134D01*
X24324013Y45815706D01*
X24066033Y45953599D01*
X23786110Y46038513D01*
X23495000Y46067185D01*
X23203889Y46038513D01*
X22923966Y45953599D01*
X22665986Y45815706D01*
X22439866Y45630134D01*
X22387777Y45566663D01*
X22333405Y45668386D01*
X22222962Y45802962D01*
X22088386Y45913405D01*
X21934850Y45995472D01*
X21768254Y46046008D01*
X21595000Y46063072D01*
X20395000Y46063072D01*
X20221746Y46046008D01*
X20055150Y45995472D01*
X19901614Y45913405D01*
X19767038Y45802962D01*
X19656595Y45668386D01*
X19574528Y45514850D01*
X19523992Y45348254D01*
X19506928Y45175000D01*
X16616197Y45175000D01*
X16370852Y45481681D01*
X16324013Y45534013D01*
X16227787Y45612983D01*
X16118004Y45671664D01*
X15998882Y45707799D01*
X15875000Y45720000D01*
X7190245Y45720000D01*
X7217932Y45786842D01*
X7275000Y46073740D01*
X7275000Y46366260D01*
X7217932Y46653158D01*
X7105990Y46923411D01*
X6943475Y47166632D01*
X6736632Y47373475D01*
X6562240Y47490000D01*
X6736632Y47606525D01*
X6943475Y47813368D01*
X7105990Y48056589D01*
X7217932Y48326842D01*
X7275000Y48613740D01*
X7275000Y48906260D01*
X7217932Y49193158D01*
X7105990Y49463411D01*
X6943475Y49706632D01*
X6736632Y49913475D01*
X6493411Y50075990D01*
X6223158Y50187932D01*
X5936260Y50245000D01*
X5643740Y50245000D01*
X5356842Y50187932D01*
X5086589Y50075990D01*
X4843368Y49913475D01*
X4711513Y49781620D01*
X4689502Y49854180D01*
X4630537Y49964494D01*
X4551185Y50061185D01*
X4454494Y50140537D01*
X4344180Y50199502D01*
X4224482Y50235812D01*
X4100000Y50248072D01*
X2400000Y50248072D01*
X2275518Y50235812D01*
X2155820Y50199502D01*
X2045506Y50140537D01*
X1948815Y50061185D01*
X1869463Y49964494D01*
X1810498Y49854180D01*
X1774188Y49734482D01*
X1761928Y49610000D01*
X1761928Y47910000D01*
X1774188Y47785518D01*
X1810498Y47665820D01*
X1869463Y47555506D01*
X1948815Y47458815D01*
X2045506Y47379463D01*
X2155820Y47320498D01*
X2228380Y47298487D01*
X2096525Y47166632D01*
X1934010Y46923411D01*
X1822068Y46653158D01*
X1765000Y46366260D01*
X1765000Y46073740D01*
X1822068Y45786842D01*
X1934010Y45516589D01*
X2096525Y45273368D01*
X2303368Y45066525D01*
X2477760Y44950000D01*
X2303368Y44833475D01*
X2096525Y44626632D01*
X1934010Y44383411D01*
X1822068Y44113158D01*
X1765000Y43826260D01*
X1765000Y43533740D01*
X1822068Y43246842D01*
X1934010Y42976589D01*
X2096525Y42733368D01*
X2303368Y42526525D01*
X2477760Y42410000D01*
X2303368Y42293475D01*
X2096525Y42086632D01*
X1934010Y41843411D01*
X1822068Y41573158D01*
X1765000Y41286260D01*
X1765000Y40993740D01*
X1822068Y40706842D01*
X1934010Y40436589D01*
X2096525Y40193368D01*
X2303368Y39986525D01*
X2477760Y39870000D01*
X2303368Y39753475D01*
X2096525Y39546632D01*
X1934010Y39303411D01*
X1822068Y39033158D01*
X1765000Y38746260D01*
X1765000Y38453740D01*
X1822068Y38166842D01*
X1934010Y37896589D01*
X2096525Y37653368D01*
X2303368Y37446525D01*
X2477760Y37330000D01*
X2303368Y37213475D01*
X2096525Y37006632D01*
X1934010Y36763411D01*
X1822068Y36493158D01*
X1765000Y36206260D01*
X1765000Y35913740D01*
X1822068Y35626842D01*
X1934010Y35356589D01*
X2096525Y35113368D01*
X2303368Y34906525D01*
X2477760Y34790000D01*
X2303368Y34673475D01*
X2096525Y34466632D01*
X1934010Y34223411D01*
X1822068Y33953158D01*
X1765000Y33666260D01*
X1765000Y33373740D01*
X1822068Y33086842D01*
X1934010Y32816589D01*
X2096525Y32573368D01*
X2303368Y32366525D01*
X2477760Y32250000D01*
X2303368Y32133475D01*
X2096525Y31926632D01*
X1934010Y31683411D01*
X1822068Y31413158D01*
X1765000Y31126260D01*
X1765000Y30833740D01*
X1822068Y30546842D01*
X1934010Y30276589D01*
X2096525Y30033368D01*
X2303368Y29826525D01*
X2477760Y29710000D01*
X2303368Y29593475D01*
X2096525Y29386632D01*
X1934010Y29143411D01*
X1822068Y28873158D01*
X1765000Y28586260D01*
X1765000Y28293740D01*
X1822068Y28006842D01*
X1934010Y27736589D01*
X2096525Y27493368D01*
X2303368Y27286525D01*
X2485534Y27164805D01*
X2368645Y27095178D01*
X2152412Y26900269D01*
X1978359Y26666920D01*
X1853175Y26404099D01*
X1808524Y26256890D01*
X1929845Y26027000D01*
X3123000Y26027000D01*
X3123000Y26047000D01*
X3377000Y26047000D01*
X3377000Y26027000D01*
X5663000Y26027000D01*
X5663000Y26047000D01*
X5917000Y26047000D01*
X5917000Y26027000D01*
X7110155Y26027000D01*
X7231476Y26256890D01*
X7186825Y26404099D01*
X7061641Y26666920D01*
X6887588Y26900269D01*
X6671355Y27095178D01*
X6554466Y27164805D01*
X6736632Y27286525D01*
X6943475Y27493368D01*
X7056892Y27663110D01*
X11133524Y27663110D01*
X11225648Y27400142D01*
X11372504Y27148807D01*
X11565571Y26930951D01*
X11797430Y26754947D01*
X12059170Y26627558D01*
X12340733Y26553680D01*
X12573000Y26693835D01*
X12573000Y27893000D01*
X12827000Y27893000D01*
X12827000Y26693835D01*
X13059267Y26553680D01*
X13340830Y26627558D01*
X13602570Y26754947D01*
X13834429Y26930951D01*
X14027496Y27148807D01*
X14174352Y27400142D01*
X14266476Y27663110D01*
X14145155Y27893000D01*
X12827000Y27893000D01*
X12573000Y27893000D01*
X11254845Y27893000D01*
X11133524Y27663110D01*
X7056892Y27663110D01*
X7105990Y27736589D01*
X7217932Y28006842D01*
X7275000Y28293740D01*
X7275000Y28586260D01*
X7217932Y28873158D01*
X7105990Y29143411D01*
X6952671Y29372869D01*
X7339802Y29760000D01*
X11297405Y29760000D01*
X11334294Y29690986D01*
X11519866Y29464866D01*
X11745986Y29279294D01*
X11771722Y29265538D01*
X11565571Y29109049D01*
X11372504Y28891193D01*
X11225648Y28639858D01*
X11133524Y28376890D01*
X11254845Y28147000D01*
X12573000Y28147000D01*
X12573000Y28167000D01*
X12827000Y28167000D01*
X12827000Y28147000D01*
X14145155Y28147000D01*
X14266476Y28376890D01*
X14174352Y28639858D01*
X14027496Y28891193D01*
X13834429Y29109049D01*
X13628278Y29265538D01*
X13654014Y29279294D01*
X13880134Y29464866D01*
X14065706Y29690986D01*
X14203599Y29948966D01*
X14288513Y30228889D01*
X14317185Y30520000D01*
X14288513Y30811111D01*
X14203599Y31091034D01*
X14065706Y31349014D01*
X13880134Y31575134D01*
X13654014Y31760706D01*
X13636626Y31770000D01*
X13654014Y31779294D01*
X13880134Y31964866D01*
X14065706Y32190986D01*
X14203599Y32448966D01*
X14288513Y32728889D01*
X14317185Y33020000D01*
X14288513Y33311111D01*
X14203599Y33591034D01*
X14065706Y33849014D01*
X13880134Y34075134D01*
X13654014Y34260706D01*
X13636626Y34270000D01*
X13654014Y34279294D01*
X13880134Y34464866D01*
X14065706Y34690986D01*
X14102595Y34760000D01*
X14330199Y34760000D01*
X14480000Y34610198D01*
X14480001Y16553848D01*
X14387419Y16525764D01*
X14146812Y16397157D01*
X13935919Y16224081D01*
X13762843Y16013188D01*
X13634236Y15772581D01*
X13555040Y15511507D01*
X13528299Y15240000D01*
X13555040Y14968493D01*
X13634236Y14707419D01*
X13762843Y14466812D01*
X13935919Y14255919D01*
X14146812Y14082843D01*
X14357927Y13970000D01*
X14146812Y13857157D01*
X13935919Y13684081D01*
X13762843Y13473188D01*
X13755794Y13460000D01*
X9144802Y13460000D01*
X7231209Y15373592D01*
X7275000Y15593740D01*
X7275000Y15886260D01*
X7217932Y16173158D01*
X7105990Y16443411D01*
X6943475Y16686632D01*
X6736632Y16893475D01*
X6562240Y17010000D01*
X6736632Y17126525D01*
X6943475Y17333368D01*
X7105990Y17576589D01*
X7217932Y17846842D01*
X7275000Y18133740D01*
X7275000Y18426260D01*
X7217932Y18713158D01*
X7105990Y18983411D01*
X6943475Y19226632D01*
X6736632Y19433475D01*
X6562240Y19550000D01*
X6736632Y19666525D01*
X6943475Y19873368D01*
X7105990Y20116589D01*
X7217932Y20386842D01*
X7275000Y20673740D01*
X7275000Y20966260D01*
X7217932Y21253158D01*
X7105990Y21523411D01*
X6943475Y21766632D01*
X6736632Y21973475D01*
X6554466Y22095195D01*
X6671355Y22164822D01*
X6887588Y22359731D01*
X7061641Y22593080D01*
X7186825Y22855901D01*
X7231476Y23003110D01*
X7110155Y23233000D01*
X5917000Y23233000D01*
X5917000Y23213000D01*
X5663000Y23213000D01*
X5663000Y23233000D01*
X5643000Y23233000D01*
X5643000Y23487000D01*
X5663000Y23487000D01*
X5663000Y25773000D01*
X5917000Y25773000D01*
X5917000Y23487000D01*
X7110155Y23487000D01*
X7231476Y23716890D01*
X7186825Y23864099D01*
X7061641Y24126920D01*
X6887588Y24360269D01*
X6671355Y24555178D01*
X6545745Y24630000D01*
X6671355Y24704822D01*
X6887588Y24899731D01*
X7061641Y25133080D01*
X7186825Y25395901D01*
X7231476Y25543110D01*
X7110155Y25773000D01*
X5917000Y25773000D01*
X5663000Y25773000D01*
X3377000Y25773000D01*
X3377000Y25753000D01*
X3123000Y25753000D01*
X3123000Y25773000D01*
X1929845Y25773000D01*
X1808524Y25543110D01*
X1853175Y25395901D01*
X1978359Y25133080D01*
X2152412Y24899731D01*
X2368645Y24704822D01*
X2485534Y24635195D01*
X2303368Y24513475D01*
X2096525Y24306632D01*
X1934010Y24063411D01*
X1822068Y23793158D01*
X1765000Y23506260D01*
X1765000Y23213740D01*
X1822068Y22926842D01*
X1934010Y22656589D01*
X2096525Y22413368D01*
X2303368Y22206525D01*
X2477760Y22090000D01*
X2303368Y21973475D01*
X2096525Y21766632D01*
X1934010Y21523411D01*
X1822068Y21253158D01*
X1765000Y20966260D01*
X1765000Y20673740D01*
X1822068Y20386842D01*
X1934010Y20116589D01*
X2096525Y19873368D01*
X2303368Y19666525D01*
X2477760Y19550000D01*
X2303368Y19433475D01*
X2096525Y19226632D01*
X1934010Y18983411D01*
X1822068Y18713158D01*
X1765000Y18426260D01*
X1765000Y18133740D01*
X1822068Y17846842D01*
X1934010Y17576589D01*
X2096525Y17333368D01*
X2303368Y17126525D01*
X2477760Y17010000D01*
X2303368Y16893475D01*
X2096525Y16686632D01*
X1934010Y16443411D01*
X1822068Y16173158D01*
X1765000Y15886260D01*
X1765000Y15593740D01*
X1822068Y15306842D01*
X1934010Y15036589D01*
X2096525Y14793368D01*
X2303368Y14586525D01*
X2477760Y14470000D01*
X2303368Y14353475D01*
X2096525Y14146632D01*
X1934010Y13903411D01*
X1822068Y13633158D01*
X1765000Y13346260D01*
X1765000Y13053740D01*
X1822068Y12766842D01*
X1934010Y12496589D01*
X2096525Y12253368D01*
X2303368Y12046525D01*
X2477760Y11930000D01*
X2303368Y11813475D01*
X2096525Y11606632D01*
X1934010Y11363411D01*
X1822068Y11093158D01*
X1765000Y10806260D01*
X1765000Y10513740D01*
X1822068Y10226842D01*
X1934010Y9956589D01*
X2096525Y9713368D01*
X2303368Y9506525D01*
X2477760Y9390000D01*
X2303368Y9273475D01*
X2096525Y9066632D01*
X1934010Y8823411D01*
X1822068Y8553158D01*
X1765000Y8266260D01*
X1765000Y7973740D01*
X1822068Y7686842D01*
X1934010Y7416589D01*
X2096525Y7173368D01*
X2303368Y6966525D01*
X2477760Y6850000D01*
X2303368Y6733475D01*
X2096525Y6526632D01*
X1934010Y6283411D01*
X1822068Y6013158D01*
X1765000Y5726260D01*
X1765000Y5433740D01*
X1822068Y5146842D01*
X1934010Y4876589D01*
X2096525Y4633368D01*
X2303368Y4426525D01*
X2477760Y4310000D01*
X2303368Y4193475D01*
X2096525Y3986632D01*
X1934010Y3743411D01*
X1822068Y3473158D01*
X1765000Y3186260D01*
X1765000Y2893740D01*
X1822068Y2606842D01*
X1934010Y2336589D01*
X2096525Y2093368D01*
X2303368Y1886525D01*
X2546589Y1724010D01*
X2816842Y1612068D01*
X3103740Y1555000D01*
X3396260Y1555000D01*
X3683158Y1612068D01*
X3953411Y1724010D01*
X4196632Y1886525D01*
X4403475Y2093368D01*
X4520000Y2267760D01*
X4636525Y2093368D01*
X4843368Y1886525D01*
X5086589Y1724010D01*
X5356842Y1612068D01*
X5643740Y1555000D01*
X5936260Y1555000D01*
X6223158Y1612068D01*
X6493411Y1724010D01*
X6736632Y1886525D01*
X6943475Y2093368D01*
X7013932Y2198815D01*
X13577682Y2198815D01*
X13596513Y2095764D01*
X13708610Y1846100D01*
X13867260Y1623103D01*
X14066366Y1435342D01*
X14298276Y1290032D01*
X14554079Y1192757D01*
X14823944Y1147256D01*
X15043000Y1308127D01*
X15043000Y2413000D01*
X15297000Y2413000D01*
X15297000Y1308127D01*
X15516056Y1147256D01*
X15785921Y1192757D01*
X16041724Y1290032D01*
X16273634Y1435342D01*
X16472740Y1623103D01*
X16631390Y1846100D01*
X16743487Y2095764D01*
X16762318Y2198815D01*
X34037682Y2198815D01*
X34056513Y2095764D01*
X34168610Y1846100D01*
X34327260Y1623103D01*
X34526366Y1435342D01*
X34758276Y1290032D01*
X35014079Y1192757D01*
X35283944Y1147256D01*
X35503000Y1308127D01*
X35503000Y2413000D01*
X35757000Y2413000D01*
X35757000Y1308127D01*
X35976056Y1147256D01*
X36245921Y1192757D01*
X36501724Y1290032D01*
X36733634Y1435342D01*
X36932740Y1623103D01*
X37091390Y1846100D01*
X37203487Y2095764D01*
X37222318Y2198815D01*
X37099656Y2413000D01*
X35757000Y2413000D01*
X35503000Y2413000D01*
X34160344Y2413000D01*
X34037682Y2198815D01*
X16762318Y2198815D01*
X16639656Y2413000D01*
X15297000Y2413000D01*
X15043000Y2413000D01*
X13700344Y2413000D01*
X13577682Y2198815D01*
X7013932Y2198815D01*
X7105990Y2336589D01*
X7217932Y2606842D01*
X7275000Y2893740D01*
X7275000Y3186260D01*
X7217932Y3473158D01*
X7105990Y3743411D01*
X6943475Y3986632D01*
X6736632Y4193475D01*
X6562240Y4310000D01*
X6736632Y4426525D01*
X6943475Y4633368D01*
X7105990Y4876589D01*
X7217932Y5146842D01*
X7275000Y5433740D01*
X7275000Y5726260D01*
X7217932Y6013158D01*
X7105990Y6283411D01*
X6943475Y6526632D01*
X6736632Y6733475D01*
X6562240Y6850000D01*
X6736632Y6966525D01*
X6943475Y7173368D01*
X7105990Y7416589D01*
X7217932Y7686842D01*
X7275000Y7973740D01*
X7275000Y8266260D01*
X7217932Y8553158D01*
X7105990Y8823411D01*
X6943475Y9066632D01*
X6736632Y9273475D01*
X6562240Y9390000D01*
X6736632Y9506525D01*
X6943475Y9713368D01*
X7105990Y9956589D01*
X7217932Y10226842D01*
X7275000Y10513740D01*
X7275000Y10806260D01*
X7217932Y11093158D01*
X7105990Y11363411D01*
X6943475Y11606632D01*
X6736632Y11813475D01*
X6562240Y11930000D01*
X6736632Y12046525D01*
X6943475Y12253368D01*
X7105990Y12496589D01*
X7217932Y12766842D01*
X7275000Y13053740D01*
X7275000Y13180198D01*
X8266201Y12188997D01*
X8289999Y12159999D01*
X8405724Y12065026D01*
X8537753Y11994454D01*
X8681014Y11950997D01*
X8792667Y11940000D01*
X8792676Y11940000D01*
X8829999Y11936324D01*
X8867322Y11940000D01*
X13755794Y11940000D01*
X13762843Y11926812D01*
X13935919Y11715919D01*
X14146812Y11542843D01*
X14357927Y11430000D01*
X14146812Y11317157D01*
X13935919Y11144081D01*
X13762843Y10933188D01*
X13634236Y10692581D01*
X13555040Y10431507D01*
X13528299Y10160000D01*
X13555040Y9888493D01*
X13634236Y9627419D01*
X13688980Y9525000D01*
X13335000Y9525000D01*
X13211118Y9512799D01*
X13091996Y9476664D01*
X12982213Y9417983D01*
X12885987Y9339013D01*
X12807017Y9242787D01*
X12748336Y9133004D01*
X12712201Y9013882D01*
X12700000Y8890000D01*
X12700000Y3810000D01*
X12712201Y3686118D01*
X12748336Y3566996D01*
X12807017Y3457213D01*
X12885987Y3360987D01*
X12982213Y3282017D01*
X13091996Y3223336D01*
X13211118Y3187201D01*
X13335000Y3175000D01*
X13682164Y3175000D01*
X13596513Y2984236D01*
X13577682Y2881185D01*
X13700344Y2667000D01*
X15043000Y2667000D01*
X15043000Y2687000D01*
X15297000Y2687000D01*
X15297000Y2667000D01*
X16639656Y2667000D01*
X16762318Y2881185D01*
X16743487Y2984236D01*
X16657836Y3175000D01*
X20955000Y3175000D01*
X21078882Y3187201D01*
X21198004Y3223336D01*
X21307787Y3282017D01*
X21404013Y3360987D01*
X21482983Y3457213D01*
X21541664Y3566996D01*
X21577799Y3686118D01*
X21590000Y3810000D01*
X21590000Y4738815D01*
X34037682Y4738815D01*
X34056513Y4635764D01*
X34168610Y4386100D01*
X34327260Y4163103D01*
X34526366Y3975342D01*
X34758276Y3830032D01*
X34810954Y3810000D01*
X34758276Y3789968D01*
X34526366Y3644658D01*
X34327260Y3456897D01*
X34168610Y3233900D01*
X34056513Y2984236D01*
X34037682Y2881185D01*
X34160344Y2667000D01*
X35503000Y2667000D01*
X35503000Y3771873D01*
X35451083Y3810000D01*
X35503000Y3848127D01*
X35503000Y4953000D01*
X35757000Y4953000D01*
X35757000Y3848127D01*
X35808917Y3810000D01*
X35757000Y3771873D01*
X35757000Y2667000D01*
X37099656Y2667000D01*
X37222318Y2881185D01*
X37203487Y2984236D01*
X37091390Y3233900D01*
X36932740Y3456897D01*
X36850192Y3534742D01*
X55083715Y3534742D01*
X55227768Y3302000D01*
X56428000Y3302000D01*
X56428000Y4645155D01*
X56198110Y4766476D01*
X56185739Y4764554D01*
X55911991Y4664854D01*
X55662954Y4513664D01*
X55448198Y4316795D01*
X55275975Y4081812D01*
X55152904Y3817745D01*
X55083715Y3534742D01*
X36850192Y3534742D01*
X36733634Y3644658D01*
X36501724Y3789968D01*
X36449046Y3810000D01*
X36501724Y3830032D01*
X36733634Y3975342D01*
X36932740Y4163103D01*
X37091390Y4386100D01*
X37203487Y4635764D01*
X37222318Y4738815D01*
X37099656Y4953000D01*
X35757000Y4953000D01*
X35503000Y4953000D01*
X34160344Y4953000D01*
X34037682Y4738815D01*
X21590000Y4738815D01*
X21590000Y14062089D01*
X23195000Y14062089D01*
X23195000Y13877911D01*
X23230932Y13697271D01*
X23301414Y13527111D01*
X23403738Y13373972D01*
X23533972Y13243738D01*
X23687111Y13141414D01*
X23857271Y13070932D01*
X24037911Y13035000D01*
X24222089Y13035000D01*
X24402729Y13070932D01*
X24572889Y13141414D01*
X24726028Y13243738D01*
X24856262Y13373972D01*
X24958586Y13527111D01*
X25029068Y13697271D01*
X25053153Y13818351D01*
X25714802Y14480000D01*
X34215794Y14480000D01*
X34222843Y14466812D01*
X34395919Y14255919D01*
X34606812Y14082843D01*
X34817927Y13970000D01*
X34606812Y13857157D01*
X34395919Y13684081D01*
X34222843Y13473188D01*
X34094236Y13232581D01*
X34015040Y12971507D01*
X33988299Y12700000D01*
X34015040Y12428493D01*
X34094236Y12167419D01*
X34222843Y11926812D01*
X34395919Y11715919D01*
X34606812Y11542843D01*
X34817927Y11430000D01*
X34606812Y11317157D01*
X34395919Y11144081D01*
X34222843Y10933188D01*
X34094236Y10692581D01*
X34015040Y10431507D01*
X33988299Y10160000D01*
X34015040Y9888493D01*
X34094236Y9627419D01*
X34222843Y9386812D01*
X34395919Y9175919D01*
X34606812Y9002843D01*
X34817927Y8890000D01*
X34606812Y8777157D01*
X34395919Y8604081D01*
X34222843Y8393188D01*
X34094236Y8152581D01*
X34015040Y7891507D01*
X33988299Y7620000D01*
X34015040Y7348493D01*
X34094236Y7087419D01*
X34222843Y6846812D01*
X34395919Y6635919D01*
X34606812Y6462843D01*
X34815028Y6351549D01*
X34758276Y6329968D01*
X34526366Y6184658D01*
X34327260Y5996897D01*
X34168610Y5773900D01*
X34056513Y5524236D01*
X34037682Y5421185D01*
X34160344Y5207000D01*
X35503000Y5207000D01*
X35503000Y5227000D01*
X35757000Y5227000D01*
X35757000Y5207000D01*
X37099656Y5207000D01*
X37222318Y5421185D01*
X37203487Y5524236D01*
X37091390Y5773900D01*
X36932740Y5996897D01*
X36733634Y6184658D01*
X36501724Y6329968D01*
X36444972Y6351549D01*
X36653188Y6462843D01*
X36864081Y6635919D01*
X37037157Y6846812D01*
X37165764Y7087419D01*
X37244960Y7348493D01*
X37271701Y7620000D01*
X37244960Y7891507D01*
X37165764Y8152581D01*
X37037157Y8393188D01*
X36864081Y8604081D01*
X36653188Y8777157D01*
X36442073Y8890000D01*
X36653188Y9002843D01*
X36864081Y9175919D01*
X37037157Y9386812D01*
X37165764Y9627419D01*
X37244960Y9888493D01*
X37271701Y10160000D01*
X37244960Y10431507D01*
X37165764Y10692581D01*
X37037157Y10933188D01*
X36864081Y11144081D01*
X36653188Y11317157D01*
X36442073Y11430000D01*
X36653188Y11542843D01*
X36864081Y11715919D01*
X37037157Y11926812D01*
X37165764Y12167419D01*
X37244960Y12428493D01*
X37271701Y12700000D01*
X37244960Y12971507D01*
X37165764Y13232581D01*
X37037157Y13473188D01*
X36864081Y13684081D01*
X36653188Y13857157D01*
X36442073Y13970000D01*
X36653188Y14082843D01*
X36864081Y14255919D01*
X37037157Y14466812D01*
X37165764Y14707419D01*
X37244960Y14968493D01*
X37271701Y15240000D01*
X37244960Y15511507D01*
X37165764Y15772581D01*
X37037157Y16013188D01*
X36864081Y16224081D01*
X36653188Y16397157D01*
X36412581Y16525764D01*
X36151507Y16604960D01*
X35948037Y16625000D01*
X35311963Y16625000D01*
X35108493Y16604960D01*
X34847419Y16525764D01*
X34606812Y16397157D01*
X34395919Y16224081D01*
X34222843Y16013188D01*
X34215794Y16000000D01*
X25437322Y16000000D01*
X25399999Y16003676D01*
X25362676Y16000000D01*
X25362667Y16000000D01*
X25251014Y15989003D01*
X25107753Y15945546D01*
X24975724Y15874974D01*
X24859999Y15780001D01*
X24836201Y15751003D01*
X23978351Y14893153D01*
X23857271Y14869068D01*
X23687111Y14798586D01*
X23533972Y14696262D01*
X23403738Y14566028D01*
X23301414Y14412889D01*
X23230932Y14242729D01*
X23195000Y14062089D01*
X21590000Y14062089D01*
X21590000Y20955000D01*
X42545000Y20955000D01*
X42545000Y12065000D01*
X42557201Y11941118D01*
X42593336Y11821996D01*
X42652017Y11712213D01*
X42730987Y11615987D01*
X42827213Y11537017D01*
X42936996Y11478336D01*
X43056118Y11442201D01*
X43180000Y11430000D01*
X48260000Y11430000D01*
X48383882Y11442201D01*
X48503004Y11478336D01*
X48612787Y11537017D01*
X48709013Y11615987D01*
X48787983Y11712213D01*
X48846664Y11821996D01*
X48882799Y11941118D01*
X48895000Y12065000D01*
X48895000Y21209000D01*
X52070000Y21209000D01*
X52193882Y21221201D01*
X52313004Y21257336D01*
X52422787Y21316017D01*
X52519013Y21394987D01*
X52597983Y21491213D01*
X52656664Y21600996D01*
X52692799Y21720118D01*
X52705000Y21844000D01*
X52705000Y29083000D01*
X52692799Y29206882D01*
X52656664Y29326004D01*
X52597983Y29435787D01*
X52519013Y29532013D01*
X52422787Y29610983D01*
X52313004Y29669664D01*
X52193882Y29705799D01*
X52070000Y29718000D01*
X17145000Y29718000D01*
X17021118Y29705799D01*
X16901996Y29669664D01*
X16792213Y29610983D01*
X16695987Y29532013D01*
X16617017Y29435787D01*
X16558336Y29326004D01*
X16522201Y29206882D01*
X16510000Y29083000D01*
X16510000Y16095019D01*
X16404081Y16224081D01*
X16193188Y16397157D01*
X16000000Y16500418D01*
X16000000Y34887678D01*
X16003676Y34925001D01*
X16000000Y34962324D01*
X16000000Y34962333D01*
X15989003Y35073986D01*
X15945546Y35217247D01*
X15874975Y35349275D01*
X15874974Y35349277D01*
X15803799Y35436003D01*
X15780001Y35465001D01*
X15751004Y35488798D01*
X15208803Y36030998D01*
X15185001Y36060001D01*
X15069276Y36154974D01*
X14937247Y36225546D01*
X14793986Y36269003D01*
X14682333Y36280000D01*
X14682322Y36280000D01*
X14645000Y36283676D01*
X14607678Y36280000D01*
X14102595Y36280000D01*
X14065706Y36349014D01*
X13880134Y36575134D01*
X13816663Y36627223D01*
X13918386Y36681595D01*
X14052962Y36792038D01*
X14163405Y36926614D01*
X14245472Y37080150D01*
X14296008Y37246746D01*
X14313072Y37420000D01*
X14313072Y38620000D01*
X14296008Y38793254D01*
X14245472Y38959850D01*
X14163405Y39113386D01*
X14052962Y39247962D01*
X13918386Y39358405D01*
X13764850Y39440472D01*
X13598254Y39491008D01*
X13425000Y39508072D01*
X11975000Y39508072D01*
X11801746Y39491008D01*
X11635150Y39440472D01*
X11481614Y39358405D01*
X11347038Y39247962D01*
X11236595Y39113386D01*
X11154528Y38959850D01*
X11103992Y38793254D01*
X11086928Y38620000D01*
X11086928Y37420000D01*
X11103992Y37246746D01*
X11154528Y37080150D01*
X11236595Y36926614D01*
X11347038Y36792038D01*
X11481614Y36681595D01*
X11583337Y36627223D01*
X11519866Y36575134D01*
X11334294Y36349014D01*
X11196401Y36091034D01*
X11111487Y35811111D01*
X11082815Y35520000D01*
X11111487Y35228889D01*
X11196401Y34948966D01*
X11334294Y34690986D01*
X11519866Y34464866D01*
X11745986Y34279294D01*
X11763374Y34270000D01*
X11745986Y34260706D01*
X11519866Y34075134D01*
X11334294Y33849014D01*
X11196401Y33591034D01*
X11111487Y33311111D01*
X11082815Y33020000D01*
X11111487Y32728889D01*
X11196401Y32448966D01*
X11334294Y32190986D01*
X11519866Y31964866D01*
X11745986Y31779294D01*
X11763374Y31770000D01*
X11745986Y31760706D01*
X11519866Y31575134D01*
X11334294Y31349014D01*
X11297405Y31280000D01*
X7244419Y31280000D01*
X7217932Y31413158D01*
X7105990Y31683411D01*
X6943475Y31926632D01*
X6736632Y32133475D01*
X6562240Y32250000D01*
X6736632Y32366525D01*
X6943475Y32573368D01*
X7105990Y32816589D01*
X7217932Y33086842D01*
X7275000Y33373740D01*
X7275000Y33666260D01*
X7217932Y33953158D01*
X7105990Y34223411D01*
X6943475Y34466632D01*
X6736632Y34673475D01*
X6562240Y34790000D01*
X6736632Y34906525D01*
X6943475Y35113368D01*
X7105990Y35356589D01*
X7217932Y35626842D01*
X7275000Y35913740D01*
X7275000Y36206260D01*
X7217932Y36493158D01*
X7105990Y36763411D01*
X6943475Y37006632D01*
X6736632Y37213475D01*
X6562240Y37330000D01*
X6736632Y37446525D01*
X6943475Y37653368D01*
X7105990Y37896589D01*
X7217932Y38166842D01*
X7275000Y38453740D01*
X7275000Y38746260D01*
X7217932Y39033158D01*
X7105990Y39303411D01*
X6943475Y39546632D01*
X6736632Y39753475D01*
X6554466Y39875195D01*
X6671355Y39944822D01*
X6887588Y40139731D01*
X7061641Y40373080D01*
X7186825Y40635901D01*
X7231476Y40783110D01*
X7110155Y41013000D01*
X5917000Y41013000D01*
X5917000Y40993000D01*
X5663000Y40993000D01*
X5663000Y41013000D01*
X5643000Y41013000D01*
X5643000Y41267000D01*
X5663000Y41267000D01*
X5663000Y41287000D01*
X5917000Y41287000D01*
X5917000Y41267000D01*
X7110155Y41267000D01*
X7231476Y41496890D01*
X7186825Y41644099D01*
X7061641Y41906920D01*
X7059344Y41910000D01*
X14906563Y41910000D01*
X16622260Y39422240D01*
X16698130Y39331604D01*
X16794731Y39253093D01*
X16904792Y39194936D01*
X17024085Y39159368D01*
X17148024Y39147757D01*
X57150000Y39338243D01*
X57150000Y4682339D01*
X56924261Y4764554D01*
X56911890Y4766476D01*
X56682000Y4645155D01*
X56682000Y3302000D01*
X56702000Y3302000D01*
X56702000Y3048000D01*
X56682000Y3048000D01*
X56682000Y1704845D01*
X56911890Y1583524D01*
X56924261Y1585446D01*
X57150000Y1667661D01*
X57150000Y1270000D01*
X57162201Y1146118D01*
X57198336Y1026996D01*
X57257017Y917213D01*
X57335987Y820987D01*
X57432213Y742017D01*
X57492112Y710000D01*
X48034874Y710000D01*
X47999999Y713435D01*
X47965124Y710000D01*
X47965123Y710000D01*
X47860816Y699727D01*
X47726980Y659128D01*
X47603637Y593200D01*
X47495525Y504475D01*
X47473292Y477384D01*
X45705909Y-1290000D01*
X45401473Y-1290000D01*
X45694305Y-997168D01*
X45951334Y-612496D01*
X46128379Y-185072D01*
X46218636Y268680D01*
X46218636Y731320D01*
X46128379Y1185072D01*
X45951334Y1612496D01*
X45694305Y1997168D01*
X45367168Y2324305D01*
X44982496Y2581334D01*
X44555072Y2758379D01*
X44269123Y2815258D01*
X55083715Y2815258D01*
X55152904Y2532255D01*
X55275975Y2268188D01*
X55448198Y2033205D01*
X55662954Y1836336D01*
X55911991Y1685146D01*
X56185739Y1585446D01*
X56198110Y1583524D01*
X56428000Y1704845D01*
X56428000Y3048000D01*
X55227768Y3048000D01*
X55083715Y2815258D01*
X44269123Y2815258D01*
X44101320Y2848636D01*
X43638680Y2848636D01*
X43184928Y2758379D01*
X42757504Y2581334D01*
X42372832Y2324305D01*
X42045695Y1997168D01*
X41788666Y1612496D01*
X41611621Y1185072D01*
X41521364Y731320D01*
X41521364Y268680D01*
X41611621Y-185072D01*
X41788666Y-612496D01*
X42045695Y-997168D01*
X42338527Y-1290000D01*
X13294092Y-1290000D01*
X11526712Y477379D01*
X11504475Y504475D01*
X11396363Y593200D01*
X11273020Y659128D01*
X11139184Y699727D01*
X11034877Y710000D01*
X11034875Y710000D01*
X11000000Y713435D01*
X10965125Y710000D01*
X2034721Y710000D01*
X1750101Y737907D01*
X1509718Y810483D01*
X1288011Y928367D01*
X1093420Y1087071D01*
X933365Y1280545D01*
X813936Y1501424D01*
X739683Y1741299D01*
X710000Y2023709D01*
X710000Y51730322D01*
X721739Y52810340D01*
X8531316Y52810340D01*
X8531316Y52349660D01*
X8621190Y51897831D01*
X8797485Y51472218D01*
X9053425Y51089176D01*
X9379176Y50763425D01*
X9762218Y50507485D01*
X10187831Y50331190D01*
X10639660Y50241316D01*
X11100340Y50241316D01*
X11552169Y50331190D01*
X11977782Y50507485D01*
X12360824Y50763425D01*
X12686575Y51089176D01*
X12942515Y51472218D01*
X13118810Y51897831D01*
X13208684Y52349660D01*
X13208684Y52810340D01*
X13118810Y53262169D01*
X12942515Y53687782D01*
X12686575Y54070824D01*
X12360824Y54396575D01*
X11977782Y54652515D01*
X11552169Y54828810D01*
X11100340Y54918684D01*
X10639660Y54918684D01*
X10187831Y54828810D01*
X9762218Y54652515D01*
X9379176Y54396575D01*
X9053425Y54070824D01*
X8797485Y53687782D01*
X8621190Y53262169D01*
X8531316Y52810340D01*
X721739Y52810340D01*
X758068Y56152541D01*
X761288Y56158597D01*
X796641Y56201945D01*
X839740Y56237600D01*
X888937Y56264201D01*
X942375Y56280742D01*
X1030455Y56290000D01*
X18965278Y56290000D01*
X19055665Y56281137D01*
G37*
G04 #@! TD.AperFunction*
G04 #@! TD*
D18*
G04 #@! TO.N,+3V3*
X51943000Y21971000D02*
X48260000Y21971000D01*
X48235224Y21968560D01*
X48211399Y21961333D01*
X48189443Y21949597D01*
X48170197Y21933803D01*
X48154403Y21914557D01*
X48142667Y21892601D01*
X48135440Y21868776D01*
X48133000Y21844000D01*
X48133000Y12192000D01*
X43307000Y12192000D01*
X43307000Y21590000D01*
X43304560Y21614776D01*
X43297333Y21638601D01*
X43285597Y21660557D01*
X43269803Y21679803D01*
X43250557Y21695597D01*
X43228601Y21707333D01*
X43204776Y21714560D01*
X43180000Y21717000D01*
X20955000Y21717000D01*
X20930224Y21714560D01*
X20906399Y21707333D01*
X20884443Y21695597D01*
X20865197Y21679803D01*
X20849403Y21660557D01*
X20837667Y21638601D01*
X20830440Y21614776D01*
X20828000Y21590000D01*
X20828000Y3937000D01*
X16212441Y3937000D01*
X16273634Y3975342D01*
X16472740Y4163103D01*
X16631390Y4386100D01*
X16743487Y4635764D01*
X16762318Y4738815D01*
X16639656Y4953000D01*
X15297000Y4953000D01*
X15297000Y4933000D01*
X15043000Y4933000D01*
X15043000Y4953000D01*
X13700344Y4953000D01*
X13577682Y4738815D01*
X13596513Y4635764D01*
X13708610Y4386100D01*
X13867260Y4163103D01*
X14066366Y3975342D01*
X14127559Y3937000D01*
X13462000Y3937000D01*
X13462000Y7278815D01*
X13577682Y7278815D01*
X13596513Y7175764D01*
X13708610Y6926100D01*
X13867260Y6703103D01*
X14066366Y6515342D01*
X14298276Y6370032D01*
X14350954Y6350000D01*
X14298276Y6329968D01*
X14066366Y6184658D01*
X13867260Y5996897D01*
X13708610Y5773900D01*
X13596513Y5524236D01*
X13577682Y5421185D01*
X13700344Y5207000D01*
X15043000Y5207000D01*
X15043000Y6311873D01*
X14991083Y6350000D01*
X15043000Y6388127D01*
X15043000Y7493000D01*
X15297000Y7493000D01*
X15297000Y6388127D01*
X15348917Y6350000D01*
X15297000Y6311873D01*
X15297000Y5207000D01*
X16639656Y5207000D01*
X16762318Y5421185D01*
X16743487Y5524236D01*
X16631390Y5773900D01*
X16472740Y5996897D01*
X16273634Y6184658D01*
X16041724Y6329968D01*
X15989046Y6350000D01*
X16041724Y6370032D01*
X16273634Y6515342D01*
X16472740Y6703103D01*
X16631390Y6926100D01*
X16743487Y7175764D01*
X16762318Y7278815D01*
X16639656Y7493000D01*
X15297000Y7493000D01*
X15043000Y7493000D01*
X13700344Y7493000D01*
X13577682Y7278815D01*
X13462000Y7278815D01*
X13462000Y8763000D01*
X14127559Y8763000D01*
X14066366Y8724658D01*
X13867260Y8536897D01*
X13708610Y8313900D01*
X13596513Y8064236D01*
X13577682Y7961185D01*
X13700344Y7747000D01*
X15043000Y7747000D01*
X15043000Y7767000D01*
X15297000Y7767000D01*
X15297000Y7747000D01*
X16639656Y7747000D01*
X16762318Y7961185D01*
X16743487Y8064236D01*
X16631390Y8313900D01*
X16472740Y8536897D01*
X16273634Y8724658D01*
X16212441Y8763000D01*
X17145000Y8763000D01*
X17169776Y8765440D01*
X17193601Y8772667D01*
X17215557Y8784403D01*
X17234803Y8800197D01*
X17250597Y8819443D01*
X17262333Y8841399D01*
X17269560Y8865224D01*
X17272000Y8890000D01*
X17272000Y28956000D01*
X51943000Y28956000D01*
X51943000Y21971000D01*
G04 #@! TA.AperFunction,Conductor*
D19*
G36*
X51943000Y21971000D02*
G01*
X48260000Y21971000D01*
X48235224Y21968560D01*
X48211399Y21961333D01*
X48189443Y21949597D01*
X48170197Y21933803D01*
X48154403Y21914557D01*
X48142667Y21892601D01*
X48135440Y21868776D01*
X48133000Y21844000D01*
X48133000Y12192000D01*
X43307000Y12192000D01*
X43307000Y21590000D01*
X43304560Y21614776D01*
X43297333Y21638601D01*
X43285597Y21660557D01*
X43269803Y21679803D01*
X43250557Y21695597D01*
X43228601Y21707333D01*
X43204776Y21714560D01*
X43180000Y21717000D01*
X20955000Y21717000D01*
X20930224Y21714560D01*
X20906399Y21707333D01*
X20884443Y21695597D01*
X20865197Y21679803D01*
X20849403Y21660557D01*
X20837667Y21638601D01*
X20830440Y21614776D01*
X20828000Y21590000D01*
X20828000Y3937000D01*
X16212441Y3937000D01*
X16273634Y3975342D01*
X16472740Y4163103D01*
X16631390Y4386100D01*
X16743487Y4635764D01*
X16762318Y4738815D01*
X16639656Y4953000D01*
X15297000Y4953000D01*
X15297000Y4933000D01*
X15043000Y4933000D01*
X15043000Y4953000D01*
X13700344Y4953000D01*
X13577682Y4738815D01*
X13596513Y4635764D01*
X13708610Y4386100D01*
X13867260Y4163103D01*
X14066366Y3975342D01*
X14127559Y3937000D01*
X13462000Y3937000D01*
X13462000Y7278815D01*
X13577682Y7278815D01*
X13596513Y7175764D01*
X13708610Y6926100D01*
X13867260Y6703103D01*
X14066366Y6515342D01*
X14298276Y6370032D01*
X14350954Y6350000D01*
X14298276Y6329968D01*
X14066366Y6184658D01*
X13867260Y5996897D01*
X13708610Y5773900D01*
X13596513Y5524236D01*
X13577682Y5421185D01*
X13700344Y5207000D01*
X15043000Y5207000D01*
X15043000Y6311873D01*
X14991083Y6350000D01*
X15043000Y6388127D01*
X15043000Y7493000D01*
X15297000Y7493000D01*
X15297000Y6388127D01*
X15348917Y6350000D01*
X15297000Y6311873D01*
X15297000Y5207000D01*
X16639656Y5207000D01*
X16762318Y5421185D01*
X16743487Y5524236D01*
X16631390Y5773900D01*
X16472740Y5996897D01*
X16273634Y6184658D01*
X16041724Y6329968D01*
X15989046Y6350000D01*
X16041724Y6370032D01*
X16273634Y6515342D01*
X16472740Y6703103D01*
X16631390Y6926100D01*
X16743487Y7175764D01*
X16762318Y7278815D01*
X16639656Y7493000D01*
X15297000Y7493000D01*
X15043000Y7493000D01*
X13700344Y7493000D01*
X13577682Y7278815D01*
X13462000Y7278815D01*
X13462000Y8763000D01*
X14127559Y8763000D01*
X14066366Y8724658D01*
X13867260Y8536897D01*
X13708610Y8313900D01*
X13596513Y8064236D01*
X13577682Y7961185D01*
X13700344Y7747000D01*
X15043000Y7747000D01*
X15043000Y7767000D01*
X15297000Y7767000D01*
X15297000Y7747000D01*
X16639656Y7747000D01*
X16762318Y7961185D01*
X16743487Y8064236D01*
X16631390Y8313900D01*
X16472740Y8536897D01*
X16273634Y8724658D01*
X16212441Y8763000D01*
X17145000Y8763000D01*
X17169776Y8765440D01*
X17193601Y8772667D01*
X17215557Y8784403D01*
X17234803Y8800197D01*
X17250597Y8819443D01*
X17262333Y8841399D01*
X17269560Y8865224D01*
X17272000Y8890000D01*
X17272000Y28956000D01*
X51943000Y28956000D01*
X51943000Y21971000D01*
G37*
G04 #@! TD.AperFunction*
G04 #@! TD*
D18*
G04 #@! TO.N,E5V*
X18315830Y41830664D02*
X18333213Y41812841D01*
X18353739Y41798752D01*
X18376620Y41788938D01*
X18400975Y41783777D01*
X18415625Y41783002D01*
X55027810Y41963062D01*
X55030000Y41560750D01*
X55188750Y41402000D01*
X56388000Y41402000D01*
X56388000Y41422000D01*
X56642000Y41422000D01*
X56642000Y41402000D01*
X56662000Y41402000D01*
X56662000Y41148000D01*
X56642000Y41148000D01*
X56642000Y41128000D01*
X56388000Y41128000D01*
X56388000Y41148000D01*
X55188750Y41148000D01*
X55030000Y40989250D01*
X55026928Y40425000D01*
X55039188Y40300518D01*
X55075498Y40180820D01*
X55123721Y40090603D01*
X17211468Y39910068D01*
X15344548Y42617102D01*
X15328473Y42636113D01*
X15308998Y42651622D01*
X15286871Y42663034D01*
X15262943Y42669910D01*
X15240000Y42672000D01*
X6879011Y42672000D01*
X6887588Y42679731D01*
X7061641Y42913080D01*
X7186825Y43175901D01*
X7231476Y43323110D01*
X7110155Y43553000D01*
X5917000Y43553000D01*
X5917000Y43533000D01*
X5663000Y43533000D01*
X5663000Y43553000D01*
X5643000Y43553000D01*
X5643000Y43807000D01*
X5663000Y43807000D01*
X5663000Y43827000D01*
X5917000Y43827000D01*
X5917000Y43807000D01*
X7110155Y43807000D01*
X7231476Y44036890D01*
X7186825Y44184099D01*
X7061641Y44446920D01*
X6887588Y44680269D01*
X6671355Y44875178D01*
X6554466Y44944805D01*
X6574214Y44958000D01*
X15813961Y44958000D01*
X18315830Y41830664D01*
G04 #@! TA.AperFunction,Conductor*
D19*
G36*
X18315830Y41830664D02*
G01*
X18333213Y41812841D01*
X18353739Y41798752D01*
X18376620Y41788938D01*
X18400975Y41783777D01*
X18415625Y41783002D01*
X55027810Y41963062D01*
X55030000Y41560750D01*
X55188750Y41402000D01*
X56388000Y41402000D01*
X56388000Y41422000D01*
X56642000Y41422000D01*
X56642000Y41402000D01*
X56662000Y41402000D01*
X56662000Y41148000D01*
X56642000Y41148000D01*
X56642000Y41128000D01*
X56388000Y41128000D01*
X56388000Y41148000D01*
X55188750Y41148000D01*
X55030000Y40989250D01*
X55026928Y40425000D01*
X55039188Y40300518D01*
X55075498Y40180820D01*
X55123721Y40090603D01*
X17211468Y39910068D01*
X15344548Y42617102D01*
X15328473Y42636113D01*
X15308998Y42651622D01*
X15286871Y42663034D01*
X15262943Y42669910D01*
X15240000Y42672000D01*
X6879011Y42672000D01*
X6887588Y42679731D01*
X7061641Y42913080D01*
X7186825Y43175901D01*
X7231476Y43323110D01*
X7110155Y43553000D01*
X5917000Y43553000D01*
X5917000Y43533000D01*
X5663000Y43533000D01*
X5663000Y43553000D01*
X5643000Y43553000D01*
X5643000Y43807000D01*
X5663000Y43807000D01*
X5663000Y43827000D01*
X5917000Y43827000D01*
X5917000Y43807000D01*
X7110155Y43807000D01*
X7231476Y44036890D01*
X7186825Y44184099D01*
X7061641Y44446920D01*
X6887588Y44680269D01*
X6671355Y44875178D01*
X6554466Y44944805D01*
X6574214Y44958000D01*
X15813961Y44958000D01*
X18315830Y41830664D01*
G37*
G04 #@! TD.AperFunction*
G04 #@! TD*
D18*
G04 #@! TO.N,V_IN*
X60833000Y6398789D02*
X60776637Y6410000D01*
X60533363Y6410000D01*
X60294764Y6362540D01*
X60070008Y6269443D01*
X59867733Y6134287D01*
X59695713Y5962267D01*
X59560557Y5759992D01*
X59467460Y5535236D01*
X59420000Y5296637D01*
X59420000Y5053363D01*
X59467460Y4814764D01*
X59469144Y4810699D01*
X59340750Y4810000D01*
X59182000Y4651250D01*
X59182000Y3302000D01*
X60381250Y3302000D01*
X60540000Y3460750D01*
X60542061Y3940000D01*
X60776637Y3940000D01*
X60833000Y3951211D01*
X60833000Y1397000D01*
X57912000Y1397000D01*
X57912000Y1611593D01*
X57960820Y1585498D01*
X58080518Y1549188D01*
X58205000Y1536928D01*
X58769250Y1540000D01*
X58928000Y1698750D01*
X58928000Y3048000D01*
X59182000Y3048000D01*
X59182000Y1698750D01*
X59340750Y1540000D01*
X59905000Y1536928D01*
X60029482Y1549188D01*
X60149180Y1585498D01*
X60259494Y1644463D01*
X60356185Y1723815D01*
X60435537Y1820506D01*
X60494502Y1930820D01*
X60530812Y2050518D01*
X60543072Y2175000D01*
X60540000Y2889250D01*
X60381250Y3048000D01*
X59182000Y3048000D01*
X58928000Y3048000D01*
X58908000Y3048000D01*
X58908000Y3302000D01*
X58928000Y3302000D01*
X58928000Y4651250D01*
X58769250Y4810000D01*
X58205000Y4813072D01*
X58080518Y4800812D01*
X57960820Y4764502D01*
X57912000Y4738407D01*
X57912000Y40101306D01*
X57954502Y40180820D01*
X57978966Y40261466D01*
X58054731Y40177412D01*
X58288080Y40003359D01*
X58550901Y39878175D01*
X58698110Y39833524D01*
X58928000Y39954845D01*
X58928000Y41148000D01*
X59182000Y41148000D01*
X59182000Y39954845D01*
X59411890Y39833524D01*
X59559099Y39878175D01*
X59821920Y40003359D01*
X60055269Y40177412D01*
X60250178Y40393645D01*
X60399157Y40643748D01*
X60496481Y40918109D01*
X60375814Y41148000D01*
X59182000Y41148000D01*
X58928000Y41148000D01*
X58908000Y41148000D01*
X58908000Y41402000D01*
X58928000Y41402000D01*
X58928000Y41422000D01*
X59182000Y41422000D01*
X59182000Y41402000D01*
X60375814Y41402000D01*
X60496481Y41631891D01*
X60399157Y41906252D01*
X60250178Y42156355D01*
X60055269Y42372588D01*
X59994386Y42418000D01*
X60833000Y42418000D01*
X60833000Y6398789D01*
G04 #@! TA.AperFunction,Conductor*
D19*
G36*
X60833000Y6398789D02*
G01*
X60776637Y6410000D01*
X60533363Y6410000D01*
X60294764Y6362540D01*
X60070008Y6269443D01*
X59867733Y6134287D01*
X59695713Y5962267D01*
X59560557Y5759992D01*
X59467460Y5535236D01*
X59420000Y5296637D01*
X59420000Y5053363D01*
X59467460Y4814764D01*
X59469144Y4810699D01*
X59340750Y4810000D01*
X59182000Y4651250D01*
X59182000Y3302000D01*
X60381250Y3302000D01*
X60540000Y3460750D01*
X60542061Y3940000D01*
X60776637Y3940000D01*
X60833000Y3951211D01*
X60833000Y1397000D01*
X57912000Y1397000D01*
X57912000Y1611593D01*
X57960820Y1585498D01*
X58080518Y1549188D01*
X58205000Y1536928D01*
X58769250Y1540000D01*
X58928000Y1698750D01*
X58928000Y3048000D01*
X59182000Y3048000D01*
X59182000Y1698750D01*
X59340750Y1540000D01*
X59905000Y1536928D01*
X60029482Y1549188D01*
X60149180Y1585498D01*
X60259494Y1644463D01*
X60356185Y1723815D01*
X60435537Y1820506D01*
X60494502Y1930820D01*
X60530812Y2050518D01*
X60543072Y2175000D01*
X60540000Y2889250D01*
X60381250Y3048000D01*
X59182000Y3048000D01*
X58928000Y3048000D01*
X58908000Y3048000D01*
X58908000Y3302000D01*
X58928000Y3302000D01*
X58928000Y4651250D01*
X58769250Y4810000D01*
X58205000Y4813072D01*
X58080518Y4800812D01*
X57960820Y4764502D01*
X57912000Y4738407D01*
X57912000Y40101306D01*
X57954502Y40180820D01*
X57978966Y40261466D01*
X58054731Y40177412D01*
X58288080Y40003359D01*
X58550901Y39878175D01*
X58698110Y39833524D01*
X58928000Y39954845D01*
X58928000Y41148000D01*
X59182000Y41148000D01*
X59182000Y39954845D01*
X59411890Y39833524D01*
X59559099Y39878175D01*
X59821920Y40003359D01*
X60055269Y40177412D01*
X60250178Y40393645D01*
X60399157Y40643748D01*
X60496481Y40918109D01*
X60375814Y41148000D01*
X59182000Y41148000D01*
X58928000Y41148000D01*
X58908000Y41148000D01*
X58908000Y41402000D01*
X58928000Y41402000D01*
X58928000Y41422000D01*
X59182000Y41422000D01*
X59182000Y41402000D01*
X60375814Y41402000D01*
X60496481Y41631891D01*
X60399157Y41906252D01*
X60250178Y42156355D01*
X60055269Y42372588D01*
X59994386Y42418000D01*
X60833000Y42418000D01*
X60833000Y6398789D01*
G37*
G04 #@! TD.AperFunction*
G04 #@! TD*
M02*
